<?xml version="1.0" encoding="UTF-8" standalone="no"?>
<!DOCTYPE svg PUBLIC "-//W3C//DTD SVG 1.1//EN" "http://www.w3.org/Graphics/SVG/1.1/DTD/svg11.dtd">
<svg version="1.1" xmlns="http://www.w3.org/2000/svg" xmlns:xlink="http://www.w3.org/1999/xlink" preserveAspectRatio="xMidYMid meet" viewBox="0 0 640 640" width="640" height="640"><defs><path d="M480.68 112.2C481.77 113.19 484.52 115.65 488.92 119.6C486.27 124.37 484.61 127.35 483.95 128.54C447.05 194.94 359.11 211.89 300.18 163.95C299.07 163.05 296.31 160.8 291.88 157.2C295.42 150.51 297.63 146.33 298.52 144.66C334.23 77.18 423.85 61.21 480.68 112.2Z" id="b1wm8LyK1n"></path><path d="M480.68 112.2C481.77 113.19 484.52 115.65 488.92 119.6C486.27 124.37 484.61 127.35 483.95 128.54C447.05 194.94 359.11 211.89 300.18 163.95C299.07 163.05 296.31 160.8 291.88 157.2C295.42 150.51 297.63 146.33 298.52 144.66C334.23 77.18 423.85 61.21 480.68 112.2Z" id="a1TeYU0cv6"></path><path d="M417.98 197.01C421.67 193.65 451.2 166.81 454.89 163.45C458.2 160.81 461.26 158.03 464.07 155.1C466.89 152.18 469.58 149.18 472.15 146.09C449.76 138.98 428.53 135.21 408.46 134.81C388.39 134.4 369.35 137.29 351.35 143.48C349.01 141.88 337.29 133.88 316.2 119.48C308.69 128.5 304.52 133.52 303.69 134.52C302.6 157.78 313.53 175.83 336.47 188.65C359.41 201.47 386.58 204.26 417.98 197.01Z" id="b22tw0D20c"></path><path d="M370.7 574.01C408.65 566.55 451.41 539.01 498.99 491.38C535.18 455.15 556.21 408.43 562.08 351.2C565.29 319.86 561.8 288.19 551.83 258.31C546.47 242.24 554.85 267.38 551.83 258.31C535.21 208.49 493.61 171.09 442.32 159.84C435.48 158.34 421.32 157.73 399.83 158C302.79 159.26 279.67 225.17 256.33 268.22C233 311.26 232.78 349.84 241.62 421.29C247.51 468.92 290.54 519.83 370.7 574.01Z" id="g9L5CJ8xs"></path><path d="M370.7 574.01C408.65 566.55 451.41 539.01 498.99 491.38C535.18 455.15 556.21 408.43 562.08 351.2C565.29 319.86 561.8 288.19 551.83 258.31C546.47 242.24 554.85 267.38 551.83 258.31C535.21 208.49 493.61 171.09 442.32 159.84C435.48 158.34 421.32 157.73 399.83 158C302.79 159.26 279.67 225.17 256.33 268.22C233 311.26 232.78 349.84 241.62 421.29C247.51 468.92 290.54 519.83 370.7 574.01Z" id="d4pa0FPxkY"></path><path d="M317.12 270.86C292.08 217.6 288.73 166.37 309.64 156.54C330.55 146.71 367.86 181.96 392.91 235.23C417.95 288.49 421.3 339.71 400.39 349.54C379.47 359.37 342.17 324.12 317.12 270.86Z" id="b5grzjToc0"></path><path d="M317.12 270.86C292.08 217.6 288.73 166.37 309.64 156.54C330.55 146.71 367.86 181.96 392.91 235.23C417.95 288.49 421.3 339.71 400.39 349.54C379.47 359.37 342.17 324.12 317.12 270.86Z" id="c3ZV2j1doW"></path><path d="M307.97 200.08C244.83 255.44 146.81 239.01 105.18 166.09C103.83 163.73 100.45 157.82 95.05 148.36C101.96 141.05 106.28 136.47 108.01 134.64C165.97 73.25 264.23 75.18 319.74 138.79C324.78 144.57 318.83 137.75 344.5 167.16C344.74 167.44 344.71 167.87 344.44 168.11C312.7 195.93 315.36 193.6 307.97 200.08Z" id="a6Y7T2D9C"></path><path d="M307.97 200.08C244.83 255.44 146.81 239.01 105.18 166.09C103.83 163.73 100.45 157.82 95.05 148.36C101.96 141.05 106.28 136.47 108.01 134.64C165.97 73.25 264.23 75.18 319.74 138.79C324.78 144.57 318.83 137.75 344.5 167.16C344.74 167.44 344.71 167.87 344.44 168.11C312.7 195.93 315.36 193.6 307.97 200.08Z" id="bnHAikrCg"></path><path d="M145.73 210.12C157.38 208.62 215.61 201.15 320.44 187.69L325.54 184.73C337.01 174.67 343.39 169.09 344.66 167.97C343.12 166.24 341.75 164.92 340.55 164.01C267.1 108.12 190.8 112.24 111.65 176.37C116.25 182.88 121.37 188.96 127 194.62C132.64 200.28 138.88 205.44 145.73 210.12Z" id="cgbRGe5sp"></path><path d="M382.11 551.1C380.59 554.16 376.78 561.81 370.69 574.06C279.97 565.56 212.51 537.49 168.31 489.86C102.01 418.42 93.73 341.59 100.59 289.25C102.62 273.78 106.98 260.08 113.68 248.15C130.72 217.8 156.87 193.58 188.44 178.91C204.42 171.49 224.97 167.26 250.1 166.21C320.25 163.3 349.79 192.44 393.73 266.7C408.58 291.81 417.27 324.68 419.79 365.29C423.76 429.46 410.77 493.55 382.11 551.1Z" id="e6JjeHZcd2"></path><path d="M382.11 551.1C380.59 554.16 376.78 561.81 370.69 574.06C279.97 565.56 212.51 537.49 168.31 489.86C102.01 418.42 93.73 341.59 100.59 289.25C102.62 273.78 106.98 260.08 113.68 248.15C130.72 217.8 156.87 193.58 188.44 178.91C204.42 171.49 224.97 167.26 250.1 166.21C320.25 163.3 349.79 192.44 393.73 266.7C408.58 291.81 417.27 324.68 419.79 365.29C423.76 429.46 410.77 493.55 382.11 551.1Z" id="b8dcD5Rgs"></path><path d="M555.06 226.37C566.07 231.2 571.08 244.06 566.25 255.07C561.41 266.07 548.56 271.08 537.55 266.25C530.22 263.03 519.54 250.41 505.52 228.41C531.21 223.83 547.73 223.15 555.06 226.37Z" id="e1Kxqq9lb"></path><path d="M227.01 305.96C218.14 314.07 204.36 313.46 196.25 304.59C188.13 295.72 188.75 281.94 197.62 273.83C203.53 268.42 219.38 263.75 245.18 259.83C238.98 285.18 232.92 300.56 227.01 305.96Z" id="bsIGR2Dkb"></path><path d="M466.08 305.04C469.53 335.61 433.78 320.5 392.38 325.17C350.97 329.85 319.49 352.55 316.04 321.98C312.58 291.41 343.4 262.8 384.81 258.13C426.21 253.45 462.63 274.47 466.08 305.04Z" id="aZpFeOL8Q"></path><path d="M526.56 171.78C538.43 169.86 549.62 177.93 551.54 189.79C553.46 201.66 545.39 212.85 533.53 214.77C525.62 216.05 509.8 211.26 486.08 200.4C505.16 182.6 518.65 173.06 526.56 171.78Z" id="e7ekiHy6n9"></path><path d="M490.06 263.79C495.83 269.53 505.17 269.52 510.92 263.76C516.67 258 516.66 248.66 510.9 242.91C507.06 239.07 496.47 235.45 479.13 232.04C482.58 249.37 486.22 259.95 490.06 263.79Z" id="b2if8XmJMI"></path><path d="M271.68 300.54C268.85 308.18 260.36 312.09 252.73 309.26C245.1 306.44 241.19 297.95 244.01 290.32C245.89 285.23 253.99 277.5 268.31 267.14C272.44 284.32 273.56 295.45 271.68 300.54Z" id="a1zhoT29p4"></path><path d="M205.69 259.42C193.9 261.74 182.44 254.06 180.11 242.26C177.79 230.47 185.48 219.01 197.27 216.69C205.13 215.14 221.1 219.39 245.18 229.45C226.71 247.88 213.55 257.87 205.69 259.42Z" id="c5qasv3fEl"></path><path d="M403.01 257.71L405.94 257.96L407.52 258.14L406.19 258.68L404.51 259.43L402.9 260.23L401.34 261.07L399.84 261.95L398.41 262.89L397.03 263.86L395.71 264.89L394.44 265.95L393.24 267.07L392.09 268.23L391.01 269.43L389.98 270.68L389.01 271.98L388.1 273.32L387.25 274.7L386.46 276.14L385.72 277.61L385.05 279.14L384.43 280.7L383.87 282.32L383.38 283.98L382.94 285.68L382.55 287.43L382.23 289.23L381.97 291.07L381.76 292.95L381.61 294.89L381.53 296.86L381.5 298.89L381.52 300.93L381.58 302.99L381.69 305.06L381.84 307.14L382.03 309.22L382.26 311.31L382.54 313.41L382.86 315.52L383.22 317.64L383.63 319.77L384.07 321.9L384.56 324.04L385.1 326.2L385.1 326.2L383.23 326.51L380.27 327.06L377.35 327.64L374.47 328.26L371.65 328.91L368.87 329.58L366.14 330.26L363.46 330.96L360.84 331.65L358.28 332.33L355.77 333.01L353.32 333.66L350.93 334.29L348.61 334.88L346.35 335.44L344.15 335.95L342.03 336.41L339.97 336.8L337.99 337.13L336.07 337.39L334.23 337.57L332.47 337.67L330.79 337.67L329.18 337.57L327.66 337.36L326.22 337.04L324.86 336.61L323.6 336.04L322.42 335.35L321.32 334.51L320.32 333.53L319.42 332.39L318.61 331.1L317.89 329.63L317.28 328L316.76 326.19L316.35 324.19L316.04 321.99L315.84 319.7L315.77 317.42L315.83 315.16L316 312.9L316.3 310.66L316.72 308.44L317.24 306.24L317.89 304.06L318.64 301.91L319.5 299.78L320.47 297.67L321.54 295.6L322.72 293.56L323.99 291.56L325.36 289.59L326.83 287.66L328.39 285.77L330.04 283.92L331.77 282.11L333.6 280.35L335.51 278.65L337.5 276.99L339.57 275.38L341.72 273.83L343.94 272.34L346.24 270.9L348.6 269.53L351.04 268.21L353.54 266.97L356.11 265.79L358.74 264.68L361.42 263.64L364.17 262.67L366.97 261.78L369.82 260.97L372.73 260.24L375.68 259.58L378.68 259.02L381.72 258.53L384.81 258.14L387.9 257.84L390.98 257.63L394.03 257.51L397.05 257.49L400.05 257.56L403.01 257.71Z" id="bkJ0JVaKe"></path><path d="M381.87 297.62L384.73 297.68L387.56 297.76L390.35 297.86L393.1 297.98L395.81 298.13L398.47 298.3L401.09 298.5L403.66 298.72L406.18 298.97L408.65 299.24L411.06 299.54L413.42 299.86L415.72 300.21L417.95 300.59L420.12 300.99L422.22 301.43L424.26 301.89L426.22 302.38L428.11 302.9L429.92 303.45L431.66 304.02L433.31 304.63L434.89 305.27L436.37 305.93L437.77 306.63L439.09 307.36L440.31 308.13L441.43 308.92L442.46 309.75L443.39 310.61L444.22 311.5L444.95 312.42L445.57 313.38L446.08 314.38L446.49 315.41L446.78 316.47L446.95 317.57L447.01 318.7L446.95 319.85L446.78 320.99L446.49 322.11L446.08 323.22L445.64 324.16L443.96 324.22L441.78 324.24L439.53 324.24L437.2 324.2L434.8 324.14L432.34 324.06L429.8 323.96L427.21 323.87L424.55 323.77L421.85 323.68L419.08 323.6L416.27 323.55L413.41 323.51L410.51 323.51L407.57 323.55L404.59 323.63L401.58 323.75L398.54 323.94L395.47 324.19L392.37 324.5L389.29 324.88L386.24 325.33L383.23 325.83L380.27 326.37L377.35 326.96L374.47 327.58L371.65 328.23L368.87 328.9L366.14 329.58L363.46 330.27L360.84 330.96L358.28 331.65L355.77 332.32L353.32 332.98L350.93 333.6L348.61 334.2L346.35 334.75L344.15 335.26L342.03 335.72L339.97 336.12L337.99 336.45L336.07 336.71L334.23 336.89L332.47 336.98L330.79 336.98L329.18 336.88L327.66 336.68L326.22 336.36L324.86 335.92L323.6 335.36L322.42 334.66L321.32 333.83L320.32 332.84L319.42 331.71L318.61 330.41L317.89 328.95L317.28 327.32L316.76 325.5L316.35 323.5L316.04 321.31L315.84 319.02L315.77 316.74L315.83 314.47L316 312.22L316.3 309.98L316.72 307.76L317.24 305.56L317.35 305.22L318.79 304.63L320.45 304.02L322.18 303.45L324 302.9L325.89 302.38L327.85 301.89L329.89 301.43L331.99 300.99L334.16 300.59L336.39 300.21L338.69 299.86L341.04 299.54L343.46 299.24L345.92 298.97L348.44 298.72L351.02 298.5L353.64 298.3L356.3 298.13L359.01 297.98L361.76 297.86L364.55 297.76L367.38 297.68L370.24 297.62L373.13 297.59L376.05 297.58L378.98 297.59L381.87 297.62Z" id="b6rL5DGoYZ"></path><path d="M341.03 224.61L341.33 224.69L341.63 224.78L341.92 224.89L342.21 225L342.49 225.13L342.77 225.26L343.04 225.41L343.3 225.57L343.56 225.73L343.81 225.91L344.05 226.09L344.29 226.29L344.51 226.49L344.73 226.7L344.94 226.92L345.15 227.15L345.34 227.38L345.52 227.62L345.7 227.87L345.87 228.13L346.02 228.39L346.17 228.66L346.31 228.94L346.38 229.1L346.54 229.26L346.77 229.52L346.99 229.79L347.21 230.07L347.41 230.35L347.61 230.65L347.79 230.95L347.95 231.24L348.1 231.52L348.23 231.81L348.34 232.11L348.44 232.4L348.53 232.7L348.61 233L348.67 233.3L348.71 233.6L348.75 233.9L348.77 234.2L348.78 234.51L348.77 234.81L348.75 235.11L348.72 235.4L348.68 235.7L348.63 235.99L348.56 236.28L348.48 236.57L348.39 236.85L348.28 237.13L348.17 237.41L348.04 237.68L347.91 237.94L347.76 238.2L347.6 238.46L347.43 238.7L347.25 238.94L347.06 239.17L346.85 239.4L346.64 239.62L346.42 239.82L346.19 240.02L345.94 240.21L345.69 240.39L345.43 240.56L345.16 240.72L344.88 240.87L344.59 241.01L344.29 241.14L266.05 271.94L265.71 272.06L265.38 272.17L265.04 272.27L264.7 272.36L264.36 272.43L264.02 272.49L263.68 272.54L263.33 272.58L262.99 272.6L262.65 272.61L262.31 272.61L261.97 272.6L261.63 272.57L261.3 272.54L260.96 272.49L260.63 272.43L260.3 272.36L259.97 272.28L259.65 272.19L259.33 272.08L259.01 271.97L258.7 271.84L258.39 271.7L258.09 271.56L257.79 271.4L257.5 271.23L257.21 271.05L256.93 270.86L256.65 270.66L256.39 270.45L256.12 270.23L255.87 270L255.62 269.76L255.38 269.52L255.15 269.26L254.93 268.99L254.71 268.71L254.51 268.43L254.31 268.13L254.13 267.83L253.97 267.54L253.82 267.26L253.69 266.97L253.58 266.67L253.48 266.38L253.39 266.08L253.31 265.78L253.25 265.48L253.21 265.18L253.17 264.88L253.15 264.58L253.14 264.28L253.15 263.97L253.17 263.68L253.2 263.38L253.24 263.08L253.29 262.79L253.36 262.5L253.44 262.21L253.53 261.93L253.63 261.65L253.75 261.37L253.88 261.1L254.01 260.84L254.16 260.58L254.32 260.32L254.49 260.08L254.67 259.84L254.86 259.61L255.07 259.38L255.28 259.16L255.5 258.96L255.73 258.76L255.98 258.57L256.23 258.39L256.49 258.22L256.76 258.06L257.04 257.91L257.33 257.77L257.63 257.64L301.85 240.24L251.03 240.24L250.7 240.23L250.38 240.21L250.06 240.18L249.74 240.14L249.43 240.08L249.12 240.01L248.82 239.93L248.52 239.83L248.23 239.73L247.94 239.62L247.66 239.49L247.38 239.35L247.11 239.21L246.85 239.05L246.59 238.88L246.34 238.71L246.1 238.52L245.86 238.33L245.64 238.13L245.42 237.92L245.21 237.7L245 237.47L244.81 237.23L244.62 236.99L244.45 236.74L244.28 236.49L244.13 236.22L243.98 235.95L243.84 235.68L243.72 235.39L243.6 235.11L243.5 234.81L243.41 234.52L243.33 234.21L243.26 233.91L243.2 233.59L243.15 233.28L243.12 232.96L243.1 232.63L243.09 232.31L243.1 231.98L243.12 231.66L243.15 231.34L243.2 231.02L243.26 230.71L243.33 230.4L243.41 230.1L243.5 229.8L243.6 229.51L243.72 229.22L243.84 228.94L243.98 228.66L244.13 228.39L244.28 228.13L244.45 227.87L244.62 227.62L244.81 227.38L245 227.15L245.21 226.92L245.42 226.7L245.64 226.49L245.86 226.29L246.1 226.09L246.34 225.91L246.59 225.73L246.85 225.57L247.11 225.41L247.38 225.26L247.66 225.13L247.94 225L248.23 224.89L248.52 224.78L248.82 224.69L249.12 224.61L249.43 224.54L249.74 224.48L250.06 224.44L250.38 224.4L250.7 224.38L251.03 224.38L339.12 224.38L339.45 224.38L339.77 224.4L340.09 224.44L340.41 224.48L340.72 224.54L340.72 224.54L341.03 224.61Z" id="a2Y98Tje"></path><path d="M490.85 187.08L491.13 187.13L491.41 187.19L491.69 187.27L491.97 187.35L492.24 187.44L492.51 187.55L492.78 187.66L493.04 187.79L493.29 187.92L493.54 188.06L493.78 188.22L494.02 188.38L494.25 188.55L494.48 188.73L494.7 188.92L494.91 189.12L495.11 189.32L495.31 189.54L495.5 189.76L495.68 189.99L495.85 190.23L496.02 190.48L496.17 190.74L496.31 191L496.45 191.27L496.57 191.55L496.69 191.83L496.79 192.12L496.88 192.42L496.96 192.71L497.03 193.01L497.08 193.31L497.12 193.6L497.15 193.9L497.17 194.2L497.18 194.49L497.17 194.79L497.15 195.08L497.12 195.37L497.08 195.66L497.03 195.94L496.97 196.22L496.9 196.5L496.81 196.78L496.72 197.05L496.62 197.32L496.5 197.59L496.38 197.85L496.25 198.1L496.1 198.35L495.95 198.59L495.79 198.83L495.62 199.06L495.43 199.29L495.24 199.51L495.05 199.72L494.84 199.92L494.62 200.12L494.4 200.31L494.17 200.49L493.93 200.66L493.68 200.83L493.43 200.98L493.16 201.12L492.89 201.26L492.62 201.38L492.33 201.5L492.04 201.6L443.4 217.77L490.82 219.44L491.13 219.46L491.43 219.49L491.73 219.54L492.02 219.59L492.3 219.67L492.58 219.75L492.86 219.84L493.13 219.95L493.39 220.07L493.64 220.19L493.89 220.33L494.13 220.48L494.36 220.64L494.59 220.81L494.81 220.99L495.02 221.18L495.22 221.37L495.41 221.58L495.59 221.79L495.77 222.01L495.93 222.23L496.09 222.47L496.23 222.71L496.37 222.95L496.49 223.21L496.6 223.46L496.71 223.73L496.8 223.99L496.88 224.27L496.94 224.54L497 224.82L497.04 225.11L497.07 225.39L497.09 225.68L497.09 225.97L497.09 226.27L497.06 226.56L497.03 226.86L496.98 227.16L496.91 227.46L496.82 227.8L496.73 228.13L496.62 228.45L496.5 228.77L496.37 229.08L496.23 229.39L496.08 229.69L495.92 229.98L495.75 230.27L495.57 230.55L495.38 230.82L495.19 231.09L494.98 231.35L494.77 231.6L494.55 231.84L494.32 232.08L494.09 232.3L493.84 232.52L493.59 232.74L493.33 232.94L493.07 233.13L492.8 233.32L492.52 233.49L492.24 233.66L491.95 233.82L491.66 233.96L491.36 234.1L491.05 234.23L490.74 234.35L490.43 234.45L490.11 234.55L489.79 234.64L489.46 234.71L489.14 234.77L488.8 234.83L488.47 234.87L488.13 234.9L487.79 234.92L487.44 234.92L487.1 234.92L403.12 231.95L402.81 231.93L402.51 231.9L402.22 231.85L401.93 231.79L401.64 231.72L401.36 231.64L401.08 231.55L400.82 231.44L400.55 231.32L400.3 231.19L400.05 231.05L399.81 230.91L399.58 230.75L399.35 230.58L399.13 230.4L398.92 230.21L398.72 230.02L398.53 229.81L398.35 229.6L398.17 229.38L398.01 229.15L397.85 228.92L397.71 228.68L397.57 228.44L397.45 228.18L397.34 227.93L397.24 227.66L397.14 227.4L397.07 227.12L397 226.85L396.94 226.57L396.9 226.28L396.87 226L396.85 225.71L396.85 225.41L396.86 225.12L396.88 224.82L396.91 224.53L396.97 224.23L397.03 223.93L397.12 223.59L397.22 223.26L397.32 222.94L397.44 222.62L397.57 222.31L397.71 222L397.79 221.86L397.8 221.67L397.84 221.38L397.89 221.09L397.96 220.81L398.03 220.53L398.11 220.25L398.21 219.98L398.31 219.71L398.42 219.45L398.55 219.19L398.68 218.93L398.83 218.68L398.98 218.44L399.14 218.2L399.31 217.97L399.49 217.74L399.68 217.53L399.88 217.31L400.09 217.11L400.3 216.91L400.53 216.72L400.76 216.54L401 216.37L401.24 216.21L401.5 216.05L401.76 215.91L402.03 215.77L402.31 215.65L402.59 215.54L402.89 215.43L487.31 187.37L487.61 187.28L487.9 187.2L488.2 187.14L488.5 187.08L488.79 187.04L489.09 187.01L489.39 186.99L489.68 186.99L489.98 186.99L490.27 187.01L490.56 187.04L490.56 187.04L490.85 187.08Z" id="a4uwMt3sGT"></path></defs><g><g><g><use xlink:href="#b1wm8LyK1n" opacity="1" fill="#93b682" fill-opacity="1"></use><g><use xlink:href="#b1wm8LyK1n" opacity="1" fill-opacity="0" stroke="#000000" stroke-width="1" stroke-opacity="0"></use></g></g><g><use xlink:href="#a1TeYU0cv6" opacity="1" fill="#000000" fill-opacity="0"></use><g><use xlink:href="#a1TeYU0cv6" opacity="1" fill-opacity="0" stroke="#000000" stroke-width="1" stroke-opacity="0"></use></g></g><g><use xlink:href="#b22tw0D20c" opacity="1" fill="#25321f" fill-opacity="0.27"></use><g><use xlink:href="#b22tw0D20c" opacity="1" fill-opacity="0" stroke="#000000" stroke-width="1" stroke-opacity="0"></use></g></g><g><use xlink:href="#g9L5CJ8xs" opacity="1" fill="#ff9386" fill-opacity="1"></use><g><use xlink:href="#g9L5CJ8xs" opacity="1" fill-opacity="0" stroke="#000000" stroke-width="1" stroke-opacity="0"></use></g></g><g><use xlink:href="#d4pa0FPxkY" opacity="1" fill="#000000" fill-opacity="0"></use><g><use xlink:href="#d4pa0FPxkY" opacity="1" fill-opacity="0" stroke="#000000" stroke-width="1" stroke-opacity="0"></use></g></g><g><use xlink:href="#b5grzjToc0" opacity="1" fill="#b8645a" fill-opacity="1"></use><g><use xlink:href="#b5grzjToc0" opacity="1" fill-opacity="0" stroke="#000000" stroke-width="1" stroke-opacity="0"></use></g></g><g><use xlink:href="#c3ZV2j1doW" opacity="1" fill="#000000" fill-opacity="0"></use><g><use xlink:href="#c3ZV2j1doW" opacity="1" fill-opacity="0" stroke="#000000" stroke-width="1" stroke-opacity="0"></use></g></g><g><use xlink:href="#a6Y7T2D9C" opacity="1" fill="#b0d69e" fill-opacity="1"></use><g><use xlink:href="#a6Y7T2D9C" opacity="1" fill-opacity="0" stroke="#000000" stroke-width="1" stroke-opacity="0"></use></g></g><g><use xlink:href="#bnHAikrCg" opacity="1" fill="#000000" fill-opacity="0"></use><g><use xlink:href="#bnHAikrCg" opacity="1" fill-opacity="0" stroke="#000000" stroke-width="1" stroke-opacity="0"></use></g></g><g><use xlink:href="#cgbRGe5sp" opacity="1" fill="#25321f" fill-opacity="0.27"></use><g><use xlink:href="#cgbRGe5sp" opacity="1" fill-opacity="0" stroke="#000000" stroke-width="1" stroke-opacity="0"></use></g></g><g><use xlink:href="#e6JjeHZcd2" opacity="1" fill="#ffa99c" fill-opacity="1"></use><g><use xlink:href="#e6JjeHZcd2" opacity="1" fill-opacity="0" stroke="#000000" stroke-width="1" stroke-opacity="0"></use></g></g><g><use xlink:href="#b8dcD5Rgs" opacity="1" fill="#000000" fill-opacity="0"></use><g><use xlink:href="#b8dcD5Rgs" opacity="1" fill-opacity="0" stroke="#000000" stroke-width="1" stroke-opacity="0"></use></g></g><path></path><g><use xlink:href="#e1Kxqq9lb" opacity="1" fill="#7bd6f7" fill-opacity="1"></use></g><g><use xlink:href="#bsIGR2Dkb" opacity="1" fill="#7bd6f7" fill-opacity="1"></use></g><g><use xlink:href="#aZpFeOL8Q" opacity="1" fill="#5f1b1b" fill-opacity="1"></use></g><g><use xlink:href="#e7ekiHy6n9" opacity="1" fill="#7bd6f7" fill-opacity="1"></use></g><g><use xlink:href="#b2if8XmJMI" opacity="1" fill="#7bd6f7" fill-opacity="1"></use></g><g><use xlink:href="#a1zhoT29p4" opacity="1" fill="#7bd6f7" fill-opacity="1"></use></g><g><use xlink:href="#c5qasv3fEl" opacity="1" fill="#7bd6f7" fill-opacity="1"></use></g><g><use xlink:href="#bkJ0JVaKe" opacity="1" fill="#000000" fill-opacity="0.21"></use></g><g><use xlink:href="#b6rL5DGoYZ" opacity="1" fill="#9a2828" fill-opacity="1"></use></g><g><use xlink:href="#a2Y98Tje" opacity="1" fill="#703838" fill-opacity="1"></use></g><g><use xlink:href="#a4uwMt3sGT" opacity="1" fill="#703838" fill-opacity="1"></use></g></g></g></svg>