<?xml version="1.0" encoding="UTF-8" standalone="no"?>
<!DOCTYPE svg PUBLIC "-//W3C//DTD SVG 1.1//EN" "http://www.w3.org/Graphics/SVG/1.1/DTD/svg11.dtd">
<svg version="1.1" xmlns="http://www.w3.org/2000/svg" xmlns:xlink="http://www.w3.org/1999/xlink" preserveAspectRatio="xMidYMid meet" viewBox="0 0 640 640" width="640" height="640"><defs><path d="M203.85 397.37L177.08 386.35L111.25 546.27L138.01 557.29L203.85 397.37Z" id="n2xBMQpuwx"></path><path d="M204.63 395.7L177.87 384.68L112.03 544.61L138.79 555.63L204.63 395.7Z" id="a53GCauGBB"></path><path d="M343.87 189.85L357.07 221.52L546.29 142.66L533.1 111L343.87 189.85Z" id="b1tweiwuj8"></path><path d="M331.18 569.34C463.28 569.34 570.52 462.1 570.52 330C570.52 197.9 463.28 90.66 331.18 90.66C199.08 90.66 91.84 197.9 91.84 330C91.84 462.1 199.08 569.34 331.18 569.34Z" id="aMWgsfGH5"></path><path d="M347.71 128.97L355.84 129.8L363.88 130.95L371.81 132.4L379.63 134.17L387.33 136.23L394.9 138.59L402.35 141.24L409.66 144.16L416.82 147.36L423.84 150.83L430.7 154.56L437.39 158.54L443.92 162.77L450.27 167.24L456.43 171.95L462.41 176.88L468.19 182.04L473.77 187.41L479.14 192.99L484.3 198.77L489.23 204.75L493.94 210.91L498.41 217.26L502.64 223.79L506.62 230.48L510.35 237.34L513.82 244.36L517.02 251.52L519.94 258.83L522.59 266.28L524.95 273.85L527.01 281.55L528.78 289.37L530.23 297.3L531.38 305.34L532.21 313.47L532.71 321.69L532.88 330L532.71 338.31L532.21 346.53L531.38 354.66L530.23 362.7L528.78 370.63L527.01 378.45L524.95 386.15L522.59 393.72L519.94 401.17L517.02 408.48L513.82 415.64L510.35 422.66L506.62 429.52L502.64 436.21L498.41 442.74L493.94 449.09L489.23 455.25L484.3 461.23L479.14 467.01L473.77 472.59L468.19 477.96L462.41 483.12L456.43 488.05L450.27 492.76L443.92 497.23L437.39 501.46L430.7 505.44L423.84 509.17L416.82 512.64L409.66 515.84L402.35 518.76L394.9 521.41L387.33 523.77L379.63 525.83L371.81 527.6L363.88 529.05L355.84 530.2L347.71 531.03L339.49 531.53L331.18 531.7L322.87 531.53L314.65 531.03L306.52 530.2L298.48 529.05L290.55 527.6L282.73 525.83L275.03 523.77L267.46 521.41L260.01 518.76L252.7 515.84L245.54 512.64L238.52 509.17L231.66 505.44L224.97 501.46L218.44 497.23L212.09 492.76L205.93 488.05L199.95 483.12L194.17 477.96L188.59 472.59L183.22 467.01L178.06 461.23L173.13 455.25L168.42 449.09L163.95 442.74L159.72 436.21L155.74 429.52L152.01 422.66L148.54 415.64L145.34 408.48L142.42 401.17L139.77 393.72L137.41 386.15L135.35 378.45L133.58 370.63L132.13 362.7L130.98 354.66L130.15 346.53L129.65 338.31L129.48 330L129.65 321.69L130.15 313.47L130.98 305.34L132.13 297.3L133.58 289.37L135.35 281.55L137.41 273.85L139.77 266.28L142.42 258.83L145.34 251.52L148.54 244.36L152.01 237.34L155.74 230.48L159.72 223.79L163.95 217.26L168.42 210.91L173.13 204.75L178.06 198.77L183.22 192.99L188.59 187.41L194.17 182.04L199.95 176.88L205.93 171.95L212.09 167.24L218.44 162.77L224.97 158.54L231.66 154.56L238.52 150.83L245.54 147.36L252.7 144.16L260.01 141.24L267.46 138.59L275.03 136.23L282.73 134.17L290.55 132.4L298.48 130.95L306.52 129.8L314.65 128.97L322.87 128.47L331.18 128.3L339.49 128.47L347.71 128.97ZM316.28 148.8L308.95 149.54L301.71 150.58L294.56 151.89L287.51 153.48L280.57 155.34L273.74 157.47L267.03 159.86L260.44 162.49L253.98 165.38L247.66 168.5L241.48 171.86L235.44 175.45L229.56 179.26L223.84 183.29L218.28 187.53L212.89 191.98L207.68 196.63L202.65 201.47L197.81 206.5L193.16 211.71L188.71 217.1L184.47 222.66L180.44 228.38L176.63 234.26L173.04 240.3L169.68 246.48L166.56 252.8L163.67 259.26L161.04 265.85L158.65 272.56L156.52 279.39L154.66 286.33L153.07 293.38L151.76 300.53L150.72 307.77L149.98 315.1L149.53 322.51L149.38 330L149.53 337.49L149.98 344.9L150.72 352.23L151.76 359.47L153.07 366.62L154.66 373.67L156.52 380.61L158.65 387.44L161.04 394.15L163.67 400.74L166.56 407.2L169.68 413.52L173.04 419.7L176.63 425.74L180.44 431.62L184.47 437.34L188.71 442.9L193.16 448.29L197.81 453.5L202.65 458.53L207.68 463.37L212.89 468.02L218.28 472.47L223.84 476.71L229.56 480.74L235.44 484.55L241.48 488.14L247.66 491.5L253.98 494.62L260.44 497.51L267.03 500.14L273.74 502.53L280.57 504.66L287.51 506.52L294.56 508.11L301.71 509.42L308.95 510.46L316.28 511.2L323.69 511.65L331.18 511.8L338.67 511.65L346.08 511.2L353.41 510.46L360.65 509.42L367.8 508.11L374.85 506.52L381.79 504.66L388.62 502.53L395.33 500.14L401.92 497.51L408.38 494.62L414.7 491.5L420.88 488.14L426.92 484.55L432.8 480.74L438.52 476.71L444.08 472.47L449.47 468.02L454.68 463.37L459.71 458.53L464.55 453.5L469.2 448.29L473.65 442.9L477.89 437.34L481.92 431.62L485.73 425.74L489.32 419.7L492.68 413.52L495.8 407.2L498.69 400.74L501.32 394.15L503.71 387.44L505.84 380.61L507.7 373.67L509.29 366.62L510.6 359.47L511.64 352.23L512.38 344.9L512.83 337.49L512.98 330L512.83 322.51L512.38 315.1L511.64 307.77L510.6 300.53L509.29 293.38L507.7 286.33L505.84 279.39L503.71 272.56L501.32 265.85L498.69 259.26L495.8 252.8L492.68 246.48L489.32 240.3L485.73 234.26L481.92 228.38L477.89 222.66L473.65 217.1L469.2 211.71L464.55 206.5L459.71 201.47L454.68 196.63L449.47 191.98L444.08 187.53L438.52 183.29L432.8 179.26L426.92 175.45L420.88 171.86L414.7 168.5L408.38 165.38L401.92 162.49L395.33 159.86L388.62 157.47L381.79 155.34L374.85 153.48L367.8 151.89L360.65 150.58L353.41 149.54L346.08 148.8L338.67 148.35L331.18 148.2L323.69 148.35L316.28 148.8Z" id="a1eeqnuxeF"></path><path d="M331.18 449.47C397.12 449.47 450.65 395.94 450.65 330C450.65 264.06 397.12 210.53 331.18 210.53C265.24 210.53 211.71 264.06 211.71 330C211.71 395.94 265.24 449.47 331.18 449.47Z" id="aJqO5z1EX"></path><path d="M331.18 417.11C379.26 417.11 418.29 378.08 418.29 330C418.29 281.92 379.26 242.89 331.18 242.89C283.1 242.89 244.07 281.92 244.07 330C244.07 378.08 283.1 417.11 331.18 417.11Z" id="cvmJ6saFm"></path><path d="M331.18 391.42C365.08 391.42 392.6 363.9 392.6 330C392.6 296.1 365.08 268.58 331.18 268.58C297.28 268.58 269.76 296.1 269.76 330C269.76 363.9 297.28 391.42 331.18 391.42Z" id="f7RQdvTmL"></path><path d="M331.18 357.26C346.23 357.26 358.44 345.05 358.44 330C358.44 314.95 346.23 302.74 331.18 302.74C316.13 302.74 303.92 314.95 303.92 330C303.92 345.05 316.13 357.26 331.18 357.26Z" id="e1QJ5KGB9x"></path><path d="M138.07 189.2L132.94 196.36L128.07 203.75L123.46 211.32L119.13 219.1L115.09 227.06L111.33 235.19L107.88 243.49L104.74 251.96L101.91 260.58L99.39 269.34L97.21 278.25L95.36 287.29L93.85 296.45L92.69 305.72L91.89 315.11L91.46 324.6L91.39 334.18L91.7 343.75L92.37 353.22L93.41 362.59L94.8 371.83L96.53 380.95L98.61 389.94L101.02 398.79L103.75 407.49L106.8 416.03L110.15 424.42L113.81 432.63L117.76 440.66L122 448.52L126.53 456.18L131.33 463.64L136.38 470.9L141.7 477.94L147.27 484.77L153.09 491.36L159.13 497.71L165.41 503.82L171.91 509.69L178.63 515.29L185.54 520.63L192.67 525.69L199.98 530.48L207.48 534.98L215.16 539.18L223 543.08L231.01 546.66L239.18 549.93L247.49 552.88L255.94 555.49L264.53 557.76L273.24 559.69L282.08 561.26L291.02 562.47L300.07 563.31L309.22 563.77L318.45 563.85L327.68 563.54L336.82 562.85L345.84 561.78L354.75 560.35L363.54 558.56L372.21 556.41L380.74 553.92L389.12 551.1L397.35 547.95L405.44 544.47L413.36 540.69L421.1 536.59L428.67 532.2L436.05 527.51L443.24 522.55L450.24 517.31L457.02 511.8L463.59 506.03L469.94 500L474.57 495.26L152.67 171.56L149.12 175.49L149.12 175.49L143.48 182.23L138.07 189.2Z" id="dGdnyaFaU"></path><path d="M111.25 545.8L607.99 1027.68L1029.78 592.88L533.04 111L111.25 545.8Z" id="d2VbWX0hQE"></path><path d="M191.05 547.14L604.22 947.95L949.98 591.53L536.81 190.73L191.05 547.14Z" id="cm0OYBAGP"></path><path d="M495.35 455.02C442.34 436.44 385.99 472.62 380.8 528.55C380.71 529.63 380.45 532.33 380.05 536.66C383.87 537.91 386.25 538.69 387.2 539C440.31 556.4 496.25 521.59 504.09 466.26C504.24 465.22 504.61 462.62 505.2 458.47C499.94 456.62 496.66 455.47 495.35 455.02Z" id="aJpnKWypI"></path><path d="M664.33 575.88C684.96 604.54 687.18 653.52 671 722.83C646.79 737.78 609.94 744.29 560.45 742.36C522.81 740.9 488.1 726.19 456.33 698.24C438.93 682.92 424.99 664.09 415.43 642.98C410.29 631.62 418.33 649.38 415.43 642.98C399.5 607.78 403.26 566.8 425.32 535.09C428.26 530.86 435.6 523.45 447.33 512.86C500.34 465.03 545.76 489.05 579.88 500.62C613.98 512.19 633.39 532.9 664.33 575.88Z" id="fkbIELBw"></path><path d="M542.77 616.52C558.98 611.37 561.49 573.7 548.39 532.43C535.28 491.17 511.48 461.84 495.28 466.99C479.08 472.13 476.56 509.81 489.67 551.08C502.78 592.34 526.57 621.66 542.77 616.52Z" id="dSx4l9iA"></path><path d="M482.28 490.63C513.32 489.78 510.72 489.85 517.95 489.65C579.7 487.97 624.39 430.11 610.41 369.94C609.96 367.99 608.83 363.11 607.02 355.31C599.63 354.82 595.01 354.5 593.16 354.38C531.19 350.22 479.12 400.37 480.96 462.45C481.13 468.09 480.93 461.44 481.77 490.14C481.78 490.41 482.02 490.63 482.28 490.63Z" id="a3pvy3x"></path><path d="M540.17 634.72C570.11 671.34 609.15 699.44 653.39 716.17C655.74 717.06 661.62 719.29 671.03 722.86C715.75 672.92 738.13 624.05 738.17 576.25C738.25 504.55 704.32 458.94 674.45 434.12C665.62 426.79 656.42 421.57 646.84 418.48C622.47 410.62 596.25 410.62 571.88 418.48C559.55 422.46 546.34 430.45 532.25 442.44C492.93 475.94 491.56 506.43 504.96 568.48C509.49 589.45 521.23 611.54 540.17 634.72Z" id="bv0X86bRh"></path><path d="M818.05 811.84L321.34 330L111.25 546.58L607.95 1028.42L818.05 811.84Z" id="b4tgdvj47Q"></path></defs><g><g><g><use xlink:href="#n2xBMQpuwx" opacity="1" fill="#767676" fill-opacity="1"></use><g><use xlink:href="#n2xBMQpuwx" opacity="1" fill-opacity="0" stroke="#000000" stroke-width="1" stroke-opacity="0"></use></g></g><g><use xlink:href="#a53GCauGBB" opacity="1" fill="#000000" fill-opacity="0.13"></use><g><use xlink:href="#a53GCauGBB" opacity="1" fill-opacity="0" stroke="#000000" stroke-width="1" stroke-opacity="0"></use></g></g><g><use xlink:href="#b1tweiwuj8" opacity="1" fill="#767676" fill-opacity="1"></use><g><use xlink:href="#b1tweiwuj8" opacity="1" fill-opacity="0" stroke="#000000" stroke-width="1" stroke-opacity="0"></use></g></g><g><use xlink:href="#aMWgsfGH5" opacity="1" fill="#263238" fill-opacity="1"></use><g><use xlink:href="#aMWgsfGH5" opacity="1" fill-opacity="0" stroke="#000000" stroke-width="1" stroke-opacity="0"></use></g></g><g><use xlink:href="#a1eeqnuxeF" opacity="1" fill="#455a64" fill-opacity="1"></use><g><use xlink:href="#a1eeqnuxeF" opacity="1" fill-opacity="0" stroke="#000000" stroke-width="1" stroke-opacity="0"></use></g></g><g><use xlink:href="#aJqO5z1EX" opacity="1" fill="#455a64" fill-opacity="1"></use><g><use xlink:href="#aJqO5z1EX" opacity="1" fill-opacity="0" stroke="#000000" stroke-width="1" stroke-opacity="0"></use></g></g><g><use xlink:href="#cvmJ6saFm" opacity="1" fill="#b0d69e" fill-opacity="1"></use><g><use xlink:href="#cvmJ6saFm" opacity="1" fill-opacity="0" stroke="#000000" stroke-width="1" stroke-opacity="0"></use></g></g><g><use xlink:href="#f7RQdvTmL" opacity="1" fill="#e57373" fill-opacity="1"></use><g><use xlink:href="#f7RQdvTmL" opacity="1" fill-opacity="0" stroke="#000000" stroke-width="1" stroke-opacity="0"></use></g></g><g><use xlink:href="#e1QJ5KGB9x" opacity="1" fill="#ffd740" fill-opacity="1"></use><g><use xlink:href="#e1QJ5KGB9x" opacity="1" fill-opacity="0" stroke="#000000" stroke-width="1" stroke-opacity="0"></use></g></g><g><use xlink:href="#dGdnyaFaU" opacity="1" fill="#000000" fill-opacity="0.13"></use><g><use xlink:href="#dGdnyaFaU" opacity="1" fill-opacity="0" stroke="#000000" stroke-width="1" stroke-opacity="0"></use></g></g><g><use xlink:href="#d2VbWX0hQE" opacity="1" fill="#d3d3d3" fill-opacity="1"></use></g><g><use xlink:href="#cm0OYBAGP" opacity="1" fill="#ef9a9a" fill-opacity="1"></use><g><use xlink:href="#cm0OYBAGP" opacity="1" fill-opacity="0" stroke="#000000" stroke-width="1" stroke-opacity="0"></use></g></g><g><use xlink:href="#aJpnKWypI" opacity="1" fill="#93b682" fill-opacity="1"></use><g><use xlink:href="#aJpnKWypI" opacity="1" fill-opacity="0" stroke="#000000" stroke-width="1" stroke-opacity="0"></use></g></g><g><use xlink:href="#fkbIELBw" opacity="1" fill="#ff9386" fill-opacity="1"></use><g><use xlink:href="#fkbIELBw" opacity="1" fill-opacity="0" stroke="#000000" stroke-width="1" stroke-opacity="0"></use></g></g><g><use xlink:href="#dSx4l9iA" opacity="1" fill="#b8645a" fill-opacity="1"></use><g><use xlink:href="#dSx4l9iA" opacity="1" fill-opacity="0" stroke="#000000" stroke-width="1" stroke-opacity="0"></use></g></g><g><use xlink:href="#a3pvy3x" opacity="1" fill="#b0d69e" fill-opacity="1"></use><g><use xlink:href="#a3pvy3x" opacity="1" fill-opacity="0" stroke="#000000" stroke-width="1" stroke-opacity="0"></use></g></g><g><use xlink:href="#bv0X86bRh" opacity="1" fill="#ffa99c" fill-opacity="1"></use><g><use xlink:href="#bv0X86bRh" opacity="1" fill-opacity="0" stroke="#000000" stroke-width="1" stroke-opacity="0"></use></g></g><g><use xlink:href="#b4tgdvj47Q" opacity="1" fill="#000000" fill-opacity="0.13"></use></g></g></g></svg>