<?xml version="1.0" encoding="UTF-8" standalone="no"?>
<!DOCTYPE svg PUBLIC "-//W3C//DTD SVG 1.1//EN" "http://www.w3.org/Graphics/SVG/1.1/DTD/svg11.dtd">
<svg version="1.1" xmlns="http://www.w3.org/2000/svg" xmlns:xlink="http://www.w3.org/1999/xlink" preserveAspectRatio="xMidYMid meet" viewBox="0 0 640 640" width="640" height="640"><defs><path d="M556.09 686.73C556.09 810.91 450.3 911.73 320 911.73C189.7 911.73 83.91 810.91 83.91 686.73C83.91 562.55 189.7 461.73 320 461.73C450.3 461.73 556.09 562.55 556.09 686.73Z" id="c3GKCt3Nqi"></path><path d="M316.39 604.53C327.68 581.78 356.01 576.39 373.97 593.58C374.31 593.92 375.18 594.75 376.57 596.08C375.74 597.69 375.21 598.69 375 599.09C363.34 621.48 335.54 627.2 316.91 611.03C316.56 610.73 315.69 609.97 314.29 608.76C315.41 606.5 316.11 605.09 316.39 604.53Z" id="a1ptFKGrk"></path><path d="M298.4 697.8C300.26 713.86 313.87 731.03 339.2 749.3C351.2 746.78 364.72 737.5 379.76 721.44C391.2 709.22 397.84 693.47 399.7 674.17C400.71 663.6 399.61 652.92 396.46 642.85C394.77 637.43 397.41 645.91 396.46 642.85C391.21 626.05 378.06 613.44 361.84 609.65C359.68 609.14 355.21 608.94 348.41 609.03C317.74 609.45 310.43 631.68 303.05 646.19C295.68 660.7 295.61 673.71 298.4 697.8Z" id="b2e5TaX85T"></path><path d="M347.23 673.61C340.62 676.93 328.83 665.04 320.91 647.08C312.99 629.12 311.93 611.85 318.54 608.53C325.15 605.22 336.95 617.11 344.86 635.07C352.78 653.03 353.84 670.3 347.23 673.61Z" id="c2eEEKHd3K"></path><path d="M330.9 612.44C320.87 621.82 321.71 621.03 319.38 623.22C299.42 641.88 268.43 636.34 255.27 611.75C254.85 610.96 253.78 608.97 252.07 605.78C254.26 603.31 255.62 601.77 256.17 601.15C274.49 580.45 305.55 581.1 323.1 602.55C324.69 604.5 322.81 602.2 330.92 612.12C331 612.21 330.99 612.35 330.9 612.44Z" id="a1OSWiYRkU"></path><path d="M354.72 678.9C355.98 700.54 351.87 722.15 342.81 741.56C342.33 742.59 341.13 745.17 339.2 749.3C310.53 746.43 289.2 736.97 275.23 720.91C254.27 696.82 251.65 670.91 253.82 653.27C254.47 648.05 255.84 643.43 257.96 639.41C263.35 629.17 271.61 621.01 281.59 616.06C286.64 613.56 293.14 612.13 301.08 611.78C323.26 610.8 332.6 620.62 346.48 645.66C351.18 654.13 353.93 665.21 354.72 678.9Z" id="a1MoCCEtG"></path><path d="M339.35 462.48L348.87 463.4L358.27 464.68L367.56 466.31L376.71 468.28L385.72 470.58L394.59 473.21L403.31 476.16L411.86 479.43L420.25 483L428.46 486.86L436.49 491.02L444.32 495.46L451.96 500.18L459.39 505.17L466.61 510.42L473.61 515.92L480.38 521.67L486.91 527.67L493.2 533.89L499.23 540.34L505.01 547.01L510.51 553.89L515.75 560.97L520.7 568.25L525.36 575.72L529.72 583.37L533.78 591.19L537.53 599.19L540.95 607.34L544.05 615.65L546.81 624.1L549.22 632.69L551.29 641.41L553 650.26L554.34 659.22L555.31 668.29L555.89 677.46L556.09 686.73L555.89 696L555.31 705.18L554.34 714.25L553 723.21L551.29 732.05L549.22 740.78L546.81 749.37L544.05 757.82L540.95 766.12L537.53 774.28L533.78 782.27L529.72 790.1L525.36 797.75L520.7 805.22L515.75 812.5L510.51 819.58L505.01 826.46L499.23 833.13L493.2 839.58L486.91 845.8L480.38 851.79L473.61 857.54L466.61 863.05L459.39 868.3L451.96 873.28L444.32 878L436.49 882.44L428.46 886.6L420.25 890.47L411.86 894.04L403.31 897.3L394.59 900.25L385.72 902.89L376.71 905.19L367.56 907.16L358.27 908.79L348.87 910.06L339.35 910.99L329.73 911.55L320 911.73L320 461.73L329.73 461.92L339.35 462.48Z" id="k1wnqwz06s"></path><path d="M391.67 483.84C391.67 520.05 362.28 549.44 326.07 549.44C289.86 549.44 260.46 520.05 260.46 483.84C260.46 447.63 289.86 418.23 326.07 418.23C362.28 418.23 391.67 447.63 391.67 483.84Z" id="cdwgy2epb"></path><path d="M380.28 469.21L380.24 471.45L380.1 473.66L379.88 475.84L379.57 478L379.18 480.13L378.7 482.23L378.15 484.3L377.52 486.34L376.8 488.34L376.02 490.31L375.16 492.23L374.23 494.12L373.22 495.96L372.15 497.76L371.02 499.51L369.82 501.22L368.55 502.88L367.22 504.48L365.84 506.04L364.39 507.54L362.9 508.98L361.34 510.37L359.73 511.69L358.08 512.96L356.37 514.16L354.62 515.3L352.82 516.37L350.97 517.37L349.09 518.3L347.16 519.16L345.2 519.95L343.2 520.66L341.16 521.29L339.09 521.85L336.99 522.32L334.86 522.71L332.7 523.02L330.51 523.24L328.3 523.38L326.07 523.42L323.84 523.38L321.63 523.24L319.44 523.02L317.28 522.71L315.15 522.32L313.05 521.85L310.98 521.29L308.94 520.66L306.94 519.95L304.98 519.16L303.05 518.3L301.16 517.37L299.32 516.37L297.52 515.3L295.77 514.16L294.06 512.96L292.4 511.69L290.8 510.37L289.24 508.98L287.74 507.54L286.3 506.04L284.91 504.48L283.59 502.88L282.32 501.22L281.12 499.51L279.98 497.76L278.91 495.96L277.91 494.12L276.98 492.23L276.12 490.31L275.33 488.34L274.62 486.34L273.99 484.3L273.43 482.23L272.96 480.13L272.57 478L272.26 475.84L272.04 473.66L271.9 471.45L271.86 469.21L271.86 360.79L380.28 360.79L380.28 469.21Z" id="h28E6lfhm"></path><path d="M380.24 471.45L380.1 473.66L379.88 475.84L379.57 478L379.18 480.13L378.7 482.23L378.15 484.3L377.52 486.34L376.8 488.34L376.02 490.31L375.16 492.23L374.23 494.12L373.22 495.96L372.15 497.76L371.02 499.51L369.82 501.22L368.55 502.88L367.22 504.49L365.84 506.04L364.39 507.54L362.9 508.98L361.34 510.37L359.73 511.69L358.08 512.96L356.37 514.16L354.62 515.3L352.82 516.37L350.97 517.37L349.09 518.3L347.16 519.16L345.2 519.95L343.2 520.66L341.16 521.29L339.09 521.85L336.99 522.32L334.86 522.71L332.7 523.02L330.51 523.24L328.3 523.38L326.08 523.42L271.86 432.97L271.86 432.97L380.28 401.6L380.28 469.21L380.24 471.45Z" id="a1MlPHo13n"></path><path d="M446.44 251.93L447.74 252.07L449.04 252.25L450.31 252.49L451.57 252.79L452.8 253.13L454.02 253.52L455.21 253.95L456.39 254.43L457.53 254.96L458.66 255.53L459.75 256.14L460.82 256.8L461.86 257.49L462.87 258.23L463.85 259L464.8 259.81L465.72 260.66L466.6 261.54L467.44 262.46L468.25 263.41L469.03 264.39L469.76 265.4L470.46 266.44L471.11 267.51L471.73 268.6L472.3 269.73L472.83 270.87L473.31 272.04L473.74 273.24L474.13 274.45L474.47 275.69L474.76 276.95L475 278.22L475.19 279.51L475.33 280.82L475.41 282.15L475.44 283.48L475.41 284.82L475.33 286.15L475.19 287.45L475 288.75L474.76 290.02L474.47 291.28L474.13 292.51L473.74 293.73L473.31 294.93L472.83 296.1L472.3 297.24L471.73 298.37L471.11 299.46L470.46 300.53L469.76 301.57L469.03 302.58L468.25 303.56L467.44 304.51L466.6 305.43L465.72 306.31L464.8 307.16L463.85 307.97L462.87 308.74L461.86 309.47L460.82 310.17L459.75 310.83L458.66 311.44L457.53 312.01L456.39 312.54L455.21 313.02L454.02 313.45L452.8 313.84L451.57 314.18L450.31 314.47L449.04 314.72L447.74 314.9L446.44 315.04L445.11 315.12L443.77 315.15L442.44 315.12L441.11 315.04L439.8 314.9L438.51 314.72L437.24 314.47L435.98 314.18L434.74 313.84L433.53 313.45L432.33 313.02L431.16 312.54L430.01 312.01L428.89 311.44L427.8 310.83L426.73 310.17L425.69 309.47L424.68 308.74L423.7 307.97L422.75 307.16L421.83 306.31L420.95 305.43L420.1 304.51L419.29 303.56L418.52 302.58L417.78 301.57L417.09 300.53L416.43 299.46L415.82 298.37L415.25 297.24L414.72 296.1L414.24 294.93L413.8 293.73L413.42 292.51L413.07 291.28L412.78 290.02L412.54 288.75L412.35 287.45L412.22 286.15L412.13 284.82L412.11 283.48L412.13 282.15L412.22 280.82L412.35 279.51L412.54 278.22L412.78 276.95L413.07 275.69L413.42 274.45L413.8 273.24L414.24 272.04L414.72 270.87L415.25 269.73L415.82 268.6L416.43 267.51L417.09 266.44L417.78 265.4L418.52 264.39L419.29 263.41L420.1 262.46L420.95 261.54L421.83 260.66L422.75 259.81L423.7 259L424.68 258.23L425.69 257.49L426.73 256.8L427.8 256.14L428.89 255.53L430.01 254.96L431.16 254.43L432.33 253.95L433.53 253.52L434.74 253.13L435.98 252.79L437.24 252.49L438.51 252.25L439.8 252.07L441.11 251.93L442.44 251.85L443.77 251.82L445.11 251.85L446.44 251.93ZM211.03 251.93L212.33 252.07L213.63 252.25L214.9 252.49L216.16 252.79L217.39 253.13L218.61 253.52L219.8 253.95L220.98 254.43L222.12 254.96L223.25 255.53L224.34 256.14L225.41 256.8L226.45 257.49L227.46 258.23L228.44 259L229.39 259.81L230.31 260.66L231.19 261.54L232.03 262.46L232.84 263.41L233.62 264.39L234.35 265.4L235.05 266.44L235.7 267.51L236.32 268.6L236.89 269.73L237.42 270.87L237.9 272.04L238.33 273.24L238.72 274.45L239.06 275.69L239.35 276.95L239.59 278.22L239.78 279.51L239.92 280.82L240 282.15L240.03 283.48L240 284.82L239.92 286.15L239.78 287.45L239.59 288.75L239.35 290.02L239.06 291.28L238.72 292.51L238.33 293.73L237.9 294.93L237.42 296.1L236.89 297.24L236.32 298.37L235.7 299.46L235.05 300.53L234.35 301.57L233.62 302.58L232.84 303.56L232.03 304.51L231.19 305.43L230.31 306.31L229.39 307.16L228.44 307.97L227.46 308.74L226.45 309.47L225.41 310.17L224.34 310.83L223.25 311.44L222.12 312.01L220.98 312.54L219.8 313.02L218.61 313.45L217.39 313.84L216.16 314.18L214.9 314.47L213.63 314.72L212.33 314.9L211.03 315.04L209.7 315.12L208.36 315.15L207.03 315.12L205.7 315.04L204.39 314.9L203.1 314.72L201.83 314.47L200.57 314.18L199.33 313.84L198.12 313.45L196.92 313.02L195.75 312.54L194.6 312.01L193.48 311.44L192.39 310.83L191.32 310.17L190.28 309.47L189.27 308.74L188.29 307.97L187.34 307.16L186.42 306.31L185.54 305.43L184.69 304.51L183.88 303.56L183.11 302.58L182.37 301.57L181.68 300.53L181.02 299.46L180.41 298.37L179.84 297.24L179.31 296.1L178.83 294.93L178.39 293.73L178.01 292.51L177.66 291.28L177.37 290.02L177.13 288.75L176.94 287.45L176.81 286.15L176.72 284.82L176.7 283.48L176.72 282.15L176.81 280.82L176.94 279.51L177.13 278.22L177.37 276.95L177.66 275.69L178.01 274.45L178.39 273.24L178.83 272.04L179.31 270.87L179.84 269.73L180.41 268.6L181.02 267.51L181.68 266.44L182.37 265.4L183.11 264.39L183.88 263.41L184.69 262.46L185.54 261.54L186.42 260.66L187.34 259.81L188.29 259L189.27 258.23L190.28 257.49L191.32 256.8L192.39 256.14L193.48 255.53L194.6 254.96L195.75 254.43L196.92 253.95L198.12 253.52L199.33 253.13L200.57 252.79L201.83 252.49L203.1 252.25L204.39 252.07L205.7 251.93L207.03 251.85L208.36 251.82L209.7 251.85L211.03 251.93Z" id="aCgOQai9O"></path><path d="M443.38 330.99L442.9 336.09L442.23 341.13L441.38 346.1L440.35 351.01L439.15 355.84L437.77 360.59L436.23 365.26L434.52 369.84L432.65 374.33L430.63 378.73L428.45 383.04L426.13 387.24L423.66 391.33L421.05 395.31L418.3 399.18L415.43 402.93L412.42 406.55L409.28 410.05L406.03 413.42L402.65 416.65L399.16 419.75L395.56 422.7L391.86 425.5L388.05 428.16L384.14 430.65L380.14 432.99L376.05 435.17L371.87 437.17L367.6 439.01L363.26 440.67L358.83 442.15L354.34 443.44L349.78 444.55L345.15 445.46L340.46 446.18L335.72 446.7L330.92 447.02L326.07 447.12L321.22 447.02L316.42 446.7L311.68 446.18L306.99 445.46L302.36 444.55L297.8 443.44L293.3 442.15L288.88 440.67L284.54 439.01L280.27 437.17L276.09 435.17L272 432.99L267.99 430.65L264.09 428.16L260.28 425.5L256.57 422.7L252.97 419.75L249.49 416.65L246.11 413.42L242.85 410.05L239.72 406.55L236.71 402.93L233.83 399.18L231.09 395.31L228.48 391.33L226.01 387.24L223.69 383.04L221.51 378.73L219.49 374.33L217.62 369.84L215.91 365.26L214.37 360.59L212.99 355.84L211.79 351.01L210.76 346.1L209.91 341.13L209.24 336.09L208.75 330.99L208.46 325.83L208.36 320.62L208.36 246.35L208.46 241.14L208.75 235.98L209.24 230.88L209.91 225.84L210.76 220.87L211.79 215.96L212.99 211.13L214.37 206.38L215.91 201.71L217.62 197.13L219.49 192.63L221.51 188.24L223.69 183.93L226.01 179.73L228.48 175.64L231.09 171.66L233.83 167.79L236.71 164.04L239.72 160.42L242.85 156.92L246.11 153.55L249.49 150.31L252.97 147.22L256.57 144.27L260.28 141.47L264.09 138.81L267.99 136.31L272 133.98L276.09 131.8L280.27 129.8L284.54 127.96L288.88 126.3L293.3 124.82L297.8 123.53L302.36 122.42L306.99 121.51L311.68 120.79L316.42 120.27L321.22 119.95L326.07 119.85L330.92 119.95L335.72 120.27L340.46 120.79L345.15 121.51L349.78 122.42L354.34 123.53L358.83 124.82L363.26 126.3L367.6 127.96L371.87 129.8L376.05 131.8L380.14 133.98L384.14 136.31L388.05 138.81L391.86 141.47L395.56 144.27L399.16 147.22L402.65 150.31L406.03 153.55L409.28 156.92L412.42 160.42L415.43 164.04L418.3 167.79L421.05 171.66L423.66 175.64L426.13 179.73L428.45 183.93L430.63 188.24L432.65 192.63L434.52 197.13L436.23 201.71L437.77 206.38L439.15 211.13L440.35 215.96L441.38 220.87L442.23 225.84L442.9 230.88L443.38 235.98L443.68 241.14L443.77 246.35L443.77 320.62L443.68 325.83L443.38 330.99Z" id="a1nf19gvB7"></path><path d="M335.72 120.27L340.46 120.79L345.15 121.51L349.78 122.42L354.34 123.53L358.83 124.82L363.26 126.3L367.6 127.96L371.87 129.8L376.05 131.8L380.14 133.98L384.14 136.31L388.05 138.81L391.86 141.47L395.56 144.27L399.16 147.22L402.65 150.31L406.03 153.55L409.28 156.92L412.42 160.42L415.43 164.04L418.3 167.79L421.05 171.66L423.66 175.64L426.13 179.73L428.45 183.93L430.63 188.24L432.65 192.63L434.52 197.13L436.23 201.71L437.77 206.38L439.15 211.13L440.35 215.96L441.38 220.87L442.23 225.84L442.9 230.88L443.38 235.98L443.68 241.14L443.77 246.35L443.77 320.62L443.68 325.83L443.38 330.99L442.9 336.09L442.23 341.13L441.38 346.1L440.35 351.01L439.15 355.84L437.77 360.59L436.23 365.26L434.52 369.84L432.65 374.33L430.63 378.73L428.45 383.04L426.13 387.24L423.66 391.33L421.05 395.31L418.3 399.18L415.43 402.93L412.42 406.55L409.28 410.05L406.03 413.42L402.65 416.65L399.16 419.75L395.56 422.7L391.86 425.5L388.05 428.16L384.14 430.65L380.14 432.99L376.05 435.17L371.87 437.17L367.6 439.01L363.26 440.67L358.83 442.15L354.34 443.44L349.78 444.55L345.15 445.46L340.46 446.18L335.72 446.7L330.92 447.02L326.07 447.12L326.07 119.85L330.92 119.95L335.72 120.27Z" id="aLUPWoa"></path><path d="M419 175.62C419.61 165.25 424.35 174.17 433.22 202.37C446.52 244.67 432.44 280.14 438.52 280.14C446.3 280.14 458.53 246.26 458.53 212.37C458.53 178.48 444.1 144.59 438.52 144.59C433.51 144.59 427.01 154.93 419 175.62Z" id="a4ClVf57F"></path><path d="M233.2 175.62C232.59 165.25 227.85 174.17 218.98 202.37C205.67 244.67 219.75 280.14 213.68 280.14C205.89 280.14 193.67 246.26 193.67 212.37C193.67 178.48 208.1 144.59 213.68 144.59C218.69 144.59 225.19 154.93 233.2 175.62Z" id="c2CplFKsh9"></path><path d="M419 175.62C419.61 165.25 424.35 174.17 433.22 202.37C446.52 244.67 432.44 280.14 438.52 280.14C446.3 280.14 458.53 246.26 458.53 212.37C458.53 178.48 444.1 144.59 438.52 144.59C433.51 144.59 427.01 154.93 419 175.62Z" id="b1c3ZbmKP0"></path><path d="M303.62 66.32L305.88 66.51L308.11 66.77L310.32 67.11L312.49 67.51L314.63 67.98L316.74 68.52L318.81 69.13L320.84 69.8L322.83 70.53L324.78 71.33L326.69 72.18L328.55 73.09L330.36 74.06L332.13 75.09L333.84 76.17L335.5 77.3L337.11 78.48L338.66 79.71L340.15 80.99L341.59 82.31L342.96 83.68L344.26 85.09L345.51 86.55L345.61 86.68L346.42 86.32L348.17 85.62L349.95 84.98L351.77 84.42L353.61 83.92L355.48 83.5L357.38 83.15L359.3 82.88L361.25 82.68L363.22 82.56L365.21 82.52L367.2 82.56L369.17 82.68L371.12 82.88L373.04 83.15L374.94 83.5L376.81 83.92L378.65 84.42L380.47 84.98L382.25 85.62L384 86.32L385.72 87.08L387.4 87.91L389.04 88.81L390.64 89.76L392.2 90.77L393.72 91.84L395.2 92.97L396.63 94.15L398.02 95.38L399.35 96.67L400.64 98.01L401.87 99.39L403.06 100.82L404.18 102.3L404.23 102.37L405.05 102.31L406.76 102.28L408.47 102.31L410.17 102.42L411.84 102.59L413.5 102.83L415.13 103.14L416.74 103.51L418.33 103.95L419.89 104.44L421.42 105L422.93 105.61L424.4 106.29L425.85 107.02L427.26 107.8L428.64 108.64L429.99 109.53L431.29 110.47L432.57 111.46L433.8 112.5L434.99 113.58L436.14 114.71L437.24 115.88L438.31 117.1L439.32 118.36L440.29 119.65L441.21 120.99L442.08 122.36L442.9 123.77L443.67 125.21L444.39 126.69L445.05 128.2L445.65 129.73L446.19 131.3L446.68 132.89L447.1 134.51L447.47 136.16L447.77 137.83L448.01 139.51L448.18 141.23L448.28 142.96L448.31 144.7L448.28 146.45L448.18 148.18L448.01 149.89L447.77 151.58L447.47 153.25L447.1 154.89L446.68 156.51L446.19 158.11L445.65 159.67L445.05 161.21L444.39 162.72L443.67 164.19L442.9 165.63L442.08 167.04L441.21 168.42L440.29 169.75L439.32 171.05L438.31 172.31L437.24 173.52L436.14 174.7L434.99 175.83L433.8 176.91L432.57 177.95L431.29 178.94L429.99 179.88L428.64 180.77L427.26 181.6L425.85 182.39L424.4 183.12L423.87 183.36L423.6 183.5L423.23 183.69L422.89 183.86L422.56 184.03L422.25 184.19L421.97 184.33L421.7 184.47L421.45 184.59L421.22 184.71L421.01 184.81L420.82 184.91L420.65 184.99L420.5 185.07L420.37 185.13L420.26 185.19L420.17 185.23L420.1 185.27L420.04 185.29L419.97 185.32L419.9 185.35L419.81 185.39L419.72 185.43L419.62 185.47L419.52 185.51L419.41 185.55L419.3 185.59L419.19 185.63L419.08 185.68L418.96 185.72L418.85 185.76L418.74 185.81L418.63 185.85L418.52 185.89L418.41 185.92L418.31 185.96L418.22 185.99L418.13 186.03L418.05 186.05L417.98 186.08L417.91 186.1L417.84 186.13L417.76 186.15L417.68 186.18L417.59 186.2L417.5 186.23L417.41 186.26L417.31 186.29L417.21 186.32L417.11 186.35L417 186.38L416.89 186.41L416.78 186.45L416.66 186.48L416.53 186.52L416.41 186.55L416.27 186.59L416.14 186.63L416 186.67L415.86 186.71L415.71 186.75L415.65 186.77L415.59 186.79L415.53 186.8L415.47 186.82L415.4 186.84L415.34 186.85L415.27 186.87L415.2 186.89L415.12 186.91L415.04 186.93L414.96 186.95L414.88 186.97L414.78 186.99L414.69 187.02L414.59 187.05L414.48 187.08L414.36 187.11L414.24 187.14L414.11 187.18L413.97 187.22L413.83 187.27L413.73 187.3L413.63 187.33L413.53 187.36L413.42 187.39L413.32 187.43L413.21 187.46L413.1 187.5L412.99 187.53L412.88 187.57L412.77 187.61L412.66 187.65L412.55 187.69L412.43 187.73L412.32 187.77L412.2 187.81L412.08 187.85L411.96 187.9L411.84 187.94L411.72 187.99L411.59 188.03L411.47 188.08L407.99 189.45L407.7 189.53L406.6 189.91L405.18 190.37L403.71 190.79L402.2 191.17L400.65 191.52L399.06 191.83L397.44 192.11L395.78 192.35L394.08 192.56L392.36 192.72L390.6 192.85L388.82 192.94L387 192.99L385.17 193L383.3 192.97L381.42 192.89L379.52 192.78L377.59 192.62L375.66 192.42L373.7 192.18L371.73 191.89L369.77 191.57L367.83 191.2L365.93 190.8L364.05 190.36L362.2 189.89L360.38 189.38L358.6 188.84L356.85 188.27L355.14 187.67L353.47 187.04L351.84 186.38L350.24 185.7L348.69 184.99L347.19 184.25L345.72 183.49L344.31 182.7L342.94 181.9L341.62 181.07L340.35 180.22L339.13 179.36L337.97 178.47L336.86 177.57L335.81 176.66L334.81 175.72L334.34 175.24L332.84 176.43L331.07 177.73L329.22 178.98L327.3 180.19L325.3 181.35L323.23 182.47L321.09 183.54L318.89 184.56L316.61 185.53L314.28 186.45L311.88 187.31L309.42 188.12L306.91 188.87L304.35 189.56L301.73 190.2L299.06 190.77L296.35 191.28L293.59 191.73L290.79 192.11L287.95 192.43L285.08 192.68L282.17 192.85L279.22 192.96L276.25 193L273.27 192.96L270.33 192.85L267.41 192.68L264.54 192.43L261.7 192.11L258.9 191.73L256.14 191.28L253.43 190.77L250.76 190.2L248.15 189.56L245.58 188.87L243.07 188.12L240.61 187.31L238.22 186.45L235.88 185.53L233.61 184.56L231.4 183.54L229.26 182.47L228.08 181.83L227.74 181.7L226.35 181.08L224.98 180.4L223.65 179.68L222.35 178.91L221.09 178.09L219.86 177.22L218.66 176.31L217.5 175.35L216.38 174.35L215.29 173.3L214.25 172.22L213.25 171.1L212.29 169.94L211.38 168.74L210.51 167.51L209.83 166.46L209.71 166.29L208.66 164.71L207.71 163.09L206.87 161.45L206.13 159.78L205.5 158.09L204.97 156.37L204.56 154.63L204.27 152.86L204.09 151.08L204.04 149.71L203.95 148.84L203.86 147.25L203.82 145.63L203.86 144.02L203.95 142.42L204.11 140.85L204.34 139.29L204.62 137.75L204.96 136.23L205.36 134.74L205.82 133.27L206.33 131.82L206.9 130.4L207.52 129.01L208.2 127.65L208.92 126.32L209.69 125.02L210.51 123.75L211.38 122.52L212.29 121.33L213.25 120.17L214.25 119.04L215.29 117.96L216.38 116.92L217.5 115.92L218.66 114.96L219.86 114.05L221.09 113.18L222.35 112.36L223.65 111.59L224.98 110.86L226.35 110.19L227.74 109.57L229.15 109L230.6 108.49L232.07 108.03L233.56 107.63L235.08 107.29L236.62 107L238.18 106.78L239.76 106.62L241.35 106.52L242.97 106.49L243.42 106.5L243.7 104.89L244.11 103.07L244.6 101.28L245.17 99.51L245.83 97.78L246.56 96.07L247.37 94.4L248.26 92.76L249.23 91.15L250.26 89.58L251.37 88.04L252.55 86.55L253.79 85.09L255.1 83.68L256.47 82.31L257.9 80.99L259.39 79.71L260.94 78.48L262.55 77.3L264.21 76.17L265.93 75.09L267.69 74.06L269.51 73.09L271.37 72.18L273.27 71.33L275.22 70.53L277.21 69.8L279.25 69.13L281.32 68.52L283.42 67.98L285.56 67.51L287.73 67.11L289.94 66.77L292.17 66.51L294.43 66.32L296.72 66.21L299.03 66.17L301.34 66.21L303.62 66.32Z" id="a8GRXpupj"></path><path d="M405.05 102.32L406.76 102.28L408.47 102.32L410.17 102.42L411.84 102.59L413.5 102.84L415.13 103.14L416.74 103.51L418.33 103.95L419.89 104.44L421.42 105L422.93 105.62L424.4 106.29L425.85 107.02L427.26 107.8L428.64 108.64L429.99 109.53L431.29 110.47L432.57 111.46L433.8 112.5L434.99 113.58L436.14 114.71L437.24 115.89L438.31 117.1L439.32 118.36L440.29 119.66L441.21 120.99L442.08 122.36L442.9 123.77L443.67 125.21L444.39 126.69L445.05 128.2L445.65 129.73L446.19 131.3L446.68 132.89L447.1 134.51L447.47 136.16L447.77 137.83L448.01 139.52L448.18 141.23L448.28 142.96L448.31 144.7L448.28 146.45L448.18 148.18L448.01 149.89L447.77 151.58L447.47 153.25L447.1 154.89L446.68 156.51L446.19 158.11L445.65 159.67L445.05 161.21L444.39 162.72L443.67 164.19L442.9 165.64L442.08 167.04L441.21 168.42L440.29 169.75L439.32 171.05L438.31 172.31L437.24 173.52L436.14 174.7L434.99 175.83L433.8 176.91L432.57 177.95L431.29 178.94L429.99 179.88L428.64 180.77L427.26 181.61L425.85 182.39L424.4 183.12L423.87 183.36L423.6 183.5L423.23 183.69L422.89 183.87L422.56 184.03L422.25 184.19L421.97 184.33L421.7 184.47L421.45 184.59L421.22 184.71L421.01 184.82L420.82 184.91L420.65 185L420.5 185.07L420.37 185.14L420.26 185.19L420.17 185.23L420.1 185.27L420.04 185.29L419.97 185.32L419.9 185.36L419.81 185.39L419.72 185.43L419.62 185.47L419.52 185.51L419.41 185.55L419.3 185.59L419.19 185.64L419.08 185.68L418.96 185.72L418.85 185.76L418.74 185.81L418.63 185.85L418.52 185.89L418.41 185.93L418.31 185.96L418.22 186L418.13 186.03L418.05 186.06L417.98 186.08L417.91 186.1L417.84 186.13L417.76 186.15L417.68 186.18L417.59 186.21L417.5 186.23L417.41 186.26L417.31 186.29L417.21 186.32L417.11 186.35L417 186.38L416.89 186.42L416.78 186.45L416.66 186.48L416.53 186.52L416.41 186.56L416.27 186.59L416.14 186.63L416 186.67L415.86 186.71L415.71 186.76L415.65 186.77L415.59 186.79L415.53 186.8L415.47 186.82L415.4 186.84L415.34 186.85L415.27 186.87L415.2 186.89L415.12 186.91L415.04 186.93L414.96 186.95L414.88 186.97L414.78 187L414.69 187.02L414.59 187.05L414.48 187.08L414.36 187.11L414.24 187.15L414.11 187.18L413.97 187.22L413.83 187.27L413.73 187.3L413.63 187.33L413.53 187.36L413.42 187.39L413.32 187.43L413.21 187.46L413.1 187.5L412.99 187.53L412.88 187.57L412.77 187.61L412.66 187.65L412.55 187.69L412.43 187.73L412.32 187.77L412.2 187.81L412.08 187.85L411.96 187.9L411.84 187.94L411.72 187.99L411.59 188.03L411.47 188.08L407.99 189.46L407.7 189.53L406.6 189.92L405.18 190.37L403.71 190.79L402.2 191.17L400.65 191.52L399.06 191.84L397.44 192.11L395.78 192.36L394.08 192.56L392.36 192.73L390.6 192.85L388.82 192.94L387 192.99L385.17 193L383.3 192.97L381.42 192.9L379.52 192.78L377.59 192.62L375.66 192.43L373.7 192.18L371.73 191.9L369.77 191.57L367.83 191.2L365.93 190.8L364.05 190.36L362.2 189.89L360.38 189.38L358.6 188.84L356.85 188.27L355.14 187.67L353.47 187.04L351.84 186.38L350.24 185.7L348.69 184.99L347.19 184.25L345.72 183.49L344.31 182.71L342.94 181.9L341.62 181.07L340.35 180.23L339.13 179.36L337.97 178.48L336.86 177.57L335.81 176.66L334.81 175.73L334.45 175.36L334.45 173.84L335.41 173.59L339.43 172.48L343.36 171.28L347.2 169.99L350.95 168.61L354.61 167.14L358.17 165.59L361.62 163.95L364.97 162.24L368.21 160.45L371.33 158.59L374.34 156.65L377.23 154.64L380 152.57L382.63 150.43L385.14 148.23L387.51 145.96L389.74 143.64L391.83 141.26L393.77 138.82L395.56 136.34L397.2 133.8L398.68 131.21L400 128.59L401.16 125.91L402.15 123.2L402.97 120.45L403.61 117.66L404.07 114.84L404.35 111.98L404.45 109.1L404.35 106.22L404.07 103.36L403.82 101.83L404.18 102.3L404.23 102.37L404.23 102.37L405.05 102.32Z" id="aBUkMPhB7"></path></defs><g><g><g><use xlink:href="#c3GKCt3Nqi" opacity="1" fill="#ecdf9e" fill-opacity="1"></use></g><g><use xlink:href="#a1ptFKGrk" opacity="1" fill="#93b682" fill-opacity="1"></use><g><use xlink:href="#a1ptFKGrk" opacity="1" fill-opacity="0" stroke="#000000" stroke-width="1" stroke-opacity="0"></use></g></g><g><use xlink:href="#b2e5TaX85T" opacity="1" fill="#ff9386" fill-opacity="1"></use><g><use xlink:href="#b2e5TaX85T" opacity="1" fill-opacity="0" stroke="#000000" stroke-width="1" stroke-opacity="0"></use></g></g><g><use xlink:href="#c2eEEKHd3K" opacity="1" fill="#b8645a" fill-opacity="1"></use><g><use xlink:href="#c2eEEKHd3K" opacity="1" fill-opacity="0" stroke="#000000" stroke-width="1" stroke-opacity="0"></use></g></g><g><use xlink:href="#a1OSWiYRkU" opacity="1" fill="#b0d69e" fill-opacity="1"></use><g><use xlink:href="#a1OSWiYRkU" opacity="1" fill-opacity="0" stroke="#000000" stroke-width="1" stroke-opacity="0"></use></g></g><g><use xlink:href="#a1MoCCEtG" opacity="1" fill="#ffa99c" fill-opacity="1"></use><g><use xlink:href="#a1MoCCEtG" opacity="1" fill-opacity="0" stroke="#000000" stroke-width="1" stroke-opacity="0"></use></g></g><g><use xlink:href="#k1wnqwz06s" opacity="1" fill="#000000" fill-opacity="0.13"></use></g><g><use xlink:href="#cdwgy2epb" opacity="1" fill="#ececec" fill-opacity="1"></use></g><g><use xlink:href="#h28E6lfhm" opacity="1" fill="#ecb69e" fill-opacity="1"></use></g><g><use xlink:href="#a1MlPHo13n" opacity="1" fill="#000000" fill-opacity="0.13"></use></g><g><use xlink:href="#aCgOQai9O" opacity="1" fill="#ecb69e" fill-opacity="1"></use></g><g><use xlink:href="#a1nf19gvB7" opacity="1" fill="#ffcbad" fill-opacity="1"></use></g><g><use xlink:href="#aLUPWoa" opacity="1" fill="#000000" fill-opacity="0.04"></use></g><g><use xlink:href="#a4ClVf57F" opacity="1" fill="#c26f6f" fill-opacity="1"></use></g><g><use xlink:href="#c2CplFKsh9" opacity="1" fill="#c26f6f" fill-opacity="1"></use></g><g><use xlink:href="#b1c3ZbmKP0" opacity="1" fill="#000000" fill-opacity="0.13"></use></g><g><use xlink:href="#a8GRXpupj" opacity="1" fill="#ef9a9a" fill-opacity="1"></use></g><g><use xlink:href="#aBUkMPhB7" opacity="1" fill="#070707" fill-opacity="0.13"></use></g></g></g></svg>