<?xml version="1.0" encoding="UTF-8" standalone="no"?>
<!DOCTYPE svg PUBLIC "-//W3C//DTD SVG 1.1//EN" "http://www.w3.org/Graphics/SVG/1.1/DTD/svg11.dtd">
<svg version="1.1" xmlns="http://www.w3.org/2000/svg" xmlns:xlink="http://www.w3.org/1999/xlink" preserveAspectRatio="xMidYMid meet" viewBox="0 0 640 640" width="640" height="640"><defs><path d="M320 911.73C189.7 911.73 83.91 810.91 83.91 686.73C83.91 562.55 189.7 461.73 320 461.73C450.3 461.73 556.09 562.55 556.09 686.73C556.09 810.91 450.3 911.73 320 911.73Z" id="c1zYueeZH"></path><path d="M373.97 593.58C374.31 593.92 375.18 594.75 376.57 596.08C375.74 597.69 375.21 598.69 375 599.09C363.34 621.48 335.54 627.2 316.91 611.03C316.56 610.73 315.69 609.97 314.29 608.76C315.41 606.5 316.11 605.09 316.39 604.53C327.68 581.78 356.01 576.39 373.97 593.58Z" id="d8I37IzTak"></path><path d="M373.97 593.58C374.31 593.92 375.18 594.75 376.57 596.08C375.74 597.69 375.21 598.69 375 599.09C363.34 621.48 335.54 627.2 316.91 611.03C316.56 610.73 315.69 609.97 314.29 608.76C315.41 606.5 316.11 605.09 316.39 604.53C327.68 581.78 356.01 576.39 373.97 593.58Z" id="b2IIr0YWZ0"></path><path d="M339.2 749.3C351.2 746.78 364.72 737.5 379.76 721.44C391.2 709.22 397.84 693.47 399.7 674.17C400.71 663.6 399.61 652.92 396.46 642.85C394.77 637.43 397.41 645.91 396.46 642.85C391.21 626.05 378.06 613.44 361.84 609.65C359.68 609.14 355.21 608.94 348.41 609.03C317.74 609.45 310.43 631.68 303.05 646.19C295.68 660.7 295.61 673.71 298.4 697.8C300.26 713.86 313.87 731.03 339.2 749.3Z" id="eIimyY6Yr"></path><path d="M339.2 749.3C351.2 746.78 364.72 737.5 379.76 721.44C391.2 709.22 397.84 693.47 399.7 674.17C400.71 663.6 399.61 652.92 396.46 642.85C394.77 637.43 397.41 645.91 396.46 642.85C391.21 626.05 378.06 613.44 361.84 609.65C359.68 609.14 355.21 608.94 348.41 609.03C317.74 609.45 310.43 631.68 303.05 646.19C295.68 660.7 295.61 673.71 298.4 697.8C300.26 713.86 313.87 731.03 339.2 749.3Z" id="b1F2ubuF9"></path><path d="M320.91 647.08C312.99 629.12 311.93 611.85 318.54 608.53C325.15 605.22 336.95 617.11 344.86 635.07C352.78 653.03 353.84 670.3 347.23 673.61C340.62 676.93 328.83 665.04 320.91 647.08Z" id="ar9SKnsw"></path><path d="M320.91 647.08C312.99 629.12 311.93 611.85 318.54 608.53C325.15 605.22 336.95 617.11 344.86 635.07C352.78 653.03 353.84 670.3 347.23 673.61C340.62 676.93 328.83 665.04 320.91 647.08Z" id="b4uZqjWTQd"></path><path d="M319.38 623.22C299.42 641.88 268.43 636.34 255.27 611.75C254.85 610.96 253.78 608.97 252.07 605.78C254.26 603.31 255.62 601.77 256.17 601.15C274.49 580.45 305.55 581.1 323.1 602.55C324.69 604.5 322.81 602.2 330.92 612.12C331 612.21 330.99 612.35 330.9 612.44C320.87 621.82 321.71 621.03 319.38 623.22Z" id="ofoxkBzO"></path><path d="M319.38 623.22C299.42 641.88 268.43 636.34 255.27 611.75C254.85 610.96 253.78 608.97 252.07 605.78C254.26 603.31 255.62 601.77 256.17 601.15C274.49 580.45 305.55 581.1 323.1 602.55C324.69 604.5 322.81 602.2 330.92 612.12C331 612.21 330.99 612.35 330.9 612.44C320.87 621.82 321.71 621.03 319.38 623.22Z" id="ea7V1clOeX"></path><path d="M342.81 741.56C342.33 742.59 341.13 745.17 339.2 749.3C310.53 746.43 289.2 736.97 275.23 720.91C254.27 696.82 251.65 670.91 253.82 653.27C254.47 648.05 255.84 643.43 257.96 639.41C263.35 629.17 271.61 621.01 281.59 616.06C286.64 613.56 293.14 612.13 301.08 611.78C323.26 610.8 332.6 620.62 346.48 645.66C351.18 654.13 353.93 665.21 354.72 678.9C355.98 700.54 351.87 722.15 342.81 741.56Z" id="cpqUM1D1X"></path><path d="M342.81 741.56C342.33 742.59 341.13 745.17 339.2 749.3C310.53 746.43 289.2 736.97 275.23 720.91C254.27 696.82 251.65 670.91 253.82 653.27C254.47 648.05 255.84 643.43 257.96 639.41C263.35 629.17 271.61 621.01 281.59 616.06C286.64 613.56 293.14 612.13 301.08 611.78C323.26 610.8 332.6 620.62 346.48 645.66C351.18 654.13 353.93 665.21 354.72 678.9C355.98 700.54 351.87 722.15 342.81 741.56Z" id="apSm8SVkF"></path><path d="M348.87 463.4L358.27 464.68L367.56 466.31L376.71 468.28L385.72 470.58L394.59 473.21L403.31 476.16L411.86 479.43L420.25 483L428.46 486.86L436.49 491.02L444.32 495.46L451.96 500.18L459.39 505.17L466.61 510.42L473.61 515.92L480.38 521.67L486.91 527.67L493.2 533.89L499.23 540.34L505.01 547.01L510.51 553.89L515.75 560.97L520.7 568.25L525.36 575.72L529.72 583.37L533.78 591.19L537.53 599.19L540.95 607.34L544.05 615.65L546.81 624.1L549.22 632.69L551.29 641.41L553 650.26L554.34 659.22L555.31 668.29L555.89 677.46L556.09 686.73L555.89 696L555.31 705.18L554.34 714.25L553 723.21L551.29 732.05L549.22 740.78L546.81 749.37L544.05 757.82L540.95 766.12L537.53 774.28L533.78 782.27L529.72 790.1L525.36 797.75L520.7 805.22L515.75 812.5L510.51 819.58L505.01 826.46L499.23 833.13L493.2 839.58L486.91 845.8L480.38 851.79L473.61 857.54L466.61 863.05L459.39 868.3L451.96 873.28L444.32 878L436.49 882.44L428.46 886.6L420.25 890.47L411.86 894.04L403.31 897.3L394.59 900.25L385.72 902.89L376.71 905.19L367.56 907.16L358.27 908.79L348.87 910.06L339.35 910.99L329.73 911.55L320 911.73L320 461.73L329.73 461.92L339.35 462.48L348.87 463.4Z" id="bDl1K5556"></path><path d="M326.07 549.44C289.86 549.44 260.46 520.05 260.46 483.84C260.46 447.63 289.86 418.23 326.07 418.23C362.28 418.23 391.67 447.63 391.67 483.84C391.67 520.05 362.28 549.44 326.07 549.44Z" id="b2U09Atvck"></path><path d="M380.24 471.45L380.1 473.66L379.88 475.84L379.57 478L379.18 480.13L378.7 482.23L378.15 484.3L377.52 486.34L376.8 488.34L376.02 490.31L375.16 492.23L374.23 494.12L373.22 495.96L372.15 497.76L371.02 499.51L369.82 501.22L368.55 502.88L367.22 504.48L365.84 506.04L364.39 507.54L362.9 508.98L361.34 510.37L359.73 511.69L358.08 512.96L356.37 514.16L354.62 515.3L352.82 516.37L350.97 517.37L349.09 518.3L347.16 519.16L345.2 519.95L343.2 520.66L341.16 521.29L339.09 521.85L336.99 522.32L334.86 522.71L332.7 523.02L330.51 523.24L328.3 523.38L326.07 523.42L323.84 523.38L321.63 523.24L319.44 523.02L317.28 522.71L315.15 522.32L313.05 521.85L310.98 521.29L308.94 520.66L306.94 519.95L304.98 519.16L303.05 518.3L301.16 517.37L299.32 516.37L297.52 515.3L295.77 514.16L294.06 512.96L292.4 511.69L290.8 510.37L289.24 508.98L287.74 507.54L286.3 506.04L284.91 504.48L283.59 502.88L282.32 501.22L281.12 499.51L279.98 497.76L278.91 495.96L277.91 494.12L276.98 492.23L276.12 490.31L275.33 488.34L274.62 486.34L273.99 484.3L273.43 482.23L272.96 480.13L272.57 478L272.26 475.84L272.04 473.66L271.9 471.45L271.86 469.21L271.86 360.79L380.28 360.79L380.28 469.21L380.24 471.45Z" id="a8R2r2BDCy"></path><path d="M380.1 473.66L379.88 475.84L379.57 478L379.18 480.13L378.7 482.23L378.15 484.3L377.52 486.34L376.8 488.34L376.02 490.31L375.16 492.23L374.23 494.12L373.22 495.96L372.15 497.76L371.02 499.51L369.82 501.22L368.55 502.88L367.22 504.49L365.84 506.04L364.39 507.54L362.9 508.98L361.34 510.37L359.73 511.69L358.08 512.96L356.37 514.16L354.62 515.3L352.82 516.37L350.97 517.37L349.09 518.3L347.16 519.16L345.2 519.95L343.2 520.66L341.16 521.29L339.09 521.85L336.99 522.32L334.86 522.71L332.7 523.02L330.51 523.24L328.3 523.38L326.08 523.42L271.86 432.97L271.86 432.97L380.28 401.6L380.28 469.21L380.24 471.45L380.1 473.66Z" id="c3Gb9zeFc"></path><path d="M211.03 251.93L212.33 252.07L213.63 252.25L214.9 252.49L216.16 252.79L217.39 253.13L218.61 253.52L219.8 253.95L220.98 254.43L222.12 254.96L223.25 255.53L224.34 256.14L225.41 256.8L226.45 257.49L227.46 258.23L228.44 259L229.39 259.81L230.31 260.66L231.19 261.54L232.03 262.46L232.84 263.41L233.62 264.39L234.35 265.4L235.05 266.44L235.7 267.51L236.32 268.6L236.89 269.73L237.42 270.87L237.9 272.04L238.33 273.24L238.72 274.45L239.06 275.69L239.35 276.95L239.59 278.22L239.78 279.51L239.92 280.82L240 282.15L240.03 283.48L240 284.82L239.92 286.15L239.78 287.45L239.59 288.75L239.35 290.02L239.06 291.28L238.72 292.51L238.33 293.73L237.9 294.93L237.42 296.1L236.89 297.24L236.32 298.37L235.7 299.46L235.05 300.53L234.35 301.57L233.62 302.58L232.84 303.56L232.03 304.51L231.19 305.43L230.31 306.31L229.39 307.16L228.44 307.97L227.46 308.74L226.45 309.47L225.41 310.17L224.34 310.83L223.25 311.44L222.12 312.01L220.98 312.54L219.8 313.02L218.61 313.45L217.39 313.84L216.16 314.18L214.9 314.47L213.63 314.72L212.33 314.9L211.03 315.04L209.7 315.12L208.36 315.15L207.03 315.12L205.7 315.04L204.39 314.9L203.1 314.72L201.83 314.47L200.57 314.18L199.33 313.84L198.12 313.45L196.92 313.02L195.75 312.54L194.6 312.01L193.48 311.44L192.39 310.83L191.32 310.17L190.28 309.47L189.27 308.74L188.29 307.97L187.34 307.16L186.42 306.31L185.54 305.43L184.69 304.51L183.88 303.56L183.11 302.58L182.37 301.57L181.68 300.53L181.02 299.46L180.41 298.37L179.84 297.24L179.31 296.1L178.83 294.93L178.39 293.73L178.01 292.51L177.66 291.28L177.37 290.02L177.13 288.75L176.94 287.45L176.81 286.15L176.72 284.82L176.7 283.48L176.72 282.15L176.81 280.82L176.94 279.51L177.13 278.22L177.37 276.95L177.66 275.69L178.01 274.45L178.39 273.24L178.83 272.04L179.31 270.87L179.84 269.73L180.41 268.6L181.02 267.51L181.68 266.44L182.37 265.4L183.11 264.39L183.88 263.41L184.69 262.46L185.54 261.54L186.42 260.66L187.34 259.81L188.29 259L189.27 258.23L190.28 257.49L191.32 256.8L192.39 256.14L193.48 255.53L194.6 254.96L195.75 254.43L196.92 253.95L198.12 253.52L199.33 253.13L200.57 252.79L201.83 252.49L203.1 252.25L204.39 252.07L205.7 251.93L207.03 251.85L208.36 251.82L209.7 251.85L211.03 251.93Z" id="h72vsD7CcS"></path><path d="M446.44 251.93L447.74 252.07L449.04 252.25L450.31 252.49L451.57 252.79L452.8 253.13L454.02 253.52L455.21 253.95L456.39 254.43L457.53 254.96L458.66 255.53L459.75 256.14L460.82 256.8L461.86 257.49L462.87 258.23L463.85 259L464.8 259.81L465.72 260.66L466.6 261.54L467.44 262.46L468.25 263.41L469.03 264.39L469.76 265.4L470.46 266.44L471.11 267.51L471.73 268.6L472.3 269.73L472.83 270.87L473.31 272.04L473.74 273.24L474.13 274.45L474.47 275.69L474.76 276.95L475 278.22L475.19 279.51L475.33 280.82L475.41 282.15L475.44 283.48L475.41 284.82L475.33 286.15L475.19 287.45L475 288.75L474.76 290.02L474.47 291.28L474.13 292.51L473.74 293.73L473.31 294.93L472.83 296.1L472.3 297.24L471.73 298.37L471.11 299.46L470.46 300.53L469.76 301.57L469.03 302.58L468.25 303.56L467.44 304.51L466.6 305.43L465.72 306.31L464.8 307.16L463.85 307.97L462.87 308.74L461.86 309.47L460.82 310.17L459.75 310.83L458.66 311.44L457.53 312.01L456.39 312.54L455.21 313.02L454.02 313.45L452.8 313.84L451.57 314.18L450.31 314.47L449.04 314.72L447.74 314.9L446.44 315.04L445.11 315.12L443.77 315.15L442.44 315.12L441.11 315.04L439.8 314.9L438.51 314.72L437.24 314.47L435.98 314.18L434.74 313.84L433.53 313.45L432.33 313.02L431.16 312.54L430.01 312.01L428.89 311.44L427.8 310.83L426.73 310.17L425.69 309.47L424.68 308.74L423.7 307.97L422.75 307.16L421.83 306.31L420.95 305.43L420.1 304.51L419.29 303.56L418.52 302.58L417.78 301.57L417.09 300.53L416.43 299.46L415.82 298.37L415.25 297.24L414.72 296.1L414.24 294.93L413.8 293.73L413.42 292.51L413.07 291.28L412.78 290.02L412.54 288.75L412.35 287.45L412.22 286.15L412.13 284.82L412.11 283.48L412.13 282.15L412.22 280.82L412.35 279.51L412.54 278.22L412.78 276.95L413.07 275.69L413.42 274.45L413.8 273.24L414.24 272.04L414.72 270.87L415.25 269.73L415.82 268.6L416.43 267.51L417.09 266.44L417.78 265.4L418.52 264.39L419.29 263.41L420.1 262.46L420.95 261.54L421.83 260.66L422.75 259.81L423.7 259L424.68 258.23L425.69 257.49L426.73 256.8L427.8 256.14L428.89 255.53L430.01 254.96L431.16 254.43L432.33 253.95L433.53 253.52L434.74 253.13L435.98 252.79L437.24 252.49L438.51 252.25L439.8 252.07L441.11 251.93L442.44 251.85L443.77 251.82L445.11 251.85L446.44 251.93Z" id="cksTLOmTF"></path><path d="M442.9 336.09L442.23 341.13L441.38 346.1L440.35 351.01L439.15 355.84L437.77 360.59L436.23 365.26L434.52 369.84L432.65 374.33L430.63 378.73L428.45 383.04L426.13 387.24L423.66 391.33L421.05 395.31L418.3 399.18L415.43 402.93L412.42 406.55L409.28 410.05L406.03 413.42L402.65 416.65L399.16 419.75L395.56 422.7L391.86 425.5L388.05 428.16L384.14 430.65L380.14 432.99L376.05 435.17L371.87 437.17L367.6 439.01L363.26 440.67L358.83 442.15L354.34 443.44L349.78 444.55L345.15 445.46L340.46 446.18L335.72 446.7L330.92 447.02L326.07 447.12L321.22 447.02L316.42 446.7L311.68 446.18L306.99 445.46L302.36 444.55L297.8 443.44L293.3 442.15L288.88 440.67L284.54 439.01L280.27 437.17L276.09 435.17L272 432.99L267.99 430.65L264.09 428.16L260.28 425.5L256.57 422.7L252.97 419.75L249.49 416.65L246.11 413.42L242.85 410.05L239.72 406.55L236.71 402.93L233.83 399.18L231.09 395.31L228.48 391.33L226.01 387.24L223.69 383.04L221.51 378.73L219.49 374.33L217.62 369.84L215.91 365.26L214.37 360.59L212.99 355.84L211.79 351.01L210.76 346.1L209.91 341.13L209.24 336.09L208.75 330.99L208.46 325.83L208.36 320.62L208.36 246.35L208.46 241.14L208.75 235.98L209.24 230.88L209.91 225.84L210.76 220.87L211.79 215.96L212.99 211.13L214.37 206.38L215.91 201.71L217.62 197.13L219.49 192.63L221.51 188.24L223.69 183.93L226.01 179.73L228.48 175.64L231.09 171.66L233.83 167.79L236.71 164.04L239.72 160.42L242.85 156.92L246.11 153.55L249.49 150.31L252.97 147.22L256.57 144.27L260.28 141.47L264.09 138.81L267.99 136.31L272 133.98L276.09 131.8L280.27 129.8L284.54 127.96L288.88 126.3L293.3 124.82L297.8 123.53L302.36 122.42L306.99 121.51L311.68 120.79L316.42 120.27L321.22 119.95L326.07 119.85L330.92 119.95L335.72 120.27L340.46 120.79L345.15 121.51L349.78 122.42L354.34 123.53L358.83 124.82L363.26 126.3L367.6 127.96L371.87 129.8L376.05 131.8L380.14 133.98L384.14 136.31L388.05 138.81L391.86 141.47L395.56 144.27L399.16 147.22L402.65 150.31L406.03 153.55L409.28 156.92L412.42 160.42L415.43 164.04L418.3 167.79L421.05 171.66L423.66 175.64L426.13 179.73L428.45 183.93L430.63 188.24L432.65 192.63L434.52 197.13L436.23 201.71L437.77 206.38L439.15 211.13L440.35 215.96L441.38 220.87L442.23 225.84L442.9 230.88L443.38 235.98L443.68 241.14L443.77 246.35L443.77 320.62L443.68 325.83L443.38 330.99L442.9 336.09Z" id="e4aDBcS8Iu"></path><path d="M340.46 120.79L345.15 121.51L349.78 122.42L354.34 123.53L358.83 124.82L363.26 126.3L367.6 127.96L371.87 129.8L376.05 131.8L380.14 133.98L384.14 136.31L388.05 138.81L391.86 141.47L395.56 144.27L399.16 147.22L402.65 150.31L406.03 153.55L409.28 156.92L412.42 160.42L415.43 164.04L418.3 167.79L421.05 171.66L423.66 175.64L426.13 179.73L428.45 183.93L430.63 188.24L432.65 192.63L434.52 197.13L436.23 201.71L437.77 206.38L439.15 211.13L440.35 215.96L441.38 220.87L442.23 225.84L442.9 230.88L443.38 235.98L443.68 241.14L443.77 246.35L443.77 320.62L443.68 325.83L443.38 330.99L442.9 336.09L442.23 341.13L441.38 346.1L440.35 351.01L439.15 355.84L437.77 360.59L436.23 365.26L434.52 369.84L432.65 374.33L430.63 378.73L428.45 383.04L426.13 387.24L423.66 391.33L421.05 395.31L418.3 399.18L415.43 402.93L412.42 406.55L409.28 410.05L406.03 413.42L402.65 416.65L399.16 419.75L395.56 422.7L391.86 425.5L388.05 428.16L384.14 430.65L380.14 432.99L376.05 435.17L371.87 437.17L367.6 439.01L363.26 440.67L358.83 442.15L354.34 443.44L349.78 444.55L345.15 445.46L340.46 446.18L335.72 446.7L330.92 447.02L326.07 447.12L326.07 119.85L330.92 119.95L335.72 120.27L340.46 120.79Z" id="ayJOdzaTp"></path><path d="M433.22 202.37C446.52 244.67 432.44 280.14 438.52 280.14C446.3 280.14 458.53 246.26 458.53 212.37C458.53 178.48 444.1 144.59 438.52 144.59C433.51 144.59 427.01 154.93 419 175.62C419.61 165.25 424.35 174.17 433.22 202.37Z" id="cPYRyyND1"></path><path d="M218.98 202.37C205.67 244.67 219.75 280.14 213.68 280.14C205.89 280.14 193.67 246.26 193.67 212.37C193.67 178.48 208.1 144.59 213.68 144.59C218.69 144.59 225.19 154.93 233.2 175.62C232.59 165.25 227.85 174.17 218.98 202.37Z" id="aa76H73Um"></path><path d="M433.22 202.37C446.52 244.67 432.44 280.14 438.52 280.14C446.3 280.14 458.53 246.26 458.53 212.37C458.53 178.48 444.1 144.59 438.52 144.59C433.51 144.59 427.01 154.93 419 175.62C419.61 165.25 424.35 174.17 433.22 202.37Z" id="a67S2FdFU6"></path><path d="M218.9 120.89C213.8 130.78 211.81 141.98 213.19 153.02C213.3 153.92 212.06 143.96 212.3 145.93C213.26 153.55 215.92 160.84 220.1 167.27C221.15 168.89 218.13 164.25 219.23 165.93C223.22 172.07 228.99 176.84 235.76 179.61C237.61 180.37 231.53 177.88 233.08 178.52C241 181.76 249.27 184.05 257.73 185.35C259.83 185.67 253.71 184.73 255.89 185.07C264.09 186.33 272.38 186.96 280.69 186.96C282.48 186.96 275.37 186.96 277.16 186.96C285.44 186.96 293.66 185.71 301.56 183.26C303.8 182.56 309.39 180.82 318.35 178.04C325.65 175.68 330.21 174.2 332.04 173.61C339.46 171.21 347.14 169.69 354.92 169.06C357.04 168.89 352.58 169.25 354.92 169.06C361.96 168.5 369.04 169.02 375.91 170.61C376.08 170.65 376.49 170.74 377.14 170.89L386.96 174.46C387.79 174.69 388.31 174.83 388.51 174.89C394.02 176.39 399.65 177.38 405.33 177.85C405.76 177.89 399.51 177.37 400.19 177.43C405.06 177.83 409.94 177.83 414.81 177.43C415.49 177.37 409.25 177.89 409.69 177.85C415.29 177.39 420.67 175.53 425.37 172.46C428.74 170.24 429.12 170 431.85 168.21C438.64 163.76 443.97 157.42 447.18 149.97C448 148.08 445.47 153.94 446.27 152.07C449.55 144.48 451.07 136.24 450.71 127.98C450.58 125.06 450.69 127.48 450.55 124.22C450.34 119.4 445 116.62 440.94 119.2C439 120.43 442.58 118.16 440.7 119.35C434.65 123.2 427.33 124.55 420.3 123.11C419.88 123.02 427.81 124.65 426.95 124.47C421.16 123.28 415.6 121.19 410.47 118.26C409.01 117.42 405.34 115.32 399.46 111.96L381.61 101.25C374.38 98.62 369.87 96.98 368.06 96.33C357.7 92.55 346.43 92.03 335.75 94.81C335.2 94.96 333.82 95.32 331.61 95.89C326.76 97.31 323.74 98.19 322.53 98.54C314.45 100.9 305.88 100.98 297.76 98.78C291.67 97.13 300.25 99.45 297.76 98.78C278.04 93.44 257.1 94.89 238.3 102.88C235.71 103.99 244.11 100.41 238.3 102.88C229.94 106.44 223.08 112.81 218.9 120.89C217.34 123.93 220.2 118.39 218.9 120.89Z" id="b3HP2PDviA"></path><path d="M401.29 177.64L401.65 177.67L402.02 177.69L402.38 177.71L402.73 177.73L402.78 177.74L403.2 177.78L403.63 177.83L404.05 177.87L404.48 177.91L404.9 177.95L405.33 177.99L400.19 177.56L400.56 177.59L400.92 177.61L400.92 177.61L401.29 177.64ZM410.53 177.9L410.95 177.86L411.36 177.8L411.64 177.76L411.89 177.75L412.25 177.73L412.62 177.71L412.98 177.69L413.35 177.67L413.71 177.64L414.08 177.61L414.44 177.59L414.81 177.56L409.69 177.98L410.11 177.95L410.11 177.95L410.53 177.9ZM445.08 118.4L445.4 118.45L445.71 118.52L446.02 118.6L446.32 118.69L446.61 118.8L446.9 118.93L447.19 119.07L447.47 119.22L447.73 119.39L447.99 119.57L448.25 119.76L448.49 119.96L448.72 120.18L448.94 120.41L449.15 120.65L449.35 120.91L449.53 121.17L449.7 121.44L449.86 121.73L450 122.02L450.13 122.33L450.24 122.64L450.34 122.97L450.42 123.3L450.48 123.64L450.52 123.99L450.55 124.35L450.71 128.11L450.73 128.73L450.75 129.35L450.76 129.97L450.76 130.59L450.76 131.21L450.74 131.83L450.73 132.44L450.7 133.06L450.67 133.68L450.63 134.29L450.58 134.91L450.53 135.52L450.47 136.14L450.4 136.75L450.33 137.36L450.25 137.97L450.16 138.59L450.06 139.19L449.96 139.8L449.85 140.41L449.74 141.01L449.62 141.62L449.49 142.22L449.35 142.82L449.21 143.42L449.06 144.02L448.91 144.62L448.74 145.21L448.57 145.81L448.4 146.4L448.22 146.99L448.03 147.58L447.83 148.16L447.63 148.75L447.42 149.33L447.2 149.91L446.98 150.49L446.76 151.06L446.69 151.21L446.43 151.75L446.16 152.3L445.88 152.84L445.6 153.37L445.31 153.9L445.01 154.43L444.7 154.95L444.39 155.47L444.07 155.98L443.74 156.48L443.4 156.98L443.06 157.48L442.71 157.97L442.35 158.46L441.99 158.94L441.62 159.41L441.24 159.88L440.86 160.34L440.47 160.8L440.07 161.25L439.67 161.7L439.26 162.14L438.84 162.58L438.42 163.01L437.99 163.43L437.55 163.85L437.11 164.26L436.66 164.66L436.2 165.06L435.74 165.45L435.28 165.83L434.81 166.21L434.33 166.58L433.84 166.95L433.35 167.31L432.86 167.66L432.36 168L431.85 168.34L425.37 172.59L425.01 172.82L424.66 173.04L424.3 173.26L423.94 173.47L423.57 173.68L423.21 173.89L422.84 174.09L422.47 174.28L422.1 174.48L421.72 174.66L421.35 174.84L420.97 175.02L420.59 175.19L420.2 175.36L419.82 175.52L419.43 175.68L419.04 175.83L418.65 175.98L418.26 176.13L417.87 176.26L417.47 176.4L417.07 176.53L416.67 176.65L416.27 176.77L415.87 176.88L415.47 176.99L415.06 177.09L414.66 177.19L414.25 177.29L413.84 177.38L413.43 177.46L413.02 177.54L412.61 177.61L412.19 177.68L411.78 177.74L411.64 177.76L411.52 177.77L411.16 177.79L410.79 177.8L410.43 177.81L410.06 177.82L409.69 177.83L409.33 177.84L408.96 177.85L408.6 177.85L408.23 177.86L407.87 177.86L407.5 177.86L407.13 177.86L406.77 177.86L406.4 177.85L406.04 177.85L405.67 177.84L405.31 177.83L404.94 177.82L404.57 177.81L404.21 177.8L403.84 177.79L403.48 177.77L403.11 177.75L402.75 177.73L402.73 177.73L402.35 177.69L401.93 177.64L401.5 177.59L401.08 177.53L400.65 177.48L400.23 177.42L399.81 177.36L399.38 177.3L398.96 177.23L398.54 177.17L398.12 177.1L397.7 177.03L397.28 176.96L396.85 176.89L396.43 176.81L396.01 176.73L395.59 176.65L395.17 176.57L394.75 176.49L394.34 176.41L393.92 176.32L393.5 176.23L393.08 176.14L392.66 176.05L392.25 175.95L391.83 175.86L391.41 175.76L391 175.66L390.58 175.56L390.17 175.45L389.75 175.35L389.34 175.24L388.93 175.13L388.51 175.02L386.96 174.59L377.14 171.02L375.91 170.74L375.4 170.62L374.88 170.51L374.36 170.4L373.84 170.3L373.32 170.19L372.8 170.1L372.28 170L371.76 169.92L371.24 169.83L370.72 169.75L370.2 169.67L369.67 169.6L369.15 169.53L368.63 169.47L368.1 169.4L367.58 169.35L367.05 169.29L366.53 169.25L366 169.2L365.48 169.16L364.95 169.12L364.42 169.09L363.9 169.06L363.37 169.04L362.84 169.02L362.31 169L361.79 168.99L361.26 168.98L360.73 168.98L360.2 168.97L359.67 168.98L359.15 168.99L358.62 169L358.09 169.01L357.56 169.03L357.03 169.06L356.5 169.09L355.98 169.12L355.45 169.15L354.92 169.19L354.34 169.24L353.75 169.29L353.59 169.31L355.36 169.11L358.81 168.6L362.2 167.98L365.55 167.27L368.85 166.44L372.08 165.52L375.26 164.5L378.38 163.39L381.43 162.18L384.41 160.88L387.32 159.5L390.15 158.03L392.91 156.47L395.6 154.83L398.19 153.11L400.71 151.32L403.13 149.45L405.47 147.5L407.71 145.49L409.85 143.41L411.9 141.26L413.84 139.05L415.68 136.78L417.41 134.45L419.03 132.06L420.54 129.61L421.93 127.12L423.2 124.57L423.51 123.9L426.95 124.6L426.51 124.51L426.08 124.42L425.65 124.32L425.22 124.22L424.79 124.11L424.36 124.01L423.93 123.89L423.55 123.79L423.59 123.71L424.01 123.74L424.54 123.77L425.07 123.79L425.6 123.8L426.13 123.8L426.66 123.79L427.19 123.77L427.72 123.74L428.25 123.7L428.78 123.65L429.3 123.59L429.82 123.52L430.35 123.44L430.87 123.35L431.39 123.24L431.9 123.13L432.42 123.01L432.93 122.88L433.44 122.74L433.95 122.59L434.45 122.43L434.95 122.26L435.45 122.09L435.95 121.9L436.44 121.7L436.93 121.49L437.42 121.27L437.9 121.05L438.38 120.81L438.85 120.56L439.32 120.31L439.79 120.04L440.25 119.77L440.7 119.48L440.94 119.33L441.24 119.15L441.55 118.99L441.87 118.84L442.19 118.72L442.51 118.61L442.83 118.52L443.15 118.45L443.48 118.4L443.8 118.37L444.12 118.35L444.45 118.35L444.77 118.37L444.77 118.37L445.08 118.4ZM350.26 169.68L350.26 169.64L351.22 169.56L350.85 169.6L350.27 169.68L350.27 169.68L350.26 169.68ZM446.75 151.06L446.76 151.06L446.94 150.65L447.18 150.1L446.27 152.21L446.52 151.63L446.52 151.63L446.75 151.06Z" id="b1bTnNhFcW"></path></defs><g><g><g><use xlink:href="#c1zYueeZH" opacity="1" fill="#ecdf9e" fill-opacity="1"></use><g><use xlink:href="#c1zYueeZH" opacity="1" fill-opacity="0" stroke="#000000" stroke-width="1" stroke-opacity="0"></use></g></g><g><use xlink:href="#d8I37IzTak" opacity="1" fill="#93b682" fill-opacity="1"></use><g><use xlink:href="#d8I37IzTak" opacity="1" fill-opacity="0" stroke="#000000" stroke-width="1" stroke-opacity="0"></use></g></g><g><use xlink:href="#b2IIr0YWZ0" opacity="1" fill="#000000" fill-opacity="0"></use><g><use xlink:href="#b2IIr0YWZ0" opacity="1" fill-opacity="0" stroke="#000000" stroke-width="1" stroke-opacity="0"></use></g></g><g><use xlink:href="#eIimyY6Yr" opacity="1" fill="#ff9386" fill-opacity="1"></use><g><use xlink:href="#eIimyY6Yr" opacity="1" fill-opacity="0" stroke="#000000" stroke-width="1" stroke-opacity="0"></use></g></g><g><use xlink:href="#b1F2ubuF9" opacity="1" fill="#000000" fill-opacity="0"></use><g><use xlink:href="#b1F2ubuF9" opacity="1" fill-opacity="0" stroke="#000000" stroke-width="1" stroke-opacity="0"></use></g></g><g><use xlink:href="#ar9SKnsw" opacity="1" fill="#b8645a" fill-opacity="1"></use><g><use xlink:href="#ar9SKnsw" opacity="1" fill-opacity="0" stroke="#000000" stroke-width="1" stroke-opacity="0"></use></g></g><g><use xlink:href="#b4uZqjWTQd" opacity="1" fill="#000000" fill-opacity="0"></use><g><use xlink:href="#b4uZqjWTQd" opacity="1" fill-opacity="0" stroke="#000000" stroke-width="1" stroke-opacity="0"></use></g></g><g><use xlink:href="#ofoxkBzO" opacity="1" fill="#b0d69e" fill-opacity="1"></use><g><use xlink:href="#ofoxkBzO" opacity="1" fill-opacity="0" stroke="#000000" stroke-width="1" stroke-opacity="0"></use></g></g><g><use xlink:href="#ea7V1clOeX" opacity="1" fill="#000000" fill-opacity="0"></use><g><use xlink:href="#ea7V1clOeX" opacity="1" fill-opacity="0" stroke="#000000" stroke-width="1" stroke-opacity="0"></use></g></g><g><use xlink:href="#cpqUM1D1X" opacity="1" fill="#ffa99c" fill-opacity="1"></use><g><use xlink:href="#cpqUM1D1X" opacity="1" fill-opacity="0" stroke="#000000" stroke-width="1" stroke-opacity="0"></use></g></g><g><use xlink:href="#apSm8SVkF" opacity="1" fill="#000000" fill-opacity="0"></use><g><use xlink:href="#apSm8SVkF" opacity="1" fill-opacity="0" stroke="#000000" stroke-width="1" stroke-opacity="0"></use></g></g><g><use xlink:href="#bDl1K5556" opacity="1" fill="#000000" fill-opacity="0.13"></use><g><use xlink:href="#bDl1K5556" opacity="1" fill-opacity="0" stroke="#000000" stroke-width="1" stroke-opacity="0"></use></g></g><g><use xlink:href="#b2U09Atvck" opacity="1" fill="#ececec" fill-opacity="1"></use><g><use xlink:href="#b2U09Atvck" opacity="1" fill-opacity="0" stroke="#000000" stroke-width="1" stroke-opacity="0"></use></g></g><g><use xlink:href="#a8R2r2BDCy" opacity="1" fill="#ecb69e" fill-opacity="1"></use><g><use xlink:href="#a8R2r2BDCy" opacity="1" fill-opacity="0" stroke="#000000" stroke-width="1" stroke-opacity="0"></use></g></g><g><use xlink:href="#c3Gb9zeFc" opacity="1" fill="#000000" fill-opacity="0.13"></use><g><use xlink:href="#c3Gb9zeFc" opacity="1" fill-opacity="0" stroke="#000000" stroke-width="1" stroke-opacity="0"></use></g></g><g><use xlink:href="#h72vsD7CcS" opacity="1" fill="#ecb69e" fill-opacity="1"></use><g><use xlink:href="#h72vsD7CcS" opacity="1" fill-opacity="0" stroke="#000000" stroke-width="1" stroke-opacity="0"></use></g></g><g><use xlink:href="#cksTLOmTF" opacity="1" fill="#ecb69e" fill-opacity="1"></use><g><use xlink:href="#cksTLOmTF" opacity="1" fill-opacity="0" stroke="#000000" stroke-width="1" stroke-opacity="0"></use></g></g><g><use xlink:href="#e4aDBcS8Iu" opacity="1" fill="#ffcbad" fill-opacity="1"></use><g><use xlink:href="#e4aDBcS8Iu" opacity="1" fill-opacity="0" stroke="#000000" stroke-width="1" stroke-opacity="0"></use></g></g><g><use xlink:href="#ayJOdzaTp" opacity="1" fill="#000000" fill-opacity="0.04"></use><g><use xlink:href="#ayJOdzaTp" opacity="1" fill-opacity="0" stroke="#000000" stroke-width="1" stroke-opacity="0"></use></g></g><g><use xlink:href="#cPYRyyND1" opacity="1" fill="#c26f6f" fill-opacity="1"></use><g><use xlink:href="#cPYRyyND1" opacity="1" fill-opacity="0" stroke="#000000" stroke-width="1" stroke-opacity="0"></use></g></g><g><use xlink:href="#aa76H73Um" opacity="1" fill="#c26f6f" fill-opacity="1"></use><g><use xlink:href="#aa76H73Um" opacity="1" fill-opacity="0" stroke="#000000" stroke-width="1" stroke-opacity="0"></use></g></g><g><use xlink:href="#a67S2FdFU6" opacity="1" fill="#000000" fill-opacity="0.13"></use><g><use xlink:href="#a67S2FdFU6" opacity="1" fill-opacity="0" stroke="#000000" stroke-width="1" stroke-opacity="0"></use></g></g><g><use xlink:href="#b3HP2PDviA" opacity="1" fill="#ef9a9a" fill-opacity="1"></use></g><g><use xlink:href="#b1bTnNhFcW" opacity="1" fill="#000000" fill-opacity="0.13"></use></g></g></g></svg>