<?xml version="1.0" encoding="UTF-8" standalone="no"?>
<!DOCTYPE svg PUBLIC "-//W3C//DTD SVG 1.1//EN" "http://www.w3.org/Graphics/SVG/1.1/DTD/svg11.dtd">
<svg version="1.1" xmlns="http://www.w3.org/2000/svg" xmlns:xlink="http://www.w3.org/1999/xlink" preserveAspectRatio="xMidYMid meet" viewBox="0 0 640 640" width="640" height="640"><defs><path d="M143.92 894.71C13.62 894.71 -92.17 793.89 -92.17 669.71C-92.17 545.53 13.62 444.71 143.92 444.71C274.22 444.71 380.01 545.53 380.01 669.71C380.01 793.89 274.22 894.71 143.92 894.71Z" id="kfjA6z16p"></path><path d="M197.89 576.56C198.23 576.9 199.1 577.73 200.49 579.06C199.66 580.67 199.13 581.67 198.92 582.07C187.26 604.46 159.46 610.18 140.83 594.01C140.48 593.71 139.61 592.95 138.21 591.74C139.33 589.48 140.03 588.07 140.31 587.51C151.6 564.76 179.93 559.37 197.89 576.56Z" id="c5CGvU6lk"></path><path d="M197.89 576.56C198.23 576.9 199.1 577.73 200.49 579.06C199.66 580.67 199.13 581.67 198.92 582.07C187.26 604.46 159.46 610.18 140.83 594.01C140.48 593.71 139.61 592.95 138.21 591.74C139.33 589.48 140.03 588.07 140.31 587.51C151.6 564.76 179.93 559.37 197.89 576.56Z" id="g3kTX5E7wk"></path><path d="M163.12 732.28C175.12 729.76 188.64 720.48 203.68 704.42C215.12 692.2 221.76 676.45 223.62 657.15C224.63 646.58 223.53 635.9 220.38 625.83C218.69 620.41 221.33 628.89 220.38 625.83C215.13 609.03 201.98 596.42 185.76 592.63C183.6 592.12 179.13 591.92 172.33 592.01C141.66 592.43 134.35 614.66 126.97 629.17C119.6 643.68 119.53 656.69 122.32 680.78C124.18 696.84 137.79 714.01 163.12 732.28Z" id="a2C71nutf"></path><path d="M163.12 732.28C175.12 729.76 188.64 720.48 203.68 704.42C215.12 692.2 221.76 676.45 223.62 657.15C224.63 646.58 223.53 635.9 220.38 625.83C218.69 620.41 221.33 628.89 220.38 625.83C215.13 609.03 201.98 596.42 185.76 592.63C183.6 592.12 179.13 591.92 172.33 592.01C141.66 592.43 134.35 614.66 126.97 629.17C119.6 643.68 119.53 656.69 122.32 680.78C124.18 696.84 137.79 714.01 163.12 732.28Z" id="e55A1NpNb"></path><path d="M144.83 630.06C136.91 612.1 135.85 594.83 142.46 591.51C149.07 588.2 160.87 600.09 168.78 618.05C176.7 636.01 177.76 653.28 171.15 656.59C164.54 659.91 152.75 648.02 144.83 630.06Z" id="g1dnvWJkMi"></path><path d="M144.83 630.06C136.91 612.1 135.85 594.83 142.46 591.51C149.07 588.2 160.87 600.09 168.78 618.05C176.7 636.01 177.76 653.28 171.15 656.59C164.54 659.91 152.75 648.02 144.83 630.06Z" id="c31IUfH5cK"></path><path d="M143.3 606.2C123.34 624.86 92.35 619.32 79.19 594.73C78.77 593.94 77.7 591.95 75.99 588.76C78.18 586.29 79.54 584.75 80.09 584.13C98.41 563.43 129.47 564.08 147.02 585.53C148.61 587.48 146.73 585.18 154.84 595.1C154.92 595.19 154.91 595.33 154.82 595.42C144.79 604.8 145.63 604.01 143.3 606.2Z" id="ah7lq65qN"></path><path d="M143.3 606.2C123.34 624.86 92.35 619.32 79.19 594.73C78.77 593.94 77.7 591.95 75.99 588.76C78.18 586.29 79.54 584.75 80.09 584.13C98.41 563.43 129.47 564.08 147.02 585.53C148.61 587.48 146.73 585.18 154.84 595.1C154.92 595.19 154.91 595.33 154.82 595.42C144.79 604.8 145.63 604.01 143.3 606.2Z" id="cpYPtmDRN"></path><path d="M166.73 724.54C166.25 725.57 165.05 728.15 163.12 732.28C134.45 729.41 113.12 719.95 99.15 703.89C78.19 679.8 75.57 653.89 77.74 636.25C78.39 631.03 79.76 626.41 81.88 622.39C87.27 612.15 95.53 603.99 105.51 599.04C110.56 596.54 117.06 595.11 125 594.76C147.18 593.78 156.52 603.6 170.4 628.64C175.1 637.11 177.85 648.19 178.64 661.88C179.9 683.52 175.79 705.13 166.73 724.54Z" id="c3VSBzWj4r"></path><path d="M166.73 724.54C166.25 725.57 165.05 728.15 163.12 732.28C134.45 729.41 113.12 719.95 99.15 703.89C78.19 679.8 75.57 653.89 77.74 636.25C78.39 631.03 79.76 626.41 81.88 622.39C87.27 612.15 95.53 603.99 105.51 599.04C110.56 596.54 117.06 595.11 125 594.76C147.18 593.78 156.52 603.6 170.4 628.64C175.1 637.11 177.85 648.19 178.64 661.88C179.9 683.52 175.79 705.13 166.73 724.54Z" id="b1uCQsHD2Q"></path><path d="M172.79 446.38L182.19 447.66L191.48 449.29L200.63 451.26L209.64 453.56L218.51 456.19L227.23 459.14L235.78 462.41L244.17 465.98L252.38 469.84L260.41 474L268.24 478.44L275.88 483.16L283.31 488.15L290.53 493.4L297.53 498.9L304.3 504.65L310.83 510.65L317.12 516.87L323.15 523.32L328.93 529.99L334.43 536.87L339.67 543.95L344.62 551.23L349.28 558.7L353.64 566.35L357.7 574.17L361.45 582.17L364.87 590.32L367.97 598.63L370.73 607.08L373.14 615.67L375.21 624.39L376.92 633.24L378.26 642.2L379.23 651.27L379.81 660.44L380.01 669.71L379.81 678.98L379.23 688.16L378.26 697.23L376.92 706.19L375.21 715.03L373.14 723.76L370.73 732.35L367.97 740.8L364.87 749.1L361.45 757.26L357.7 765.25L353.64 773.08L349.28 780.73L344.62 788.2L339.67 795.48L334.43 802.56L328.93 809.44L323.15 816.11L317.12 822.56L310.83 828.78L304.3 834.77L297.53 840.52L290.53 846.03L283.31 851.28L275.88 856.26L268.24 860.98L260.41 865.42L252.38 869.58L244.17 873.45L235.78 877.02L227.23 880.28L218.51 883.23L209.64 885.87L200.63 888.17L191.48 890.14L182.19 891.77L172.79 893.04L163.27 893.97L153.65 894.53L143.92 894.71L143.92 444.71L153.65 444.9L163.27 445.46L172.79 446.38Z" id="cWIhspYkH"></path><path d="M149.99 532.42C113.78 532.42 84.38 503.03 84.38 466.82C84.38 430.61 113.78 401.21 149.99 401.21C186.2 401.21 215.59 430.61 215.59 466.82C215.59 503.03 186.2 532.42 149.99 532.42Z" id="kjvug5GY1"></path><path d="M204.16 454.43L204.02 456.64L203.8 458.82L203.49 460.98L203.1 463.11L202.62 465.21L202.07 467.28L201.44 469.32L200.72 471.32L199.94 473.29L199.08 475.21L198.15 477.1L197.14 478.94L196.07 480.74L194.94 482.49L193.74 484.2L192.47 485.86L191.14 487.46L189.76 489.02L188.31 490.52L186.82 491.96L185.26 493.35L183.65 494.67L182 495.94L180.29 497.14L178.54 498.28L176.74 499.35L174.89 500.35L173.01 501.28L171.08 502.14L169.12 502.93L167.12 503.64L165.08 504.27L163.01 504.83L160.91 505.3L158.78 505.69L156.62 506L154.43 506.22L152.22 506.36L149.99 506.4L147.76 506.36L145.55 506.22L143.36 506L141.2 505.69L139.07 505.3L136.97 504.83L134.9 504.27L132.86 503.64L130.86 502.93L128.9 502.14L126.97 501.28L125.08 500.35L123.24 499.35L121.44 498.28L119.69 497.14L117.98 495.94L116.32 494.67L114.72 493.35L113.16 491.96L111.66 490.52L110.22 489.02L108.83 487.46L107.51 485.86L106.24 484.2L105.04 482.49L103.9 480.74L102.83 478.94L101.83 477.1L100.9 475.21L100.04 473.29L99.25 471.32L98.54 469.32L97.91 467.28L97.35 465.21L96.88 463.11L96.49 460.98L96.18 458.82L95.96 456.64L95.82 454.43L95.78 452.19L95.78 343.77L204.2 343.77L204.2 452.19L204.16 454.43Z" id="eASFTBoT3"></path><path d="M204.02 456.64L203.8 458.82L203.49 460.98L203.1 463.11L202.62 465.21L202.07 467.28L201.44 469.32L200.72 471.32L199.94 473.29L199.08 475.21L198.15 477.1L197.14 478.94L196.07 480.74L194.94 482.49L193.74 484.2L192.47 485.86L191.14 487.47L189.76 489.02L188.31 490.52L186.82 491.96L185.26 493.35L183.65 494.67L182 495.94L180.29 497.14L178.54 498.28L176.74 499.35L174.89 500.35L173.01 501.28L171.08 502.14L169.12 502.93L167.12 503.64L165.08 504.27L163.01 504.83L160.91 505.3L158.78 505.69L156.62 506L154.43 506.22L152.22 506.36L150 506.4L95.78 415.95L95.78 415.95L204.2 384.58L204.2 452.19L204.16 454.43L204.02 456.64Z" id="edb5LRimP"></path><path d="M34.94 234.91L36.24 235.05L37.54 235.23L38.81 235.47L40.07 235.77L41.3 236.11L42.52 236.5L43.71 236.93L44.89 237.41L46.03 237.94L47.16 238.51L48.25 239.12L49.32 239.78L50.36 240.47L51.37 241.21L52.35 241.98L53.3 242.79L54.22 243.64L55.1 244.52L55.94 245.44L56.75 246.39L57.53 247.37L58.26 248.38L58.96 249.42L59.61 250.49L60.23 251.58L60.8 252.71L61.33 253.85L61.81 255.02L62.24 256.22L62.63 257.43L62.97 258.67L63.26 259.93L63.5 261.2L63.69 262.49L63.83 263.8L63.91 265.13L63.94 266.46L63.91 267.8L63.83 269.13L63.69 270.43L63.5 271.73L63.26 273L62.97 274.26L62.63 275.49L62.24 276.71L61.81 277.91L61.33 279.08L60.8 280.22L60.23 281.35L59.61 282.44L58.96 283.51L58.26 284.55L57.53 285.56L56.75 286.54L55.94 287.49L55.1 288.41L54.22 289.29L53.3 290.14L52.35 290.95L51.37 291.72L50.36 292.45L49.32 293.15L48.25 293.81L47.16 294.42L46.03 294.99L44.89 295.52L43.71 296L42.52 296.43L41.3 296.82L40.07 297.16L38.81 297.45L37.54 297.7L36.24 297.88L34.94 298.02L33.61 298.1L32.27 298.13L30.94 298.1L29.61 298.02L28.3 297.88L27.01 297.7L25.74 297.45L24.48 297.16L23.24 296.82L22.03 296.43L20.83 296L19.66 295.52L18.51 294.99L17.39 294.42L16.3 293.81L15.23 293.15L14.19 292.45L13.18 291.72L12.2 290.95L11.25 290.14L10.33 289.29L9.45 288.41L8.6 287.49L7.79 286.54L7.02 285.56L6.28 284.55L5.59 283.51L4.93 282.44L4.32 281.35L3.75 280.22L3.22 279.08L2.74 277.91L2.3 276.71L1.92 275.49L1.57 274.26L1.28 273L1.04 271.73L0.85 270.43L0.72 269.13L0.63 267.8L0.61 266.46L0.63 265.13L0.72 263.8L0.85 262.49L1.04 261.2L1.28 259.93L1.57 258.67L1.92 257.43L2.3 256.22L2.74 255.02L3.22 253.85L3.75 252.71L4.32 251.58L4.93 250.49L5.59 249.42L6.28 248.38L7.02 247.37L7.79 246.39L8.6 245.44L9.45 244.52L10.33 243.64L11.25 242.79L12.2 241.98L13.18 241.21L14.19 240.47L15.23 239.78L16.3 239.12L17.39 238.51L18.51 237.94L19.66 237.41L20.83 236.93L22.03 236.5L23.24 236.11L24.48 235.77L25.74 235.47L27.01 235.23L28.3 235.05L29.61 234.91L30.94 234.83L32.27 234.8L33.61 234.83L34.94 234.91Z" id="c462kyEkbS"></path><path d="M270.36 234.91L271.66 235.05L272.96 235.23L274.23 235.47L275.49 235.77L276.72 236.11L277.94 236.5L279.13 236.93L280.31 237.41L281.45 237.94L282.58 238.51L283.67 239.12L284.74 239.78L285.78 240.47L286.79 241.21L287.77 241.98L288.72 242.79L289.64 243.64L290.52 244.52L291.36 245.44L292.17 246.39L292.95 247.37L293.68 248.38L294.38 249.42L295.03 250.49L295.65 251.58L296.22 252.71L296.75 253.85L297.23 255.02L297.66 256.22L298.05 257.43L298.39 258.67L298.68 259.93L298.92 261.2L299.11 262.49L299.25 263.8L299.33 265.13L299.36 266.46L299.33 267.8L299.25 269.13L299.11 270.43L298.92 271.73L298.68 273L298.39 274.26L298.05 275.49L297.66 276.71L297.23 277.91L296.75 279.08L296.22 280.22L295.65 281.35L295.03 282.44L294.38 283.51L293.68 284.55L292.95 285.56L292.17 286.54L291.36 287.49L290.52 288.41L289.64 289.29L288.72 290.14L287.77 290.95L286.79 291.72L285.78 292.45L284.74 293.15L283.67 293.81L282.58 294.42L281.45 294.99L280.31 295.52L279.13 296L277.94 296.43L276.72 296.82L275.49 297.16L274.23 297.45L272.96 297.7L271.66 297.88L270.36 298.02L269.03 298.1L267.69 298.13L266.36 298.1L265.03 298.02L263.72 297.88L262.43 297.7L261.16 297.45L259.9 297.16L258.66 296.82L257.45 296.43L256.25 296L255.08 295.52L253.93 294.99L252.81 294.42L251.72 293.81L250.65 293.15L249.61 292.45L248.6 291.72L247.62 290.95L246.67 290.14L245.75 289.29L244.87 288.41L244.02 287.49L243.21 286.54L242.44 285.56L241.7 284.55L241.01 283.51L240.35 282.44L239.74 281.35L239.17 280.22L238.64 279.08L238.16 277.91L237.72 276.71L237.34 275.49L236.99 274.26L236.7 273L236.46 271.73L236.27 270.43L236.14 269.13L236.05 267.8L236.03 266.46L236.05 265.13L236.14 263.8L236.27 262.49L236.46 261.2L236.7 259.93L236.99 258.67L237.34 257.43L237.72 256.22L238.16 255.02L238.64 253.85L239.17 252.71L239.74 251.58L240.35 250.49L241.01 249.42L241.7 248.38L242.44 247.37L243.21 246.39L244.02 245.44L244.87 244.52L245.75 243.64L246.67 242.79L247.62 241.98L248.6 241.21L249.61 240.47L250.65 239.78L251.72 239.12L252.81 238.51L253.93 237.94L255.08 237.41L256.25 236.93L257.45 236.5L258.66 236.11L259.9 235.77L261.16 235.47L262.43 235.23L263.72 235.05L265.03 234.91L266.36 234.83L267.69 234.8L269.03 234.83L270.36 234.91Z" id="a3mea6b4G"></path><path d="M266.82 319.07L266.15 324.11L265.3 329.08L264.27 333.99L263.07 338.82L261.69 343.57L260.15 348.24L258.44 352.82L256.57 357.31L254.55 361.71L252.37 366.02L250.05 370.22L247.58 374.31L244.97 378.29L242.22 382.16L239.35 385.91L236.34 389.53L233.2 393.03L229.95 396.4L226.57 399.63L223.08 402.73L219.48 405.68L215.78 408.48L211.97 411.14L208.06 413.63L204.06 415.97L199.97 418.15L195.79 420.15L191.52 421.99L187.18 423.65L182.75 425.13L178.26 426.42L173.7 427.53L169.07 428.44L164.38 429.16L159.64 429.68L154.84 430L149.99 430.1L145.14 430L140.34 429.68L135.6 429.16L130.91 428.44L126.28 427.53L121.72 426.42L117.22 425.13L112.8 423.65L108.46 421.99L104.19 420.15L100.01 418.15L95.92 415.97L91.91 413.63L88.01 411.14L84.2 408.48L80.49 405.68L76.89 402.73L73.41 399.63L70.03 396.4L66.77 393.03L63.64 389.53L60.63 385.91L57.75 382.16L55.01 378.29L52.4 374.31L49.93 370.22L47.61 366.02L45.43 361.71L43.41 357.31L41.54 352.82L39.83 348.24L38.29 343.57L36.91 338.82L35.71 333.99L34.68 329.08L33.83 324.11L33.16 319.07L32.67 313.97L32.38 308.81L32.28 303.6L32.28 229.33L32.38 224.12L32.67 218.96L33.16 213.86L33.83 208.82L34.68 203.85L35.71 198.94L36.91 194.11L38.29 189.36L39.83 184.69L41.54 180.11L43.41 175.61L45.43 171.22L47.61 166.91L49.93 162.71L52.4 158.62L55.01 154.64L57.75 150.77L60.63 147.02L63.64 143.4L66.77 139.9L70.03 136.53L73.41 133.29L76.89 130.2L80.49 127.25L84.2 124.45L88.01 121.79L91.91 119.29L95.92 116.96L100.01 114.78L104.19 112.78L108.46 110.94L112.8 109.28L117.22 107.8L121.72 106.51L126.28 105.4L130.91 104.49L135.6 103.77L140.34 103.25L145.14 102.93L149.99 102.83L154.84 102.93L159.64 103.25L164.38 103.77L169.07 104.49L173.7 105.4L178.26 106.51L182.75 107.8L187.18 109.28L191.52 110.94L195.79 112.78L199.97 114.78L204.06 116.96L208.06 119.29L211.97 121.79L215.78 124.45L219.48 127.25L223.08 130.2L226.57 133.29L229.95 136.53L233.2 139.9L236.34 143.4L239.35 147.02L242.22 150.77L244.97 154.64L247.58 158.62L250.05 162.71L252.37 166.91L254.55 171.22L256.57 175.61L258.44 180.11L260.15 184.69L261.69 189.36L263.07 194.11L264.27 198.94L265.3 203.85L266.15 208.82L266.82 213.86L267.3 218.96L267.6 224.12L267.69 229.33L267.69 303.6L267.6 308.81L267.3 313.97L266.82 319.07Z" id="e37UJpcUpa"></path><path d="M164.38 103.77L169.07 104.49L173.7 105.4L178.26 106.51L182.75 107.8L187.18 109.28L191.52 110.94L195.79 112.78L199.97 114.78L204.06 116.96L208.06 119.29L211.97 121.79L215.78 124.45L219.48 127.25L223.08 130.2L226.57 133.29L229.95 136.53L233.2 139.9L236.34 143.4L239.35 147.02L242.22 150.77L244.97 154.64L247.58 158.62L250.05 162.71L252.37 166.91L254.55 171.22L256.57 175.61L258.44 180.11L260.15 184.69L261.69 189.36L263.07 194.11L264.27 198.94L265.3 203.85L266.15 208.82L266.82 213.86L267.3 218.96L267.6 224.12L267.69 229.33L267.69 303.6L267.6 308.81L267.3 313.97L266.82 319.07L266.15 324.11L265.3 329.08L264.27 333.99L263.07 338.82L261.69 343.57L260.15 348.24L258.44 352.82L256.57 357.31L254.55 361.71L252.37 366.02L250.05 370.22L247.58 374.31L244.97 378.29L242.22 382.16L239.35 385.91L236.34 389.53L233.2 393.03L229.95 396.4L226.57 399.63L223.08 402.73L219.48 405.68L215.78 408.48L211.97 411.14L208.06 413.63L204.06 415.97L199.97 418.15L195.79 420.15L191.52 421.99L187.18 423.65L182.75 425.13L178.26 426.42L173.7 427.53L169.07 428.44L164.38 429.16L159.64 429.68L154.84 430L149.99 430.1L149.99 102.83L154.84 102.93L159.64 103.25L164.38 103.77Z" id="b3Rz5tknu9"></path><path d="M257.14 185.35C270.44 227.65 256.36 263.12 262.44 263.12C270.22 263.12 282.45 229.24 282.45 195.35C282.45 161.46 268.02 127.57 262.44 127.57C257.43 127.57 250.93 137.91 242.92 158.6C243.53 148.23 248.27 157.15 257.14 185.35Z" id="c2zZjRdZJi"></path><path d="M42.9 185.35C29.59 227.65 43.67 263.12 37.6 263.12C29.81 263.12 17.59 229.24 17.59 195.35C17.59 161.46 32.02 127.57 37.6 127.57C42.61 127.57 49.11 137.91 57.12 158.6C56.51 148.23 51.77 157.15 42.9 185.35Z" id="h9779aLHr"></path><path d="M257.14 185.35C270.44 227.65 256.36 263.12 262.44 263.12C270.22 263.12 282.45 229.24 282.45 195.35C282.45 161.46 268.02 127.57 262.44 127.57C257.43 127.57 250.93 137.91 242.92 158.6C243.53 148.23 248.27 157.15 257.14 185.35Z" id="a1GnG4ltG"></path><path d="M42.82 103.88C37.72 113.77 35.73 124.96 37.11 136C37.22 136.9 35.97 126.95 36.22 128.92C37.17 136.53 39.84 143.83 44.02 150.26C45.07 151.87 42.05 147.23 43.15 148.92C47.14 155.05 52.9 159.83 59.68 162.6C61.52 163.35 55.45 160.87 56.99 161.5C64.91 164.74 73.19 167.03 81.65 168.34C83.74 168.66 77.62 167.72 79.8 168.05C88.01 169.31 96.3 169.95 104.6 169.95C106.39 169.95 99.29 169.95 101.08 169.95C109.35 169.95 117.58 168.7 125.48 166.24C127.71 165.55 133.31 163.8 142.26 161.02C149.56 158.66 154.13 157.19 155.96 156.6C163.38 154.2 171.06 152.67 178.84 152.05C180.96 151.88 176.49 152.24 178.84 152.05C185.87 151.49 192.95 152.01 199.83 153.59C199.99 153.63 200.4 153.73 201.06 153.88L210.88 157.45C211.71 157.67 212.22 157.82 212.43 157.87C217.93 159.37 223.56 160.37 229.25 160.84C229.68 160.88 223.43 160.35 224.11 160.41C228.97 160.82 233.86 160.82 238.72 160.41C239.4 160.35 233.17 160.87 233.61 160.84C239.2 160.37 244.59 158.52 249.28 155.44C252.66 153.23 253.04 152.98 255.77 151.19C262.55 146.75 267.89 140.4 271.1 132.95C271.91 131.07 269.39 136.92 270.19 135.06C273.46 127.46 274.98 119.23 274.63 110.97C274.5 108.05 274.6 110.46 274.46 107.2C274.26 102.39 268.92 99.6 264.85 102.19C262.92 103.42 266.49 101.14 264.62 102.34C258.56 106.19 251.25 107.53 244.22 106.09C243.8 106.01 251.73 107.63 250.86 107.46C245.08 106.27 239.52 104.17 234.39 101.24C232.92 100.4 229.25 98.3 223.38 94.95L205.52 84.23C198.3 81.61 193.79 79.97 191.98 79.31C181.61 75.54 170.34 75.01 159.67 77.8C159.11 77.94 157.73 78.3 155.52 78.88C150.68 80.29 147.65 81.17 146.44 81.53C138.37 83.88 129.8 83.96 121.68 81.76C115.59 80.12 124.16 82.44 121.68 81.76C101.96 76.42 81.02 77.87 62.22 85.87C59.63 86.97 68.02 83.4 62.22 85.87C53.85 89.43 46.99 95.8 42.82 103.88C41.25 106.91 44.11 101.38 42.82 103.88Z" id="bS9Wfv6dE"></path><path d="M224.84 160.6L225.2 160.63L225.57 160.65L225.93 160.67L226.3 160.7L226.64 160.72L226.69 160.72L227.12 160.77L227.54 160.81L227.97 160.85L228.39 160.89L228.82 160.93L229.25 160.97L224.11 160.54L224.47 160.57L224.84 160.6ZM234.03 160.93L234.45 160.89L234.86 160.84L235.28 160.79L235.56 160.75L235.8 160.74L236.17 160.72L236.53 160.7L236.9 160.67L237.26 160.65L237.63 160.63L237.99 160.6L238.36 160.57L238.72 160.54L233.61 160.97L234.03 160.93ZM268.68 101.35L269 101.38L269.31 101.43L269.62 101.5L269.93 101.58L270.23 101.68L270.53 101.79L270.82 101.91L271.1 102.05L271.38 102.2L271.65 102.37L271.91 102.55L272.16 102.74L272.4 102.95L272.63 103.17L272.86 103.4L273.06 103.64L273.26 103.89L273.45 104.15L273.62 104.43L273.77 104.71L273.92 105.01L274.05 105.31L274.16 105.63L274.25 105.95L274.33 106.28L274.39 106.62L274.44 106.97L274.46 107.33L274.63 111.1L274.65 111.72L274.66 112.34L274.67 112.95L274.68 113.57L274.67 114.19L274.66 114.81L274.64 115.43L274.62 116.05L274.58 116.66L274.54 117.28L274.5 117.89L274.44 118.51L274.38 119.12L274.32 119.74L274.24 120.35L274.16 120.96L274.07 121.57L273.98 122.18L273.88 122.79L273.77 123.39L273.65 124L273.53 124.6L273.4 125.21L273.27 125.81L273.13 126.41L272.98 127.01L272.82 127.6L272.66 128.2L272.49 128.79L272.31 129.38L272.13 129.97L271.94 130.56L271.75 131.15L271.54 131.73L271.34 132.31L271.12 132.89L270.9 133.47L270.67 134.04L270.67 134.05L270.67 134.05L270.6 134.19L270.34 134.74L270.07 135.28L269.8 135.82L269.51 136.36L269.22 136.89L268.92 137.41L268.62 137.93L268.3 138.45L267.98 138.96L267.65 139.47L267.32 139.97L266.98 140.46L266.63 140.96L266.27 141.44L265.91 141.92L265.53 142.4L265.16 142.87L264.77 143.33L264.38 143.79L263.99 144.24L263.58 144.69L263.17 145.13L262.75 145.56L262.33 145.99L261.9 146.41L261.46 146.83L261.02 147.24L260.57 147.64L260.12 148.04L259.66 148.43L259.19 148.82L258.72 149.2L258.24 149.57L257.76 149.93L257.27 150.29L256.77 150.64L256.27 150.99L255.77 151.32L249.28 155.57L248.93 155.8L248.57 156.02L248.21 156.24L247.85 156.46L247.49 156.67L247.12 156.87L246.76 157.07L246.39 157.27L246.01 157.46L245.64 157.65L245.26 157.83L244.88 158.01L244.5 158.18L244.12 158.35L243.73 158.51L243.35 158.67L242.96 158.82L242.57 158.97L242.18 159.11L241.78 159.25L241.39 159.38L240.99 159.51L240.59 159.63L240.19 159.75L239.79 159.87L239.38 159.98L238.98 160.08L238.57 160.18L238.17 160.27L237.76 160.36L237.35 160.44L236.94 160.52L236.52 160.6L236.11 160.66L235.7 160.73L235.56 160.75L235.44 160.75L235.07 160.77L234.71 160.78L234.34 160.8L233.98 160.81L233.61 160.82L233.24 160.83L232.88 160.83L232.51 160.84L232.15 160.84L231.78 160.84L231.42 160.85L231.05 160.84L230.68 160.84L230.32 160.84L229.95 160.83L229.59 160.83L229.22 160.82L228.86 160.81L228.49 160.8L228.12 160.78L227.76 160.77L227.39 160.75L227.03 160.74L226.66 160.72L226.64 160.72L226.27 160.67L225.84 160.62L225.42 160.57L224.99 160.52L224.57 160.46L224.15 160.4L223.72 160.34L223.3 160.28L222.88 160.22L222.46 160.15L222.03 160.08L221.61 160.02L221.19 159.94L220.77 159.87L220.35 159.8L219.93 159.72L219.51 159.64L219.09 159.56L218.67 159.48L218.25 159.39L217.83 159.3L217.41 159.22L217 159.12L216.58 159.03L216.16 158.94L215.75 158.84L215.33 158.74L214.91 158.64L214.5 158.54L214.08 158.44L213.67 158.33L213.26 158.22L212.84 158.11L212.43 158L210.88 157.58L201.06 154.01L199.83 153.72L199.31 153.61L198.79 153.49L198.28 153.38L197.76 153.28L197.24 153.18L196.72 153.08L196.2 152.99L195.68 152.9L195.16 152.81L194.64 152.73L194.11 152.66L193.59 152.58L193.07 152.51L192.54 152.45L192.02 152.39L191.49 152.33L190.97 152.28L190.44 152.23L189.92 152.19L189.39 152.14L188.86 152.11L188.34 152.08L187.81 152.05L187.28 152.02L186.76 152L186.23 151.98L185.7 151.97L185.17 151.96L184.65 151.96L184.12 151.96L183.59 151.96L183.06 151.97L182.53 151.98L182 152L181.48 152.02L180.95 152.04L180.42 152.07L179.89 152.1L179.36 152.14L178.84 152.18L178.25 152.23L177.67 152.28L177.51 152.29L179.27 152.09L182.72 151.58L186.12 150.97L189.47 150.25L192.76 149.43L196 148.51L199.18 147.49L202.29 146.37L205.34 145.17L208.32 143.87L211.23 142.48L214.07 141.01L216.83 139.45L219.51 137.81L222.11 136.1L224.62 134.3L227.05 132.43L229.38 130.49L231.63 128.47L233.77 126.39L235.82 124.24L237.76 122.03L239.6 119.76L241.33 117.43L242.95 115.04L244.46 112.6L245.85 110.1L247.12 107.56L247.42 106.88L250.86 107.59L250.43 107.5L250 107.4L249.56 107.3L249.13 107.2L248.7 107.1L248.28 106.99L247.85 106.88L247.47 106.78L247.5 106.69L247.93 106.72L248.46 106.76L248.99 106.78L249.52 106.79L250.05 106.79L250.58 106.78L251.11 106.75L251.64 106.72L252.17 106.68L252.69 106.63L253.22 106.57L253.74 106.5L254.26 106.42L254.78 106.33L255.3 106.23L255.82 106.12L256.33 106L256.85 105.87L257.36 105.73L257.86 105.58L258.37 105.42L258.87 105.25L259.37 105.07L259.86 104.88L260.36 104.68L260.85 104.48L261.33 104.26L261.81 104.03L262.29 103.79L262.77 103.55L263.24 103.29L263.7 103.03L264.16 102.75L264.62 102.47L264.85 102.32L265.16 102.14L265.47 101.97L265.78 101.83L266.1 101.7L266.42 101.59L266.75 101.51L267.07 101.44L267.39 101.39L267.72 101.35L268.04 101.33L268.36 101.33L268.68 101.35ZM174.18 152.66L174.18 152.66L174.18 152.62L175.14 152.54L174.76 152.59L174.18 152.66ZM270.43 134.62L270.67 134.05L270.67 134.04L270.85 133.64L271.1 133.08L270.19 135.19L270.43 134.62Z" id="m3mp5xRW8K"></path><path d="M678.41 395.89L678.11 396.68L677.82 397.47L677.56 398.26L677.32 399.06L677.09 399.87L676.89 400.68L676.7 401.49L676.54 402.3L676.4 403.12L676.27 403.94L676.17 404.76L676.08 405.58L676.02 406.41L675.98 407.23L675.95 408.06L675.95 408.88L675.96 409.71L676 410.54L676.05 411.36L676.13 412.18L676.22 413L676.33 413.82L676.47 414.64L676.62 415.45L676.79 416.26L676.99 417.07L677.2 417.87L677.43 418.67L677.68 419.47L677.95 420.26L678.25 421.04L678.56 421.82L678.89 422.59L679.24 423.35L679.61 424.11L680 424.86L680.41 425.61L676.72 419.1L677.45 420.43L678.13 421.79L678.77 423.15L679.36 424.53L679.9 425.93L680.4 427.33L680.86 428.75L681.27 430.17L681.63 431.6L681.95 433.04L682.22 434.48L682.44 435.93L682.63 437.39L682.76 438.84L682.86 440.3L682.9 441.76L682.91 443.22L682.87 444.67L682.78 446.13L682.65 447.58L682.48 449.02L682.26 450.46L682 451.9L681.69 453.32L681.34 454.74L680.95 456.15L680.51 457.54L680.03 458.93L679.51 460.3L678.95 461.66L678.34 463L677.68 464.32L676.99 465.63L676.25 466.92L675.47 468.19L674.65 469.44L673.79 470.67L672.88 471.87L671.93 473.05L670.94 474.21L670.73 474.45L670.52 474.68L670.32 474.92L670.11 475.15L669.91 475.38L669.7 475.62L669.5 475.85L669.3 476.07L669.1 476.3L668.9 476.53L668.7 476.76L668.51 476.98L668.31 477.2L668.12 477.43L667.93 477.65L667.74 477.87L667.54 478.09L667.36 478.31L667.17 478.53L666.98 478.74L666.79 478.96L666.61 479.17L666.43 479.38L666.24 479.6L666.06 479.81L665.88 480.02L665.7 480.23L665.53 480.43L665.35 480.64L665.17 480.85L665 481.05L664.83 481.26L664.65 481.46L664.48 481.66L664.31 481.86L664.15 482.06L663.98 482.26L663.81 482.45L663.65 482.65L663.48 482.85L662.84 483.62L662.2 484.38L661.56 485.15L660.93 485.9L660.3 486.65L659.69 487.4L659.07 488.13L658.46 488.87L657.86 489.6L657.27 490.32L656.67 491.03L656.09 491.75L655.51 492.45L654.94 493.15L654.37 493.84L653.8 494.53L653.25 495.22L652.7 495.89L652.15 496.57L651.61 497.23L651.07 497.89L650.55 498.55L650.02 499.2L649.5 499.84L648.99 500.48L648.49 501.12L647.98 501.74L647.49 502.36L647 502.98L646.52 503.59L646.04 504.2L645.56 504.8L645.1 505.39L644.64 505.98L644.18 506.56L643.73 507.14L643.28 507.71L642.85 508.28L642.41 508.84L641.98 509.4L490.5 518.68L490.5 88.66L491.2 88.85L493.25 88.63L495.29 88.43L497.32 88.24L499.34 88.08L501.34 87.92L503.32 87.79L505.3 87.67L507.26 87.57L509.2 87.48L511.13 87.41L513.05 87.35L514.96 87.32L516.85 87.29L518.72 87.29L520.59 87.3L522.44 87.33L524.27 87.37L526.09 87.43L527.9 87.5L529.7 87.6L531.48 87.7L533.24 87.83L535 87.97L536.73 88.13L538.46 88.3L540.17 88.49L541.87 88.69L543.55 88.92L545.23 89.15L546.88 89.41L548.52 89.68L550.15 89.97L551.77 90.27L553.37 90.59L554.96 90.92L556.53 91.28L558.09 91.64L559.64 92.03L561.17 92.43L562.69 92.85L564.94 93.51L567.14 94.22L569.29 94.97L571.39 95.77L573.45 96.62L575.47 97.51L577.45 98.44L579.39 99.41L581.28 100.43L583.14 101.48L584.97 102.58L586.76 103.71L588.51 104.88L590.23 106.09L591.92 107.33L593.58 108.61L595.21 109.92L596.81 111.27L598.39 112.64L599.94 114.05L601.46 115.49L602.97 116.95L604.45 118.45L605.91 119.97L607.35 121.52L608.77 123.1L610.18 124.7L611.57 126.32L612.94 127.97L614.31 129.64L615.66 131.33L617 133.04L618.33 134.77L619.65 136.52L620.97 138.28L622.28 140.07L623.58 141.86L624.88 143.68L626.18 145.51L627.48 147.35L628.09 148.22L628.69 149.12L629.29 150.03L629.87 150.96L630.45 151.91L631.01 152.88L631.57 153.86L632.13 154.86L632.67 155.87L633.21 156.91L633.73 157.96L634.25 159.02L634.77 160.11L635.27 161.21L635.77 162.33L636.25 163.46L636.73 164.62L637.21 165.79L637.67 166.97L638.13 168.18L638.57 169.4L639.01 170.64L639.44 171.89L639.87 173.17L640.28 174.46L640.69 175.76L641.09 177.09L641.48 178.43L641.87 179.79L642.24 181.16L642.61 182.55L642.97 183.96L643.32 185.39L643.66 186.83L644 188.29L644.33 189.77L644.64 191.27L644.96 192.78L645.26 194.31L645.55 195.85L645.75 196.9L645.96 197.94L646.17 198.98L646.4 200.02L646.62 201.05L646.86 202.09L647.1 203.12L647.36 204.15L647.61 205.18L647.88 206.2L648.15 207.23L648.43 208.25L648.72 209.27L649.02 210.29L649.32 211.3L649.63 212.32L649.95 213.33L650.27 214.34L650.6 215.34L650.94 216.35L651.29 217.35L651.64 218.35L652 219.35L652.37 220.34L652.74 221.33L653.12 222.32L653.51 223.3L653.91 224.29L654.31 225.27L654.72 226.25L655.14 227.22L655.56 228.19L656 229.16L656.43 230.13L656.88 231.09L657.33 232.05L657.79 233.01L658.26 233.96L658.73 234.91L659.21 235.86L659.65 236.72L660.07 237.58L660.49 238.44L660.89 239.3L661.29 240.16L661.68 241.02L662.06 241.88L662.43 242.74L662.79 243.6L663.15 244.46L663.49 245.32L663.82 246.19L664.15 247.05L664.47 247.91L664.77 248.77L665.07 249.64L665.36 250.5L665.64 251.37L665.91 252.23L666.17 253.1L666.42 253.96L666.67 254.83L666.9 255.69L667.13 256.56L667.34 257.43L667.55 258.29L667.75 259.16L667.93 260.03L668.11 260.9L668.28 261.77L668.44 262.64L668.6 263.5L668.74 264.37L668.87 265.24L669 266.11L669.11 266.98L669.22 267.86L669.32 268.73L669.41 269.6L669.48 270.47L669.56 271.44L669.63 272.42L669.69 273.39L669.73 274.37L669.77 275.35L669.79 276.34L669.81 277.32L669.81 278.31L669.8 279.3L669.78 280.3L669.76 281.29L669.72 282.29L669.67 283.29L669.61 284.29L669.54 285.3L669.46 286.31L669.37 287.32L669.27 288.33L669.15 289.35L669.03 290.37L668.9 291.39L668.75 292.41L668.6 293.43L668.43 294.46L668.26 295.49L668.07 296.53L667.87 297.56L667.67 298.6L667.45 299.64L667.22 300.68L666.98 301.73L666.73 302.77L666.47 303.82L666.2 304.87L665.92 305.93L665.63 306.99L665.32 308.05L665.01 309.11L664.69 310.17L664.35 311.24L664.12 312.02L663.9 312.81L663.71 313.6L663.53 314.39L663.38 315.19L663.26 315.98L663.15 316.78L663.06 317.58L663 318.38L662.96 319.18L662.94 319.97L662.94 320.77L662.96 321.57L663 322.36L663.06 323.15L663.15 323.94L663.25 324.73L663.37 325.51L663.52 326.29L663.69 327.07L663.87 327.84L664.08 328.6L664.3 329.36L664.55 330.12L664.81 330.87L665.1 331.61L665.41 332.34L665.73 333.07L666.07 333.79L666.44 334.5L666.82 335.2L667.22 335.89L667.65 336.57L668.09 337.25L668.55 337.91L669.02 338.56L669.52 339.2L670.04 339.83L670.57 340.45L671.12 341.05L665.75 335.34L666.98 336.68L668.16 338.06L669.29 339.47L670.37 340.9L671.41 342.37L672.4 343.86L673.33 345.37L674.22 346.91L675.06 348.46L675.85 350.04L676.59 351.64L677.28 353.26L677.92 354.9L678.52 356.55L679.06 358.22L679.55 359.9L679.99 361.59L680.37 363.29L680.71 365.01L681 366.73L681.23 368.46L681.42 370.2L681.55 371.94L681.63 373.69L681.66 375.44L681.63 377.19L681.55 378.94L681.42 380.7L681.24 382.45L681.01 384.19L680.72 385.93L680.38 387.67L679.98 389.4L679.53 391.12L679.03 392.84L678.47 394.54L677.86 396.23L677.19 397.91L676.47 399.58L675.7 401.23L679.44 393.57L679.08 394.34L678.73 395.11L678.41 395.89Z" id="hnbSR2SRw"></path><path d="M301.51 424.11L301.88 423.35L302.23 422.59L302.56 421.82L302.87 421.04L303.17 420.26L303.44 419.47L303.69 418.67L303.92 417.87L304.13 417.07L304.33 416.26L304.5 415.45L304.65 414.64L304.79 413.82L304.9 413L305 412.18L305.07 411.36L305.12 410.54L305.16 409.71L305.17 408.88L305.17 408.06L305.14 407.23L305.1 406.41L305.04 405.58L304.95 404.76L304.85 403.94L304.72 403.12L304.58 402.3L304.42 401.49L304.23 400.68L304.03 399.87L303.81 399.06L303.56 398.26L303.3 397.47L303.01 396.68L302.71 395.89L302.39 395.11L302.04 394.34L301.68 393.57L305.42 401.23L304.65 399.58L303.93 397.91L303.26 396.23L302.65 394.54L302.09 392.84L301.59 391.12L301.14 389.4L300.74 387.67L300.4 385.93L300.11 384.19L299.88 382.45L299.7 380.7L299.57 378.94L299.49 377.19L299.46 375.44L299.49 373.69L299.57 371.94L299.7 370.2L299.89 368.46L300.12 366.73L300.41 365.01L300.75 363.29L301.14 361.59L301.57 359.9L302.06 358.22L302.61 356.55L303.2 354.9L303.84 353.26L304.53 351.64L305.27 350.04L306.06 348.46L306.9 346.91L307.79 345.37L308.72 343.86L309.71 342.37L310.75 340.9L311.83 339.47L312.96 338.06L314.14 336.68L315.37 335.34L310 341.05L310.55 340.45L311.08 339.83L311.6 339.2L312.1 338.56L312.57 337.91L313.03 337.25L313.48 336.57L313.9 335.89L314.3 335.2L314.68 334.5L315.05 333.79L315.39 333.07L315.72 332.34L316.02 331.61L316.31 330.87L316.57 330.12L316.82 329.36L317.04 328.6L317.25 327.84L317.44 327.07L317.6 326.29L317.75 325.51L317.87 324.73L317.97 323.94L318.06 323.15L318.12 322.36L318.16 321.57L318.18 320.77L318.18 319.97L318.16 319.18L318.12 318.38L318.06 317.58L317.97 316.78L317.86 315.98L317.74 315.19L317.59 314.39L317.41 313.6L317.22 312.81L317.01 312.02L316.77 311.24L316.43 310.17L316.11 309.11L315.8 308.05L315.49 306.99L315.2 305.93L314.92 304.87L314.65 303.82L314.39 302.77L314.14 301.73L313.9 300.68L313.67 299.64L313.45 298.6L313.25 297.56L313.05 296.53L312.86 295.49L312.69 294.46L312.52 293.43L312.37 292.41L312.22 291.39L312.09 290.37L311.97 289.35L311.86 288.33L311.75 287.32L311.66 286.31L311.58 285.3L311.51 284.29L311.45 283.29L311.4 282.29L311.36 281.29L311.34 280.3L311.32 279.3L311.31 278.31L311.32 277.32L311.33 276.34L311.35 275.35L311.39 274.37L311.44 273.39L311.49 272.42L311.56 271.44L311.64 270.47L311.72 269.6L311.8 268.73L311.9 267.86L312.01 266.98L312.12 266.11L312.25 265.24L312.38 264.37L312.52 263.5L312.68 262.64L312.84 261.77L313.01 260.9L313.19 260.03L313.37 259.16L313.57 258.29L313.78 257.43L313.99 256.56L314.22 255.69L314.45 254.83L314.7 253.96L314.95 253.1L315.21 252.23L315.48 251.37L315.76 250.5L316.05 249.64L316.35 248.77L316.65 247.91L316.97 247.05L317.3 246.19L317.63 245.32L317.97 244.46L318.33 243.6L318.69 242.74L319.06 241.88L319.44 241.02L319.83 240.16L320.23 239.3L320.63 238.44L321.05 237.58L321.47 236.72L321.91 235.86L322.39 234.91L322.86 233.96L323.33 233.01L323.79 232.05L324.24 231.09L324.69 230.13L325.13 229.16L325.56 228.19L325.98 227.22L326.4 226.25L326.81 225.27L327.21 224.29L327.61 223.3L328 222.32L328.38 221.33L328.75 220.34L329.12 219.35L329.48 218.35L329.83 217.35L330.18 216.35L330.52 215.34L330.85 214.34L331.17 213.33L331.49 212.32L331.8 211.3L332.1 210.29L332.4 209.27L332.69 208.25L332.97 207.23L333.24 206.2L333.51 205.18L333.76 204.15L334.02 203.12L334.26 202.09L334.5 201.05L334.72 200.02L334.95 198.98L335.16 197.94L335.37 196.9L335.57 195.85L335.86 194.31L336.16 192.78L336.48 191.27L336.79 189.77L337.12 188.29L337.46 186.83L337.8 185.39L338.15 183.96L338.51 182.55L338.88 181.16L339.25 179.79L339.64 178.43L340.03 177.09L340.43 175.76L340.84 174.46L341.25 173.17L341.68 171.89L342.11 170.64L342.55 169.4L342.99 168.18L343.45 166.97L343.91 165.79L344.39 164.62L344.87 163.46L345.35 162.33L345.85 161.21L346.35 160.11L346.87 159.02L347.39 157.96L347.91 156.91L348.45 155.87L348.99 154.86L349.55 153.86L350.11 152.88L350.67 151.91L351.25 150.96L351.84 150.03L352.43 149.12L353.03 148.22L353.64 147.35L354.94 145.51L356.24 143.68L357.54 141.86L358.84 140.07L360.15 138.28L361.47 136.52L362.79 134.77L364.12 133.04L365.46 131.33L366.81 129.64L368.18 127.97L369.55 126.32L370.94 124.7L372.35 123.1L373.77 121.52L375.21 119.97L376.67 118.45L378.15 116.95L379.66 115.49L381.18 114.05L382.73 112.64L384.31 111.27L385.91 109.92L387.54 108.61L389.2 107.33L390.89 106.09L392.61 104.88L394.37 103.71L396.15 102.58L397.98 101.48L399.84 100.43L401.74 99.41L403.67 98.44L405.65 97.51L407.67 96.62L409.73 95.77L411.83 94.97L413.98 94.22L416.18 93.51L418.43 92.85L419.95 92.43L421.48 92.03L423.03 91.64L424.59 91.28L426.16 90.92L427.75 90.59L429.35 90.27L430.97 89.97L432.6 89.68L434.24 89.41L435.9 89.15L437.57 88.92L439.25 88.69L440.95 88.49L442.66 88.3L444.39 88.13L446.12 87.97L447.88 87.83L449.64 87.7L451.43 87.6L453.22 87.5L455.03 87.43L456.85 87.37L458.68 87.33L460.53 87.3L462.4 87.29L464.27 87.29L466.16 87.32L468.07 87.35L469.99 87.41L471.92 87.48L473.86 87.57L475.82 87.67L477.8 87.79L479.78 87.92L481.78 88.08L483.8 88.24L485.83 88.43L487.87 88.63L489.92 88.85L490.62 88.66L490.62 516.98L336.14 505.4L335.86 505.04L335.57 504.67L335.27 504.29L334.96 503.9L334.64 503.5L334.32 503.09L333.98 502.67L333.64 502.24L333.28 501.8L332.92 501.34L332.54 500.88L332.16 500.4L331.77 499.92L331.37 499.43L330.96 498.92L330.54 498.4L330.11 497.88L329.67 497.34L329.22 496.79L328.76 496.23L328.29 495.66L327.82 495.08L327.33 494.49L326.84 493.89L326.33 493.28L325.82 492.66L325.29 492.03L324.76 491.39L324.22 490.73L323.67 490.07L323.11 489.39L322.54 488.71L321.96 488.01L321.37 487.31L320.77 486.59L320.16 485.86L319.54 485.12L318.92 484.37L318.28 483.62L317.64 482.85L317.47 482.65L317.31 482.45L317.14 482.26L316.97 482.06L316.81 481.86L316.64 481.66L316.47 481.46L316.29 481.26L316.12 481.05L315.95 480.85L315.77 480.64L315.59 480.43L315.42 480.23L315.24 480.02L315.06 479.81L314.88 479.6L314.69 479.38L314.51 479.17L314.33 478.96L314.14 478.74L313.95 478.53L313.77 478.31L313.58 478.09L313.39 477.87L313.19 477.65L313 477.43L312.81 477.2L312.61 476.98L312.42 476.76L312.22 476.53L312.02 476.3L311.82 476.07L311.62 475.85L311.42 475.62L311.21 475.38L311.01 475.15L310.8 474.92L310.6 474.68L310.39 474.45L310.18 474.21L309.19 473.05L308.24 471.87L307.33 470.67L306.47 469.44L305.65 468.19L304.87 466.92L304.13 465.63L303.44 464.32L302.78 463L302.18 461.66L301.61 460.3L301.09 458.93L300.61 457.54L300.17 456.15L299.78 454.74L299.43 453.32L299.12 451.9L298.86 450.46L298.64 449.02L298.47 447.58L298.34 446.13L298.25 444.67L298.21 443.22L298.22 441.76L298.26 440.3L298.36 438.84L298.49 437.39L298.68 435.93L298.9 434.48L299.17 433.04L299.49 431.6L299.85 430.17L300.26 428.75L300.72 427.33L301.22 425.93L301.76 424.53L302.35 423.15L302.99 421.79L303.67 420.43L304.4 419.1L300.71 425.61L301.12 424.86L301.51 424.11Z" id="d2wIsWt2yp"></path><path d="M346.54 283.18L373.54 234.8L461.88 453.97L346.54 506.4L346.54 283.18Z" id="gbqAgSiwY"></path><path d="M504.38 732.28C516.38 729.76 529.9 720.48 544.94 704.42C556.38 692.2 563.02 676.45 564.88 657.15C565.89 646.58 564.79 635.9 561.64 625.83C559.95 620.41 562.59 628.89 561.64 625.83C556.39 609.03 543.24 596.42 527.02 592.63C524.86 592.12 520.39 591.92 513.59 592.01C482.92 592.43 475.61 614.66 468.23 629.17C460.86 643.68 460.79 656.69 463.58 680.78C465.44 696.84 479.05 714.01 504.38 732.28Z" id="c1tXDuRxe9"></path><path d="M635.16 281.52L609.78 234.8L526.74 446.45L635.16 501.39L635.16 281.52Z" id="a1S0PgKAIX"></path><path d="M485.18 894.71C354.88 894.71 249.09 793.89 249.09 669.71C249.09 545.53 354.88 444.71 485.18 444.71C615.48 444.71 721.27 545.53 721.27 669.71C721.27 793.89 615.48 894.71 485.18 894.71Z" id="a2V8w8Nlhe"></path><path d="M504.38 732.28C516.38 729.76 529.9 720.48 544.94 704.42C556.38 692.2 563.02 676.45 564.88 657.15C565.89 646.58 564.79 635.9 561.64 625.83C559.95 620.41 562.59 628.89 561.64 625.83C556.39 609.03 543.24 596.42 527.02 592.63C524.86 592.12 520.39 591.92 513.59 592.01C482.92 592.43 475.61 614.66 468.23 629.17C460.86 643.68 460.79 656.69 463.58 680.78C465.44 696.84 479.05 714.01 504.38 732.28Z" id="f39Lf040Bu"></path><path d="M481.57 588.29C492.86 565.54 521.19 560.15 539.15 577.35C539.5 577.68 540.37 578.51 541.76 579.84C540.92 581.45 540.4 582.45 540.19 582.86C528.52 605.24 500.73 610.96 482.1 594.79C481.75 594.49 480.87 593.73 479.47 592.52C480.59 590.26 481.29 588.85 481.57 588.29Z" id="a7QsXs2eo"></path><path d="M463.59 681.57C465.45 697.63 479.05 714.79 504.39 733.06C516.38 730.55 529.9 721.26 544.94 705.2C556.38 692.98 563.03 677.23 564.88 657.93C565.9 647.37 564.79 636.69 561.64 626.61C559.95 621.19 562.6 629.67 561.64 626.61C556.39 609.81 543.24 597.2 527.03 593.41C524.87 592.9 520.39 592.7 513.6 592.79C482.92 593.21 475.61 615.44 468.24 629.95C460.86 644.47 460.79 657.47 463.59 681.57Z" id="a2Uj5awGUH"></path><path d="M512.41 657.37C505.8 660.69 494.01 648.8 486.09 630.84C478.18 612.88 477.12 595.61 483.73 592.3C490.34 588.98 502.13 600.87 510.05 618.83C517.96 636.79 519.02 654.06 512.41 657.37Z" id="a3d9BPohY6"></path><path d="M496.09 596.2C486.05 605.58 486.9 604.79 484.56 606.98C464.6 625.64 433.62 620.1 420.46 595.52C420.03 594.72 418.96 592.73 417.26 589.54C419.44 587.07 420.81 585.53 421.35 584.91C439.67 564.21 470.73 564.86 488.28 586.31C489.87 588.26 487.99 585.96 496.11 595.88C496.18 595.97 496.17 596.12 496.09 596.2Z" id="e4COCSUn3x"></path><path d="M519.91 662.67C521.16 684.3 517.05 705.91 508 725.32C507.51 726.35 506.31 728.93 504.39 733.06C475.71 730.19 454.39 720.73 440.41 704.67C419.46 680.58 416.84 654.68 419.01 637.03C419.65 631.81 421.03 627.19 423.15 623.17C428.53 612.94 436.8 604.77 446.78 599.82C451.83 597.32 458.32 595.89 466.27 595.54C488.44 594.56 497.78 604.38 511.67 629.42C516.36 637.89 519.11 648.97 519.91 662.67Z" id="aD3TkNqO9"></path><path d="M514.05 446.38L523.45 447.66L532.74 449.29L541.89 451.26L550.9 453.56L559.77 456.19L568.49 459.14L577.04 462.41L585.43 465.98L593.64 469.84L601.67 474L609.5 478.44L617.14 483.16L624.57 488.15L631.79 493.4L638.79 498.9L645.56 504.65L652.09 510.65L658.38 516.87L664.41 523.32L670.19 529.99L675.69 536.87L680.93 543.95L685.88 551.23L690.54 558.7L694.9 566.35L698.96 574.17L702.71 582.17L706.13 590.32L709.23 598.63L711.99 607.08L714.4 615.67L716.47 624.39L718.18 633.24L719.52 642.2L720.49 651.27L721.07 660.44L721.27 669.71L721.07 678.98L720.49 688.16L719.52 697.23L718.18 706.19L716.47 715.03L714.4 723.76L711.99 732.35L709.23 740.8L706.13 749.1L702.71 757.26L698.96 765.25L694.9 773.08L690.54 780.73L685.88 788.2L680.93 795.48L675.69 802.56L670.19 809.44L664.41 816.11L658.38 822.56L652.09 828.78L645.56 834.77L638.79 840.52L631.79 846.03L624.57 851.28L617.14 856.26L609.5 860.98L601.67 865.42L593.64 869.58L585.43 873.45L577.04 877.02L568.49 880.28L559.77 883.23L550.9 885.87L541.89 888.17L532.74 890.14L523.45 891.77L514.05 893.04L504.53 893.97L494.91 894.53L485.18 894.71L485.18 444.71L494.91 444.9L504.53 445.46L514.05 446.38Z" id="cwogzVbCV"></path><path d="M491.25 532.42C455.04 532.42 425.64 503.03 425.64 466.82C425.64 430.61 455.04 401.21 491.25 401.21C527.46 401.21 556.85 430.61 556.85 466.82C556.85 503.03 527.46 532.42 491.25 532.42Z" id="e4tumRsKz2"></path><path d="M545.42 454.43L545.28 456.64L545.06 458.82L544.75 460.98L544.36 463.11L543.88 465.21L543.33 467.28L542.7 469.32L541.98 471.32L541.2 473.29L540.34 475.21L539.41 477.1L538.4 478.94L537.33 480.74L536.2 482.49L535 484.2L533.73 485.86L532.4 487.46L531.02 489.02L529.57 490.52L528.08 491.96L526.52 493.35L524.91 494.67L523.26 495.94L521.55 497.14L519.8 498.28L518 499.35L516.15 500.35L514.27 501.28L512.34 502.14L510.38 502.93L508.38 503.64L506.34 504.27L504.27 504.83L502.17 505.3L500.04 505.69L497.88 506L495.69 506.22L493.48 506.36L491.25 506.4L489.02 506.36L486.81 506.22L484.62 506L482.46 505.69L480.33 505.3L478.23 504.83L476.16 504.27L474.12 503.64L472.12 502.93L470.16 502.14L468.23 501.28L466.34 500.35L464.5 499.35L462.7 498.28L460.95 497.14L459.24 495.94L457.58 494.67L455.98 493.35L454.42 491.96L452.92 490.52L451.48 489.02L450.09 487.46L448.77 485.86L447.5 484.2L446.3 482.49L445.16 480.74L444.09 478.94L443.09 477.1L442.16 475.21L441.3 473.29L440.51 471.32L439.8 469.32L439.17 467.28L438.61 465.21L438.14 463.11L437.75 460.98L437.44 458.82L437.22 456.64L437.08 454.43L437.04 452.19L437.04 343.77L545.46 343.77L545.46 452.19L545.42 454.43Z" id="nnMnXyQiS"></path><path d="M545.28 456.64L545.06 458.82L544.75 460.98L544.36 463.11L543.88 465.21L543.33 467.28L542.7 469.32L541.98 471.32L541.2 473.29L540.34 475.21L539.41 477.1L538.4 478.94L537.33 480.74L536.2 482.49L535 484.2L533.73 485.86L532.4 487.47L531.02 489.02L529.57 490.52L528.08 491.96L526.52 493.35L524.91 494.67L523.26 495.94L521.55 497.14L519.8 498.28L518 499.35L516.15 500.35L514.27 501.28L512.34 502.14L510.38 502.93L508.38 503.64L506.34 504.27L504.27 504.83L502.17 505.3L500.04 505.69L497.88 506L495.69 506.22L493.48 506.36L491.26 506.4L437.04 415.95L437.04 415.95L545.46 384.58L545.46 452.19L545.42 454.43L545.28 456.64Z" id="ainNRpc4A"></path><path d="M611.62 234.91L612.92 235.05L614.22 235.23L615.49 235.47L616.75 235.77L617.98 236.11L619.2 236.5L620.39 236.93L621.57 237.41L622.71 237.94L623.84 238.51L624.93 239.12L626 239.78L627.04 240.47L628.05 241.21L629.03 241.98L629.98 242.79L630.9 243.64L631.78 244.52L632.62 245.44L633.43 246.39L634.21 247.37L634.94 248.38L635.64 249.42L636.29 250.49L636.91 251.58L637.48 252.71L638.01 253.85L638.49 255.02L638.92 256.22L639.31 257.43L639.65 258.67L639.94 259.93L640.18 261.2L640.37 262.49L640.51 263.8L640.59 265.13L640.62 266.46L640.59 267.8L640.51 269.13L640.37 270.43L640.18 271.73L639.94 273L639.65 274.26L639.31 275.49L638.92 276.71L638.49 277.91L638.01 279.08L637.48 280.22L636.91 281.35L636.29 282.44L635.64 283.51L634.94 284.55L634.21 285.56L633.43 286.54L632.62 287.49L631.78 288.41L630.9 289.29L629.98 290.14L629.03 290.95L628.05 291.72L627.04 292.45L626 293.15L624.93 293.81L623.84 294.42L622.71 294.99L621.57 295.52L620.39 296L619.2 296.43L617.98 296.82L616.75 297.16L615.49 297.45L614.22 297.7L612.92 297.88L611.62 298.02L610.29 298.1L608.95 298.13L607.62 298.1L606.29 298.02L604.98 297.88L603.69 297.7L602.42 297.45L601.16 297.16L599.92 296.82L598.71 296.43L597.51 296L596.34 295.52L595.19 294.99L594.07 294.42L592.98 293.81L591.91 293.15L590.87 292.45L589.86 291.72L588.88 290.95L587.93 290.14L587.01 289.29L586.13 288.41L585.28 287.49L584.47 286.54L583.7 285.56L582.96 284.55L582.27 283.51L581.61 282.44L581 281.35L580.43 280.22L579.9 279.08L579.42 277.91L578.98 276.71L578.6 275.49L578.25 274.26L577.96 273L577.72 271.73L577.53 270.43L577.4 269.13L577.31 267.8L577.29 266.46L577.31 265.13L577.4 263.8L577.53 262.49L577.72 261.2L577.96 259.93L578.25 258.67L578.6 257.43L578.98 256.22L579.42 255.02L579.9 253.85L580.43 252.71L581 251.58L581.61 250.49L582.27 249.42L582.96 248.38L583.7 247.37L584.47 246.39L585.28 245.44L586.13 244.52L587.01 243.64L587.93 242.79L588.88 241.98L589.86 241.21L590.87 240.47L591.91 239.78L592.98 239.12L594.07 238.51L595.19 237.94L596.34 237.41L597.51 236.93L598.71 236.5L599.92 236.11L601.16 235.77L602.42 235.47L603.69 235.23L604.98 235.05L606.29 234.91L607.62 234.83L608.95 234.8L610.29 234.83L611.62 234.91Z" id="f3JZwwcgzn"></path><path d="M376.21 234.91L377.51 235.05L378.81 235.23L380.08 235.47L381.34 235.77L382.57 236.11L383.79 236.5L384.98 236.93L386.16 237.41L387.3 237.94L388.43 238.51L389.52 239.12L390.59 239.78L391.63 240.47L392.64 241.21L393.62 241.98L394.57 242.79L395.49 243.64L396.37 244.52L397.21 245.44L398.02 246.39L398.8 247.37L399.53 248.38L400.23 249.42L400.88 250.49L401.5 251.58L402.07 252.71L402.6 253.85L403.08 255.02L403.51 256.22L403.9 257.43L404.24 258.67L404.53 259.93L404.77 261.2L404.96 262.49L405.1 263.8L405.18 265.13L405.21 266.46L405.18 267.8L405.1 269.13L404.96 270.43L404.77 271.73L404.53 273L404.24 274.26L403.9 275.49L403.51 276.71L403.08 277.91L402.6 279.08L402.07 280.22L401.5 281.35L400.88 282.44L400.23 283.51L399.53 284.55L398.8 285.56L398.02 286.54L397.21 287.49L396.37 288.41L395.49 289.29L394.57 290.14L393.62 290.95L392.64 291.72L391.63 292.45L390.59 293.15L389.52 293.81L388.43 294.42L387.3 294.99L386.16 295.52L384.98 296L383.79 296.43L382.57 296.82L381.34 297.16L380.08 297.45L378.81 297.7L377.51 297.88L376.21 298.02L374.88 298.1L373.54 298.13L372.21 298.1L370.88 298.02L369.57 297.88L368.28 297.7L367.01 297.45L365.75 297.16L364.51 296.82L363.3 296.43L362.1 296L360.93 295.52L359.78 294.99L358.66 294.42L357.57 293.81L356.5 293.15L355.46 292.45L354.45 291.72L353.47 290.95L352.52 290.14L351.6 289.29L350.72 288.41L349.87 287.49L349.06 286.54L348.29 285.56L347.55 284.55L346.86 283.51L346.2 282.44L345.59 281.35L345.02 280.22L344.49 279.08L344.01 277.91L343.57 276.71L343.19 275.49L342.84 274.26L342.55 273L342.31 271.73L342.12 270.43L341.99 269.13L341.9 267.8L341.88 266.46L341.9 265.13L341.99 263.8L342.12 262.49L342.31 261.2L342.55 259.93L342.84 258.67L343.19 257.43L343.57 256.22L344.01 255.02L344.49 253.85L345.02 252.71L345.59 251.58L346.2 250.49L346.86 249.42L347.55 248.38L348.29 247.37L349.06 246.39L349.87 245.44L350.72 244.52L351.6 243.64L352.52 242.79L353.47 241.98L354.45 241.21L355.46 240.47L356.5 239.78L357.57 239.12L358.66 238.51L359.78 237.94L360.93 237.41L362.1 236.93L363.3 236.5L364.51 236.11L365.75 235.77L367.01 235.47L368.28 235.23L369.57 235.05L370.88 234.91L372.21 234.83L373.54 234.8L374.88 234.83L376.21 234.91Z" id="cmHs0OJDX"></path><path d="M608.08 319.07L607.41 324.11L606.56 329.08L605.53 333.99L604.33 338.82L602.95 343.57L601.41 348.24L599.7 352.82L597.83 357.31L595.81 361.71L593.63 366.02L591.31 370.22L588.84 374.31L586.23 378.29L583.48 382.16L580.61 385.91L577.6 389.53L574.46 393.03L571.21 396.4L567.83 399.63L564.34 402.73L560.74 405.68L557.04 408.48L553.23 411.14L549.32 413.63L545.32 415.97L541.23 418.15L537.05 420.15L532.78 421.99L528.44 423.65L524.01 425.13L519.52 426.42L514.96 427.53L510.33 428.44L505.64 429.16L500.9 429.68L496.1 430L491.25 430.1L486.4 430L481.6 429.68L476.86 429.16L472.17 428.44L467.54 427.53L462.98 426.42L458.48 425.13L454.06 423.65L449.72 421.99L445.45 420.15L441.27 418.15L437.18 415.97L433.17 413.63L429.27 411.14L425.46 408.48L421.75 405.68L418.15 402.73L414.67 399.63L411.29 396.4L408.03 393.03L404.9 389.53L401.89 385.91L399.01 382.16L396.27 378.29L393.66 374.31L391.19 370.22L388.87 366.02L386.69 361.71L384.67 357.31L382.8 352.82L381.09 348.24L379.55 343.57L378.17 338.82L376.97 333.99L375.94 329.08L375.09 324.11L374.42 319.07L373.93 313.97L373.64 308.81L373.54 303.6L373.54 229.33L373.64 224.12L373.93 218.96L374.42 213.86L375.09 208.82L375.94 203.85L376.97 198.94L378.17 194.11L379.55 189.36L381.09 184.69L382.8 180.11L384.67 175.61L386.69 171.22L388.87 166.91L391.19 162.71L393.66 158.62L396.27 154.64L399.01 150.77L401.89 147.02L404.9 143.4L408.03 139.9L411.29 136.53L414.67 133.29L418.15 130.2L421.75 127.25L425.46 124.45L429.27 121.79L433.17 119.29L437.18 116.96L441.27 114.78L445.45 112.78L449.72 110.94L454.06 109.28L458.48 107.8L462.98 106.51L467.54 105.4L472.17 104.49L476.86 103.77L481.6 103.25L486.4 102.93L491.25 102.83L496.1 102.93L500.9 103.25L505.64 103.77L510.33 104.49L514.96 105.4L519.52 106.51L524.01 107.8L528.44 109.28L532.78 110.94L537.05 112.78L541.23 114.78L545.32 116.96L549.32 119.29L553.23 121.79L557.04 124.45L560.74 127.25L564.34 130.2L567.83 133.29L571.21 136.53L574.46 139.9L577.6 143.4L580.61 147.02L583.48 150.77L586.23 154.64L588.84 158.62L591.31 162.71L593.63 166.91L595.81 171.22L597.83 175.61L599.7 180.11L601.41 184.69L602.95 189.36L604.33 194.11L605.53 198.94L606.56 203.85L607.41 208.82L608.08 213.86L608.56 218.96L608.86 224.12L608.95 229.33L608.95 303.6L608.86 308.81L608.56 313.97L608.08 319.07Z" id="e2iPTWsFO"></path><path d="M505.64 103.77L510.33 104.49L514.96 105.4L519.52 106.51L524.01 107.8L528.44 109.28L532.78 110.94L537.05 112.78L541.23 114.78L545.32 116.96L549.32 119.29L553.23 121.79L557.04 124.45L560.74 127.25L564.34 130.2L567.83 133.29L571.21 136.53L574.46 139.9L577.6 143.4L580.61 147.02L583.48 150.77L586.23 154.64L588.84 158.62L591.31 162.71L593.63 166.91L595.81 171.22L597.83 175.61L599.7 180.11L601.41 184.69L602.95 189.36L604.33 194.11L605.53 198.94L606.56 203.85L607.41 208.82L608.08 213.86L608.56 218.96L608.86 224.12L608.95 229.33L608.95 303.6L608.86 308.81L608.56 313.97L608.08 319.07L607.41 324.11L606.56 329.08L605.53 333.99L604.33 338.82L602.95 343.57L601.41 348.24L599.7 352.82L597.83 357.31L595.81 361.71L593.63 366.02L591.31 370.22L588.84 374.31L586.23 378.29L583.48 382.16L580.61 385.91L577.6 389.53L574.46 393.03L571.21 396.4L567.83 399.63L564.34 402.73L560.74 405.68L557.04 408.48L553.23 411.14L549.32 413.63L545.32 415.97L541.23 418.15L537.05 420.15L532.78 421.99L528.44 423.65L524.01 425.13L519.52 426.42L514.96 427.53L510.33 428.44L505.64 429.16L500.9 429.68L496.1 430L491.25 430.1L491.25 102.83L496.1 102.93L500.9 103.25L505.64 103.77Z" id="f4gpw9t29"></path><path d="M490.49 95.53L490.56 95.53L490.56 158.64L490.49 158.65L488.84 158.73L487.16 158.75L485.49 158.73L483.83 158.65L482.19 158.52L480.57 158.34L478.97 158.11L477.39 157.83L475.84 157.51L474.31 157.14L473.22 156.83L473.11 157.04L472.09 159.01L471.04 160.96L469.95 162.88L468.82 164.78L467.66 166.65L466.47 168.49L465.24 170.31L463.97 172.1L462.67 173.87L461.34 175.61L459.97 177.32L458.57 179.01L457.13 180.67L455.66 182.31L454.15 183.92L452.6 185.5L451.03 187.06L449.44 188.61L447.82 190.14L446.18 191.65L444.52 193.14L442.84 194.62L441.13 196.08L439.4 197.53L437.65 198.95L435.88 200.36L434.08 201.76L432.26 203.13L430.42 204.49L428.55 205.83L426.67 207.16L424.76 208.47L422.83 209.76L420.87 211.03L418.9 212.29L416.9 213.53L414.87 214.76L412.83 215.96L410.76 217.15L408.67 218.33L406.56 219.48L404.43 220.62L402.27 221.75L400.09 222.85L397.89 223.94L395.67 225.01L393.42 226.07L391.15 227.11L388.86 228.13L386.54 229.13L384.21 230.12L381.85 231.09L379.46 232.04L377.06 232.98L374.63 233.9L372.18 234.8L371.97 231.26L371.81 227.77L371.69 224.32L371.61 220.93L371.58 217.58L371.6 214.29L371.66 211.04L371.76 207.85L371.91 204.7L372.11 201.61L372.34 198.56L372.63 195.57L372.96 192.62L373.33 189.73L373.75 186.88L374.21 184.09L374.72 181.34L375.27 178.65L375.87 176L376.51 173.41L377.2 170.86L377.93 168.37L378.7 165.92L379.52 163.53L380.39 161.18L381.3 158.89L382.26 156.64L383.26 154.45L384.3 152.3L385.39 150.21L386.53 148.16L387.71 146.16L388.93 144.22L390.2 142.32L391.51 140.48L392.87 138.68L394.28 136.94L395.72 135.24L397.22 133.6L398.76 132L400.33 130.45L401.94 128.94L403.58 127.47L405.26 126.05L406.96 124.66L408.7 123.31L410.47 122.01L412.28 120.74L414.11 119.52L415.98 118.34L417.89 117.2L419.82 116.09L421.79 115.03L423.78 114.01L425.82 113.04L427.88 112.1L429.98 111.2L432.11 110.35L434.27 109.53L436.46 108.76L438.69 108.02L440.95 107.33L443.24 106.68L445.56 106.07L447.92 105.5L450.31 104.97L452.73 104.48L455.18 104.03L457.67 103.62L460.19 103.26L460.45 103.22L460.7 103.05L461.91 102.27L463.15 101.53L464.43 100.83L465.75 100.17L467.1 99.54L468.48 98.96L469.89 98.41L471.34 97.91L472.81 97.45L474.31 97.04L475.84 96.67L477.39 96.34L478.97 96.07L480.57 95.84L482.19 95.66L483.83 95.53L485.49 95.45L487.16 95.42L488.84 95.45L490.49 95.53Z" id="b378M38Ryt"></path><path d="M497.19 95.54L498.84 95.67L500.46 95.86L502.06 96.09L503.64 96.37L505.2 96.7L506.73 97.07L508.24 97.49L509.72 97.96L511.16 98.46L512.58 99.01L513.97 99.6L515.32 100.23L516.64 100.9L517.93 101.61L519.18 102.35L520.38 103.13L520.64 103.3L520.9 103.34L523.43 103.71L525.92 104.12L528.38 104.58L530.81 105.07L533.2 105.61L535.56 106.18L537.89 106.8L540.19 107.46L542.46 108.16L544.69 108.9L546.89 109.68L549.06 110.5L551.19 111.36L553.29 112.27L555.36 113.21L557.4 114.2L559.41 115.22L561.38 116.29L563.32 117.4L565.23 118.54L567.1 119.73L568.95 120.96L570.76 122.23L572.54 123.55L574.28 124.9L575.99 126.29L577.67 127.73L579.32 129.2L580.94 130.72L582.52 132.27L584.07 133.88L585.57 135.53L587.02 137.23L588.43 138.98L589.8 140.78L591.12 142.62L592.4 144.52L593.63 146.47L594.82 148.46L595.96 150.51L597.06 152.61L598.12 154.75L599.13 156.94L600.09 159.19L601.01 161.48L601.89 163.82L602.72 166.21L603.51 168.65L604.25 171.14L604.95 173.68L605.6 176.27L606.21 178.9L606.77 181.59L607.29 184.33L607.77 187.11L608.2 189.95L608.59 192.83L608.93 195.76L609.22 198.74L609.48 201.78L609.68 204.86L609.85 207.99L609.96 211.17L610.04 214.4L610.07 217.67L610.05 221L609.99 224.38L609.89 227.8L609.74 231.28L609.55 234.8L607.08 233.92L604.64 233.02L602.22 232.1L599.82 231.17L597.45 230.21L595.1 229.24L592.77 228.25L590.46 227.25L588.18 226.22L585.92 225.18L583.68 224.12L581.46 223.05L579.27 221.95L577.1 220.84L574.95 219.71L572.83 218.57L570.73 217.4L568.65 216.22L566.59 215.02L564.56 213.8L562.55 212.57L560.56 211.32L558.6 210.05L556.66 208.76L554.74 207.46L552.84 206.13L550.97 204.79L549.11 203.44L547.29 202.06L545.48 200.67L543.7 199.26L541.94 197.83L540.2 196.38L538.48 194.92L536.79 193.44L535.12 191.94L533.48 190.43L531.85 188.89L530.25 187.34L528.67 185.77L527.12 184.18L525.61 182.57L524.13 180.93L522.68 179.26L521.27 177.56L519.9 175.84L518.56 174.1L517.25 172.32L515.98 170.53L514.74 168.7L513.54 166.85L512.38 164.97L511.25 163.07L510.15 161.14L509.09 159.19L508.06 157.21L507.96 157L506.86 157.3L505.33 157.67L503.77 157.99L502.19 158.27L500.59 158.49L498.97 158.67L497.33 158.8L495.67 158.87L493.99 158.89L492.31 158.86L490.65 158.78L490.58 158.78L490.45 95.53L490.51 95.53L492.17 95.45L493.85 95.43L495.53 95.46L497.19 95.54Z" id="j5yAWm1ozX"></path></defs><g><g><g><use xlink:href="#kfjA6z16p" opacity="1" fill="#ecdf9e" fill-opacity="1"></use><g><use xlink:href="#kfjA6z16p" opacity="1" fill-opacity="0" stroke="#000000" stroke-width="1" stroke-opacity="0"></use></g></g><g><use xlink:href="#c5CGvU6lk" opacity="1" fill="#93b682" fill-opacity="1"></use><g><use xlink:href="#c5CGvU6lk" opacity="1" fill-opacity="0" stroke="#000000" stroke-width="1" stroke-opacity="0"></use></g></g><g><use xlink:href="#g3kTX5E7wk" opacity="1" fill="#000000" fill-opacity="0"></use><g><use xlink:href="#g3kTX5E7wk" opacity="1" fill-opacity="0" stroke="#000000" stroke-width="1" stroke-opacity="0"></use></g></g><g><use xlink:href="#a2C71nutf" opacity="1" fill="#ff9386" fill-opacity="1"></use><g><use xlink:href="#a2C71nutf" opacity="1" fill-opacity="0" stroke="#000000" stroke-width="1" stroke-opacity="0"></use></g></g><g><use xlink:href="#e55A1NpNb" opacity="1" fill="#000000" fill-opacity="0"></use><g><use xlink:href="#e55A1NpNb" opacity="1" fill-opacity="0" stroke="#000000" stroke-width="1" stroke-opacity="0"></use></g></g><g><use xlink:href="#g1dnvWJkMi" opacity="1" fill="#b8645a" fill-opacity="1"></use><g><use xlink:href="#g1dnvWJkMi" opacity="1" fill-opacity="0" stroke="#000000" stroke-width="1" stroke-opacity="0"></use></g></g><g><use xlink:href="#c31IUfH5cK" opacity="1" fill="#000000" fill-opacity="0"></use><g><use xlink:href="#c31IUfH5cK" opacity="1" fill-opacity="0" stroke="#000000" stroke-width="1" stroke-opacity="0"></use></g></g><g><use xlink:href="#ah7lq65qN" opacity="1" fill="#b0d69e" fill-opacity="1"></use><g><use xlink:href="#ah7lq65qN" opacity="1" fill-opacity="0" stroke="#000000" stroke-width="1" stroke-opacity="0"></use></g></g><g><use xlink:href="#cpYPtmDRN" opacity="1" fill="#000000" fill-opacity="0"></use><g><use xlink:href="#cpYPtmDRN" opacity="1" fill-opacity="0" stroke="#000000" stroke-width="1" stroke-opacity="0"></use></g></g><g><use xlink:href="#c3VSBzWj4r" opacity="1" fill="#ffa99c" fill-opacity="1"></use><g><use xlink:href="#c3VSBzWj4r" opacity="1" fill-opacity="0" stroke="#000000" stroke-width="1" stroke-opacity="0"></use></g></g><g><use xlink:href="#b1uCQsHD2Q" opacity="1" fill="#000000" fill-opacity="0"></use><g><use xlink:href="#b1uCQsHD2Q" opacity="1" fill-opacity="0" stroke="#000000" stroke-width="1" stroke-opacity="0"></use></g></g><g><use xlink:href="#cWIhspYkH" opacity="1" fill="#000000" fill-opacity="0.13"></use><g><use xlink:href="#cWIhspYkH" opacity="1" fill-opacity="0" stroke="#000000" stroke-width="1" stroke-opacity="0"></use></g></g><g><use xlink:href="#kjvug5GY1" opacity="1" fill="#ececec" fill-opacity="1"></use><g><use xlink:href="#kjvug5GY1" opacity="1" fill-opacity="0" stroke="#000000" stroke-width="1" stroke-opacity="0"></use></g></g><g><use xlink:href="#eASFTBoT3" opacity="1" fill="#ecb69e" fill-opacity="1"></use><g><use xlink:href="#eASFTBoT3" opacity="1" fill-opacity="0" stroke="#000000" stroke-width="1" stroke-opacity="0"></use></g></g><g><use xlink:href="#edb5LRimP" opacity="1" fill="#000000" fill-opacity="0.13"></use><g><use xlink:href="#edb5LRimP" opacity="1" fill-opacity="0" stroke="#000000" stroke-width="1" stroke-opacity="0"></use></g></g><g><use xlink:href="#c462kyEkbS" opacity="1" fill="#ecb69e" fill-opacity="1"></use><g><use xlink:href="#c462kyEkbS" opacity="1" fill-opacity="0" stroke="#000000" stroke-width="1" stroke-opacity="0"></use></g></g><g><use xlink:href="#a3mea6b4G" opacity="1" fill="#ecb69e" fill-opacity="1"></use><g><use xlink:href="#a3mea6b4G" opacity="1" fill-opacity="0" stroke="#000000" stroke-width="1" stroke-opacity="0"></use></g></g><g><use xlink:href="#e37UJpcUpa" opacity="1" fill="#ffcbad" fill-opacity="1"></use><g><use xlink:href="#e37UJpcUpa" opacity="1" fill-opacity="0" stroke="#000000" stroke-width="1" stroke-opacity="0"></use></g></g><g><use xlink:href="#b3Rz5tknu9" opacity="1" fill="#000000" fill-opacity="0.04"></use><g><use xlink:href="#b3Rz5tknu9" opacity="1" fill-opacity="0" stroke="#000000" stroke-width="1" stroke-opacity="0"></use></g></g><g><use xlink:href="#c2zZjRdZJi" opacity="1" fill="#c26f6f" fill-opacity="1"></use><g><use xlink:href="#c2zZjRdZJi" opacity="1" fill-opacity="0" stroke="#000000" stroke-width="1" stroke-opacity="0"></use></g></g><g><use xlink:href="#h9779aLHr" opacity="1" fill="#c26f6f" fill-opacity="1"></use><g><use xlink:href="#h9779aLHr" opacity="1" fill-opacity="0" stroke="#000000" stroke-width="1" stroke-opacity="0"></use></g></g><g><use xlink:href="#a1GnG4ltG" opacity="1" fill="#000000" fill-opacity="0.13"></use><g><use xlink:href="#a1GnG4ltG" opacity="1" fill-opacity="0" stroke="#000000" stroke-width="1" stroke-opacity="0"></use></g></g><g><use xlink:href="#bS9Wfv6dE" opacity="1" fill="#ef9a9a" fill-opacity="1"></use></g><g><use xlink:href="#m3mp5xRW8K" opacity="1" fill="#000000" fill-opacity="0.13"></use></g><g><use xlink:href="#hnbSR2SRw" opacity="1" fill="#ef9a9a" fill-opacity="1"></use></g><g><use xlink:href="#d2wIsWt2yp" opacity="1" fill="#da8686" fill-opacity="1"></use></g><g><use xlink:href="#gbqAgSiwY" opacity="1" fill="#000000" fill-opacity="0.13"></use></g><g><use xlink:href="#c1tXDuRxe9" opacity="1" fill="#ff9386" fill-opacity="1"></use><g><use xlink:href="#c1tXDuRxe9" opacity="1" fill-opacity="0" stroke="#000000" stroke-width="1" stroke-opacity="0"></use></g></g><g><use xlink:href="#a1S0PgKAIX" opacity="1" fill="#000000" fill-opacity="0.13"></use></g><g><use xlink:href="#a2V8w8Nlhe" opacity="1" fill="#ecdf9e" fill-opacity="1"></use><g><use xlink:href="#a2V8w8Nlhe" opacity="1" fill-opacity="0" stroke="#000000" stroke-width="1" stroke-opacity="0"></use></g></g><g><use xlink:href="#f39Lf040Bu" opacity="1" fill="#000000" fill-opacity="0"></use><g><use xlink:href="#f39Lf040Bu" opacity="1" fill-opacity="0" stroke="#000000" stroke-width="1" stroke-opacity="0"></use></g></g><g><use xlink:href="#a7QsXs2eo" opacity="1" fill="#93b682" fill-opacity="1"></use><g><use xlink:href="#a7QsXs2eo" opacity="1" fill-opacity="0" stroke="#000000" stroke-width="1" stroke-opacity="0"></use></g></g><g><use xlink:href="#a2Uj5awGUH" opacity="1" fill="#ff9386" fill-opacity="1"></use><g><use xlink:href="#a2Uj5awGUH" opacity="1" fill-opacity="0" stroke="#000000" stroke-width="1" stroke-opacity="0"></use></g></g><g><use xlink:href="#a3d9BPohY6" opacity="1" fill="#b8645a" fill-opacity="1"></use><g><use xlink:href="#a3d9BPohY6" opacity="1" fill-opacity="0" stroke="#000000" stroke-width="1" stroke-opacity="0"></use></g></g><g><use xlink:href="#e4COCSUn3x" opacity="1" fill="#b0d69e" fill-opacity="1"></use><g><use xlink:href="#e4COCSUn3x" opacity="1" fill-opacity="0" stroke="#000000" stroke-width="1" stroke-opacity="0"></use></g></g><g><use xlink:href="#aD3TkNqO9" opacity="1" fill="#ffa99c" fill-opacity="1"></use><g><use xlink:href="#aD3TkNqO9" opacity="1" fill-opacity="0" stroke="#000000" stroke-width="1" stroke-opacity="0"></use></g></g><g><use xlink:href="#cwogzVbCV" opacity="1" fill="#000000" fill-opacity="0.13"></use><g><use xlink:href="#cwogzVbCV" opacity="1" fill-opacity="0" stroke="#000000" stroke-width="1" stroke-opacity="0"></use></g></g><g><use xlink:href="#e4tumRsKz2" opacity="1" fill="#ececec" fill-opacity="1"></use><g><use xlink:href="#e4tumRsKz2" opacity="1" fill-opacity="0" stroke="#000000" stroke-width="1" stroke-opacity="0"></use></g></g><g><use xlink:href="#nnMnXyQiS" opacity="1" fill="#ecb69e" fill-opacity="1"></use><g><use xlink:href="#nnMnXyQiS" opacity="1" fill-opacity="0" stroke="#000000" stroke-width="1" stroke-opacity="0"></use></g></g><g><use xlink:href="#ainNRpc4A" opacity="1" fill="#000000" fill-opacity="0.13"></use><g><use xlink:href="#ainNRpc4A" opacity="1" fill-opacity="0" stroke="#000000" stroke-width="1" stroke-opacity="0"></use></g></g><g><use xlink:href="#f3JZwwcgzn" opacity="1" fill="#ecb69e" fill-opacity="1"></use><g><use xlink:href="#f3JZwwcgzn" opacity="1" fill-opacity="0" stroke="#000000" stroke-width="1" stroke-opacity="0"></use></g></g><g><use xlink:href="#cmHs0OJDX" opacity="1" fill="#ecb69e" fill-opacity="1"></use><g><use xlink:href="#cmHs0OJDX" opacity="1" fill-opacity="0" stroke="#000000" stroke-width="1" stroke-opacity="0"></use></g></g><g><use xlink:href="#e2iPTWsFO" opacity="1" fill="#ffcbad" fill-opacity="1"></use><g><use xlink:href="#e2iPTWsFO" opacity="1" fill-opacity="0" stroke="#000000" stroke-width="1" stroke-opacity="0"></use></g></g><g><use xlink:href="#f4gpw9t29" opacity="1" fill="#000000" fill-opacity="0.04"></use><g><use xlink:href="#f4gpw9t29" opacity="1" fill-opacity="0" stroke="#000000" stroke-width="1" stroke-opacity="0"></use></g></g><g><use xlink:href="#b378M38Ryt" opacity="1" fill="#da8686" fill-opacity="1"></use></g><g><use xlink:href="#j5yAWm1ozX" opacity="1" fill="#ef9a9a" fill-opacity="1"></use></g></g></g></svg>