<?xml version="1.0" encoding="UTF-8" standalone="no"?>
<!DOCTYPE svg PUBLIC "-//W3C//DTD SVG 1.1//EN" "http://www.w3.org/Graphics/SVG/1.1/DTD/svg11.dtd">
<svg version="1.1" xmlns="http://www.w3.org/2000/svg" xmlns:xlink="http://www.w3.org/1999/xlink" preserveAspectRatio="xMidYMid meet" viewBox="0 0 640 640" width="640" height="640"><defs><path d="M464.84 104.09C465.93 105.08 468.68 107.54 473.08 111.49C470.43 116.26 468.77 119.24 468.11 120.43C431.21 186.83 343.27 203.78 284.34 155.84C283.23 154.94 280.47 152.69 276.04 149.09C279.58 142.4 281.79 138.22 282.68 136.55C318.39 69.07 408.01 53.1 464.84 104.09Z" id="e7k0Wxs1J"></path><path d="M464.84 104.09C465.93 105.08 468.68 107.54 473.08 111.49C470.43 116.26 468.77 119.24 468.11 120.43C431.21 186.83 343.27 203.78 284.34 155.84C283.23 154.94 280.47 152.69 276.04 149.09C279.58 142.4 281.79 138.22 282.68 136.55C318.39 69.07 408.01 53.1 464.84 104.09Z" id="d1K0FrIgDU"></path><path d="M402.14 188.9C405.83 185.54 435.36 158.69 439.05 155.34C442.36 152.7 445.42 149.92 448.23 146.99C451.05 144.07 453.74 141.07 456.31 137.98C433.92 130.87 412.69 127.1 392.62 126.7C372.55 126.29 353.51 129.18 335.51 135.37C333.17 133.77 321.45 125.77 300.36 111.37C292.86 120.39 288.69 125.41 287.85 126.41C286.76 149.67 297.69 167.72 320.63 180.54C343.57 193.36 370.74 196.15 402.14 188.9Z" id="b5e6LZadI0"></path><path d="M354.86 565.9C392.81 558.44 435.57 530.9 483.15 483.27C519.34 447.04 540.37 400.32 546.24 343.09C549.45 311.75 545.96 280.08 535.99 250.2C530.63 234.13 539.01 259.27 535.99 250.2C519.37 200.38 477.77 162.98 426.48 151.73C419.64 150.23 405.48 149.62 383.99 149.89C286.95 151.15 263.83 217.06 240.49 260.11C217.16 303.15 216.94 341.73 225.78 413.18C231.67 460.81 274.7 511.72 354.86 565.9Z" id="b1lY2XHOA5"></path><path d="M354.86 565.9C392.81 558.44 435.57 530.9 483.15 483.27C519.34 447.04 540.37 400.32 546.24 343.09C549.45 311.75 545.96 280.08 535.99 250.2C530.63 234.13 539.01 259.27 535.99 250.2C519.37 200.38 477.77 162.98 426.48 151.73C419.64 150.23 405.48 149.62 383.99 149.89C286.95 151.15 263.83 217.06 240.49 260.11C217.16 303.15 216.94 341.73 225.78 413.18C231.67 460.81 274.7 511.72 354.86 565.9Z" id="cf50c9N6Y"></path><path d="M301.28 262.75C276.24 209.49 272.89 158.26 293.8 148.43C314.71 138.6 352.02 173.85 377.07 227.12C402.11 280.38 405.46 331.6 384.55 341.43C363.63 351.26 326.33 316.01 301.28 262.75Z" id="d1AqjHhhbV"></path><path d="M301.28 262.75C276.24 209.49 272.89 158.26 293.8 148.43C314.71 138.6 352.02 173.85 377.07 227.12C402.11 280.38 405.46 331.6 384.55 341.43C363.63 351.26 326.33 316.01 301.28 262.75Z" id="b1sabW7Wd"></path><path d="M292.13 191.97C228.99 247.33 130.97 230.9 89.34 157.98C87.99 155.62 84.61 149.71 79.21 140.25C86.12 132.94 90.44 128.36 92.17 126.53C150.13 65.14 248.39 67.07 303.9 130.68C308.94 136.46 302.99 129.64 328.66 159.05C328.9 159.33 328.87 159.76 328.6 160C296.86 187.82 299.52 185.49 292.13 191.97Z" id="b2aJ1IjV2I"></path><path d="M292.13 191.97C228.99 247.33 130.97 230.9 89.34 157.98C87.99 155.62 84.61 149.71 79.21 140.25C86.12 132.94 90.44 128.36 92.17 126.53C150.13 65.14 248.39 67.07 303.9 130.68C308.94 136.46 302.99 129.64 328.66 159.05C328.9 159.33 328.87 159.76 328.6 160C296.86 187.82 299.52 185.49 292.13 191.97Z" id="abyqt8hHd"></path><path d="M129.89 202.01C141.54 200.51 199.78 193.04 304.6 179.58L309.7 176.62C321.18 166.56 327.55 160.98 328.82 159.86C327.28 158.13 325.91 156.81 324.71 155.9C251.26 100.01 174.96 104.13 95.81 168.26C100.41 174.77 105.53 180.85 111.16 186.51C116.8 192.17 123.04 197.33 129.89 202.01Z" id="cpW1Jpblo"></path><path d="M255.62 158.15L260.25 158.48L264.76 158.95L269.14 159.53L273.4 160.25L277.55 161.1L281.6 162.08L285.55 163.19L289.4 164.44L293.16 165.82L296.84 167.33L300.43 168.98L303.95 170.78L307.4 172.71L310.79 174.78L314.11 177L317.39 179.35L320.61 181.86L323.79 184.51L326.93 187.3L330.04 190.25L333.11 193.34L336.17 196.59L339.21 199.98L342.23 203.53L345.25 207.24L348.26 211.1L351.27 215.12L354.3 219.29L357.33 223.63L360.39 228.12L363.46 232.78L366.57 237.6L369.71 242.59L372.88 247.74L376.1 253.05L379.37 258.54L380.48 260.44L381.55 262.36L382.61 264.32L383.64 266.3L384.65 268.32L385.64 270.36L386.6 272.43L387.54 274.54L388.46 276.67L389.36 278.83L390.23 281.01L391.07 283.23L391.9 285.48L392.7 287.75L393.48 290.06L394.24 292.39L394.97 294.76L395.68 297.15L396.36 299.57L397.03 302.02L397.67 304.5L398.28 307.01L398.88 309.55L399.45 312.11L400 314.71L400.52 317.33L401.02 319.99L401.5 322.67L401.95 325.38L402.39 328.12L402.8 330.89L403.18 333.69L403.54 336.52L403.88 339.38L404.2 342.26L404.49 345.18L404.76 348.12L405.01 351.09L405.23 354.1L405.43 357.13L405.7 361.94L405.9 366.75L406.04 371.56L406.12 376.37L406.13 381.18L406.08 385.98L405.97 390.78L405.79 395.57L405.55 400.36L405.25 405.14L404.89 409.92L404.46 414.69L403.97 419.45L403.42 424.2L402.81 428.94L402.14 433.68L401.4 438.41L400.61 443.12L399.75 447.82L398.83 452.52L397.85 457.19L396.81 461.86L395.7 466.51L394.54 471.15L393.32 475.78L392.03 480.38L390.69 484.98L389.28 489.55L387.82 494.11L386.29 498.65L384.7 503.17L383.06 507.67L381.35 512.16L379.59 516.62L377.76 521.06L375.88 525.48L373.94 529.88L371.93 534.26L369.87 538.61L367.75 542.94L367.63 543.18L367.51 543.43L367.37 543.7L367.23 543.99L367.08 544.3L366.91 544.62L366.74 544.97L366.57 545.32L366.38 545.7L366.18 546.09L365.98 546.5L365.77 546.93L365.55 547.38L365.32 547.84L365.08 548.32L364.58 549.33L364.31 549.86L364.04 550.41L363.76 550.97L363.47 551.55L363.17 552.15L362.86 552.77L362.55 553.41L362.22 554.06L361.89 554.73L361.55 555.41L361.2 556.11L360.84 556.84L360.47 557.57L360.1 558.33L359.71 559.1L359.32 559.89L358.92 560.7L358.51 561.52L358.09 562.36L357.66 563.22L357.23 564.1L356.79 564.99L356.33 565.9L349.57 565.22L342.9 564.48L336.31 563.66L329.81 562.76L323.4 561.79L317.08 560.75L310.84 559.64L304.69 558.45L298.63 557.19L292.65 555.85L286.77 554.45L280.97 552.96L275.25 551.41L269.63 549.78L264.09 548.08L258.63 546.31L253.27 544.46L247.99 542.54L242.8 540.54L237.7 538.47L232.68 536.33L227.75 534.11L222.91 531.83L218.16 529.46L213.49 527.03L208.91 524.52L204.42 521.94L200.01 519.28L195.7 516.55L191.46 513.75L187.32 510.88L183.26 507.93L179.3 504.91L175.41 501.81L171.62 498.64L167.91 495.4L164.29 492.08L160.76 488.7L157.31 485.23L153.95 481.7L149.09 476.33L146.75 473.62L148.93 472.44L151.63 470.83L154.27 469.12L156.84 467.31L159.33 465.41L161.74 463.42L164.08 461.34L166.33 459.17L168.51 456.91L170.59 454.57L172.58 452.16L174.48 449.67L176.29 447.1L178 444.47L179.61 441.76L181.11 438.99L182.52 436.15L183.81 433.26L184.99 430.31L186.06 427.3L187.01 424.23L187.85 421.12L188.56 417.96L189.15 414.76L189.61 411.51L189.95 408.23L190.15 404.9L190.22 401.55L190.15 398.19L189.95 394.87L189.61 391.58L189.15 388.34L188.56 385.13L187.85 381.97L187.01 378.86L186.06 375.8L184.99 372.79L183.81 369.84L182.52 366.94L181.11 364.11L179.61 361.34L178 358.63L176.29 355.99L174.48 353.43L172.58 350.94L170.59 348.52L168.51 346.18L166.33 343.93L164.08 341.76L161.74 339.68L159.33 337.68L156.84 335.78L154.27 333.97L151.63 332.27L148.93 330.66L146.16 329.15L143.32 327.75L140.43 326.46L137.47 325.27L134.47 324.21L131.4 323.25L128.29 322.42L125.13 321.7L121.93 321.12L118.68 320.65L115.4 320.32L112.07 320.12L108.72 320.05L105.36 320.12L102.04 320.32L98.75 320.65L95.5 321.12L92.3 321.7L89.14 322.42L86.03 323.25L84.56 323.71L84.39 319.8L84.28 315.19L84.25 310.66L84.31 306.19L84.45 301.81L84.67 297.49L84.96 293.27L85.32 289.12L85.75 285.06L86.23 281.09L86.39 279.93L86.56 278.78L86.73 277.64L86.91 276.5L87.1 275.37L87.3 274.25L87.51 273.13L87.73 272.02L87.96 270.91L88.19 269.82L88.44 268.73L88.69 267.64L88.95 266.57L89.22 265.5L89.5 264.43L89.79 263.37L90.08 262.32L90.39 261.28L90.7 260.24L91.03 259.21L91.36 258.19L91.7 257.17L92.05 256.16L92.41 255.15L92.77 254.16L93.15 253.17L93.53 252.18L93.92 251.2L94.33 250.23L94.74 249.27L95.16 248.31L95.58 247.36L96.02 246.41L96.47 245.48L96.92 244.54L97.38 243.62L97.86 242.7L98.34 241.79L98.83 240.89L99.32 239.99L100.62 237.72L101.95 235.48L103.31 233.26L104.7 231.07L106.13 228.9L107.59 226.76L109.09 224.64L110.61 222.54L112.17 220.47L113.75 218.43L115.37 216.41L117.02 214.42L118.7 212.46L120.4 210.52L122.14 208.61L123.91 206.73L125.7 204.88L127.53 203.05L129.38 201.26L131.25 199.49L133.16 197.75L135.09 196.04L137.05 194.36L139.04 192.72L141.05 191.1L143.08 189.51L145.15 187.96L147.23 186.44L149.34 184.95L151.48 183.49L153.64 182.06L155.82 180.67L158.03 179.31L160.25 177.98L162.51 176.69L164.78 175.43L167.07 174.21L169.39 173.02L171.73 171.87L174.08 170.75L175.29 170.2L176.51 169.66L177.76 169.13L179.01 168.62L180.29 168.12L181.58 167.62L182.89 167.15L184.22 166.68L185.56 166.22L186.93 165.78L188.3 165.35L189.7 164.93L191.11 164.52L192.54 164.13L193.99 163.75L195.45 163.37L196.93 163.02L198.43 162.67L199.95 162.33L201.48 162.01L203.03 161.7L204.6 161.4L206.18 161.11L207.78 160.84L209.4 160.57L211.04 160.32L212.69 160.08L214.36 159.85L216.05 159.64L217.75 159.43L219.48 159.24L221.21 159.06L222.97 158.89L224.74 158.74L226.53 158.59L228.34 158.46L230.17 158.34L232.01 158.23L233.87 158.13L235.74 158.05L240.93 157.89L245.97 157.85L250.86 157.94L255.62 158.15Z" id="f11oxGNgcW"></path><path d="M545.06 216.37C556.07 221.2 561.08 234.06 556.25 245.07C551.41 256.07 538.56 261.08 527.55 256.25C520.22 253.03 509.54 240.41 495.52 218.41C521.21 213.83 537.73 213.15 545.06 216.37Z" id="c24SdLloqq"></path><path d="M217.01 295.96C208.14 304.07 194.36 303.46 186.25 294.59C178.13 285.72 178.75 271.94 187.62 263.83C193.53 258.42 209.38 253.75 235.18 249.83C228.98 275.18 222.92 290.56 217.01 295.96Z" id="k31sO7gtmr"></path><path d="M456.08 295.04C459.53 325.61 423.78 310.5 382.38 315.17C340.97 319.85 309.49 342.55 306.04 311.98C302.58 281.41 333.4 252.8 374.81 248.13C416.21 243.45 452.63 264.47 456.08 295.04Z" id="f1UvdqnjLb"></path><path d="M121.36 310.09L122.87 310.24L124.37 310.46L125.84 310.73L127.29 311.06L128.71 311.45L130.09 311.89L131.43 312.38L132.73 312.92L133.97 313.51L135.17 314.14L136.3 314.82L137.37 315.53L138.37 316.29L139.3 317.09L140.15 317.92L140.92 318.79L141.6 319.69L142.18 320.62L142.68 321.57L143.06 322.56L143.35 323.57L143.52 324.6L143.55 325.12L143.83 324.94L144.83 324.4L145.88 323.96L146.95 323.59L148.07 323.3L149.21 323.1L150.37 322.97L151.56 322.92L152.76 322.96L153.97 323.07L155.19 323.26L156.42 323.53L157.65 323.87L158.87 324.29L160.09 324.79L161.29 325.36L162.48 326.01L163.65 326.73L164.79 327.53L165.91 328.4L166.99 329.35L168.04 330.36L169.04 331.43L169.96 332.54L170.81 333.68L171.58 334.84L172.28 336.03L172.91 337.24L173.46 338.46L173.94 339.69L174.34 340.93L174.66 342.17L174.91 343.41L175.08 344.65L175.17 345.87L175.19 347.09L175.13 348.28L174.98 349.45L174.76 350.6L174.46 351.71L174.3 352.19L174.69 352.08L175.81 351.88L176.93 351.77L178.07 351.75L179.22 351.81L180.37 351.96L181.51 352.2L182.66 352.52L183.79 352.91L184.92 353.39L186.03 353.94L187.11 354.57L188.18 355.27L189.22 356.05L190.23 356.89L191.21 357.81L192.15 358.79L193.04 359.83L193.89 360.94L194.7 362.11L195.45 363.34L196.14 364.63L196.77 365.95L197.32 367.29L197.78 368.63L198.17 369.98L198.49 371.32L198.72 372.67L198.88 374L198.97 375.32L198.98 376.62L198.91 377.9L198.78 379.16L198.57 380.39L198.29 381.59L197.94 382.75L197.53 383.86L197.04 384.94L196.49 385.96L195.87 386.94L195.18 387.85L194.43 388.71L193.61 389.5L192.73 390.22L191.79 390.87L191.51 391.03L191.74 391.07L192.84 391.35L193.92 391.73L194.95 392.19L195.95 392.74L196.9 393.37L197.81 394.07L198.68 394.84L199.5 395.69L200.27 396.6L200.99 397.57L201.65 398.6L202.26 399.68L202.81 400.82L203.3 402L203.73 403.23L204.1 404.5L204.4 405.81L204.63 407.15L204.79 408.52L204.88 409.92L204.89 411.35L204.83 412.79L204.69 414.25L204.47 415.7L204.18 417.12L203.81 418.49L203.39 419.83L202.9 421.12L202.34 422.36L201.73 423.55L201.07 424.69L200.35 425.78L199.59 426.8L198.77 427.77L197.92 428.67L197.02 429.5L196.09 430.26L195.12 430.95L194.12 431.57L193.09 432.1L192.03 432.56L190.96 432.93L189.86 433.21L188.74 433.4L187.73 433.49L188.02 433.8L188.67 434.65L189.23 435.56L189.71 436.52L190.1 437.53L190.41 438.58L190.63 439.68L190.77 440.81L190.83 441.97L190.82 443.16L190.72 444.38L190.56 445.61L190.31 446.87L190 448.13L189.61 449.4L189.16 450.67L188.64 451.94L188.05 453.21L187.4 454.47L186.69 455.71L185.91 456.93L185.08 458.14L184.18 459.32L183.23 460.46L182.56 461.2L181.84 461.91L181.09 462.59L180.29 463.24L179.45 463.86L178.56 464.45L177.64 465L176.67 465.53L175.67 466.03L174.62 466.5L173.52 466.94L172.39 467.35L171.21 467.73L170 468.08L168.74 468.4L167.43 468.69L166.09 468.95L164.71 469.18L163.28 469.38L161.81 469.56L160.3 469.7L158.75 469.81L157.15 469.89L155.51 469.94L154.22 469.96L153.48 470.48L150.85 472.2L148.14 473.82L147.97 473.92L146.32 474.3L146.42 472.4L146.49 470.5L146.54 468.6L146.57 466.7L146.57 464.8L146.56 462.89L146.52 460.99L146.46 459.09L146.38 457.19L146.28 455.28L146.15 453.38L146 451.47L145.83 449.57L145.64 447.67L145.61 447.36L146.17 446.96L147.07 446.23L147.92 445.42L148.73 444.55L149.49 443.61L150.2 442.61L150.86 441.55L151.46 440.44L152 439.28L152.48 438.07L152.9 436.82L153.26 435.52L153.54 434.19L153.76 432.83L153.91 431.43L153.99 430.01L153.99 428.57L153.91 427.1L153.75 425.64L153.52 424.22L153.22 422.83L152.85 421.48L152.42 420.17L151.92 418.9L151.36 417.68L150.74 416.51L150.08 415.4L149.35 414.34L148.58 413.34L147.77 412.4L146.91 411.53L146.01 410.73L145.07 410L144.1 409.34L143.09 408.76L142.06 408.26L141 407.84L139.91 407.51L138.89 407.29L139.38 406.8L140.13 405.92L140.83 404.98L141.46 403.99L142.03 402.94L142.53 401.84L142.98 400.7L143.35 399.51L143.66 398.29L143.91 397.02L144.08 395.73L144.18 394.41L144.21 393.07L144.16 391.71L144.04 390.33L143.84 388.95L143.57 387.55L143.22 386.15L142.78 384.75L142.27 383.38L141.7 382.05L141.07 380.78L140.38 379.56L139.64 378.4L138.85 377.29L138.01 376.25L137.13 375.27L136.2 374.36L135.25 373.51L134.26 372.73L133.24 372.03L132.19 371.4L131.12 370.84L130.03 370.37L128.93 369.97L127.82 369.66L126.69 369.43L125.56 369.29L124.43 369.24L123.3 369.28L122.97 369.32L123.14 368.95L123.57 367.85L123.93 366.71L124.21 365.54L124.43 364.33L124.57 363.09L124.63 361.82L124.63 360.54L124.55 359.24L124.39 357.93L124.16 356.6L123.85 355.28L123.47 353.95L123.01 352.63L122.47 351.31L121.85 350.01L121.16 348.72L120.39 347.47L119.58 346.28L118.71 345.16L117.8 344.1L116.85 343.1L115.86 342.18L114.83 341.32L113.78 340.53L112.7 339.82L111.6 339.17L110.48 338.6L109.34 338.11L108.19 337.7L107.04 337.36L105.88 337.11L104.72 336.94L103.56 336.85L102.42 336.85L101.28 336.93L100.16 337.1L99.06 337.37L97.98 337.72L96.93 338.17L96.76 338.26L96.56 338.01L95.05 336.17L93.52 334.33L91.97 332.5L90.39 330.66L88.8 328.83L87.18 327L85.53 325.17L84.25 323.77L85.24 323.46L88.35 322.62L91.51 321.9L94.09 321.42L94.29 321.13L94.98 320.28L95.74 319.44L96.58 318.61L97.48 317.8L98.45 317.02L99.48 316.25L100.57 315.52L101.71 314.81L102.91 314.14L104.15 313.51L105.43 312.92L106.76 312.37L108.12 311.87L109.51 311.42L110.93 311.03L112.37 310.7L113.84 310.42L115.32 310.21L116.82 310.07L118.33 310L119.84 310.01L121.36 310.09Z" id="dde8a3Gv8"></path><path d="M122.65 310.24L124.15 310.46L125.62 310.73L127.07 311.06L128.48 311.45L129.87 311.89L131.21 312.38L132.5 312.92L133.75 313.51L134.94 314.14L136.08 314.82L137.15 315.53L138.15 316.29L139.08 317.09L139.93 317.92L140.7 318.79L141.38 319.69L141.96 320.62L142.45 321.57L142.84 322.56L143.13 323.57L143.3 324.6L143.33 325.12L143.61 324.94L144.61 324.4L145.65 323.96L146.73 323.59L147.85 323.3L148.99 323.1L150.15 322.97L151.33 322.92L152.54 322.96L153.75 323.07L154.97 323.26L156.2 323.53L157.43 323.87L158.65 324.29L159.87 324.79L161.07 325.36L162.26 326.01L163.43 326.73L164.57 327.53L165.69 328.4L166.77 329.35L167.82 330.36L168.82 331.43L169.74 332.54L170.59 333.68L171.36 334.84L172.06 336.03L172.69 337.24L173.24 338.46L173.71 339.69L174.11 340.93L174.44 342.17L174.69 343.41L174.86 344.65L174.95 345.87L174.97 347.09L174.9 348.28L174.76 349.45L174.54 350.6L174.24 351.71L174.08 352.19L174.47 352.08L175.58 351.88L176.71 351.77L177.85 351.75L179 351.81L180.15 351.96L181.29 352.2L182.44 352.52L183.57 352.91L184.7 353.39L185.8 353.94L186.89 354.57L187.96 355.27L189 356.05L190.01 356.89L190.99 357.81L191.92 358.79L192.82 359.83L193.67 360.94L194.48 362.11L195.23 363.34L195.92 364.63L196.55 365.95L197.1 367.29L197.56 368.63L197.95 369.98L198.26 371.32L198.5 372.67L198.66 374L198.74 375.32L198.75 376.62L198.69 377.9L198.56 379.16L198.35 380.39L198.07 381.59L197.72 382.75L197.31 383.86L196.82 384.94L196.27 385.96L195.64 386.94L194.96 387.85L194.21 388.71L193.39 389.5L192.51 390.22L191.57 390.87L191.29 391.03L191.52 391.07L192.62 391.35L193.7 391.73L194.73 392.19L195.73 392.74L196.68 393.37L197.59 394.07L198.46 394.84L199.28 395.69L200.05 396.6L200.77 397.57L201.43 398.6L202.04 399.68L202.59 400.82L203.08 402L203.51 403.23L203.88 404.5L204.18 405.81L204.41 407.15L204.57 408.52L204.66 409.92L204.67 411.35L204.61 412.79L204.47 414.25L204.25 415.7L203.95 417.12L203.59 418.49L203.17 419.83L202.67 421.12L202.12 422.36L201.51 423.55L200.85 424.69L200.13 425.78L199.36 426.8L198.55 427.77L197.7 428.67L196.8 429.5L195.87 430.26L194.9 430.95L193.9 431.57L192.87 432.1L191.81 432.56L190.73 432.93L189.64 433.21L188.52 433.4L187.51 433.49L187.8 433.8L188.45 434.65L189.01 435.56L189.49 436.52L189.88 437.53L190.19 438.58L190.41 439.68L190.55 440.81L190.61 441.97L190.6 443.16L190.5 444.38L190.33 445.61L190.09 446.87L189.78 448.13L189.39 449.4L188.94 450.67L188.42 451.94L187.83 453.21L187.18 454.47L186.47 455.71L185.69 456.93L184.85 458.14L183.96 459.32L183.01 460.46L182.34 461.2L181.62 461.91L180.87 462.59L180.07 463.24L179.23 463.86L178.34 464.45L177.42 465L176.45 465.53L175.44 466.03L174.39 466.5L173.3 466.94L172.17 467.35L170.99 467.73L170.14 467.98L170.3 467.01L170.51 465.61L170.72 464.21L170.92 462.81L171.11 461.42L171.29 460.04L171.46 458.65L171.62 457.27L171.77 455.9L171.91 454.53L172.04 453.17L172.16 451.8L172.27 450.45L172.38 449.09L172.47 447.75L172.55 446.4L172.62 445.06L172.69 443.73L172.74 442.4L172.79 441.07L172.82 439.75L172.85 438.43L172.86 437.12L172.87 435.81L172.86 434.5L172.85 433.2L172.83 431.9L172.79 430.61L172.75 429.32L172.7 428.04L172.64 426.76L172.56 425.49L172.48 424.21L172.39 422.95L172.29 421.69L172.18 420.43L172.06 419.18L171.93 417.93L171.55 414.8L171.09 411.69L170.54 408.61L169.92 405.55L169.21 402.52L168.42 399.52L167.55 396.55L166.61 393.61L165.59 390.7L164.49 387.82L163.32 384.98L162.08 382.18L160.76 379.42L159.37 376.69L157.91 374L156.39 371.36L154.79 368.76L153.12 366.2L151.39 363.69L149.6 361.23L147.74 358.82L145.81 356.45L143.82 354.14L141.77 351.88L139.67 349.67L137.5 347.51L135.27 345.42L132.98 343.38L130.64 341.4L128.24 339.48L125.79 337.62L123.29 335.83L120.73 334.1L118.12 332.44L115.46 330.84L112.75 329.31L109.99 327.85L107.18 326.46L104.33 325.15L101.43 323.9L100.65 323.59L99.86 323.28L99.07 322.97L98.26 322.68L97.44 322.39L96.62 322.1L95.78 321.82L94.94 321.54L94.08 321.28L93.99 321.25L94.07 321.13L94.76 320.28L95.52 319.44L96.36 318.61L97.26 317.8L98.23 317.02L99.26 316.25L100.35 315.52L101.49 314.81L102.69 314.14L103.93 313.51L105.21 312.92L106.54 312.37L107.89 311.87L109.29 311.42L110.71 311.03L112.15 310.7L113.62 310.42L115.1 310.21L116.6 310.07L118.11 310L119.62 310.01L121.14 310.09L121.14 310.09L122.65 310.24Z" id="b3jWkIUhmo"></path><path d="M379.96 -230.94L381.25 -230.9L382.55 -230.84L383.86 -230.78L385.16 -230.7L386.47 -230.61L387.78 -230.51L389.1 -230.4L390.42 -230.28L391.74 -230.14L393.06 -230L394.39 -229.84L395.73 -229.67L397.06 -229.5L398.4 -229.31L399.74 -229.1L401.09 -228.89L402.44 -228.67L403.79 -228.43L405.15 -228.19L406.51 -227.93L407.87 -227.66L409.24 -227.38L410.07 -221.12L414.89 -211.23L413.7 -211.05L412.51 -210.86L411.33 -210.66L410.16 -210.46L408.99 -210.25L407.82 -210.03L406.66 -209.8L405.5 -209.57L404.35 -209.33L403.2 -209.08L402.06 -208.82L400.92 -208.55L399.79 -208.28L398.66 -208L397.53 -207.71L396.41 -207.41L395.3 -207.1L394.19 -206.79L393.08 -206.47L391.98 -206.14L390.88 -205.81L389.79 -205.46L388.71 -205.11L387.62 -204.75L386.55 -204.38L385.47 -204.01L384.4 -203.62L383.34 -203.23L382.28 -202.83L381.23 -202.42L380.18 -202.01L379.13 -201.59L378.09 -201.16L377.06 -200.72L376.03 -200.27L375 -199.82L373.98 -199.36L372.96 -198.89L371.95 -198.41L370.95 -197.92L369.94 -197.43L368.94 -196.93L367.95 -196.42L366.96 -195.9L365.98 -195.38L365 -194.85L364.03 -194.31L363.06 -193.76L362.09 -193.2L361.13 -192.64L360.17 -192.07L359.22 -191.49L358.28 -190.9L357.34 -190.31L356.4 -189.7L355.47 -189.09L354.54 -188.47L353.62 -187.85L352.7 -187.21L351.78 -186.57L350.87 -185.92L349.97 -185.26L349.07 -184.6L348.18 -183.92L347.29 -183.24L346.4 -182.55L345.52 -181.86L344.64 -181.15L343.77 -180.44L342.91 -179.72L342.04 -178.99L341.19 -178.25L340.33 -177.51L339.49 -176.76L338.64 -176L337.8 -175.23L336.97 -174.45L336.14 -173.67L335.32 -172.88L334.5 -172.08L328.25 -184.91L329.01 -185.74L329.78 -186.56L330.56 -187.37L331.34 -188.18L332.13 -188.97L332.92 -189.76L333.72 -190.54L334.53 -191.3L335.34 -192.06L336.16 -192.82L336.99 -193.56L337.82 -194.29L338.66 -195.02L339.5 -195.74L340.35 -196.44L341.2 -197.14L342.07 -197.83L342.93 -198.52L343.81 -199.19L344.69 -199.86L345.57 -200.51L346.47 -201.16L347.36 -201.8L348.27 -202.43L349.18 -203.06L350.1 -203.67L351.02 -204.28L351.95 -204.87L352.88 -205.46L353.82 -206.04L354.77 -206.61L355.72 -207.17L356.68 -207.73L357.65 -208.27L358.62 -208.81L359.6 -209.34L360.58 -209.86L361.57 -210.37L362.56 -210.87L363.57 -211.36L364.57 -211.85L365.59 -212.32L366.61 -212.79L367.63 -213.25L368.67 -213.7L369.31 -213.97L368.97 -213.95L367.73 -213.85L366.48 -213.74L365.24 -213.62L364 -213.5L362.76 -213.36L361.53 -213.21L360.3 -213.05L359.06 -212.88L357.84 -212.7L356.61 -212.52L355.38 -212.32L354.16 -212.11L352.94 -211.89L351.72 -211.67L350.51 -211.43L349.3 -211.18L348.08 -210.92L346.88 -210.66L345.67 -210.38L344.46 -210.09L343.26 -209.79L342.06 -209.49L340.86 -209.17L339.67 -208.84L338.47 -208.51L337.28 -208.16L336.09 -207.8L334.91 -207.44L333.72 -207.06L332.54 -206.67L331.36 -206.28L330.18 -205.87L329 -205.45L327.83 -205.03L326.66 -204.59L325.49 -204.15L324.32 -203.69L323.15 -203.23L321.99 -202.75L320.83 -202.26L319.67 -201.77L318.52 -201.26L317.36 -200.75L316.21 -200.22L315.06 -199.69L313.91 -199.14L312.77 -198.59L310.68 -214.32L311.78 -214.93L312.88 -215.52L313.98 -216.11L315.09 -216.68L316.2 -217.24L317.32 -217.79L318.43 -218.33L319.55 -218.86L320.68 -219.37L321.81 -219.88L322.94 -220.37L324.07 -220.85L325.21 -221.33L326.35 -221.79L327.5 -222.24L328.65 -222.67L329.8 -223.1L330.95 -223.52L332.11 -223.92L333.27 -224.31L334.44 -224.69L335.61 -225.07L336.78 -225.42L337.96 -225.77L339.13 -226.11L340.32 -226.44L341.5 -226.75L342.69 -227.05L343.89 -227.35L345.08 -227.63L346.28 -227.9L347.48 -228.16L348.69 -228.4L349.9 -228.64L351.11 -228.86L352.33 -229.08L353.55 -229.28L354.77 -229.47L356 -229.65L357.23 -229.82L358.46 -229.98L359.7 -230.12L360.94 -230.26L362.19 -230.38L363.43 -230.5L364.68 -230.6L365.94 -230.69L367.2 -230.77L368.46 -230.84L369.72 -230.89L370.99 -230.94L372.26 -230.97L373.53 -231L374.81 -231.01L376.09 -231.01L377.38 -231L378.67 -230.98L378.67 -230.98L379.96 -230.94Z" id="c2g1LMluCE"></path><path d="M683.17 -145.47L684.31 -145.43L685.44 -145.39L686.57 -145.33L687.7 -145.27L688.83 -145.19L689.95 -145.11L691.08 -145.01L692.2 -144.9L693.32 -144.78L694.44 -144.65L695.56 -144.51L696.68 -144.36L697.8 -144.2L698.91 -144.03L700.02 -143.84L701.13 -143.65L702.24 -143.45L703.35 -143.23L704.46 -143.01L705.56 -142.77L706.67 -142.52L707.77 -142.26L708.87 -142L709.97 -141.72L711.06 -141.43L712.16 -141.13L713.25 -140.82L714.35 -140.5L715.44 -140.16L716.53 -139.82L717.62 -139.47L718.7 -139.1L719.79 -138.73L720.87 -138.34L721.95 -137.95L722.27 -123.36L721.16 -123.7L720.04 -124.03L718.92 -124.36L717.8 -124.67L716.67 -124.98L715.55 -125.28L714.43 -125.56L713.31 -125.84L712.18 -126.11L711.06 -126.37L709.93 -126.62L708.81 -126.86L707.68 -127.09L706.56 -127.31L705.43 -127.52L704.3 -127.73L703.17 -127.92L702.04 -128.11L700.91 -128.28L699.78 -128.45L698.65 -128.6L697.52 -128.75L696.39 -128.89L695.26 -129.02L694.12 -129.14L692.99 -129.25L691.86 -129.35L690.72 -129.44L689.59 -129.52L688.45 -129.59L687.31 -129.66L686.18 -129.71L685.04 -129.76L683.9 -129.79L682.76 -129.82L681.62 -129.83L680.48 -129.84L679.34 -129.84L678.2 -129.83L677.06 -129.81L675.91 -129.78L674.77 -129.74L673.63 -129.69L672.48 -129.63L671.34 -129.57L670.19 -129.49L669.05 -129.41L668.74 -129.38L669.09 -129.29L670.15 -129.01L671.2 -128.73L672.25 -128.43L673.29 -128.13L674.32 -127.81L675.35 -127.49L676.38 -127.16L677.4 -126.81L678.42 -126.46L679.43 -126.1L680.44 -125.73L681.44 -125.35L682.44 -124.95L683.43 -124.55L684.42 -124.14L685.4 -123.72L686.38 -123.29L687.35 -122.85L688.32 -122.41L689.29 -121.95L690.24 -121.48L691.2 -121L692.15 -120.52L693.09 -120.02L694.03 -119.51L694.97 -119L695.9 -118.47L696.83 -117.94L697.75 -117.39L698.66 -116.84L699.57 -116.27L700.48 -115.7L701.38 -115.12L702.28 -114.52L703.17 -113.92L704.06 -113.31L704.94 -112.69L705.82 -112.06L706.69 -111.41L707.56 -110.76L708.42 -110.1L709.28 -109.43L710.13 -108.76L706.26 -96.22L705.36 -96.86L704.45 -97.49L703.54 -98.12L702.63 -98.73L701.71 -99.34L700.79 -99.94L699.87 -100.53L698.94 -101.11L698.01 -101.69L697.08 -102.25L696.14 -102.81L695.2 -103.36L694.26 -103.89L693.31 -104.43L692.36 -104.95L691.4 -105.46L690.44 -105.96L689.48 -106.46L688.52 -106.95L687.55 -107.43L686.58 -107.9L685.6 -108.36L684.62 -108.81L683.64 -109.25L682.65 -109.69L681.66 -110.12L680.67 -110.53L679.67 -110.94L678.67 -111.35L677.67 -111.74L676.66 -112.12L675.65 -112.5L674.63 -112.86L673.62 -113.22L672.59 -113.57L671.57 -113.91L670.54 -114.24L669.51 -114.57L668.47 -114.88L667.44 -115.19L666.39 -115.48L665.35 -115.77L664.3 -116.05L663.25 -116.33L662.19 -116.59L661.13 -116.84L660.07 -117.09L659 -117.33L657.93 -117.55L656.86 -117.77L655.78 -117.99L654.7 -118.19L653.61 -118.38L652.53 -118.57L651.43 -118.74L650.34 -118.91L649.24 -119.07L648.14 -119.22L647.03 -119.37L645.93 -119.5L644.81 -119.62L643.7 -119.74L642.58 -119.85L641.46 -119.95L640.33 -120.04L639.2 -120.12L638.07 -120.19L636.93 -120.26L635.79 -120.31L634.65 -120.36L633.5 -120.4L632.35 -120.43L631.2 -120.45L630.04 -120.47L628.88 -120.47L627.71 -120.47L630.7 -130.13L630.57 -135.94L631.77 -136.39L632.97 -136.82L634.17 -137.25L635.37 -137.66L636.57 -138.07L637.76 -138.46L638.96 -138.84L640.15 -139.21L641.34 -139.57L642.53 -139.93L643.71 -140.26L644.9 -140.59L646.08 -140.91L647.27 -141.22L648.45 -141.52L649.63 -141.8L650.81 -142.08L651.98 -142.34L653.16 -142.6L654.33 -142.84L655.5 -143.07L656.67 -143.3L657.84 -143.51L659.01 -143.71L660.18 -143.9L661.34 -144.08L662.5 -144.25L663.66 -144.41L664.82 -144.55L665.98 -144.69L667.14 -144.82L668.29 -144.93L669.45 -145.04L670.6 -145.13L671.75 -145.22L672.9 -145.29L674.05 -145.35L675.19 -145.4L676.34 -145.45L677.48 -145.48L678.62 -145.5L679.76 -145.5L680.9 -145.5L682.04 -145.49L682.04 -145.49L683.17 -145.47Z" id="b2OtxCIVWj"></path><path d="M516.56 161.78C528.43 159.86 539.62 167.93 541.54 179.79C543.46 191.66 535.39 202.85 523.53 204.77C515.62 206.05 499.8 201.26 476.08 190.4C495.16 172.6 508.65 163.06 516.56 161.78Z" id="aivWztS4k"></path><path d="M480.06 253.79C485.83 259.53 495.17 259.52 500.92 253.76C506.67 248 506.66 238.66 500.9 232.91C497.06 229.07 486.47 225.45 469.13 222.04C472.58 239.37 476.22 249.95 480.06 253.79Z" id="b2Hu89pKOd"></path><path d="M261.68 290.54C258.85 298.18 250.36 302.09 242.73 299.26C235.1 296.44 231.19 287.95 234.01 280.32C235.89 275.23 243.99 267.5 258.31 257.14C262.44 274.32 263.56 285.45 261.68 290.54Z" id="a1uBj4zFB"></path><path d="M195.69 249.42C183.9 251.74 172.44 244.06 170.11 232.26C167.79 220.47 175.48 209.01 187.27 206.69C195.13 205.14 211.1 209.39 235.18 219.45C216.71 237.88 203.55 247.87 195.69 249.42Z" id="a8Lehl1E3"></path><path d="M393.01 247.71L395.94 247.96L397.52 248.14L396.19 248.68L394.51 249.43L392.9 250.23L391.34 251.07L389.84 251.95L388.41 252.89L387.03 253.86L385.71 254.89L384.44 255.95L383.24 257.07L382.09 258.23L381.01 259.43L379.98 260.68L379.01 261.98L378.1 263.32L377.25 264.7L376.46 266.14L375.72 267.61L375.05 269.14L374.43 270.7L373.87 272.32L373.38 273.98L372.94 275.68L372.55 277.43L372.23 279.23L371.97 281.07L371.76 282.95L371.61 284.89L371.53 286.86L371.5 288.89L371.52 290.93L371.58 292.99L371.69 295.06L371.84 297.14L372.03 299.22L372.26 301.31L372.54 303.41L372.86 305.52L373.22 307.64L373.63 309.77L374.07 311.9L374.56 314.04L375.1 316.2L375.1 316.2L373.23 316.51L370.27 317.06L367.35 317.64L364.47 318.26L361.65 318.91L358.87 319.58L356.14 320.26L353.46 320.96L350.84 321.65L348.28 322.33L345.77 323.01L343.32 323.66L340.93 324.29L338.61 324.88L336.35 325.44L334.15 325.95L332.03 326.41L329.97 326.8L327.99 327.13L326.07 327.39L324.23 327.57L322.47 327.67L320.79 327.67L319.18 327.57L317.66 327.36L316.22 327.04L314.86 326.61L313.6 326.04L312.42 325.35L311.32 324.51L310.32 323.53L309.42 322.39L308.61 321.1L307.89 319.63L307.28 318L306.76 316.19L306.35 314.19L306.04 311.99L305.84 309.7L305.77 307.42L305.83 305.16L306 302.9L306.3 300.66L306.72 298.44L307.24 296.24L307.89 294.06L308.64 291.91L309.5 289.78L310.47 287.67L311.54 285.6L312.72 283.56L313.99 281.56L315.36 279.59L316.83 277.66L318.39 275.77L320.04 273.92L321.77 272.11L323.6 270.35L325.51 268.65L327.5 266.99L329.57 265.38L331.72 263.83L333.94 262.34L336.24 260.9L338.6 259.53L341.04 258.21L343.54 256.97L346.11 255.79L348.74 254.68L351.42 253.64L354.17 252.67L356.97 251.78L359.82 250.97L362.73 250.24L365.68 249.58L368.68 249.02L371.72 248.53L374.81 248.14L377.9 247.84L380.98 247.63L384.03 247.51L387.05 247.49L390.05 247.56L393.01 247.71Z" id="a115C7q3Y0"></path><path d="M371.87 287.62L374.73 287.68L377.56 287.76L380.35 287.86L383.1 287.98L385.81 288.13L388.47 288.3L391.09 288.5L393.66 288.72L396.18 288.97L398.65 289.24L401.06 289.54L403.42 289.86L405.72 290.21L407.95 290.59L410.12 290.99L412.22 291.43L414.26 291.89L416.22 292.38L418.11 292.9L419.92 293.45L421.66 294.02L423.31 294.63L424.89 295.27L426.37 295.93L427.77 296.63L429.09 297.36L430.31 298.13L431.43 298.92L432.46 299.75L433.39 300.61L434.22 301.5L434.95 302.42L435.57 303.38L436.08 304.38L436.49 305.41L436.78 306.47L436.95 307.57L437.01 308.7L436.95 309.85L436.78 310.99L436.49 312.11L436.08 313.22L435.64 314.16L433.96 314.22L431.78 314.24L429.53 314.24L427.2 314.2L424.8 314.14L422.34 314.06L419.8 313.96L417.21 313.87L414.55 313.77L411.85 313.68L409.08 313.6L406.27 313.55L403.41 313.51L400.51 313.51L397.57 313.55L394.59 313.63L391.58 313.75L388.54 313.94L385.47 314.19L382.37 314.5L379.29 314.88L376.24 315.33L373.23 315.83L370.27 316.37L367.35 316.96L364.47 317.58L361.65 318.23L358.87 318.9L356.14 319.58L353.46 320.27L350.84 320.96L348.28 321.65L345.77 322.32L343.32 322.98L340.93 323.6L338.61 324.2L336.35 324.75L334.15 325.26L332.03 325.72L329.97 326.12L327.99 326.45L326.07 326.71L324.23 326.89L322.47 326.98L320.79 326.98L319.18 326.88L317.66 326.68L316.22 326.36L314.86 325.92L313.6 325.36L312.42 324.66L311.32 323.83L310.32 322.84L309.42 321.71L308.61 320.41L307.89 318.95L307.28 317.32L306.76 315.5L306.35 313.5L306.04 311.31L305.84 309.02L305.77 306.74L305.83 304.47L306 302.22L306.3 299.98L306.72 297.76L307.24 295.56L307.35 295.22L308.79 294.63L310.45 294.02L312.18 293.45L314 292.9L315.89 292.38L317.85 291.89L319.89 291.43L321.99 290.99L324.16 290.59L326.39 290.21L328.69 289.86L331.04 289.54L333.46 289.24L335.92 288.97L338.44 288.72L341.02 288.5L343.64 288.3L346.3 288.13L349.01 287.98L351.76 287.86L354.55 287.76L357.38 287.68L360.24 287.62L363.13 287.59L366.05 287.58L368.98 287.59L371.87 287.62Z" id="j3eIuvAEj"></path><path d="M331.03 214.61L331.33 214.69L331.63 214.78L331.92 214.89L332.21 215L332.49 215.13L332.77 215.26L333.04 215.41L333.3 215.57L333.56 215.73L333.81 215.91L334.05 216.09L334.29 216.29L334.51 216.49L334.73 216.7L334.94 216.92L335.15 217.15L335.34 217.38L335.52 217.62L335.7 217.87L335.87 218.13L336.02 218.39L336.17 218.66L336.31 218.94L336.38 219.1L336.54 219.26L336.77 219.52L336.99 219.79L337.21 220.07L337.41 220.35L337.61 220.65L337.79 220.95L337.95 221.24L338.1 221.52L338.23 221.81L338.34 222.11L338.44 222.4L338.53 222.7L338.61 223L338.67 223.3L338.71 223.6L338.75 223.9L338.77 224.2L338.78 224.51L338.77 224.81L338.75 225.11L338.72 225.4L338.68 225.7L338.63 225.99L338.56 226.28L338.48 226.57L338.39 226.85L338.28 227.13L338.17 227.41L338.04 227.68L337.91 227.94L337.76 228.2L337.6 228.46L337.43 228.7L337.25 228.94L337.06 229.17L336.85 229.4L336.64 229.62L336.42 229.82L336.19 230.02L335.94 230.21L335.69 230.39L335.43 230.56L335.16 230.72L334.88 230.87L334.59 231.01L334.29 231.14L256.05 261.94L255.71 262.06L255.38 262.17L255.04 262.27L254.7 262.36L254.36 262.43L254.02 262.49L253.68 262.54L253.33 262.58L252.99 262.6L252.65 262.61L252.31 262.61L251.97 262.6L251.63 262.57L251.3 262.54L250.96 262.49L250.63 262.43L250.3 262.36L249.97 262.28L249.65 262.19L249.33 262.08L249.01 261.97L248.7 261.84L248.39 261.7L248.09 261.56L247.79 261.4L247.5 261.23L247.21 261.05L246.93 260.86L246.65 260.66L246.39 260.45L246.12 260.23L245.87 260L245.62 259.76L245.38 259.52L245.15 259.26L244.93 258.99L244.71 258.71L244.51 258.43L244.31 258.13L244.13 257.83L243.97 257.54L243.82 257.26L243.69 256.97L243.58 256.67L243.48 256.38L243.39 256.08L243.31 255.78L243.25 255.48L243.21 255.18L243.17 254.88L243.15 254.58L243.14 254.28L243.15 253.97L243.17 253.68L243.2 253.38L243.24 253.08L243.29 252.79L243.36 252.5L243.44 252.21L243.53 251.93L243.63 251.65L243.75 251.37L243.88 251.1L244.01 250.84L244.16 250.58L244.32 250.32L244.49 250.08L244.67 249.84L244.86 249.61L245.07 249.38L245.28 249.16L245.5 248.96L245.73 248.76L245.98 248.57L246.23 248.39L246.49 248.22L246.76 248.06L247.04 247.91L247.33 247.77L247.63 247.64L291.85 230.24L241.03 230.24L240.7 230.23L240.38 230.21L240.06 230.18L239.74 230.14L239.43 230.08L239.12 230.01L238.82 229.93L238.52 229.83L238.23 229.73L237.94 229.62L237.66 229.49L237.38 229.35L237.11 229.21L236.85 229.05L236.59 228.88L236.34 228.71L236.1 228.52L235.86 228.33L235.64 228.13L235.42 227.92L235.21 227.7L235 227.47L234.81 227.23L234.62 226.99L234.45 226.74L234.28 226.49L234.13 226.22L233.98 225.95L233.84 225.68L233.72 225.39L233.6 225.11L233.5 224.81L233.41 224.52L233.33 224.21L233.26 223.91L233.2 223.59L233.15 223.28L233.12 222.96L233.1 222.63L233.09 222.31L233.1 221.98L233.12 221.66L233.15 221.34L233.2 221.02L233.26 220.71L233.33 220.4L233.41 220.1L233.5 219.8L233.6 219.51L233.72 219.22L233.84 218.94L233.98 218.66L234.13 218.39L234.28 218.13L234.45 217.87L234.62 217.62L234.81 217.38L235 217.15L235.21 216.92L235.42 216.7L235.64 216.49L235.86 216.29L236.1 216.09L236.34 215.91L236.59 215.73L236.85 215.57L237.11 215.41L237.38 215.26L237.66 215.13L237.94 215L238.23 214.89L238.52 214.78L238.82 214.69L239.12 214.61L239.43 214.54L239.74 214.48L240.06 214.44L240.38 214.4L240.7 214.38L241.03 214.38L329.12 214.38L329.45 214.38L329.77 214.4L330.09 214.44L330.41 214.48L330.72 214.54L330.72 214.54L331.03 214.61Z" id="bzL0NFQyL"></path><path d="M480.85 177.08L481.13 177.13L481.41 177.19L481.69 177.27L481.97 177.35L482.24 177.44L482.51 177.55L482.78 177.66L483.04 177.79L483.29 177.92L483.54 178.06L483.78 178.22L484.02 178.38L484.25 178.55L484.48 178.73L484.7 178.92L484.91 179.12L485.11 179.32L485.31 179.54L485.5 179.76L485.68 179.99L485.85 180.23L486.02 180.48L486.17 180.74L486.31 181L486.45 181.27L486.57 181.55L486.69 181.83L486.79 182.12L486.88 182.42L486.96 182.71L487.03 183.01L487.08 183.31L487.12 183.6L487.15 183.9L487.17 184.2L487.18 184.49L487.17 184.79L487.15 185.08L487.12 185.37L487.08 185.66L487.03 185.94L486.97 186.22L486.9 186.5L486.81 186.78L486.72 187.05L486.62 187.32L486.5 187.59L486.38 187.85L486.25 188.1L486.1 188.35L485.95 188.59L485.79 188.83L485.62 189.06L485.43 189.29L485.24 189.51L485.05 189.72L484.84 189.92L484.62 190.12L484.4 190.31L484.17 190.49L483.93 190.66L483.68 190.83L483.43 190.98L483.16 191.12L482.89 191.26L482.62 191.38L482.33 191.5L482.04 191.6L433.4 207.77L480.82 209.44L481.13 209.46L481.43 209.49L481.73 209.54L482.02 209.59L482.3 209.67L482.58 209.75L482.86 209.84L483.13 209.95L483.39 210.07L483.64 210.19L483.89 210.33L484.13 210.48L484.36 210.64L484.59 210.81L484.81 210.99L485.02 211.18L485.22 211.37L485.41 211.58L485.59 211.79L485.77 212.01L485.93 212.23L486.09 212.47L486.23 212.71L486.37 212.95L486.49 213.21L486.6 213.46L486.71 213.73L486.8 213.99L486.88 214.27L486.94 214.54L487 214.82L487.04 215.11L487.07 215.39L487.09 215.68L487.09 215.97L487.09 216.27L487.06 216.56L487.03 216.86L486.98 217.16L486.91 217.46L486.82 217.8L486.73 218.13L486.62 218.45L486.5 218.77L486.37 219.08L486.23 219.39L486.08 219.69L485.92 219.98L485.75 220.27L485.57 220.55L485.38 220.82L485.19 221.09L484.98 221.35L484.77 221.6L484.55 221.84L484.32 222.08L484.09 222.3L483.84 222.52L483.59 222.74L483.33 222.94L483.07 223.13L482.8 223.32L482.52 223.49L482.24 223.66L481.95 223.82L481.66 223.96L481.36 224.1L481.05 224.23L480.74 224.35L480.43 224.45L480.11 224.55L479.79 224.64L479.46 224.71L479.14 224.77L478.8 224.83L478.47 224.87L478.13 224.9L477.79 224.92L477.44 224.92L477.1 224.92L393.12 221.95L392.81 221.93L392.51 221.9L392.22 221.85L391.93 221.79L391.64 221.72L391.36 221.64L391.08 221.55L390.82 221.44L390.55 221.32L390.3 221.19L390.05 221.05L389.81 220.91L389.58 220.75L389.35 220.58L389.13 220.4L388.92 220.21L388.72 220.02L388.53 219.81L388.35 219.6L388.17 219.38L388.01 219.15L387.85 218.92L387.71 218.68L387.57 218.44L387.45 218.18L387.34 217.93L387.24 217.66L387.14 217.4L387.07 217.12L387 216.85L386.94 216.57L386.9 216.28L386.87 216L386.85 215.71L386.85 215.41L386.86 215.12L386.88 214.82L386.91 214.53L386.97 214.23L387.03 213.93L387.12 213.59L387.22 213.26L387.32 212.94L387.44 212.62L387.57 212.31L387.71 212L387.79 211.86L387.8 211.67L387.84 211.38L387.89 211.09L387.96 210.81L388.03 210.53L388.11 210.25L388.21 209.98L388.31 209.71L388.42 209.45L388.55 209.19L388.68 208.93L388.83 208.68L388.98 208.44L389.14 208.2L389.31 207.97L389.49 207.74L389.68 207.53L389.88 207.31L390.09 207.11L390.3 206.91L390.53 206.72L390.76 206.54L391 206.37L391.24 206.21L391.5 206.05L391.76 205.91L392.03 205.77L392.31 205.65L392.59 205.54L392.89 205.43L477.31 177.37L477.61 177.28L477.9 177.2L478.2 177.14L478.5 177.08L478.79 177.04L479.09 177.01L479.39 176.99L479.68 176.99L479.98 176.99L480.27 177.01L480.56 177.04L480.56 177.04L480.85 177.08Z" id="d1zdYHzyDm"></path></defs><g><g><g><use xlink:href="#e7k0Wxs1J" opacity="1" fill="#93b682" fill-opacity="1"></use><g><use xlink:href="#e7k0Wxs1J" opacity="1" fill-opacity="0" stroke="#000000" stroke-width="1" stroke-opacity="0"></use></g></g><g><use xlink:href="#d1K0FrIgDU" opacity="1" fill="#000000" fill-opacity="0"></use><g><use xlink:href="#d1K0FrIgDU" opacity="1" fill-opacity="0" stroke="#000000" stroke-width="1" stroke-opacity="0"></use></g></g><g><use xlink:href="#b5e6LZadI0" opacity="1" fill="#25321f" fill-opacity="0.27"></use><g><use xlink:href="#b5e6LZadI0" opacity="1" fill-opacity="0" stroke="#000000" stroke-width="1" stroke-opacity="0"></use></g></g><g><use xlink:href="#b1lY2XHOA5" opacity="1" fill="#ff9386" fill-opacity="1"></use><g><use xlink:href="#b1lY2XHOA5" opacity="1" fill-opacity="0" stroke="#000000" stroke-width="1" stroke-opacity="0"></use></g></g><g><use xlink:href="#cf50c9N6Y" opacity="1" fill="#000000" fill-opacity="0"></use><g><use xlink:href="#cf50c9N6Y" opacity="1" fill-opacity="0" stroke="#000000" stroke-width="1" stroke-opacity="0"></use></g></g><g><use xlink:href="#d1AqjHhhbV" opacity="1" fill="#b8645a" fill-opacity="1"></use><g><use xlink:href="#d1AqjHhhbV" opacity="1" fill-opacity="0" stroke="#000000" stroke-width="1" stroke-opacity="0"></use></g></g><g><use xlink:href="#b1sabW7Wd" opacity="1" fill="#000000" fill-opacity="0"></use><g><use xlink:href="#b1sabW7Wd" opacity="1" fill-opacity="0" stroke="#000000" stroke-width="1" stroke-opacity="0"></use></g></g><g><use xlink:href="#b2aJ1IjV2I" opacity="1" fill="#b0d69e" fill-opacity="1"></use><g><use xlink:href="#b2aJ1IjV2I" opacity="1" fill-opacity="0" stroke="#000000" stroke-width="1" stroke-opacity="0"></use></g></g><g><use xlink:href="#abyqt8hHd" opacity="1" fill="#000000" fill-opacity="0"></use><g><use xlink:href="#abyqt8hHd" opacity="1" fill-opacity="0" stroke="#000000" stroke-width="1" stroke-opacity="0"></use></g></g><g><use xlink:href="#cpW1Jpblo" opacity="1" fill="#25321f" fill-opacity="0.27"></use><g><use xlink:href="#cpW1Jpblo" opacity="1" fill-opacity="0" stroke="#000000" stroke-width="1" stroke-opacity="0"></use></g></g><g><use xlink:href="#f11oxGNgcW" opacity="1" fill="#ffa99c" fill-opacity="1"></use><g><use xlink:href="#f11oxGNgcW" opacity="1" fill-opacity="0" stroke="#000000" stroke-width="1" stroke-opacity="0"></use></g></g><g><use xlink:href="#c24SdLloqq" opacity="1" fill="#7bd6f7" fill-opacity="1"></use></g><g><use xlink:href="#k31sO7gtmr" opacity="1" fill="#7bd6f7" fill-opacity="1"></use></g><g><use xlink:href="#f1UvdqnjLb" opacity="1" fill="#5f1b1b" fill-opacity="1"></use></g><g><use xlink:href="#dde8a3Gv8" opacity="1" fill="#f5a50d" fill-opacity="1"></use></g><g><use xlink:href="#b3jWkIUhmo" opacity="1" fill="#000000" fill-opacity="0.1"></use></g><g><use xlink:href="#c2g1LMluCE" opacity="1" fill="#703838" fill-opacity="1"></use></g><g><use xlink:href="#b2OtxCIVWj" opacity="1" fill="#703838" fill-opacity="1"></use></g><g><use xlink:href="#aivWztS4k" opacity="1" fill="#7bd6f7" fill-opacity="1"></use></g><g><use xlink:href="#b2Hu89pKOd" opacity="1" fill="#7bd6f7" fill-opacity="1"></use></g><g><use xlink:href="#a1uBj4zFB" opacity="1" fill="#7bd6f7" fill-opacity="1"></use></g><g><use xlink:href="#a8Lehl1E3" opacity="1" fill="#7bd6f7" fill-opacity="1"></use></g><g><use xlink:href="#a115C7q3Y0" opacity="1" fill="#000000" fill-opacity="0.21"></use></g><g><use xlink:href="#j3eIuvAEj" opacity="1" fill="#9a2828" fill-opacity="1"></use></g><g><use xlink:href="#bzL0NFQyL" opacity="1" fill="#703838" fill-opacity="1"></use></g><g><use xlink:href="#d1zdYHzyDm" opacity="1" fill="#703838" fill-opacity="1"></use></g></g></g></svg>