<?xml version="1.0" encoding="UTF-8" standalone="no"?>
<!DOCTYPE svg PUBLIC "-//W3C//DTD SVG 1.1//EN" "http://www.w3.org/Graphics/SVG/1.1/DTD/svg11.dtd">
<svg version="1.1" xmlns="http://www.w3.org/2000/svg" xmlns:xlink="http://www.w3.org/1999/xlink" preserveAspectRatio="xMidYMid meet" viewBox="0 0 640 640" width="640" height="640"><defs><path d="M328.01 105.64L330.06 105.44L332.08 105.26L334.1 105.09L336.1 104.94L338.08 104.8L340.06 104.68L342.02 104.58L343.96 104.49L345.89 104.42L347.81 104.37L349.72 104.33L351.61 104.31L353.48 104.3L355.35 104.31L357.2 104.34L359.03 104.38L360.85 104.44L362.66 104.52L364.46 104.61L366.24 104.72L368 104.84L369.76 104.98L371.5 105.14L373.22 105.31L374.93 105.5L376.63 105.71L378.31 105.93L379.99 106.17L381.64 106.42L383.29 106.69L384.91 106.98L386.53 107.28L388.13 107.6L389.72 107.94L391.29 108.29L392.86 108.66L394.4 109.04L395.94 109.44L397.45 109.86L399.7 110.52L401.9 111.23L404.05 111.99L406.15 112.79L408.21 113.63L410.23 114.52L412.21 115.45L414.15 116.43L416.04 117.44L417.9 118.5L419.73 119.59L421.52 120.73L423.27 121.9L424.99 123.11L426.68 124.35L428.34 125.63L429.97 126.94L431.57 128.28L433.15 129.66L434.7 131.06L436.22 132.5L437.73 133.97L439.21 135.46L440.67 136.99L442.11 138.54L443.53 140.11L444.94 141.71L446.33 143.34L447.7 144.98L449.07 146.65L450.42 148.34L451.76 150.05L453.09 151.78L454.41 153.53L455.73 155.3L457.04 157.08L458.34 158.88L459.65 160.69L460.95 162.52L462.24 164.36L462.85 165.24L463.45 166.14L464.05 167.05L464.63 167.98L465.21 168.93L465.77 169.89L466.33 170.87L466.89 171.87L467.43 172.89L467.97 173.92L468.49 174.97L469.01 176.04L469.53 177.12L470.03 178.23L470.53 179.34L471.01 180.48L471.49 181.63L471.97 182.8L472.43 183.99L472.89 185.19L473.33 186.42L473.77 187.65L474.21 188.91L474.63 190.18L475.04 191.47L475.45 192.78L475.85 194.1L476.24 195.44L476.63 196.8L477 198.18L477.37 199.57L477.73 200.98L478.08 202.4L478.42 203.85L478.76 205.31L479.09 206.79L479.41 208.28L479.72 209.79L480.02 211.32L480.31 212.87L480.51 213.91L480.72 214.95L480.93 215.99L481.16 217.03L481.39 218.07L481.62 219.1L481.87 220.14L482.12 221.17L482.37 222.19L482.64 223.22L482.91 224.24L483.19 225.27L483.48 226.29L483.78 227.3L484.08 228.32L484.39 229.33L484.71 230.34L485.03 231.35L485.36 232.36L485.7 233.36L486.05 234.37L486.4 235.36L486.76 236.36L487.13 237.35L487.5 238.35L487.88 239.33L488.27 240.32L488.67 241.3L489.07 242.28L489.48 243.26L489.9 244.24L490.32 245.21L490.76 246.18L491.19 247.14L491.64 248.11L492.09 249.07L492.55 250.02L493.02 250.98L493.49 251.93L493.97 252.87L494.41 253.73L494.83 254.59L495.25 255.45L495.66 256.31L496.05 257.17L496.44 258.03L496.82 258.89L497.19 259.75L497.55 260.61L497.91 261.48L498.25 262.34L498.59 263.2L498.91 264.06L499.23 264.93L499.53 265.79L499.83 266.65L500.12 267.52L500.4 268.38L500.67 269.25L500.93 270.11L501.18 270.98L501.43 271.84L501.66 272.71L501.89 273.58L502.1 274.44L502.31 275.31L502.51 276.18L502.69 277.05L502.87 277.91L503.04 278.78L503.21 279.65L503.36 280.52L503.5 281.39L503.63 282.26L503.76 283.13L503.87 284L503.98 284.87L504.08 285.74L504.17 286.61L504.24 287.49L504.32 288.46L504.39 289.43L504.45 290.41L504.49 291.39L504.53 292.37L504.55 293.35L504.57 294.34L504.57 295.33L504.56 296.32L504.55 297.31L504.52 298.31L504.48 299.31L504.43 300.31L504.37 301.31L504.3 302.32L504.22 303.32L504.13 304.33L504.03 305.35L503.91 306.36L503.79 307.38L503.66 308.4L503.51 309.42L503.36 310.45L503.19 311.48L503.02 312.51L502.83 313.54L502.63 314.58L502.43 315.61L502.21 316.65L501.98 317.7L501.74 318.74L501.49 319.79L501.23 320.84L500.96 321.89L500.68 322.95L500.39 324L500.08 325.06L499.77 326.12L499.45 327.19L499.11 328.26L498.88 329.04L498.66 329.83L498.47 330.62L498.29 331.41L498.15 332.2L498.02 333L497.91 333.8L497.83 334.6L497.76 335.39L497.72 336.19L497.7 336.99L497.7 337.79L497.72 338.58L497.76 339.38L497.82 340.17L497.91 340.96L498.01 341.74L498.13 342.53L498.28 343.31L498.45 344.08L498.63 344.85L498.84 345.62L499.06 346.38L499.31 347.13L499.57 347.88L499.86 348.62L500.17 349.36L500.49 350.08L500.83 350.8L501.2 351.51L501.58 352.21L501.98 352.91L502.41 353.59L502.85 354.26L503.31 354.93L503.78 355.58L504.28 356.22L504.8 356.85L505.33 357.46L505.88 358.07L500.51 352.35L501.74 353.7L502.92 355.08L504.05 356.48L505.13 357.92L506.17 359.38L507.16 360.87L508.09 362.38L508.98 363.92L509.82 365.48L510.61 367.06L511.35 368.66L512.04 370.28L512.68 371.91L513.28 373.56L513.82 375.23L514.31 376.91L514.75 378.6L515.13 380.31L515.47 382.02L515.76 383.75L515.99 385.48L516.18 387.21L516.31 388.96L516.39 390.7L516.42 392.45L516.39 394.21L516.31 395.96L516.18 397.71L516 399.46L515.77 401.21L515.48 402.95L515.14 404.69L514.74 406.42L514.29 408.14L513.79 409.85L513.23 411.56L512.62 413.25L511.95 414.93L511.23 416.59L510.46 418.24L514.2 410.59L513.84 411.36L513.49 412.13L513.17 412.91L512.87 413.69L512.58 414.49L512.32 415.28L512.08 416.08L511.85 416.88L511.65 417.69L511.46 418.5L511.3 419.32L511.16 420.14L511.03 420.95L510.93 421.78L510.85 422.6L510.78 423.42L510.74 424.25L510.71 425.07L510.71 425.9L510.72 426.73L510.76 427.55L510.81 428.38L510.89 429.2L510.98 430.02L511.09 430.84L511.23 431.65L511.38 432.47L511.55 433.28L511.75 434.09L511.96 434.89L512.19 435.69L512.44 436.48L512.72 437.27L513.01 438.05L513.32 438.83L513.65 439.6L514 440.37L514.37 441.13L514.76 441.88L515.17 442.62L511.48 436.11L512.21 437.45L512.89 438.8L513.53 440.17L514.12 441.55L514.67 442.94L515.16 444.35L515.62 445.76L516.03 447.18L516.39 448.62L516.71 450.05L516.98 451.5L517.21 452.95L517.39 454.4L517.52 455.86L517.62 457.32L517.66 458.77L517.67 460.23L517.63 461.69L517.54 463.14L517.41 464.59L517.24 466.04L517.02 467.48L516.76 468.91L516.45 470.34L516.1 471.76L515.71 473.16L515.27 474.56L514.79 475.94L514.27 477.31L513.71 478.67L513.1 480.01L512.45 481.34L511.75 482.65L511.01 483.94L510.23 485.21L509.41 486.46L508.55 487.68L507.64 488.89L506.69 490.07L505.7 491.23L505.49 491.46L505.28 491.7L505.08 491.93L504.87 492.17L504.67 492.4L504.46 492.63L504.26 492.86L504.06 493.09L503.86 493.32L503.66 493.55L503.47 493.77L503.27 494L503.07 494.22L502.88 494.44L502.69 494.66L502.5 494.89L502.3 495.1L502.12 495.32L501.93 495.54L501.74 495.76L501.55 495.97L501.37 496.19L501.19 496.4L501 496.61L500.82 496.82L500.64 497.03L500.46 497.24L500.29 497.45L500.11 497.66L499.93 497.86L499.76 498.07L499.59 498.27L499.42 498.47L499.24 498.67L499.07 498.88L498.91 499.07L498.74 499.27L498.57 499.47L498.41 499.67L498.24 499.86L497.6 500.63L496.96 501.4L496.32 502.16L495.69 502.92L495.06 503.67L494.45 504.41L493.83 505.15L493.22 505.88L492.62 506.61L492.03 507.33L491.43 508.05L490.85 508.76L490.27 509.47L489.7 510.17L489.13 510.86L488.56 511.55L488.01 512.23L487.46 512.91L486.91 513.58L486.37 514.25L485.83 514.91L485.31 515.56L484.78 516.21L484.26 516.86L483.75 517.5L483.25 518.13L482.74 518.76L482.25 519.38L481.76 520L481.28 520.61L480.8 521.21L480.32 521.81L479.86 522.41L479.4 523L478.94 523.58L478.49 524.16L478.04 524.73L477.61 525.29L477.17 525.86L476.74 526.41L325.26 535.7L325.26 105.68L325.96 105.86L328.01 105.64Z" id="a1LNhroDLu"></path><path d="M854.47 204.16L847.29 204.13L840.18 204.05L833.15 203.91L826.21 203.72L819.35 203.48L812.59 203.19L805.94 202.85L799.39 202.46L792.95 202.03L786.63 201.55L780.44 201.02L774.38 200.45L768.45 199.84L762.66 199.19L757.02 198.49L751.53 197.76L746.2 196.98L741.03 196.17L736.04 195.32L731.21 194.44L726.57 193.52L722.11 192.57L717.85 191.59L713.78 190.58L709.92 189.53L706.26 188.46L702.82 187.36L699.6 186.23L696.6 185.08L693.83 183.9L691.31 182.7L689.02 181.48L686.98 180.23L685.19 178.97L683.67 177.68L682.41 176.38L681.42 175.06L680.7 173.72L680.27 172.37L680.12 171L680.26 169.76L680.12 169.76L695.73 -141.65L695.73 -141.65L695.86 -147.86L696.26 -154L696.91 -160.08L697.81 -166.09L698.96 -172.02L700.35 -177.86L701.97 -183.62L703.83 -189.28L705.91 -194.85L708.21 -200.31L710.73 -205.67L713.46 -210.91L716.39 -216.04L719.53 -221.04L722.86 -225.92L726.37 -230.66L730.08 -235.27L733.96 -239.74L738.02 -244.06L742.25 -248.24L746.64 -252.25L751.19 -256.1L755.89 -259.79L760.74 -263.31L765.74 -266.65L770.88 -269.81L776.15 -272.79L781.54 -275.58L787.07 -278.17L792.7 -280.56L798.46 -282.75L804.32 -284.72L810.28 -286.49L816.34 -288.03L822.49 -289.35L828.73 -290.44L835.06 -291.3L841.46 -291.92L847.93 -292.29L854.47 -292.42L854.47 -292.42L854.47 204.16Z" id="a1mkKNlIH"></path><path d="M300.92 104.33L302.83 104.37L304.75 104.42L306.68 104.49L308.62 104.58L310.58 104.68L312.56 104.8L314.54 104.94L316.54 105.09L318.56 105.26L320.59 105.44L322.63 105.64L324.68 105.86L325.38 105.68L325.38 533.99L170.9 522.41L170.62 522.05L170.33 521.68L170.03 521.31L169.72 520.92L169.4 520.52L169.08 520.11L168.74 519.68L168.4 519.25L168.04 518.81L167.68 518.36L167.3 517.89L166.92 517.42L166.53 516.94L166.13 516.44L165.72 515.94L165.3 515.42L164.87 514.89L164.43 514.35L163.98 513.81L163.52 513.25L163.05 512.68L162.58 512.1L162.09 511.51L161.6 510.91L161.09 510.3L160.58 509.68L160.05 509.04L159.52 508.4L158.98 507.75L158.43 507.08L157.87 506.41L157.3 505.72L156.72 505.03L156.13 504.32L155.53 503.6L154.92 502.88L154.3 502.14L153.68 501.39L153.04 500.63L152.4 499.86L152.23 499.67L152.07 499.47L151.9 499.27L151.73 499.07L151.57 498.88L151.4 498.67L151.23 498.47L151.05 498.27L150.88 498.07L150.71 497.86L150.53 497.66L150.35 497.45L150.18 497.24L150 497.03L149.82 496.82L149.64 496.61L149.45 496.4L149.27 496.19L149.09 495.97L148.9 495.76L148.71 495.54L148.53 495.32L148.34 495.1L148.15 494.89L147.95 494.66L147.76 494.44L147.57 494.22L147.37 494L147.18 493.77L146.98 493.55L146.78 493.32L146.58 493.09L146.38 492.86L146.18 492.63L145.97 492.4L145.77 492.17L145.56 491.93L145.36 491.7L145.15 491.46L144.94 491.23L143.95 490.07L143 488.89L142.09 487.68L141.23 486.46L140.41 485.21L139.63 483.94L138.89 482.65L138.2 481.34L137.54 480.01L136.94 478.67L136.37 477.31L135.85 475.94L135.37 474.56L134.93 473.16L134.54 471.76L134.19 470.34L133.88 468.91L133.62 467.48L133.4 466.04L133.23 464.59L133.1 463.14L133.01 461.69L132.97 460.23L132.98 458.77L133.02 457.32L133.12 455.86L133.25 454.4L133.44 452.95L133.66 451.5L133.93 450.05L134.25 448.62L134.61 447.18L135.02 445.76L135.48 444.35L135.98 442.94L136.52 441.55L137.11 440.17L137.75 438.8L138.43 437.45L139.16 436.11L135.47 442.62L135.88 441.88L136.27 441.13L136.64 440.37L136.99 439.6L137.32 438.83L137.63 438.05L137.93 437.27L138.2 436.48L138.45 435.69L138.68 434.89L138.89 434.09L139.09 433.28L139.26 432.47L139.41 431.65L139.55 430.84L139.66 430.02L139.76 429.2L139.83 428.38L139.88 427.55L139.92 426.73L139.93 425.9L139.93 425.07L139.9 424.25L139.86 423.42L139.8 422.6L139.71 421.78L139.61 420.95L139.48 420.14L139.34 419.32L139.18 418.5L138.99 417.69L138.79 416.88L138.57 416.08L138.32 415.28L138.06 414.49L137.78 413.69L137.47 412.91L137.15 412.13L136.8 411.36L136.44 410.59L140.18 418.24L139.41 416.59L138.69 414.93L138.02 413.25L137.41 411.56L136.85 409.85L136.35 408.14L135.9 406.42L135.5 404.69L135.16 402.95L134.87 401.21L134.64 399.46L134.46 397.71L134.33 395.96L134.25 394.21L134.23 392.45L134.25 390.7L134.33 388.96L134.46 387.21L134.65 385.48L134.88 383.75L135.17 382.02L135.51 380.31L135.9 378.6L136.34 376.91L136.83 375.23L137.37 373.56L137.96 371.91L138.6 370.28L139.29 368.66L140.03 367.06L140.82 365.48L141.66 363.92L142.55 362.38L143.48 360.87L144.47 359.38L145.51 357.92L146.59 356.48L147.72 355.08L148.9 353.7L150.13 352.35L144.76 358.07L145.31 357.46L145.84 356.85L146.36 356.22L146.86 355.58L147.34 354.93L147.79 354.26L148.24 353.59L148.66 352.91L149.06 352.21L149.44 351.51L149.81 350.8L150.15 350.08L150.48 349.36L150.78 348.62L151.07 347.88L151.33 347.13L151.58 346.38L151.8 345.62L152.01 344.85L152.2 344.08L152.36 343.31L152.51 342.53L152.63 341.74L152.73 340.96L152.82 340.17L152.88 339.38L152.92 338.58L152.94 337.79L152.94 336.99L152.92 336.19L152.88 335.39L152.82 334.6L152.73 333.8L152.62 333L152.5 332.2L152.35 331.41L152.17 330.62L151.98 329.83L151.77 329.04L151.53 328.26L151.19 327.19L150.87 326.12L150.56 325.06L150.25 324L149.96 322.95L149.68 321.89L149.41 320.84L149.15 319.79L148.9 318.74L148.66 317.7L148.43 316.65L148.22 315.61L148.01 314.58L147.81 313.54L147.62 312.51L147.45 311.48L147.28 310.45L147.13 309.42L146.98 308.4L146.85 307.38L146.73 306.36L146.62 305.35L146.51 304.33L146.42 303.32L146.34 302.32L146.27 301.31L146.21 300.31L146.16 299.31L146.12 298.31L146.1 297.31L146.08 296.32L146.07 295.33L146.08 294.34L146.09 293.35L146.11 292.37L146.15 291.39L146.2 290.41L146.25 289.43L146.32 288.46L146.4 287.49L146.48 286.61L146.56 285.74L146.66 284.87L146.77 284L146.88 283.13L147.01 282.26L147.14 281.39L147.28 280.52L147.44 279.65L147.6 278.78L147.77 277.91L147.95 277.05L148.13 276.18L148.33 275.31L148.54 274.44L148.75 273.58L148.98 272.71L149.21 271.84L149.46 270.98L149.71 270.11L149.97 269.25L150.24 268.38L150.52 267.52L150.81 266.65L151.11 265.79L151.41 264.93L151.73 264.06L152.06 263.2L152.39 262.34L152.73 261.48L153.09 260.61L153.45 259.75L153.82 258.89L154.2 258.03L154.59 257.17L154.99 256.31L155.39 255.45L155.81 254.59L156.24 253.73L156.67 252.87L157.15 251.93L157.62 250.98L158.09 250.02L158.55 249.07L159 248.11L159.45 247.14L159.89 246.18L160.32 245.21L160.74 244.24L161.16 243.26L161.57 242.28L161.97 241.3L162.37 240.32L162.76 239.33L163.14 238.35L163.51 237.35L163.88 236.36L164.24 235.36L164.59 234.37L164.94 233.36L165.28 232.36L165.61 231.35L165.93 230.34L166.25 229.33L166.56 228.32L166.86 227.3L167.16 226.29L167.45 225.27L167.73 224.24L168 223.22L168.27 222.19L168.52 221.17L168.78 220.14L169.02 219.1L169.26 218.07L169.49 217.03L169.71 215.99L169.92 214.95L170.13 213.91L170.33 212.87L170.62 211.32L170.92 209.79L171.24 208.28L171.56 206.79L171.88 205.31L172.22 203.85L172.56 202.4L172.91 200.98L173.27 199.57L173.64 198.18L174.01 196.8L174.4 195.44L174.79 194.1L175.19 192.78L175.6 191.47L176.01 190.18L176.44 188.91L176.87 187.65L177.31 186.42L177.76 185.19L178.21 183.99L178.67 182.8L179.15 181.63L179.63 180.48L180.11 179.34L180.61 178.23L181.11 177.12L181.63 176.04L182.15 174.97L182.67 173.92L183.21 172.89L183.75 171.87L184.31 170.87L184.87 169.89L185.44 168.93L186.01 167.98L186.6 167.05L187.19 166.14L187.79 165.24L188.4 164.36L189.7 162.52L191 160.69L192.3 158.88L193.6 157.08L194.91 155.3L196.23 153.53L197.55 151.78L198.88 150.05L200.22 148.34L201.57 146.65L202.94 144.98L204.31 143.34L205.7 141.71L207.11 140.11L208.53 138.54L209.97 136.99L211.43 135.46L212.92 133.97L214.42 132.5L215.94 131.06L217.49 129.66L219.07 128.28L220.67 126.94L222.3 125.63L223.96 124.35L225.65 123.11L227.37 121.9L229.13 120.73L230.91 119.59L232.74 118.5L234.6 117.44L236.5 116.43L238.43 115.45L240.41 114.52L242.43 113.63L244.49 112.79L246.59 111.99L248.75 111.23L250.94 110.52L253.19 109.86L254.71 109.44L256.24 109.04L257.79 108.66L259.35 108.29L260.92 107.94L262.51 107.6L264.11 107.28L265.73 106.98L267.36 106.69L269 106.42L270.66 106.17L272.33 105.93L274.01 105.71L275.71 105.5L277.42 105.31L279.15 105.14L280.89 104.98L282.64 104.84L284.41 104.72L286.19 104.61L287.98 104.52L289.79 104.44L291.61 104.38L293.45 104.34L295.29 104.31L297.16 104.3L299.03 104.31L300.92 104.33Z" id="aZkGs0dL2"></path><path d="M181.36 300.2L208.36 251.82L296.7 470.99L181.36 523.42L181.36 300.2Z" id="e1k7yeFy6z"></path><path d="M339.2 749.3C351.2 746.78 364.72 737.5 379.76 721.44C391.2 709.22 397.84 693.47 399.7 674.17C400.71 663.6 399.61 652.92 396.46 642.85C394.77 637.43 397.41 645.91 396.46 642.85C391.21 626.05 378.06 613.44 361.84 609.65C359.68 609.14 355.21 608.94 348.41 609.03C317.74 609.45 310.43 631.68 303.05 646.19C295.68 660.7 295.61 673.71 298.4 697.8C300.26 713.86 313.87 731.03 339.2 749.3Z" id="cw1xhNKdD"></path><path d="M865.55 -292.25L871.95 -291.63L878.27 -290.77L884.51 -289.68L890.67 -288.36L896.73 -286.82L902.69 -285.06L908.55 -283.08L914.3 -280.89L919.94 -278.5L925.46 -275.91L930.86 -273.12L936.13 -270.15L941.27 -266.99L946.26 -263.64L951.12 -260.13L955.82 -256.44L960.37 -252.58L964.76 -248.57L968.99 -244.4L973.05 -240.08L976.93 -235.61L980.63 -231L984.15 -226.25L987.48 -221.37L990.61 -216.37L993.55 -211.24L996.28 -206L998.8 -200.64L1001.1 -195.18L1003.18 -189.61L1005.04 -183.95L1006.66 -178.19L1008.05 -172.35L1009.2 -166.42L1010.1 -160.42L1010.75 -154.34L1011.15 -148.19L1011.28 -141.98L1011.28 -141.98L1026.88 169.42L1026.75 169.42L1026.88 170.67L1026.74 172.03L1026.3 173.39L1025.59 174.72L1024.6 176.04L1023.34 177.35L1021.81 178.63L1020.03 179.9L1017.99 181.14L1015.7 182.37L1013.17 183.57L1010.41 184.75L1007.41 185.9L1004.19 187.03L1000.75 188.13L997.09 189.2L993.23 190.24L989.16 191.26L984.89 192.24L980.44 193.19L975.79 194.11L970.97 194.99L965.97 195.84L960.81 196.65L955.48 197.42L949.99 198.16L944.35 198.85L938.56 199.51L932.63 200.12L926.57 200.69L920.37 201.22L914.05 201.7L907.62 202.13L901.07 202.52L894.41 202.86L887.65 203.15L880.8 203.39L873.86 203.58L866.83 203.71L859.72 203.79L852.54 203.82L852.54 -292.75L852.54 -292.75L859.08 -292.62L865.55 -292.25Z" id="bmMmIGt1x"></path><path d="M469.98 298.54L444.6 251.82L361.56 463.46L469.98 518.4L469.98 298.54Z" id="ciaJR7hM0"></path><path d="M320 911.73C189.7 911.73 83.91 810.91 83.91 686.73C83.91 562.55 189.7 461.73 320 461.73C450.3 461.73 556.09 562.55 556.09 686.73C556.09 810.91 450.3 911.73 320 911.73Z" id="c6JYhKBJC"></path><path d="M339.2 749.3C351.2 746.78 364.72 737.5 379.76 721.44C391.2 709.22 397.84 693.47 399.7 674.17C400.71 663.6 399.61 652.92 396.46 642.85C394.77 637.43 397.41 645.91 396.46 642.85C391.21 626.05 378.06 613.44 361.84 609.65C359.68 609.14 355.21 608.94 348.41 609.03C317.74 609.45 310.43 631.68 303.05 646.19C295.68 660.7 295.61 673.71 298.4 697.8C300.26 713.86 313.87 731.03 339.2 749.3Z" id="c2JuULHGr"></path><path d="M316.39 605.31C327.68 582.55 356.01 577.17 373.97 594.36C374.31 594.69 375.18 595.52 376.57 596.86C375.74 598.46 375.21 599.47 375 599.87C363.34 622.26 335.54 627.97 316.91 611.81C316.56 611.51 315.69 610.75 314.29 609.53C315.41 607.28 316.11 605.87 316.39 605.31Z" id="a2CcqCFXzT"></path><path d="M298.4 698.58C300.27 714.64 313.87 731.81 339.21 750.08C351.2 747.56 364.72 738.27 379.76 722.21C391.2 710 397.84 694.24 399.7 674.95C400.72 664.38 399.61 653.7 396.46 643.63C394.77 638.21 397.42 646.69 396.46 643.63C391.21 626.83 378.06 614.22 361.84 610.42C359.68 609.92 355.21 609.71 348.41 609.8C317.74 610.23 310.43 632.45 303.05 646.97C295.68 661.48 295.61 674.49 298.4 698.58Z" id="a1acTbfY1Q"></path><path d="M347.23 674.39C340.62 677.7 328.83 665.82 320.91 647.86C312.99 629.9 311.93 612.63 318.54 609.31C325.15 606 336.95 617.88 344.87 635.84C352.78 653.8 353.84 671.07 347.23 674.39Z" id="i3xnlqv7x"></path><path d="M330.9 613.21C320.87 622.59 321.71 621.81 319.38 623.99C299.42 642.66 268.43 637.12 255.28 612.53C254.85 611.74 253.78 609.74 252.07 606.55C254.26 604.09 255.62 602.54 256.17 601.93C274.49 581.23 305.55 581.88 323.1 603.33C324.69 605.28 322.81 602.98 330.92 612.89C331 612.99 330.99 613.13 330.9 613.21Z" id="b3sY5ajxZg"></path><path d="M354.72 679.68C355.98 701.32 351.87 722.93 342.81 742.33C342.33 743.37 341.13 745.95 339.2 750.08C310.53 747.21 289.2 737.75 275.23 721.68C254.27 697.6 251.66 671.69 253.82 654.04C254.47 648.83 255.84 644.21 257.96 640.18C263.35 629.95 271.61 621.78 281.59 616.84C286.64 614.34 293.14 612.91 301.08 612.56C323.26 611.57 332.6 621.4 346.49 646.44C351.18 654.91 353.93 665.99 354.72 679.68Z" id="d58CicJTta"></path><path d="M348.87 463.4L358.27 464.68L367.56 466.31L376.71 468.28L385.72 470.58L394.59 473.21L403.31 476.16L411.86 479.43L420.25 483L428.46 486.86L436.49 491.02L444.32 495.46L451.96 500.18L459.39 505.17L466.61 510.42L473.61 515.92L480.38 521.67L486.91 527.67L493.2 533.89L499.23 540.34L505.01 547.01L510.51 553.89L515.75 560.97L520.7 568.25L525.36 575.72L529.72 583.37L533.78 591.19L537.53 599.19L540.95 607.34L544.05 615.65L546.81 624.1L549.22 632.69L551.29 641.41L553 650.26L554.34 659.22L555.31 668.29L555.89 677.46L556.09 686.73L555.89 696L555.31 705.18L554.34 714.25L553 723.21L551.29 732.05L549.22 740.78L546.81 749.37L544.05 757.82L540.95 766.12L537.53 774.28L533.78 782.27L529.72 790.1L525.36 797.75L520.7 805.22L515.75 812.5L510.51 819.58L505.01 826.46L499.23 833.13L493.2 839.58L486.91 845.8L480.38 851.79L473.61 857.54L466.61 863.05L459.39 868.3L451.96 873.28L444.32 878L436.49 882.44L428.46 886.6L420.25 890.47L411.86 894.04L403.31 897.3L394.59 900.25L385.72 902.89L376.71 905.19L367.56 907.16L358.27 908.79L348.87 910.06L339.35 910.99L329.73 911.55L320 911.73L320 461.73L329.73 461.92L339.35 462.48L348.87 463.4Z" id="c15Vq6OvOQ"></path><path d="M326.07 549.44C289.86 549.44 260.46 520.05 260.46 483.84C260.46 447.63 289.86 418.23 326.07 418.23C362.28 418.23 391.67 447.63 391.67 483.84C391.67 520.05 362.28 549.44 326.07 549.44Z" id="b7n0gAKMo"></path><path d="M380.24 471.45L380.1 473.66L379.88 475.84L379.57 478L379.18 480.13L378.7 482.23L378.15 484.3L377.52 486.34L376.8 488.34L376.02 490.31L375.16 492.23L374.23 494.12L373.22 495.96L372.15 497.76L371.02 499.51L369.82 501.22L368.55 502.88L367.22 504.48L365.84 506.04L364.39 507.54L362.9 508.98L361.34 510.37L359.73 511.69L358.08 512.96L356.37 514.16L354.62 515.3L352.82 516.37L350.97 517.37L349.09 518.3L347.16 519.16L345.2 519.95L343.2 520.66L341.16 521.29L339.09 521.85L336.99 522.32L334.86 522.71L332.7 523.02L330.51 523.24L328.3 523.38L326.07 523.42L323.84 523.38L321.63 523.24L319.44 523.02L317.28 522.71L315.15 522.32L313.05 521.85L310.98 521.29L308.94 520.66L306.94 519.95L304.98 519.16L303.05 518.3L301.16 517.37L299.32 516.37L297.52 515.3L295.77 514.16L294.06 512.96L292.4 511.69L290.8 510.37L289.24 508.98L287.74 507.54L286.3 506.04L284.91 504.48L283.59 502.88L282.32 501.22L281.12 499.51L279.98 497.76L278.91 495.96L277.91 494.12L276.98 492.23L276.12 490.31L275.33 488.34L274.62 486.34L273.99 484.3L273.43 482.23L272.96 480.13L272.57 478L272.26 475.84L272.04 473.66L271.9 471.45L271.86 469.21L271.86 360.79L380.28 360.79L380.28 469.21L380.24 471.45Z" id="a2nsRQeJnQ"></path><path d="M380.1 473.66L379.88 475.84L379.57 478L379.18 480.13L378.7 482.23L378.15 484.3L377.52 486.34L376.8 488.34L376.02 490.31L375.16 492.23L374.23 494.12L373.22 495.96L372.15 497.76L371.02 499.51L369.82 501.22L368.55 502.88L367.22 504.49L365.84 506.04L364.39 507.54L362.9 508.98L361.34 510.37L359.73 511.69L358.08 512.96L356.37 514.16L354.62 515.3L352.82 516.37L350.97 517.37L349.09 518.3L347.16 519.16L345.2 519.95L343.2 520.66L341.16 521.29L339.09 521.85L336.99 522.32L334.86 522.71L332.7 523.02L330.51 523.24L328.3 523.38L326.08 523.42L271.86 432.97L271.86 432.97L380.28 401.6L380.28 469.21L380.24 471.45L380.1 473.66Z" id="h2hXSo3eUk"></path><path d="M446.44 251.93L447.74 252.07L449.04 252.25L450.31 252.49L451.57 252.79L452.8 253.13L454.02 253.52L455.21 253.95L456.39 254.43L457.53 254.96L458.66 255.53L459.75 256.14L460.82 256.8L461.86 257.49L462.87 258.23L463.85 259L464.8 259.81L465.72 260.66L466.6 261.54L467.44 262.46L468.25 263.41L469.03 264.39L469.76 265.4L470.46 266.44L471.11 267.51L471.73 268.6L472.3 269.73L472.83 270.87L473.31 272.04L473.74 273.24L474.13 274.45L474.47 275.69L474.76 276.95L475 278.22L475.19 279.51L475.33 280.82L475.41 282.15L475.44 283.48L475.41 284.82L475.33 286.15L475.19 287.45L475 288.75L474.76 290.02L474.47 291.28L474.13 292.51L473.74 293.73L473.31 294.93L472.83 296.1L472.3 297.24L471.73 298.37L471.11 299.46L470.46 300.53L469.76 301.57L469.03 302.58L468.25 303.56L467.44 304.51L466.6 305.43L465.72 306.31L464.8 307.16L463.85 307.97L462.87 308.74L461.86 309.47L460.82 310.17L459.75 310.83L458.66 311.44L457.53 312.01L456.39 312.54L455.21 313.02L454.02 313.45L452.8 313.84L451.57 314.18L450.31 314.47L449.04 314.72L447.74 314.9L446.44 315.04L445.11 315.12L443.77 315.15L442.44 315.12L441.11 315.04L439.8 314.9L438.51 314.72L437.24 314.47L435.98 314.18L434.74 313.84L433.53 313.45L432.33 313.02L431.16 312.54L430.01 312.01L428.89 311.44L427.8 310.83L426.73 310.17L425.69 309.47L424.68 308.74L423.7 307.97L422.75 307.16L421.83 306.31L420.95 305.43L420.1 304.51L419.29 303.56L418.52 302.58L417.78 301.57L417.09 300.53L416.43 299.46L415.82 298.37L415.25 297.24L414.72 296.1L414.24 294.93L413.8 293.73L413.42 292.51L413.07 291.28L412.78 290.02L412.54 288.75L412.35 287.45L412.22 286.15L412.13 284.82L412.11 283.48L412.13 282.15L412.22 280.82L412.35 279.51L412.54 278.22L412.78 276.95L413.07 275.69L413.42 274.45L413.8 273.24L414.24 272.04L414.72 270.87L415.25 269.73L415.82 268.6L416.43 267.51L417.09 266.44L417.78 265.4L418.52 264.39L419.29 263.41L420.1 262.46L420.95 261.54L421.83 260.66L422.75 259.81L423.7 259L424.68 258.23L425.69 257.49L426.73 256.8L427.8 256.14L428.89 255.53L430.01 254.96L431.16 254.43L432.33 253.95L433.53 253.52L434.74 253.13L435.98 252.79L437.24 252.49L438.51 252.25L439.8 252.07L441.11 251.93L442.44 251.85L443.77 251.82L445.11 251.85L446.44 251.93Z" id="b4EADwLiy"></path><path d="M211.03 251.93L212.33 252.07L213.63 252.25L214.9 252.49L216.16 252.79L217.39 253.13L218.61 253.52L219.8 253.95L220.98 254.43L222.11 254.96L223.25 255.53L224.34 256.14L225.41 256.8L226.45 257.49L227.46 258.23L228.44 259L229.39 259.81L230.31 260.66L231.19 261.54L232.03 262.46L232.84 263.41L233.61 264.39L234.35 265.4L235.05 266.44L235.7 267.51L236.32 268.6L236.89 269.73L237.42 270.87L237.9 272.04L238.33 273.24L238.72 274.45L239.06 275.69L239.35 276.95L239.59 278.22L239.78 279.51L239.92 280.82L240 282.15L240.03 283.48L240 284.82L239.92 286.15L239.78 287.45L239.59 288.75L239.35 290.02L239.06 291.28L238.72 292.51L238.33 293.73L237.9 294.93L237.42 296.1L236.89 297.24L236.32 298.37L235.7 299.46L235.05 300.53L234.35 301.57L233.61 302.58L232.84 303.56L232.03 304.51L231.19 305.43L230.31 306.31L229.39 307.16L228.44 307.97L227.46 308.74L226.45 309.47L225.41 310.17L224.34 310.83L223.25 311.44L222.11 312.01L220.98 312.54L219.8 313.02L218.61 313.45L217.39 313.84L216.16 314.18L214.9 314.47L213.63 314.72L212.33 314.9L211.03 315.04L209.7 315.12L208.36 315.15L207.03 315.12L205.7 315.04L204.39 314.9L203.1 314.72L201.83 314.47L200.57 314.18L199.33 313.84L198.11 313.45L196.92 313.02L195.75 312.54L194.6 312.01L193.48 311.44L192.39 310.83L191.32 310.17L190.28 309.47L189.27 308.74L188.29 307.97L187.34 307.16L186.42 306.31L185.54 305.43L184.69 304.51L183.88 303.56L183.11 302.58L182.36 301.57L181.68 300.53L181.02 299.46L180.41 298.37L179.84 297.24L179.31 296.1L178.83 294.93L178.39 293.73L178.01 292.51L177.66 291.28L177.36 290.02L177.13 288.75L176.94 287.45L176.81 286.15L176.72 284.82L176.7 283.48L176.72 282.15L176.81 280.82L176.94 279.51L177.13 278.22L177.36 276.95L177.66 275.69L178.01 274.45L178.39 273.24L178.83 272.04L179.31 270.87L179.84 269.73L180.41 268.6L181.02 267.51L181.68 266.44L182.36 265.4L183.11 264.39L183.88 263.41L184.69 262.46L185.54 261.54L186.42 260.66L187.34 259.81L188.29 259L189.27 258.23L190.28 257.49L191.32 256.8L192.39 256.14L193.48 255.53L194.6 254.96L195.75 254.43L196.92 253.95L198.11 253.52L199.33 253.13L200.57 252.79L201.83 252.49L203.1 252.25L204.39 252.07L205.7 251.93L207.03 251.85L208.36 251.82L209.7 251.85L211.03 251.93Z" id="c3qAG8sOk3"></path><path d="M442.9 336.09L442.23 341.13L441.38 346.1L440.35 351.01L439.15 355.84L437.77 360.59L436.23 365.26L434.52 369.84L432.65 374.33L430.63 378.73L428.45 383.04L426.13 387.24L423.66 391.33L421.05 395.31L418.3 399.18L415.43 402.93L412.42 406.55L409.28 410.05L406.03 413.42L402.65 416.65L399.16 419.75L395.56 422.7L391.86 425.5L388.05 428.16L384.14 430.65L380.14 432.99L376.05 435.17L371.87 437.17L367.6 439.01L363.26 440.67L358.83 442.15L354.34 443.44L349.78 444.55L345.15 445.46L340.46 446.18L335.72 446.7L330.92 447.02L326.07 447.12L321.22 447.02L316.42 446.7L311.68 446.18L306.99 445.46L302.36 444.55L297.8 443.44L293.3 442.15L288.88 440.67L284.54 439.01L280.27 437.17L276.09 435.17L272 432.99L267.99 430.65L264.09 428.16L260.28 425.5L256.57 422.7L252.97 419.75L249.49 416.65L246.11 413.42L242.85 410.05L239.72 406.55L236.71 402.93L233.83 399.18L231.09 395.31L228.48 391.33L226.01 387.24L223.69 383.04L221.51 378.73L219.49 374.33L217.62 369.84L215.91 365.26L214.37 360.59L212.99 355.84L211.79 351.01L210.76 346.1L209.91 341.13L209.24 336.09L208.75 330.99L208.46 325.83L208.36 320.62L208.36 246.35L208.46 241.14L208.75 235.98L209.24 230.88L209.91 225.84L210.76 220.87L211.79 215.96L212.99 211.13L214.37 206.38L215.91 201.71L217.62 197.13L219.49 192.63L221.51 188.24L223.69 183.93L226.01 179.73L228.48 175.64L231.09 171.66L233.83 167.79L236.71 164.04L239.72 160.42L242.85 156.92L246.11 153.55L249.49 150.31L252.97 147.22L256.57 144.27L260.28 141.47L264.09 138.81L267.99 136.31L272 133.98L276.09 131.8L280.27 129.8L284.54 127.96L288.88 126.3L293.3 124.82L297.8 123.53L302.36 122.42L306.99 121.51L311.68 120.79L316.42 120.27L321.22 119.95L326.07 119.85L330.92 119.95L335.72 120.27L340.46 120.79L345.15 121.51L349.78 122.42L354.34 123.53L358.83 124.82L363.26 126.3L367.6 127.96L371.87 129.8L376.05 131.8L380.14 133.98L384.14 136.31L388.05 138.81L391.86 141.47L395.56 144.27L399.16 147.22L402.65 150.31L406.03 153.55L409.28 156.92L412.42 160.42L415.43 164.04L418.3 167.79L421.05 171.66L423.66 175.64L426.13 179.73L428.45 183.93L430.63 188.24L432.65 192.63L434.52 197.13L436.23 201.71L437.77 206.38L439.15 211.13L440.35 215.96L441.38 220.87L442.23 225.84L442.9 230.88L443.38 235.98L443.68 241.14L443.77 246.35L443.77 320.62L443.68 325.83L443.38 330.99L442.9 336.09Z" id="d9abdD9rK"></path><path d="M340.46 120.79L345.15 121.51L349.78 122.42L354.34 123.53L358.83 124.82L363.26 126.3L367.6 127.96L371.87 129.8L376.05 131.8L380.14 133.98L384.14 136.31L388.05 138.81L391.86 141.47L395.56 144.27L399.16 147.22L402.65 150.31L406.03 153.55L409.28 156.92L412.42 160.42L415.43 164.04L418.3 167.79L421.05 171.66L423.66 175.64L426.13 179.73L428.45 183.93L430.63 188.24L432.65 192.63L434.52 197.13L436.23 201.71L437.77 206.38L439.15 211.13L440.35 215.96L441.38 220.87L442.23 225.84L442.9 230.88L443.38 235.98L443.68 241.14L443.77 246.35L443.77 320.62L443.68 325.83L443.38 330.99L442.9 336.09L442.23 341.13L441.38 346.1L440.35 351.01L439.15 355.84L437.77 360.59L436.23 365.26L434.52 369.84L432.65 374.33L430.63 378.73L428.45 383.04L426.13 387.24L423.66 391.33L421.05 395.31L418.3 399.18L415.43 402.93L412.42 406.55L409.28 410.05L406.03 413.42L402.65 416.65L399.16 419.75L395.56 422.7L391.86 425.5L388.05 428.16L384.14 430.65L380.14 432.99L376.05 435.17L371.87 437.17L367.6 439.01L363.26 440.67L358.83 442.15L354.34 443.44L349.78 444.55L345.15 445.46L340.46 446.18L335.72 446.7L330.92 447.02L326.07 447.12L326.07 119.85L330.92 119.95L335.72 120.27L340.46 120.79Z" id="b1GVpWUEFc"></path><path d="M325.31 112.54L325.38 112.55L325.38 175.66L325.31 175.66L323.65 175.74L321.98 175.77L320.3 175.74L318.64 175.66L317 175.53L315.38 175.35L313.79 175.12L312.21 174.85L310.66 174.52L309.13 174.15L308.03 173.85L307.93 174.05L306.91 176.03L305.85 177.98L304.76 179.9L303.64 181.8L302.48 183.67L301.28 185.51L300.05 187.33L298.79 189.12L297.49 190.89L296.16 192.63L294.79 194.34L293.38 196.03L291.95 197.69L290.47 199.32L288.96 200.93L287.42 202.52L285.85 204.08L284.26 205.63L282.64 207.15L281 208.66L279.34 210.16L277.65 211.64L275.95 213.1L274.22 214.54L272.47 215.97L270.69 217.38L268.9 218.77L267.08 220.15L265.24 221.51L263.37 222.85L261.48 224.17L259.57 225.48L257.64 226.77L255.69 228.05L253.71 229.31L251.71 230.55L249.69 231.77L247.65 232.98L245.58 234.17L243.49 235.34L241.38 236.5L239.24 237.64L237.09 238.76L234.91 239.87L232.71 240.96L230.48 242.03L228.24 243.08L225.97 244.12L223.67 245.14L221.36 246.15L219.02 247.14L216.66 248.11L214.28 249.06L211.88 250L209.45 250.92L207 251.82L206.79 248.28L206.63 244.78L206.51 241.34L206.43 237.94L206.4 234.6L206.42 231.3L206.48 228.06L206.58 224.86L206.73 221.72L206.92 218.62L207.16 215.58L207.45 212.58L207.77 209.64L208.15 206.74L208.56 203.9L209.03 201.1L209.53 198.36L210.09 195.66L210.68 193.02L211.33 190.42L212.01 187.88L212.74 185.38L213.52 182.94L214.34 180.54L215.21 178.2L216.12 175.9L217.07 173.66L218.07 171.46L219.12 169.32L220.21 167.22L221.34 165.18L222.52 163.18L223.75 161.23L225.02 159.34L226.33 157.49L227.69 155.7L229.09 153.95L230.54 152.26L232.03 150.61L233.57 149.02L235.15 147.47L236.76 145.96L238.4 144.49L240.07 143.06L241.78 141.67L243.52 140.33L245.29 139.02L247.1 137.76L248.93 136.54L250.8 135.35L252.7 134.21L254.64 133.11L256.6 132.05L258.6 131.03L260.63 130.05L262.7 129.11L264.79 128.22L266.92 127.36L269.08 126.55L271.28 125.77L273.5 125.04L275.76 124.34L278.05 123.69L280.38 123.08L282.73 122.51L285.12 121.98L287.54 121.49L290 121.04L292.48 120.64L295 120.27L295.27 120.24L295.52 120.06L296.72 119.29L297.97 118.55L299.25 117.85L300.56 117.18L301.91 116.56L303.3 115.97L304.71 115.43L306.15 114.93L307.63 114.47L309.13 114.05L310.66 113.68L312.21 113.36L313.79 113.08L315.38 112.85L317 112.67L318.64 112.54L320.3 112.46L321.98 112.44L323.65 112.46L325.31 112.54Z" id="d1M5txaylO"></path><path d="M332.01 112.56L333.65 112.69L335.28 112.87L336.88 113.11L338.46 113.39L340.02 113.72L341.55 114.09L343.05 114.51L344.53 114.97L345.98 115.48L347.4 116.03L348.79 116.62L350.14 117.25L351.46 117.91L352.74 118.62L353.99 119.36L355.2 120.14L355.45 120.32L355.72 120.35L358.24 120.72L360.74 121.14L363.19 121.59L365.62 122.09L368.02 122.62L370.38 123.2L372.71 123.82L375.01 124.47L377.27 125.17L379.5 125.91L381.71 126.69L383.87 127.52L386.01 128.38L388.11 129.28L390.18 130.23L392.22 131.21L394.22 132.24L396.2 133.3L398.14 134.41L400.05 135.56L401.92 136.75L403.76 137.98L405.57 139.25L407.35 140.56L409.1 141.91L410.81 143.31L412.49 144.74L414.14 146.22L415.76 147.73L417.34 149.29L418.88 150.89L420.38 152.54L421.84 154.24L423.25 155.99L424.62 157.79L425.94 159.64L427.22 161.54L428.45 163.48L429.64 165.48L430.78 167.53L431.88 169.62L432.93 171.76L433.94 173.96L434.91 176.2L435.83 178.49L436.71 180.83L437.54 183.23L438.32 185.67L439.07 188.15L439.76 190.69L440.42 193.28L441.03 195.92L441.59 198.61L442.11 201.34L442.59 204.13L443.02 206.96L443.4 209.84L443.74 212.78L444.04 215.76L444.29 218.79L444.5 221.87L444.66 225L444.78 228.18L444.86 231.41L444.89 234.69L444.87 238.02L444.81 241.39L444.71 244.82L444.56 248.3L444.36 251.82L441.9 250.94L439.46 250.04L437.04 249.12L434.64 248.18L432.26 247.23L429.91 246.26L427.58 245.27L425.28 244.26L422.99 243.24L420.73 242.2L418.5 241.14L416.28 240.06L414.09 238.97L411.92 237.86L409.77 236.73L407.65 235.58L405.55 234.42L403.47 233.24L401.41 232.04L399.38 230.82L397.37 229.58L395.38 228.33L393.41 227.06L391.47 225.78L389.55 224.47L387.66 223.15L385.78 221.81L383.93 220.45L382.1 219.08L380.3 217.68L378.51 216.27L376.75 214.85L375.02 213.4L373.3 211.94L371.61 210.46L369.94 208.96L368.29 207.44L366.67 205.91L365.07 204.36L363.49 202.79L361.94 201.2L360.42 199.58L358.95 197.94L357.5 196.27L356.09 194.58L354.71 192.86L353.37 191.11L352.07 189.34L350.8 187.54L349.56 185.72L348.36 183.87L347.19 181.99L346.06 180.09L344.97 178.16L343.9 176.2L342.88 174.22L342.78 174.02L341.68 174.32L340.15 174.69L338.59 175.01L337.01 175.28L335.41 175.51L333.79 175.68L332.14 175.81L330.48 175.89L328.8 175.91L327.13 175.88L325.46 175.8L325.4 175.79L325.26 112.55L325.33 112.54L326.99 112.47L328.67 112.44L330.35 112.47L332.01 112.56Z" id="b5Y1Q0v31"></path></defs><g><g><g><use xlink:href="#a1LNhroDLu" opacity="1" fill="#ef9a9a" fill-opacity="1"></use></g><g><use xlink:href="#a1mkKNlIH" opacity="1" fill="#da8686" fill-opacity="1"></use></g><g><use xlink:href="#aZkGs0dL2" opacity="1" fill="#da8686" fill-opacity="1"></use></g><g><use xlink:href="#e1k7yeFy6z" opacity="1" fill="#000000" fill-opacity="0.13"></use></g><g><use xlink:href="#cw1xhNKdD" opacity="1" fill="#ff9386" fill-opacity="1"></use><g><use xlink:href="#cw1xhNKdD" opacity="1" fill-opacity="0" stroke="#000000" stroke-width="1" stroke-opacity="0"></use></g></g><g><use xlink:href="#bmMmIGt1x" opacity="1" fill="#ffb3b3" fill-opacity="1"></use></g><g><use xlink:href="#ciaJR7hM0" opacity="1" fill="#000000" fill-opacity="0.13"></use></g><g><use xlink:href="#c6JYhKBJC" opacity="1" fill="#ecdf9e" fill-opacity="1"></use><g><use xlink:href="#c6JYhKBJC" opacity="1" fill-opacity="0" stroke="#000000" stroke-width="1" stroke-opacity="0"></use></g></g><g><use xlink:href="#c2JuULHGr" opacity="1" fill="#000000" fill-opacity="0"></use><g><use xlink:href="#c2JuULHGr" opacity="1" fill-opacity="0" stroke="#000000" stroke-width="1" stroke-opacity="0"></use></g></g><g><use xlink:href="#a2CcqCFXzT" opacity="1" fill="#93b682" fill-opacity="1"></use><g><use xlink:href="#a2CcqCFXzT" opacity="1" fill-opacity="0" stroke="#000000" stroke-width="1" stroke-opacity="0"></use></g></g><g><use xlink:href="#a1acTbfY1Q" opacity="1" fill="#ff9386" fill-opacity="1"></use><g><use xlink:href="#a1acTbfY1Q" opacity="1" fill-opacity="0" stroke="#000000" stroke-width="1" stroke-opacity="0"></use></g></g><g><use xlink:href="#i3xnlqv7x" opacity="1" fill="#b8645a" fill-opacity="1"></use><g><use xlink:href="#i3xnlqv7x" opacity="1" fill-opacity="0" stroke="#000000" stroke-width="1" stroke-opacity="0"></use></g></g><g><use xlink:href="#b3sY5ajxZg" opacity="1" fill="#b0d69e" fill-opacity="1"></use><g><use xlink:href="#b3sY5ajxZg" opacity="1" fill-opacity="0" stroke="#000000" stroke-width="1" stroke-opacity="0"></use></g></g><g><use xlink:href="#d58CicJTta" opacity="1" fill="#ffa99c" fill-opacity="1"></use><g><use xlink:href="#d58CicJTta" opacity="1" fill-opacity="0" stroke="#000000" stroke-width="1" stroke-opacity="0"></use></g></g><g><use xlink:href="#c15Vq6OvOQ" opacity="1" fill="#000000" fill-opacity="0.13"></use><g><use xlink:href="#c15Vq6OvOQ" opacity="1" fill-opacity="0" stroke="#000000" stroke-width="1" stroke-opacity="0"></use></g></g><g><use xlink:href="#b7n0gAKMo" opacity="1" fill="#ececec" fill-opacity="1"></use><g><use xlink:href="#b7n0gAKMo" opacity="1" fill-opacity="0" stroke="#000000" stroke-width="1" stroke-opacity="0"></use></g></g><g><use xlink:href="#a2nsRQeJnQ" opacity="1" fill="#ecb69e" fill-opacity="1"></use><g><use xlink:href="#a2nsRQeJnQ" opacity="1" fill-opacity="0" stroke="#000000" stroke-width="1" stroke-opacity="0"></use></g></g><g><use xlink:href="#h2hXSo3eUk" opacity="1" fill="#000000" fill-opacity="0.13"></use><g><use xlink:href="#h2hXSo3eUk" opacity="1" fill-opacity="0" stroke="#000000" stroke-width="1" stroke-opacity="0"></use></g></g><g><use xlink:href="#b4EADwLiy" opacity="1" fill="#ecb69e" fill-opacity="1"></use><g><use xlink:href="#b4EADwLiy" opacity="1" fill-opacity="0" stroke="#000000" stroke-width="1" stroke-opacity="0"></use></g></g><g><use xlink:href="#c3qAG8sOk3" opacity="1" fill="#ecb69e" fill-opacity="1"></use><g><use xlink:href="#c3qAG8sOk3" opacity="1" fill-opacity="0" stroke="#000000" stroke-width="1" stroke-opacity="0"></use></g></g><g><use xlink:href="#d9abdD9rK" opacity="1" fill="#ffcbad" fill-opacity="1"></use><g><use xlink:href="#d9abdD9rK" opacity="1" fill-opacity="0" stroke="#000000" stroke-width="1" stroke-opacity="0"></use></g></g><g><use xlink:href="#b1GVpWUEFc" opacity="1" fill="#000000" fill-opacity="0.04"></use><g><use xlink:href="#b1GVpWUEFc" opacity="1" fill-opacity="0" stroke="#000000" stroke-width="1" stroke-opacity="0"></use></g></g><g><use xlink:href="#d1M5txaylO" opacity="1" fill="#da8686" fill-opacity="1"></use></g><g><use xlink:href="#b5Y1Q0v31" opacity="1" fill="#ef9a9a" fill-opacity="1"></use></g></g></g></svg>