<?xml version="1.0" encoding="UTF-8" standalone="no"?>
<!DOCTYPE svg PUBLIC "-//W3C//DTD SVG 1.1//EN" "http://www.w3.org/Graphics/SVG/1.1/DTD/svg11.dtd">
<svg version="1.1" xmlns="http://www.w3.org/2000/svg" xmlns:xlink="http://www.w3.org/1999/xlink" preserveAspectRatio="xMidYMid meet" viewBox="0 0 640 640" width="640" height="640"><defs><path d="M-23.19 117.45L-23.5 118.24L-23.78 119.03L-24.04 119.83L-24.29 120.63L-24.51 121.43L-24.72 122.24L-24.9 123.05L-25.06 123.86L-25.21 124.68L-25.33 125.5L-25.43 126.32L-25.52 127.14L-25.58 127.97L-25.63 128.79L-25.65 129.62L-25.66 130.45L-25.64 131.27L-25.61 132.1L-25.55 132.92L-25.48 133.74L-25.38 134.56L-25.27 135.38L-25.14 136.2L-24.98 137.01L-24.81 137.82L-24.62 138.63L-24.4 139.43L-24.17 140.23L-23.92 141.03L-23.65 141.82L-23.36 142.6L-23.05 143.38L-22.72 144.15L-22.37 144.92L-22 145.67L-21.61 146.43L-21.2 147.17L-24.88 140.66L-24.15 141.99L-23.47 143.35L-22.83 144.71L-22.24 146.09L-21.7 147.49L-21.2 148.89L-20.75 150.31L-20.34 151.73L-19.97 153.16L-19.66 154.6L-19.39 156.04L-19.16 157.49L-18.98 158.95L-18.84 160.4L-18.75 161.86L-18.7 163.32L-18.7 164.78L-18.74 166.23L-18.82 167.69L-18.95 169.14L-19.13 170.59L-19.34 172.03L-19.61 173.46L-19.91 174.89L-20.26 176.3L-20.65 177.71L-21.09 179.11L-21.57 180.49L-22.09 181.86L-22.66 183.22L-23.27 184.56L-23.92 185.88L-24.61 187.19L-25.35 188.48L-26.13 189.75L-26.95 191L-27.82 192.23L-28.72 193.43L-29.67 194.62L-30.66 195.77L-30.87 196.01L-31.08 196.24L-31.29 196.48L-31.49 196.71L-31.7 196.95L-31.9 197.18L-32.1 197.41L-32.3 197.64L-32.5 197.86L-32.7 198.09L-32.9 198.32L-33.09 198.54L-33.29 198.77L-33.48 198.99L-33.68 199.21L-33.87 199.43L-34.06 199.65L-34.25 199.87L-34.44 200.09L-34.62 200.3L-34.81 200.52L-34.99 200.73L-35.18 200.95L-35.36 201.16L-35.54 201.37L-35.72 201.58L-35.9 201.79L-36.08 202L-36.25 202.2L-36.43 202.41L-36.6 202.61L-36.78 202.82L-36.95 203.02L-37.12 203.22L-37.29 203.42L-37.46 203.62L-37.62 203.82L-37.79 204.02L-37.96 204.21L-38.12 204.41L-38.77 205.18L-39.41 205.95L-40.04 206.71L-40.67 207.46L-41.3 208.21L-41.92 208.96L-42.53 209.7L-43.14 210.43L-43.74 211.16L-44.34 211.88L-44.93 212.6L-45.51 213.31L-46.09 214.01L-46.67 214.71L-47.24 215.41L-47.8 216.09L-48.36 216.78L-48.91 217.46L-49.45 218.13L-49.99 218.79L-50.53 219.45L-51.06 220.11L-51.58 220.76L-52.1 221.4L-52.61 222.04L-53.12 222.68L-53.62 223.3L-54.11 223.93L-54.6 224.54L-55.09 225.15L-55.57 225.76L-56.04 226.36L-56.51 226.95L-56.97 227.54L-57.42 228.12L-57.87 228.7L-58.32 229.27L-58.76 229.84L-59.19 230.4L-59.62 230.96L-211.1 240.24L-211.1 -189.78L-210.41 -189.59L-208.35 -189.81L-206.31 -190.01L-204.28 -190.2L-202.27 -190.36L-200.27 -190.52L-198.28 -190.65L-196.31 -190.77L-194.35 -190.87L-192.4 -190.96L-190.47 -191.03L-188.55 -191.09L-186.65 -191.12L-184.76 -191.15L-182.88 -191.15L-181.02 -191.14L-179.17 -191.11L-177.33 -191.07L-175.51 -191.01L-173.7 -190.94L-171.91 -190.84L-170.13 -190.74L-168.36 -190.61L-166.61 -190.47L-164.87 -190.31L-163.14 -190.14L-161.43 -189.95L-159.73 -189.75L-158.05 -189.52L-156.38 -189.29L-154.72 -189.03L-153.08 -188.76L-151.45 -188.47L-149.83 -188.17L-148.23 -187.85L-146.64 -187.52L-145.07 -187.16L-143.51 -186.8L-141.96 -186.41L-140.43 -186.01L-138.91 -185.59L-136.66 -184.93L-134.47 -184.22L-132.32 -183.47L-130.21 -182.67L-128.15 -181.82L-126.13 -180.93L-124.15 -180L-122.22 -179.03L-120.32 -178.01L-118.46 -176.95L-116.64 -175.86L-114.85 -174.73L-113.09 -173.56L-111.37 -172.35L-109.68 -171.11L-108.02 -169.83L-106.39 -168.52L-104.79 -167.17L-103.22 -165.8L-101.67 -164.39L-100.14 -162.95L-98.64 -161.49L-97.16 -159.99L-95.7 -158.47L-94.26 -156.92L-92.83 -155.34L-91.43 -153.74L-90.04 -152.12L-88.66 -150.47L-87.3 -148.8L-85.95 -147.11L-84.61 -145.4L-83.27 -143.67L-81.95 -141.92L-80.64 -140.16L-79.33 -138.37L-78.02 -136.58L-76.72 -134.76L-75.42 -132.93L-74.12 -131.09L-73.51 -130.21L-72.91 -129.32L-72.32 -128.4L-71.73 -127.47L-71.16 -126.53L-70.59 -125.56L-70.03 -124.58L-69.48 -123.58L-68.93 -122.57L-68.4 -121.53L-67.87 -120.48L-67.35 -119.41L-66.84 -118.33L-66.33 -117.23L-65.84 -116.11L-65.35 -114.97L-64.87 -113.82L-64.4 -112.65L-63.93 -111.46L-63.48 -110.26L-63.03 -109.04L-62.59 -107.8L-62.16 -106.55L-61.73 -105.27L-61.32 -103.98L-60.91 -102.68L-60.51 -101.35L-60.12 -100.01L-59.74 -98.65L-59.36 -97.28L-58.99 -95.89L-58.64 -94.48L-58.28 -93.05L-57.94 -91.61L-57.61 -90.15L-57.28 -88.67L-56.96 -87.17L-56.65 -85.66L-56.34 -84.13L-56.05 -82.58L-55.85 -81.54L-55.64 -80.5L-55.43 -79.46L-55.21 -78.42L-54.98 -77.39L-54.74 -76.35L-54.5 -75.32L-54.25 -74.29L-53.99 -73.26L-53.72 -72.23L-53.45 -71.21L-53.17 -70.19L-52.88 -69.17L-52.59 -68.15L-52.28 -67.13L-51.97 -66.12L-51.66 -65.11L-51.33 -64.1L-51 -63.09L-50.66 -62.09L-50.32 -61.09L-49.96 -60.09L-49.6 -59.09L-49.24 -58.1L-48.86 -57.11L-48.48 -56.12L-48.09 -55.13L-47.69 -54.15L-47.29 -53.17L-46.88 -52.19L-46.46 -51.22L-46.04 -50.25L-45.61 -49.28L-45.17 -48.31L-44.72 -47.35L-44.27 -46.39L-43.81 -45.43L-43.35 -44.48L-42.87 -43.53L-42.39 -42.58L-41.96 -41.72L-41.53 -40.86L-41.12 -40L-40.71 -39.14L-40.31 -38.28L-39.92 -37.42L-39.54 -36.56L-39.17 -35.7L-38.81 -34.84L-38.46 -33.98L-38.11 -33.12L-37.78 -32.25L-37.45 -31.39L-37.14 -30.53L-36.83 -29.66L-36.53 -28.8L-36.24 -27.94L-35.96 -27.07L-35.69 -26.21L-35.43 -25.34L-35.18 -24.48L-34.94 -23.61L-34.7 -22.75L-34.48 -21.88L-34.26 -21.01L-34.05 -20.14L-33.86 -19.28L-33.67 -18.41L-33.49 -17.54L-33.32 -16.67L-33.16 -15.8L-33.01 -14.93L-32.86 -14.07L-32.73 -13.2L-32.61 -12.33L-32.49 -11.45L-32.38 -10.58L-32.29 -9.71L-32.2 -8.84L-32.12 -7.97L-32.04 -7L-31.97 -6.02L-31.92 -5.05L-31.87 -4.07L-31.84 -3.09L-31.81 -2.1L-31.8 -1.12L-31.79 -0.13L-31.8 0.86L-31.82 1.86L-31.85 2.85L-31.89 3.85L-31.93 4.85L-31.99 5.86L-32.06 6.86L-32.14 7.87L-32.24 8.88L-32.34 9.89L-32.45 10.91L-32.57 11.93L-32.71 12.95L-32.85 13.97L-33.01 15L-33.17 16.02L-33.35 17.05L-33.53 18.09L-33.73 19.12L-33.94 20.16L-34.16 21.2L-34.38 22.24L-34.62 23.29L-34.87 24.33L-35.13 25.38L-35.4 26.44L-35.69 27.49L-35.98 28.55L-36.28 29.61L-36.59 30.67L-36.92 31.73L-37.25 32.8L-37.49 33.58L-37.7 34.37L-37.9 35.16L-38.07 35.95L-38.22 36.75L-38.35 37.55L-38.45 38.34L-38.54 39.14L-38.6 39.94L-38.64 40.74L-38.67 41.54L-38.67 42.33L-38.65 43.13L-38.6 43.92L-38.54 44.71L-38.46 45.5L-38.35 46.29L-38.23 47.07L-38.08 47.85L-37.92 48.63L-37.73 49.4L-37.53 50.16L-37.3 50.92L-37.05 51.68L-36.79 52.43L-36.5 53.17L-36.2 53.9L-35.87 54.63L-35.53 55.35L-35.17 56.06L-34.78 56.76L-34.38 57.45L-33.96 58.14L-33.52 58.81L-33.06 59.47L-32.58 60.12L-32.08 60.76L-31.57 61.39L-31.03 62.01L-30.48 62.61L-35.85 56.9L-34.62 58.24L-33.44 59.62L-32.31 61.03L-31.23 62.47L-30.19 63.93L-29.21 65.42L-28.27 66.93L-27.38 68.47L-26.54 70.03L-25.75 71.61L-25.01 73.2L-24.32 74.82L-23.68 76.46L-23.09 78.11L-22.55 79.78L-22.06 81.46L-21.62 83.15L-21.23 84.85L-20.89 86.57L-20.61 88.29L-20.37 90.02L-20.19 91.76L-20.06 93.5L-19.98 95.25L-19.95 97L-19.97 98.75L-20.05 100.5L-20.18 102.26L-20.36 104.01L-20.6 105.75L-20.89 107.5L-21.23 109.23L-21.62 110.96L-22.07 112.69L-22.58 114.4L-23.13 116.1L-23.74 117.79L-24.41 119.47L-25.13 121.14L-25.91 122.79L-22.16 115.14L-22.53 115.9L-22.87 116.68L-23.19 117.45Z" id="a1TRR4VkT4"></path><path d="M312.05 608.9L305.02 608.76L298.08 608.57L291.23 608.34L284.47 608.04L277.81 607.71L271.26 607.32L264.83 606.88L258.51 606.4L252.31 605.88L246.25 605.31L240.32 604.69L234.53 604.04L228.89 603.34L223.41 602.61L218.07 601.84L212.91 601.02L207.91 600.18L203.09 599.29L198.44 598.38L193.99 597.43L189.72 596.44L185.66 595.43L181.79 594.39L178.13 593.31L174.69 592.21L171.47 591.09L168.47 589.93L165.71 588.76L163.18 587.55L160.89 586.33L158.85 585.08L157.07 583.82L155.54 582.53L154.28 581.23L153.29 579.91L152.58 578.57L152.14 577.22L152 575.86L152.13 574.61L152 574.61L167.6 263.21L167.6 263.21L167.74 257L168.13 250.85L168.78 244.77L169.68 238.76L170.83 232.84L172.22 226.99L173.85 221.24L175.7 215.57L177.78 210.01L180.09 204.54L182.6 199.19L185.33 193.94L188.27 188.82L191.4 183.81L194.73 178.93L198.25 174.19L201.95 169.58L205.83 165.11L209.89 160.79L214.12 156.62L218.51 152.6L223.06 148.75L227.76 145.06L232.62 141.54L237.62 138.2L242.75 135.04L248.02 132.06L253.42 129.28L258.94 126.68L264.58 124.29L270.33 122.11L276.19 120.13L282.15 118.37L288.21 116.82L294.37 115.5L300.61 114.41L306.93 113.56L313.33 112.94L319.8 112.56L326.34 112.44L326.34 112.44L326.34 609.01L319.16 608.98L312.05 608.9Z" id="a1Rg1mGGW"></path><path d="M-400.09 145.67L-399.72 144.92L-399.37 144.15L-399.04 143.38L-398.73 142.6L-398.44 141.82L-398.17 141.03L-397.91 140.23L-397.68 139.43L-397.47 138.63L-397.28 137.82L-397.1 137.01L-396.95 136.2L-396.82 135.38L-396.7 134.56L-396.61 133.74L-396.53 132.92L-396.48 132.1L-396.44 131.27L-396.43 130.45L-396.43 129.62L-396.46 128.79L-396.5 127.97L-396.57 127.14L-396.65 126.32L-396.76 125.5L-396.88 124.68L-397.02 123.86L-397.19 123.05L-397.37 122.24L-397.57 121.43L-397.8 120.63L-398.04 119.83L-398.31 119.03L-398.59 118.24L-398.89 117.45L-399.22 116.68L-399.56 115.9L-399.92 115.14L-396.18 122.79L-396.96 121.14L-397.68 119.47L-398.34 117.79L-398.95 116.1L-399.51 114.4L-400.01 112.69L-400.46 110.96L-400.86 109.23L-401.2 107.5L-401.49 105.75L-401.72 104.01L-401.91 102.26L-402.04 100.5L-402.11 98.75L-402.14 97L-402.11 95.25L-402.03 93.5L-401.9 91.76L-401.72 90.02L-401.48 88.29L-401.19 86.57L-400.86 84.85L-400.47 83.15L-400.03 81.46L-399.54 79.78L-399 78.11L-398.41 76.46L-397.77 74.82L-397.08 73.2L-396.33 71.61L-395.54 70.03L-394.71 68.47L-393.82 66.93L-392.88 65.42L-391.89 63.93L-390.86 62.47L-389.77 61.03L-388.64 59.62L-387.46 58.24L-386.23 56.9L-391.61 62.61L-391.05 62.01L-390.52 61.39L-390 60.76L-389.51 60.12L-389.03 59.47L-388.57 58.81L-388.13 58.14L-387.71 57.45L-387.3 56.76L-386.92 56.06L-386.56 55.35L-386.21 54.63L-385.89 53.9L-385.58 53.17L-385.3 52.43L-385.03 51.68L-384.79 50.92L-384.56 50.16L-384.35 49.4L-384.17 48.63L-384 47.85L-383.86 47.07L-383.73 46.29L-383.63 45.5L-383.55 44.71L-383.48 43.92L-383.44 43.13L-383.42 42.33L-383.42 41.54L-383.44 40.74L-383.48 39.94L-383.55 39.14L-383.63 38.34L-383.74 37.55L-383.87 36.75L-384.02 35.95L-384.19 35.16L-384.38 34.37L-384.6 33.58L-384.84 32.8L-385.17 31.73L-385.49 30.67L-385.81 29.61L-386.11 28.55L-386.4 27.49L-386.68 26.44L-386.95 25.38L-387.21 24.33L-387.46 23.29L-387.7 22.24L-387.93 21.2L-388.15 20.16L-388.36 19.12L-388.55 18.09L-388.74 17.05L-388.91 16.02L-389.08 15L-389.23 13.97L-389.38 12.95L-389.51 11.93L-389.64 10.91L-389.75 9.89L-389.85 8.88L-389.94 7.87L-390.02 6.86L-390.09 5.86L-390.15 4.85L-390.2 3.85L-390.24 2.85L-390.27 1.86L-390.29 0.86L-390.29 -0.13L-390.29 -1.12L-390.27 -2.1L-390.25 -3.09L-390.21 -4.07L-390.17 -5.05L-390.11 -6.02L-390.04 -7L-389.97 -7.97L-389.89 -8.84L-389.8 -9.71L-389.7 -10.58L-389.6 -11.45L-389.48 -12.33L-389.36 -13.2L-389.22 -14.07L-389.08 -14.93L-388.93 -15.8L-388.77 -16.67L-388.6 -17.54L-388.42 -18.41L-388.23 -19.28L-388.03 -20.14L-387.82 -21.01L-387.61 -21.88L-387.38 -22.75L-387.15 -23.61L-386.91 -24.48L-386.65 -25.34L-386.39 -26.21L-386.12 -27.07L-385.84 -27.94L-385.55 -28.8L-385.26 -29.66L-384.95 -30.53L-384.63 -31.39L-384.31 -32.25L-383.97 -33.12L-383.63 -33.98L-383.28 -34.84L-382.92 -35.7L-382.54 -36.56L-382.16 -37.42L-381.78 -38.28L-381.38 -39.14L-380.97 -40L-380.55 -40.86L-380.13 -41.72L-379.69 -42.58L-379.21 -43.53L-378.74 -44.48L-378.27 -45.43L-377.81 -46.39L-377.36 -47.35L-376.92 -48.31L-376.48 -49.28L-376.05 -50.25L-375.62 -51.22L-375.2 -52.19L-374.79 -53.17L-374.39 -54.15L-374 -55.13L-373.61 -56.12L-373.23 -57.11L-372.85 -58.1L-372.48 -59.09L-372.12 -60.09L-371.77 -61.09L-371.42 -62.09L-371.09 -63.09L-370.75 -64.1L-370.43 -65.11L-370.11 -66.12L-369.8 -67.13L-369.5 -68.15L-369.2 -69.17L-368.92 -70.19L-368.64 -71.21L-368.36 -72.23L-368.1 -73.26L-367.84 -74.29L-367.59 -75.32L-367.34 -76.35L-367.11 -77.39L-366.88 -78.42L-366.66 -79.46L-366.44 -80.5L-366.24 -81.54L-366.04 -82.58L-365.74 -84.13L-365.44 -85.66L-365.13 -87.17L-364.81 -88.67L-364.48 -90.15L-364.15 -91.61L-363.8 -93.05L-363.45 -94.48L-363.09 -95.89L-362.72 -97.28L-362.35 -98.65L-361.97 -100.01L-361.57 -101.35L-361.17 -102.68L-360.77 -103.98L-360.35 -105.27L-359.93 -106.55L-359.5 -107.8L-359.06 -109.04L-358.61 -110.26L-358.15 -111.46L-357.69 -112.65L-357.22 -113.82L-356.74 -114.97L-356.25 -116.11L-355.75 -117.23L-355.25 -118.33L-354.74 -119.41L-354.22 -120.48L-353.69 -121.53L-353.15 -122.57L-352.61 -123.58L-352.06 -124.58L-351.5 -125.56L-350.93 -126.53L-350.35 -127.47L-349.77 -128.4L-349.18 -129.32L-348.58 -130.21L-347.97 -131.09L-346.67 -132.93L-345.37 -134.76L-344.07 -136.58L-342.76 -138.37L-341.45 -140.16L-340.13 -141.92L-338.81 -143.67L-337.48 -145.4L-336.14 -147.11L-334.79 -148.8L-333.43 -150.47L-332.05 -152.12L-330.66 -153.74L-329.25 -155.34L-327.83 -156.92L-326.39 -158.47L-324.93 -159.99L-323.45 -161.49L-321.95 -162.95L-320.42 -164.39L-318.87 -165.8L-317.29 -167.17L-315.69 -168.52L-314.06 -169.83L-312.4 -171.11L-310.71 -172.35L-308.99 -173.56L-307.24 -174.73L-305.45 -175.86L-303.63 -176.95L-301.77 -178.01L-299.87 -179.03L-297.93 -180L-295.95 -180.93L-293.94 -181.82L-291.87 -182.67L-289.77 -183.47L-287.62 -184.22L-285.42 -184.93L-283.18 -185.59L-281.66 -186.01L-280.12 -186.41L-278.58 -186.8L-277.02 -187.16L-275.44 -187.52L-273.85 -187.85L-272.25 -188.17L-270.64 -188.47L-269.01 -188.76L-267.36 -189.03L-265.71 -189.29L-264.04 -189.52L-262.35 -189.75L-260.65 -189.95L-258.94 -190.14L-257.22 -190.31L-255.48 -190.47L-253.73 -190.61L-251.96 -190.74L-250.18 -190.84L-248.38 -190.94L-246.58 -191.01L-244.75 -191.07L-242.92 -191.11L-241.07 -191.14L-239.21 -191.15L-237.33 -191.15L-235.44 -191.12L-233.53 -191.09L-231.62 -191.03L-229.68 -190.96L-227.74 -190.87L-225.78 -190.77L-223.81 -190.65L-221.82 -190.52L-219.82 -190.36L-217.81 -190.2L-215.78 -190.01L-213.74 -189.81L-211.68 -189.59L-210.99 -189.78L-210.99 238.54L-365.47 226.96L-365.75 226.6L-366.04 226.23L-366.33 225.85L-366.64 225.46L-366.96 225.06L-367.29 224.65L-367.62 224.23L-367.97 223.8L-368.32 223.36L-368.69 222.9L-369.06 222.44L-369.44 221.97L-369.83 221.48L-370.24 220.99L-370.65 220.48L-371.07 219.96L-371.5 219.44L-371.94 218.9L-372.38 218.35L-372.84 217.79L-373.31 217.22L-373.79 216.65L-374.27 216.06L-374.77 215.45L-375.27 214.84L-375.79 214.22L-376.31 213.59L-376.84 212.95L-377.38 212.29L-377.94 211.63L-378.5 210.95L-379.07 210.27L-379.65 209.57L-380.24 208.87L-380.83 208.15L-381.44 207.42L-382.06 206.68L-382.69 205.94L-383.32 205.18L-383.97 204.41L-384.13 204.21L-384.3 204.02L-384.46 203.82L-384.63 203.62L-384.8 203.42L-384.97 203.22L-385.14 203.02L-385.31 202.82L-385.48 202.61L-385.66 202.41L-385.83 202.2L-386.01 202L-386.19 201.79L-386.37 201.58L-386.55 201.37L-386.73 201.16L-386.91 200.95L-387.09 200.73L-387.28 200.52L-387.46 200.3L-387.65 200.09L-387.84 199.87L-388.03 199.65L-388.22 199.43L-388.41 199.21L-388.6 198.99L-388.8 198.77L-388.99 198.54L-389.19 198.32L-389.39 198.09L-389.58 197.86L-389.78 197.64L-389.98 197.41L-390.19 197.18L-390.39 196.95L-390.59 196.71L-390.8 196.48L-391.01 196.24L-391.21 196.01L-391.42 195.77L-392.41 194.62L-393.36 193.43L-394.27 192.23L-395.13 191L-395.96 189.75L-396.74 188.48L-397.47 187.19L-398.17 185.88L-398.82 184.56L-399.43 183.22L-399.99 181.86L-400.52 180.49L-401 179.11L-401.43 177.71L-401.83 176.3L-402.17 174.89L-402.48 173.46L-402.74 172.03L-402.96 170.59L-403.13 169.14L-403.26 167.69L-403.35 166.23L-403.39 164.78L-403.39 163.32L-403.34 161.86L-403.25 160.4L-403.11 158.95L-402.93 157.49L-402.7 156.04L-402.43 154.6L-402.11 153.16L-401.75 151.73L-401.34 150.31L-400.89 148.89L-400.39 147.49L-399.84 146.09L-399.25 144.71L-398.61 143.35L-397.93 141.99L-397.2 140.66L-400.89 147.17L-400.48 146.43L-400.09 145.67Z" id="aLZdyF5t"></path><path d="M181.36 300.2L208.36 251.82L296.7 470.99L181.36 523.42L181.36 300.2Z" id="e1k7yeFy6z"></path><path d="M339.2 749.3C351.2 746.78 364.72 737.5 379.76 721.44C391.2 709.22 397.84 693.47 399.7 674.17C400.71 663.6 399.61 652.92 396.46 642.85C394.77 637.43 397.41 645.91 396.46 642.85C391.21 626.05 378.06 613.44 361.84 609.65C359.68 609.14 355.21 608.94 348.41 609.03C317.74 609.45 310.43 631.68 303.05 646.19C295.68 660.7 295.61 673.71 298.4 697.8C300.26 713.86 313.87 731.03 339.2 749.3Z" id="cw1xhNKdD"></path><path d="M337.42 112.6L343.82 113.22L350.15 114.08L356.39 115.17L362.54 116.49L368.6 118.03L374.56 119.8L380.42 121.77L386.18 123.96L391.82 126.35L397.34 128.94L402.73 131.73L408 134.71L413.14 137.87L418.14 141.21L422.99 144.73L427.69 148.42L432.24 152.27L436.64 156.28L440.86 160.45L444.92 164.78L448.8 169.25L452.51 173.85L456.03 178.6L459.35 183.48L462.49 188.48L465.42 193.61L468.15 198.85L470.67 204.21L472.97 209.67L475.05 215.24L476.91 220.9L478.53 226.66L479.92 232.5L481.07 238.43L481.97 244.44L482.62 250.51L483.02 256.66L483.15 262.87L483.15 262.87L498.76 574.28L498.62 574.28L498.76 575.52L498.61 576.89L498.18 578.24L497.46 579.58L496.47 580.9L495.21 582.2L493.69 583.49L491.9 584.75L489.86 586L487.58 587.22L485.05 588.42L482.28 589.6L479.28 590.75L476.06 591.88L472.62 592.98L468.96 594.05L465.1 595.1L461.03 596.11L456.77 597.09L452.31 598.04L447.67 598.96L442.84 599.84L437.85 600.69L432.68 601.5L427.35 602.28L421.86 603.01L416.22 603.71L410.43 604.36L404.5 604.97L398.44 605.54L392.25 606.07L385.93 606.55L379.49 606.98L372.94 607.37L366.29 607.71L359.53 608L352.67 608.24L345.73 608.43L338.7 608.57L331.59 608.65L324.41 608.68L324.41 112.1L324.41 112.1L330.95 112.23L337.42 112.6Z" id="a4il9PGYET"></path><path d="M469.98 298.54L444.6 251.82L361.56 463.46L469.98 518.4L469.98 298.54Z" id="ciaJR7hM0"></path><path d="M320 911.73C189.7 911.73 83.91 810.91 83.91 686.73C83.91 562.55 189.7 461.73 320 461.73C450.3 461.73 556.09 562.55 556.09 686.73C556.09 810.91 450.3 911.73 320 911.73Z" id="c6JYhKBJC"></path><path d="M339.2 749.3C351.2 746.78 364.72 737.5 379.76 721.44C391.2 709.22 397.84 693.47 399.7 674.17C400.71 663.6 399.61 652.92 396.46 642.85C394.77 637.43 397.41 645.91 396.46 642.85C391.21 626.05 378.06 613.44 361.84 609.65C359.68 609.14 355.21 608.94 348.41 609.03C317.74 609.45 310.43 631.68 303.05 646.19C295.68 660.7 295.61 673.71 298.4 697.8C300.26 713.86 313.87 731.03 339.2 749.3Z" id="c2JuULHGr"></path><path d="M316.39 605.31C327.68 582.55 356.01 577.17 373.97 594.36C374.31 594.69 375.18 595.52 376.57 596.86C375.74 598.46 375.21 599.47 375 599.87C363.34 622.26 335.54 627.97 316.91 611.81C316.56 611.51 315.69 610.75 314.29 609.53C315.41 607.28 316.11 605.87 316.39 605.31Z" id="a2CcqCFXzT"></path><path d="M298.4 698.58C300.27 714.64 313.87 731.81 339.21 750.08C351.2 747.56 364.72 738.27 379.76 722.21C391.2 710 397.84 694.24 399.7 674.95C400.72 664.38 399.61 653.7 396.46 643.63C394.77 638.21 397.42 646.69 396.46 643.63C391.21 626.83 378.06 614.22 361.84 610.42C359.68 609.92 355.21 609.71 348.41 609.8C317.74 610.23 310.43 632.45 303.05 646.97C295.68 661.48 295.61 674.49 298.4 698.58Z" id="a1acTbfY1Q"></path><path d="M347.23 674.39C340.62 677.7 328.83 665.82 320.91 647.86C312.99 629.9 311.93 612.63 318.54 609.31C325.15 606 336.95 617.88 344.87 635.84C352.78 653.8 353.84 671.07 347.23 674.39Z" id="i3xnlqv7x"></path><path d="M330.9 613.21C320.87 622.59 321.71 621.81 319.38 623.99C299.42 642.66 268.43 637.12 255.28 612.53C254.85 611.74 253.78 609.74 252.07 606.55C254.26 604.09 255.62 602.54 256.17 601.93C274.49 581.23 305.55 581.88 323.1 603.33C324.69 605.28 322.81 602.98 330.92 612.89C331 612.99 330.99 613.13 330.9 613.21Z" id="b3sY5ajxZg"></path><path d="M354.72 679.68C355.98 701.32 351.87 722.93 342.81 742.33C342.33 743.37 341.13 745.95 339.2 750.08C310.53 747.21 289.2 737.75 275.23 721.68C254.27 697.6 251.66 671.69 253.82 654.04C254.47 648.83 255.84 644.21 257.96 640.18C263.35 629.95 271.61 621.78 281.59 616.84C286.64 614.34 293.14 612.91 301.08 612.56C323.26 611.57 332.6 621.4 346.49 646.44C351.18 654.91 353.93 665.99 354.72 679.68Z" id="d58CicJTta"></path><path d="M348.87 463.4L358.27 464.68L367.56 466.31L376.71 468.28L385.72 470.58L394.59 473.21L403.31 476.16L411.86 479.43L420.25 483L428.46 486.86L436.49 491.02L444.32 495.46L451.96 500.18L459.39 505.17L466.61 510.42L473.61 515.92L480.38 521.67L486.91 527.67L493.2 533.89L499.23 540.34L505.01 547.01L510.51 553.89L515.75 560.97L520.7 568.25L525.36 575.72L529.72 583.37L533.78 591.19L537.53 599.19L540.95 607.34L544.05 615.65L546.81 624.1L549.22 632.69L551.29 641.41L553 650.26L554.34 659.22L555.31 668.29L555.89 677.46L556.09 686.73L555.89 696L555.31 705.18L554.34 714.25L553 723.21L551.29 732.05L549.22 740.78L546.81 749.37L544.05 757.82L540.95 766.12L537.53 774.28L533.78 782.27L529.72 790.1L525.36 797.75L520.7 805.22L515.75 812.5L510.51 819.58L505.01 826.46L499.23 833.13L493.2 839.58L486.91 845.8L480.38 851.79L473.61 857.54L466.61 863.05L459.39 868.3L451.96 873.28L444.32 878L436.49 882.44L428.46 886.6L420.25 890.47L411.86 894.04L403.31 897.3L394.59 900.25L385.72 902.89L376.71 905.19L367.56 907.16L358.27 908.79L348.87 910.06L339.35 910.99L329.73 911.55L320 911.73L320 461.73L329.73 461.92L339.35 462.48L348.87 463.4Z" id="c15Vq6OvOQ"></path><path d="M326.07 549.44C289.86 549.44 260.46 520.05 260.46 483.84C260.46 447.63 289.86 418.23 326.07 418.23C362.28 418.23 391.67 447.63 391.67 483.84C391.67 520.05 362.28 549.44 326.07 549.44Z" id="b7n0gAKMo"></path><path d="M380.24 471.45L380.1 473.66L379.88 475.84L379.57 478L379.18 480.13L378.7 482.23L378.15 484.3L377.52 486.34L376.8 488.34L376.02 490.31L375.16 492.23L374.23 494.12L373.22 495.96L372.15 497.76L371.02 499.51L369.82 501.22L368.55 502.88L367.22 504.48L365.84 506.04L364.39 507.54L362.9 508.98L361.34 510.37L359.73 511.69L358.08 512.96L356.37 514.16L354.62 515.3L352.82 516.37L350.97 517.37L349.09 518.3L347.16 519.16L345.2 519.95L343.2 520.66L341.16 521.29L339.09 521.85L336.99 522.32L334.86 522.71L332.7 523.02L330.51 523.24L328.3 523.38L326.07 523.42L323.84 523.38L321.63 523.24L319.44 523.02L317.28 522.71L315.15 522.32L313.05 521.85L310.98 521.29L308.94 520.66L306.94 519.95L304.98 519.16L303.05 518.3L301.16 517.37L299.32 516.37L297.52 515.3L295.77 514.16L294.06 512.96L292.4 511.69L290.8 510.37L289.24 508.98L287.74 507.54L286.3 506.04L284.91 504.48L283.59 502.88L282.32 501.22L281.12 499.51L279.98 497.76L278.91 495.96L277.91 494.12L276.98 492.23L276.12 490.31L275.33 488.34L274.62 486.34L273.99 484.3L273.43 482.23L272.96 480.13L272.57 478L272.26 475.84L272.04 473.66L271.9 471.45L271.86 469.21L271.86 360.79L380.28 360.79L380.28 469.21L380.24 471.45Z" id="a2nsRQeJnQ"></path><path d="M380.1 473.66L379.88 475.84L379.57 478L379.18 480.13L378.7 482.23L378.15 484.3L377.52 486.34L376.8 488.34L376.02 490.31L375.16 492.23L374.23 494.12L373.22 495.96L372.15 497.76L371.02 499.51L369.82 501.22L368.55 502.88L367.22 504.49L365.84 506.04L364.39 507.54L362.9 508.98L361.34 510.37L359.73 511.69L358.08 512.96L356.37 514.16L354.62 515.3L352.82 516.37L350.97 517.37L349.09 518.3L347.16 519.16L345.2 519.95L343.2 520.66L341.16 521.29L339.09 521.85L336.99 522.32L334.86 522.71L332.7 523.02L330.51 523.24L328.3 523.38L326.08 523.42L271.86 432.97L271.86 432.97L380.28 401.6L380.28 469.21L380.24 471.45L380.1 473.66Z" id="h2hXSo3eUk"></path><path d="M446.44 251.93L447.74 252.07L449.04 252.25L450.31 252.49L451.57 252.79L452.8 253.13L454.02 253.52L455.21 253.95L456.39 254.43L457.53 254.96L458.66 255.53L459.75 256.14L460.82 256.8L461.86 257.49L462.87 258.23L463.85 259L464.8 259.81L465.72 260.66L466.6 261.54L467.44 262.46L468.25 263.41L469.03 264.39L469.76 265.4L470.46 266.44L471.11 267.51L471.73 268.6L472.3 269.73L472.83 270.87L473.31 272.04L473.74 273.24L474.13 274.45L474.47 275.69L474.76 276.95L475 278.22L475.19 279.51L475.33 280.82L475.41 282.15L475.44 283.48L475.41 284.82L475.33 286.15L475.19 287.45L475 288.75L474.76 290.02L474.47 291.28L474.13 292.51L473.74 293.73L473.31 294.93L472.83 296.1L472.3 297.24L471.73 298.37L471.11 299.46L470.46 300.53L469.76 301.57L469.03 302.58L468.25 303.56L467.44 304.51L466.6 305.43L465.72 306.31L464.8 307.16L463.85 307.97L462.87 308.74L461.86 309.47L460.82 310.17L459.75 310.83L458.66 311.44L457.53 312.01L456.39 312.54L455.21 313.02L454.02 313.45L452.8 313.84L451.57 314.18L450.31 314.47L449.04 314.72L447.74 314.9L446.44 315.04L445.11 315.12L443.77 315.15L442.44 315.12L441.11 315.04L439.8 314.9L438.51 314.72L437.24 314.47L435.98 314.18L434.74 313.84L433.53 313.45L432.33 313.02L431.16 312.54L430.01 312.01L428.89 311.44L427.8 310.83L426.73 310.17L425.69 309.47L424.68 308.74L423.7 307.97L422.75 307.16L421.83 306.31L420.95 305.43L420.1 304.51L419.29 303.56L418.52 302.58L417.78 301.57L417.09 300.53L416.43 299.46L415.82 298.37L415.25 297.24L414.72 296.1L414.24 294.93L413.8 293.73L413.42 292.51L413.07 291.28L412.78 290.02L412.54 288.75L412.35 287.45L412.22 286.15L412.13 284.82L412.11 283.48L412.13 282.15L412.22 280.82L412.35 279.51L412.54 278.22L412.78 276.95L413.07 275.69L413.42 274.45L413.8 273.24L414.24 272.04L414.72 270.87L415.25 269.73L415.82 268.6L416.43 267.51L417.09 266.44L417.78 265.4L418.52 264.39L419.29 263.41L420.1 262.46L420.95 261.54L421.83 260.66L422.75 259.81L423.7 259L424.68 258.23L425.69 257.49L426.73 256.8L427.8 256.14L428.89 255.53L430.01 254.96L431.16 254.43L432.33 253.95L433.53 253.52L434.74 253.13L435.98 252.79L437.24 252.49L438.51 252.25L439.8 252.07L441.11 251.93L442.44 251.85L443.77 251.82L445.11 251.85L446.44 251.93Z" id="b4EADwLiy"></path><path d="M211.03 251.93L212.33 252.07L213.63 252.25L214.9 252.49L216.16 252.79L217.39 253.13L218.61 253.52L219.8 253.95L220.98 254.43L222.11 254.96L223.25 255.53L224.34 256.14L225.41 256.8L226.45 257.49L227.46 258.23L228.44 259L229.39 259.81L230.31 260.66L231.19 261.54L232.03 262.46L232.84 263.41L233.61 264.39L234.35 265.4L235.05 266.44L235.7 267.51L236.32 268.6L236.89 269.73L237.42 270.87L237.9 272.04L238.33 273.24L238.72 274.45L239.06 275.69L239.35 276.95L239.59 278.22L239.78 279.51L239.92 280.82L240 282.15L240.03 283.48L240 284.82L239.92 286.15L239.78 287.45L239.59 288.75L239.35 290.02L239.06 291.28L238.72 292.51L238.33 293.73L237.9 294.93L237.42 296.1L236.89 297.24L236.32 298.37L235.7 299.46L235.05 300.53L234.35 301.57L233.61 302.58L232.84 303.56L232.03 304.51L231.19 305.43L230.31 306.31L229.39 307.16L228.44 307.97L227.46 308.74L226.45 309.47L225.41 310.17L224.34 310.83L223.25 311.44L222.11 312.01L220.98 312.54L219.8 313.02L218.61 313.45L217.39 313.84L216.16 314.18L214.9 314.47L213.63 314.72L212.33 314.9L211.03 315.04L209.7 315.12L208.36 315.15L207.03 315.12L205.7 315.04L204.39 314.9L203.1 314.72L201.83 314.47L200.57 314.18L199.33 313.84L198.11 313.45L196.92 313.02L195.75 312.54L194.6 312.01L193.48 311.44L192.39 310.83L191.32 310.17L190.28 309.47L189.27 308.74L188.29 307.97L187.34 307.16L186.42 306.31L185.54 305.43L184.69 304.51L183.88 303.56L183.11 302.58L182.36 301.57L181.68 300.53L181.02 299.46L180.41 298.37L179.84 297.24L179.31 296.1L178.83 294.93L178.39 293.73L178.01 292.51L177.66 291.28L177.36 290.02L177.13 288.75L176.94 287.45L176.81 286.15L176.72 284.82L176.7 283.48L176.72 282.15L176.81 280.82L176.94 279.51L177.13 278.22L177.36 276.95L177.66 275.69L178.01 274.45L178.39 273.24L178.83 272.04L179.31 270.87L179.84 269.73L180.41 268.6L181.02 267.51L181.68 266.44L182.36 265.4L183.11 264.39L183.88 263.41L184.69 262.46L185.54 261.54L186.42 260.66L187.34 259.81L188.29 259L189.27 258.23L190.28 257.49L191.32 256.8L192.39 256.14L193.48 255.53L194.6 254.96L195.75 254.43L196.92 253.95L198.11 253.52L199.33 253.13L200.57 252.79L201.83 252.49L203.1 252.25L204.39 252.07L205.7 251.93L207.03 251.85L208.36 251.82L209.7 251.85L211.03 251.93Z" id="c3qAG8sOk3"></path><path d="M442.9 336.09L442.23 341.13L441.38 346.1L440.35 351.01L439.15 355.84L437.77 360.59L436.23 365.26L434.52 369.84L432.65 374.33L430.63 378.73L428.45 383.04L426.13 387.24L423.66 391.33L421.05 395.31L418.3 399.18L415.43 402.93L412.42 406.55L409.28 410.05L406.03 413.42L402.65 416.65L399.16 419.75L395.56 422.7L391.86 425.5L388.05 428.16L384.14 430.65L380.14 432.99L376.05 435.17L371.87 437.17L367.6 439.01L363.26 440.67L358.83 442.15L354.34 443.44L349.78 444.55L345.15 445.46L340.46 446.18L335.72 446.7L330.92 447.02L326.07 447.12L321.22 447.02L316.42 446.7L311.68 446.18L306.99 445.46L302.36 444.55L297.8 443.44L293.3 442.15L288.88 440.67L284.54 439.01L280.27 437.17L276.09 435.17L272 432.99L267.99 430.65L264.09 428.16L260.28 425.5L256.57 422.7L252.97 419.75L249.49 416.65L246.11 413.42L242.85 410.05L239.72 406.55L236.71 402.93L233.83 399.18L231.09 395.31L228.48 391.33L226.01 387.24L223.69 383.04L221.51 378.73L219.49 374.33L217.62 369.84L215.91 365.26L214.37 360.59L212.99 355.84L211.79 351.01L210.76 346.1L209.91 341.13L209.24 336.09L208.75 330.99L208.46 325.83L208.36 320.62L208.36 246.35L208.46 241.14L208.75 235.98L209.24 230.88L209.91 225.84L210.76 220.87L211.79 215.96L212.99 211.13L214.37 206.38L215.91 201.71L217.62 197.13L219.49 192.63L221.51 188.24L223.69 183.93L226.01 179.73L228.48 175.64L231.09 171.66L233.83 167.79L236.71 164.04L239.72 160.42L242.85 156.92L246.11 153.55L249.49 150.31L252.97 147.22L256.57 144.27L260.28 141.47L264.09 138.81L267.99 136.31L272 133.98L276.09 131.8L280.27 129.8L284.54 127.96L288.88 126.3L293.3 124.82L297.8 123.53L302.36 122.42L306.99 121.51L311.68 120.79L316.42 120.27L321.22 119.95L326.07 119.85L330.92 119.95L335.72 120.27L340.46 120.79L345.15 121.51L349.78 122.42L354.34 123.53L358.83 124.82L363.26 126.3L367.6 127.96L371.87 129.8L376.05 131.8L380.14 133.98L384.14 136.31L388.05 138.81L391.86 141.47L395.56 144.27L399.16 147.22L402.65 150.31L406.03 153.55L409.28 156.92L412.42 160.42L415.43 164.04L418.3 167.79L421.05 171.66L423.66 175.64L426.13 179.73L428.45 183.93L430.63 188.24L432.65 192.63L434.52 197.13L436.23 201.71L437.77 206.38L439.15 211.13L440.35 215.96L441.38 220.87L442.23 225.84L442.9 230.88L443.38 235.98L443.68 241.14L443.77 246.35L443.77 320.62L443.68 325.83L443.38 330.99L442.9 336.09Z" id="d9abdD9rK"></path><path d="M340.46 120.79L345.15 121.51L349.78 122.42L354.34 123.53L358.83 124.82L363.26 126.3L367.6 127.96L371.87 129.8L376.05 131.8L380.14 133.98L384.14 136.31L388.05 138.81L391.86 141.47L395.56 144.27L399.16 147.22L402.65 150.31L406.03 153.55L409.28 156.92L412.42 160.42L415.43 164.04L418.3 167.79L421.05 171.66L423.66 175.64L426.13 179.73L428.45 183.93L430.63 188.24L432.65 192.63L434.52 197.13L436.23 201.71L437.77 206.38L439.15 211.13L440.35 215.96L441.38 220.87L442.23 225.84L442.9 230.88L443.38 235.98L443.68 241.14L443.77 246.35L443.77 320.62L443.68 325.83L443.38 330.99L442.9 336.09L442.23 341.13L441.38 346.1L440.35 351.01L439.15 355.84L437.77 360.59L436.23 365.26L434.52 369.84L432.65 374.33L430.63 378.73L428.45 383.04L426.13 387.24L423.66 391.33L421.05 395.31L418.3 399.18L415.43 402.93L412.42 406.55L409.28 410.05L406.03 413.42L402.65 416.65L399.16 419.75L395.56 422.7L391.86 425.5L388.05 428.16L384.14 430.65L380.14 432.99L376.05 435.17L371.87 437.17L367.6 439.01L363.26 440.67L358.83 442.15L354.34 443.44L349.78 444.55L345.15 445.46L340.46 446.18L335.72 446.7L330.92 447.02L326.07 447.12L326.07 119.85L330.92 119.95L335.72 120.27L340.46 120.79Z" id="b1GVpWUEFc"></path><path d="M325.31 112.54L325.38 112.55L325.38 175.66L325.31 175.66L323.65 175.74L321.98 175.77L320.3 175.74L318.64 175.66L317 175.53L315.38 175.35L313.79 175.12L312.21 174.85L310.66 174.52L309.13 174.15L308.03 173.85L307.93 174.05L306.91 176.03L305.85 177.98L304.76 179.9L303.64 181.8L302.48 183.67L301.28 185.51L300.05 187.33L298.79 189.12L297.49 190.89L296.16 192.63L294.79 194.34L293.38 196.03L291.95 197.69L290.47 199.32L288.96 200.93L287.42 202.52L285.85 204.08L284.26 205.63L282.64 207.15L281 208.66L279.34 210.16L277.65 211.64L275.95 213.1L274.22 214.54L272.47 215.97L270.69 217.38L268.9 218.77L267.08 220.15L265.24 221.51L263.37 222.85L261.48 224.17L259.57 225.48L257.64 226.77L255.69 228.05L253.71 229.31L251.71 230.55L249.69 231.77L247.65 232.98L245.58 234.17L243.49 235.34L241.38 236.5L239.24 237.64L237.09 238.76L234.91 239.87L232.71 240.96L230.48 242.03L228.24 243.08L225.97 244.12L223.67 245.14L221.36 246.15L219.02 247.14L216.66 248.11L214.28 249.06L211.88 250L209.45 250.92L207 251.82L206.79 248.28L206.63 244.78L206.51 241.34L206.43 237.94L206.4 234.6L206.42 231.3L206.48 228.06L206.58 224.86L206.73 221.72L206.92 218.62L207.16 215.58L207.45 212.58L207.77 209.64L208.15 206.74L208.56 203.9L209.03 201.1L209.53 198.36L210.09 195.66L210.68 193.02L211.33 190.42L212.01 187.88L212.74 185.38L213.52 182.94L214.34 180.54L215.21 178.2L216.12 175.9L217.07 173.66L218.07 171.46L219.12 169.32L220.21 167.22L221.34 165.18L222.52 163.18L223.75 161.23L225.02 159.34L226.33 157.49L227.69 155.7L229.09 153.95L230.54 152.26L232.03 150.61L233.57 149.02L235.15 147.47L236.76 145.96L238.4 144.49L240.07 143.06L241.78 141.67L243.52 140.33L245.29 139.02L247.1 137.76L248.93 136.54L250.8 135.35L252.7 134.21L254.64 133.11L256.6 132.05L258.6 131.03L260.63 130.05L262.7 129.11L264.79 128.22L266.92 127.36L269.08 126.55L271.28 125.77L273.5 125.04L275.76 124.34L278.05 123.69L280.38 123.08L282.73 122.51L285.12 121.98L287.54 121.49L290 121.04L292.48 120.64L295 120.27L295.27 120.24L295.52 120.06L296.72 119.29L297.97 118.55L299.25 117.85L300.56 117.18L301.91 116.56L303.3 115.97L304.71 115.43L306.15 114.93L307.63 114.47L309.13 114.05L310.66 113.68L312.21 113.36L313.79 113.08L315.38 112.85L317 112.67L318.64 112.54L320.3 112.46L321.98 112.44L323.65 112.46L325.31 112.54Z" id="fMzSj5W7"></path><path d="M332.01 112.56L333.65 112.69L335.28 112.87L336.88 113.11L338.46 113.39L340.02 113.72L341.55 114.09L343.05 114.51L344.53 114.97L345.98 115.48L347.4 116.03L348.79 116.62L350.14 117.25L351.46 117.91L352.74 118.62L353.99 119.36L355.2 120.14L355.45 120.32L355.72 120.35L358.24 120.72L360.74 121.14L363.19 121.59L365.62 122.09L368.02 122.62L370.38 123.2L372.71 123.82L375.01 124.47L377.27 125.17L379.5 125.91L381.71 126.69L383.87 127.52L386.01 128.38L388.11 129.28L390.18 130.23L392.22 131.21L394.22 132.24L396.2 133.3L398.14 134.41L400.05 135.56L401.92 136.75L403.76 137.98L405.57 139.25L407.35 140.56L409.1 141.91L410.81 143.31L412.49 144.74L414.14 146.22L415.76 147.73L417.34 149.29L418.88 150.89L420.38 152.54L421.84 154.24L423.25 155.99L424.62 157.79L425.94 159.64L427.22 161.54L428.45 163.48L429.64 165.48L430.78 167.53L431.88 169.62L432.93 171.76L433.94 173.96L434.91 176.2L435.83 178.49L436.71 180.83L437.54 183.23L438.32 185.67L439.07 188.15L439.76 190.69L440.42 193.28L441.03 195.92L441.59 198.61L442.11 201.34L442.59 204.13L443.02 206.96L443.4 209.84L443.74 212.78L444.04 215.76L444.29 218.79L444.5 221.87L444.66 225L444.78 228.18L444.86 231.41L444.89 234.69L444.87 238.02L444.81 241.39L444.71 244.82L444.56 248.3L444.36 251.82L441.9 250.94L439.46 250.04L437.04 249.12L434.64 248.18L432.26 247.23L429.91 246.26L427.58 245.27L425.28 244.26L422.99 243.24L420.73 242.2L418.5 241.14L416.28 240.06L414.09 238.97L411.92 237.86L409.77 236.73L407.65 235.58L405.55 234.42L403.47 233.24L401.41 232.04L399.38 230.82L397.37 229.58L395.38 228.33L393.41 227.06L391.47 225.78L389.55 224.47L387.66 223.15L385.78 221.81L383.93 220.45L382.1 219.08L380.3 217.68L378.51 216.27L376.75 214.85L375.02 213.4L373.3 211.94L371.61 210.46L369.94 208.96L368.29 207.44L366.67 205.91L365.07 204.36L363.49 202.79L361.94 201.2L360.42 199.58L358.95 197.94L357.5 196.27L356.09 194.58L354.71 192.86L353.37 191.11L352.07 189.34L350.8 187.54L349.56 185.72L348.36 183.87L347.19 181.99L346.06 180.09L344.97 178.16L343.9 176.2L342.88 174.22L342.78 174.02L341.68 174.32L340.15 174.69L338.59 175.01L337.01 175.28L335.41 175.51L333.79 175.68L332.14 175.81L330.48 175.89L328.8 175.91L327.13 175.88L325.46 175.8L325.4 175.79L325.26 112.55L325.33 112.54L326.99 112.47L328.67 112.44L330.35 112.47L332.01 112.56Z" id="b5Y1Q0v31"></path></defs><g><g><g><use xlink:href="#a1TRR4VkT4" opacity="1" fill="#ef9a9a" fill-opacity="1"></use></g><g><use xlink:href="#a1Rg1mGGW" opacity="1" fill="#da8686" fill-opacity="1"></use></g><g><use xlink:href="#aLZdyF5t" opacity="1" fill="#da8686" fill-opacity="1"></use></g><g><use xlink:href="#e1k7yeFy6z" opacity="1" fill="#000000" fill-opacity="0.13"></use></g><g><use xlink:href="#cw1xhNKdD" opacity="1" fill="#ff9386" fill-opacity="1"></use><g><use xlink:href="#cw1xhNKdD" opacity="1" fill-opacity="0" stroke="#000000" stroke-width="1" stroke-opacity="0"></use></g></g><g><use xlink:href="#a4il9PGYET" opacity="1" fill="#ef9a9a" fill-opacity="1"></use></g><g><use xlink:href="#ciaJR7hM0" opacity="1" fill="#000000" fill-opacity="0.13"></use></g><g><use xlink:href="#c6JYhKBJC" opacity="1" fill="#ecdf9e" fill-opacity="1"></use><g><use xlink:href="#c6JYhKBJC" opacity="1" fill-opacity="0" stroke="#000000" stroke-width="1" stroke-opacity="0"></use></g></g><g><use xlink:href="#c2JuULHGr" opacity="1" fill="#000000" fill-opacity="0"></use><g><use xlink:href="#c2JuULHGr" opacity="1" fill-opacity="0" stroke="#000000" stroke-width="1" stroke-opacity="0"></use></g></g><g><use xlink:href="#a2CcqCFXzT" opacity="1" fill="#93b682" fill-opacity="1"></use><g><use xlink:href="#a2CcqCFXzT" opacity="1" fill-opacity="0" stroke="#000000" stroke-width="1" stroke-opacity="0"></use></g></g><g><use xlink:href="#a1acTbfY1Q" opacity="1" fill="#ff9386" fill-opacity="1"></use><g><use xlink:href="#a1acTbfY1Q" opacity="1" fill-opacity="0" stroke="#000000" stroke-width="1" stroke-opacity="0"></use></g></g><g><use xlink:href="#i3xnlqv7x" opacity="1" fill="#b8645a" fill-opacity="1"></use><g><use xlink:href="#i3xnlqv7x" opacity="1" fill-opacity="0" stroke="#000000" stroke-width="1" stroke-opacity="0"></use></g></g><g><use xlink:href="#b3sY5ajxZg" opacity="1" fill="#b0d69e" fill-opacity="1"></use><g><use xlink:href="#b3sY5ajxZg" opacity="1" fill-opacity="0" stroke="#000000" stroke-width="1" stroke-opacity="0"></use></g></g><g><use xlink:href="#d58CicJTta" opacity="1" fill="#ffa99c" fill-opacity="1"></use><g><use xlink:href="#d58CicJTta" opacity="1" fill-opacity="0" stroke="#000000" stroke-width="1" stroke-opacity="0"></use></g></g><g><use xlink:href="#c15Vq6OvOQ" opacity="1" fill="#000000" fill-opacity="0.13"></use><g><use xlink:href="#c15Vq6OvOQ" opacity="1" fill-opacity="0" stroke="#000000" stroke-width="1" stroke-opacity="0"></use></g></g><g><use xlink:href="#b7n0gAKMo" opacity="1" fill="#ececec" fill-opacity="1"></use><g><use xlink:href="#b7n0gAKMo" opacity="1" fill-opacity="0" stroke="#000000" stroke-width="1" stroke-opacity="0"></use></g></g><g><use xlink:href="#a2nsRQeJnQ" opacity="1" fill="#ecb69e" fill-opacity="1"></use><g><use xlink:href="#a2nsRQeJnQ" opacity="1" fill-opacity="0" stroke="#000000" stroke-width="1" stroke-opacity="0"></use></g></g><g><use xlink:href="#h2hXSo3eUk" opacity="1" fill="#000000" fill-opacity="0.13"></use><g><use xlink:href="#h2hXSo3eUk" opacity="1" fill-opacity="0" stroke="#000000" stroke-width="1" stroke-opacity="0"></use></g></g><g><use xlink:href="#b4EADwLiy" opacity="1" fill="#ecb69e" fill-opacity="1"></use><g><use xlink:href="#b4EADwLiy" opacity="1" fill-opacity="0" stroke="#000000" stroke-width="1" stroke-opacity="0"></use></g></g><g><use xlink:href="#c3qAG8sOk3" opacity="1" fill="#ecb69e" fill-opacity="1"></use><g><use xlink:href="#c3qAG8sOk3" opacity="1" fill-opacity="0" stroke="#000000" stroke-width="1" stroke-opacity="0"></use></g></g><g><use xlink:href="#d9abdD9rK" opacity="1" fill="#ffcbad" fill-opacity="1"></use><g><use xlink:href="#d9abdD9rK" opacity="1" fill-opacity="0" stroke="#000000" stroke-width="1" stroke-opacity="0"></use></g></g><g><use xlink:href="#b1GVpWUEFc" opacity="1" fill="#000000" fill-opacity="0.04"></use><g><use xlink:href="#b1GVpWUEFc" opacity="1" fill-opacity="0" stroke="#000000" stroke-width="1" stroke-opacity="0"></use></g></g><g><use xlink:href="#fMzSj5W7" opacity="1" fill="#da8686" fill-opacity="1"></use></g><g><use xlink:href="#b5Y1Q0v31" opacity="1" fill="#ef9a9a" fill-opacity="1"></use></g></g></g></svg>