<?xml version="1.0" encoding="UTF-8" standalone="no"?>
<!DOCTYPE svg PUBLIC "-//W3C//DTD SVG 1.1//EN" "http://www.w3.org/Graphics/SVG/1.1/DTD/svg11.dtd">
<svg version="1.1" xmlns="http://www.w3.org/2000/svg" xmlns:xlink="http://www.w3.org/1999/xlink" preserveAspectRatio="xMidYMid meet" viewBox="0 0 640 640" width="640" height="640"><defs><path d="M298.52 144.66C334.23 77.18 423.85 61.21 480.68 112.2C481.77 113.19 484.52 115.65 488.92 119.6C486.27 124.37 484.61 127.35 483.95 128.54C447.05 194.94 359.11 211.89 300.18 163.95C299.07 163.05 296.31 160.8 291.88 157.2C295.42 150.51 297.63 146.33 298.52 144.66Z" id="j8dUe9gged"></path><path d="M336.47 188.65C359.41 201.47 386.58 204.26 417.98 197.01L454.89 163.45C458.2 160.81 461.26 158.03 464.07 155.1C466.89 152.18 469.58 149.18 472.15 146.09C449.76 138.98 428.53 135.21 408.46 134.81C388.39 134.4 369.35 137.29 351.35 143.48L316.2 119.48L303.69 134.52C302.6 157.78 313.53 175.83 336.47 188.65Z" id="bu4PqwD7E"></path><path d="M241.62 421.29C247.51 468.92 290.54 519.83 370.7 574.01C408.65 566.55 451.41 539.01 498.99 491.38C535.18 455.15 556.21 408.43 562.08 351.2C565.29 319.86 561.8 288.19 551.83 258.31C546.47 242.24 554.85 267.38 551.83 258.31C535.21 208.49 493.61 171.09 442.32 159.84C435.48 158.34 421.32 157.73 399.83 158C302.79 159.26 279.67 225.17 256.33 268.22C233 311.26 232.78 349.84 241.62 421.29Z" id="g106I3j9mE"></path><path d="M400.39 349.54C379.47 359.37 342.17 324.12 317.12 270.86C292.08 217.6 288.73 166.37 309.64 156.54C330.55 146.71 367.86 181.96 392.91 235.23C417.95 288.49 421.3 339.71 400.39 349.54Z" id="aBsdimTtc"></path><path d="M344.44 168.11C312.7 195.93 315.36 193.6 307.97 200.08C244.83 255.44 146.81 239.01 105.18 166.09C103.83 163.73 100.45 157.82 95.05 148.36C101.96 141.05 106.28 136.47 108.01 134.64C165.97 73.25 264.23 75.18 319.74 138.79C324.78 144.57 318.83 137.75 344.5 167.16C344.74 167.44 344.71 167.87 344.44 168.11Z" id="e2ODapH8v"></path><path d="M127 194.62C132.64 200.28 138.88 205.44 145.73 210.12L320.44 187.69L325.54 184.73L344.66 167.97C343.12 166.24 341.75 164.92 340.55 164.01C267.1 108.12 190.8 112.24 111.65 176.37C116.25 182.88 121.37 188.96 127 194.62Z" id="b1ZkS0O6ur"></path><path d="M419.79 365.29C423.76 429.46 410.77 493.55 382.11 551.1C380.59 554.16 376.78 561.81 370.69 574.06C279.97 565.56 212.51 537.49 168.31 489.86C102.01 418.42 93.73 341.59 100.59 289.25C102.62 273.78 106.98 260.08 113.68 248.15C130.72 217.8 156.87 193.58 188.44 178.91C204.42 171.49 224.97 167.26 250.1 166.21C320.25 163.3 349.79 192.44 393.73 266.7C408.58 291.81 417.27 324.68 419.79 365.29Z" id="d2ZooyQFcQ"></path></defs><g visibility="inherit"><g visibility="inherit"><g visibility="inherit"><use xlink:href="#j8dUe9gged" opacity="1" fill="#93b682" fill-opacity="1"></use><g><use xlink:href="#j8dUe9gged" opacity="1" fill-opacity="0" stroke="#000000" stroke-width="1" stroke-opacity="0"></use></g></g><g visibility="inherit"><use xlink:href="#bu4PqwD7E" opacity="1" fill="#25321f" fill-opacity="0.27"></use></g><g visibility="inherit"><use xlink:href="#g106I3j9mE" opacity="1" fill="#ff9386" fill-opacity="1"></use><g><use xlink:href="#g106I3j9mE" opacity="1" fill-opacity="0" stroke="#000000" stroke-width="1" stroke-opacity="0"></use></g></g><g visibility="inherit"><use xlink:href="#aBsdimTtc" opacity="1" fill="#b8645a" fill-opacity="1"></use><g><use xlink:href="#aBsdimTtc" opacity="1" fill-opacity="0" stroke="#000000" stroke-width="1" stroke-opacity="0"></use></g></g><g visibility="inherit"><use xlink:href="#e2ODapH8v" opacity="1" fill="#b0d69e" fill-opacity="1"></use><g><use xlink:href="#e2ODapH8v" opacity="1" fill-opacity="0" stroke="#000000" stroke-width="1" stroke-opacity="0"></use></g></g><g visibility="inherit"><use xlink:href="#b1ZkS0O6ur" opacity="1" fill="#25321f" fill-opacity="0.27"></use></g><g visibility="inherit"><use xlink:href="#d2ZooyQFcQ" opacity="1" fill="#ffa99c" fill-opacity="1"></use><g><use xlink:href="#d2ZooyQFcQ" opacity="1" fill-opacity="0" stroke="#000000" stroke-width="1" stroke-opacity="0"></use></g></g><path visibility="inherit"></path></g></g></svg>