<?xml version="1.0" encoding="UTF-8" standalone="no"?>
<!DOCTYPE svg PUBLIC "-//W3C//DTD SVG 1.1//EN" "http://www.w3.org/Graphics/SVG/1.1/DTD/svg11.dtd">
<svg version="1.1" xmlns="http://www.w3.org/2000/svg" xmlns:xlink="http://www.w3.org/1999/xlink" preserveAspectRatio="xMidYMid meet" viewBox="0 0 640 640" width="640" height="640"><defs><path d="M371.55 446.15C433.45 444.67 479.33 446.72 509.19 452.29C553.97 460.66 554.69 472.11 550.69 479.61C548.02 484.61 540.11 488.12 526.96 490.15C521.15 490.69 517.51 491.03 516.06 491.17C509.07 491.82 502.03 491.77 495.06 491.02C489.76 490.44 487.15 490.16 482.56 489.66C473.33 488.67 464.01 489.75 455.26 492.82C450.52 494.49 457.92 491.89 455.26 492.82C439.56 498.33 423.05 501.15 406.42 501.15C406.42 501.15 406.42 501.15 406.42 501.15L400.55 487.15L389.55 483.15L379.55 481.15L365.55 481.15L352.55 483.15L337.55 484.15L326.55 483.15L319.55 471.15L319.55 459.15L328.55 448.15L346.55 445.15L359.55 445.15" id="a2gq51pi7L"></path><radialGradient id="gradientlPzP5m76i" gradientUnits="userSpaceOnUse" cx="420.44" cy="461.18" r="130.7"><stop style="stop-color: #ff7d6e;stop-opacity: 1" offset="0%"></stop><stop style="stop-color: #ffa99c;stop-opacity: 1" offset="100%"></stop></radialGradient><path d="M326.15 184.08L366.56 93.41L374.44 85.52L389.22 82.57L400.06 82.57L408.93 87.5L471.7 140.03" id="ageBrFwEG"></path><path d="M247.07 138.67L414.98 150.49L417.57 514.14L247.07 525.97L247.07 138.67Z" id="c3Kxi8QDvT"></path><path d="M192.87 148.52L247.07 138.67L247.07 525.97L195.83 506.26L192.87 148.52Z" id="b2Qd0DOCQk"></path><path d="M258.13 163.8L404.25 174.09L406.5 490.55L258.13 500.84L258.13 163.8Z" id="k1UXgcHQEX"></path><path d="M267.44 288.24L398.07 294.44L400.08 485.07L267.44 491.27L267.44 288.24Z" id="h4oMmp5Enb"></path><path d="M347.1 337.16C347.33 337.28 347.91 337.56 348.85 338.02C348.72 339.2 348.64 339.94 348.61 340.24C346.85 356.7 334 367.11 321.76 361.99C321.53 361.9 320.95 361.66 320.03 361.27C320.18 359.63 320.28 358.6 320.31 358.19C321.82 341.61 335 331.26 347.1 337.16Z" id="a6TS4ozJH"></path><path d="M342.39 359.42C342.77 358.44 345.78 350.63 346.16 349.66C346.52 348.86 346.84 348.05 347.1 347.23C347.37 346.41 347.61 345.58 347.82 344.75C343.85 345.07 340.27 345.98 337.07 347.49C333.88 348.99 331.05 351.09 328.59 353.77C328.12 353.63 325.78 352.93 321.56 351.66C320.93 354.09 320.58 355.44 320.51 355.72C321.76 360.54 324.59 363.36 329 364.16C333.41 364.96 337.87 363.38 342.39 359.42Z" id="h1CED9uvx"></path><path d="M358.01 439.91C363.55 435.39 368.62 426.39 373.22 412.91C376.71 402.66 377.17 391.47 374.59 379.34C373.18 372.69 370.69 366.51 367.28 361.2C365.45 358.35 368.32 362.81 367.28 361.2C361.61 352.36 352.75 348.02 343.96 349.78C342.78 350.02 340.51 351.01 337.13 352.77C321.88 360.7 322.27 375.97 321.22 386.6C320.17 397.22 322.5 405.1 328.27 418.98C332.12 428.22 342.03 435.2 358.01 439.91Z" id="f1O849kHq1"></path><path d="M330.98 382.46C323.76 373.58 320.1 363.39 322.8 359.74C325.5 356.08 333.55 360.31 340.77 369.2C347.99 378.08 351.65 388.26 348.95 391.92C346.25 395.58 338.2 391.34 330.98 382.46Z" id="b3e543LBpH"></path><path d="M325.2 368.75C318.62 385.03 302.13 389.43 291.09 377.85C290.73 377.48 289.84 376.54 288.4 375.04C289.05 373 289.45 371.73 289.61 371.22C295 354.11 310.64 346.73 323.31 355.32C324.46 356.1 323.1 355.18 328.95 359.14C329.01 359.18 329.03 359.27 329 359.34C325.69 367.53 325.97 366.84 325.2 368.75Z" id="g772ggft3"></path><path d="M300.19 383.63C301.94 382.4 310.68 376.27 326.41 365.23L327.04 364.23C328.23 361.27 328.9 359.62 329.03 359.3C328.68 359.07 328.38 358.9 328.14 358.81C313.11 353.23 301.31 360.1 292.74 379.44C293.87 380.4 295.05 381.24 296.28 381.95C297.52 382.65 298.82 383.21 300.19 383.63Z" id="b1nX4KpBCV"></path><path d="M358.46 434.62C358.41 435.36 358.27 437.22 358.06 440.2C343.21 445.65 330.84 445.26 320.94 439.04C306.09 429.71 300.08 414.7 297.95 403.49C297.33 400.17 297.18 397.03 297.5 394.07C298.34 386.53 300.98 379.52 305.07 374.04C307.14 371.26 310.13 368.77 314.03 366.57C324.93 360.43 331.38 364.03 342.87 375.7C346.76 379.65 350.14 385.66 353.03 393.75C357.59 406.52 359.46 420.62 358.46 434.62Z" id="aGdAkDhSB"></path><path d="M370.24 78.32L388.36 74.51L390.31 90.4L378.61 92.94L370.24 78.32Z" id="h8t9hGPYb"></path><path d="M402.06 74.51L413.06 80.45L404.25 94.02L397.99 90.68L402.06 74.51Z" id="a4nZfNA4n"></path><path d="M474.56 142.28C471.75 145.69 468.19 147.4 466.61 146.1C465.04 144.8 466.04 140.98 468.85 137.57C471.66 134.17 475.22 132.46 476.8 133.76C478.37 135.06 477.37 138.88 474.56 142.28Z" id="b1b4RPCnla"></path><path d="M474.13 158.21C474.13 163.7 470.94 168.14 467.01 168.14C463.09 168.14 459.9 163.7 459.9 158.21C459.9 152.73 463.09 148.29 467.01 139.93C470.94 148.29 474.13 152.73 474.13 158.21Z" id="b2Mvzb6Z3T"></path><path d="M474.13 197.9C474.13 203.38 470.94 207.83 467.01 207.83C463.09 207.83 459.9 203.38 459.9 197.9C459.9 192.42 463.09 187.97 467.01 179.62C470.94 187.97 474.13 192.42 474.13 197.9Z" id="fI7Vep9l"></path><path d="M474.13 239.34C474.13 244.82 470.94 249.26 467.01 249.26C463.09 249.26 459.9 244.82 459.9 239.34C459.9 233.86 463.09 229.41 467.01 221.05C470.94 229.41 474.13 233.86 474.13 239.34Z" id="goU268QNk"></path><path d="M474.13 281.06C474.13 286.54 470.94 290.99 467.01 290.99C463.09 290.99 459.9 286.54 459.9 281.06C459.9 275.58 463.09 271.13 467.01 262.77C470.94 271.13 474.13 275.58 474.13 281.06Z" id="apl6wTpOJ"></path><radialGradient id="gradientalZRuCgBL" gradientUnits="userSpaceOnUse" cx="467.79" cy="269.58" r="28.21"><stop style="stop-color: #ffa497;stop-opacity: 1" offset="0%"></stop><stop style="stop-color: #ff9386;stop-opacity: 1" offset="100%"></stop></radialGradient><path d="M296.69 239.66C296.64 245.59 292.45 250.38 287.34 250.34C282.23 250.3 278.13 245.44 278.18 239.5C278.21 235.55 281.35 228.23 287.61 217.57C293.69 228.34 296.72 235.7 296.69 239.66Z" id="g5SWb29YPJ"></path><path d="M352.16 231.58C354.91 231.73 357.03 234.09 356.87 236.84C356.8 238.16 356.86 237.11 356.79 238.42C356.65 240.99 354.17 242.77 351.69 242.09C345.77 240.47 339.96 239.5 334.24 239.19C328.59 238.88 322.99 239.2 317.44 240.15C314.92 240.58 312.65 238.55 312.79 236C312.86 234.68 312.8 235.73 312.87 234.42C313.03 231.66 315.38 229.55 318.14 229.7C325.94 230.13 344.36 231.15 352.16 231.58Z" id="c4IFuPDoSl"></path><path d="M300.91 210.58C306.66 209.7 312.43 206.93 318.2 202.27C319.92 200.87 322.51 201.88 322.84 204.07C323.04 205.37 322.88 204.33 323.08 205.63C323.54 208.65 322.23 211.67 319.71 213.4C317 215.26 314.29 216.74 311.58 217.82C308.69 218.99 305.75 219.8 302.77 220.25C297.11 221.12 291.2 220.6 285.05 218.69C282.13 217.79 279.98 215.3 279.52 212.27C279.32 210.97 279.48 212.01 279.28 210.71C278.95 208.57 281.12 206.91 283.1 207.78C289.3 210.51 295.24 211.44 300.91 210.58Z" id="af1zj1O5J"></path><path d="M960.41 252.82C959.99 251.06 972.45 250.98 980.25 245.81C984.12 243.25 987.15 240.01 989.36 236.1C990.21 234.6 992.45 234.85 992.95 236.5C993.3 237.65 993.02 236.73 993.37 237.89C994.2 240.61 993.55 243.56 991.66 245.69C988.33 249.45 984.53 251.99 980.25 253.3C971.68 255.94 960.84 254.57 960.41 252.82Z" id="b5yrCpInF"></path><path d="M1087.93 257.28C1088.36 255.52 1075.89 255.44 1068.09 250.27C1064.23 247.71 1061.19 244.47 1058.98 240.56C1058.13 239.06 1055.9 239.31 1055.4 240.96C1055.05 242.11 1055.33 241.19 1054.97 242.35C1054.15 245.07 1054.79 248.02 1056.68 250.15C1060.01 253.91 1063.82 256.44 1068.09 257.76C1076.66 260.4 1087.51 259.03 1087.93 257.28Z" id="ejuwLP3IW"></path><path d="M195.82 506.25L229.38 141.94L247.07 138.67L247.07 525.93L195.82 506.25Z" id="b1UtZXo0Az"></path><path d="M368.4 215.09C373.92 216.78 380.05 216.76 386.82 215.03C388.94 214.49 390.84 216.48 390.2 218.58C389.81 219.84 390.12 218.83 389.73 220.09C388.84 223.01 386.35 225.16 383.32 225.63C380.07 226.12 376.99 226.28 374.08 226.08C370.97 225.88 367.97 225.33 365.09 224.45C361.51 223.35 358.11 221.73 354.9 219.58C353.14 218.41 351.42 217.02 349.74 215.41C347.53 213.28 346.7 210.1 347.6 207.17C347.99 205.91 347.68 206.91 348.07 205.65C348.71 203.55 351.41 202.95 352.89 204.58C357.69 209.89 362.86 213.39 368.4 215.09Z" id="cb108UfeU"></path><path d="M304.54 158.95C307.48 157.93 310.7 159.49 311.72 162.44C312.09 163.51 311.35 161.37 311.72 162.44C312.74 165.39 311.18 168.6 308.23 169.62C300.28 172.38 281.76 178.79 273.8 181.54C270.86 182.56 267.64 181 266.62 178.06C266.25 176.99 266.99 179.12 266.62 178.06C265.6 175.11 267.16 171.9 270.11 170.87C278.06 168.12 296.58 161.71 304.54 158.95Z" id="j28HidKUnJ"></path><path d="M397.22 180.04C399.96 181.53 400.97 184.96 399.48 187.69C398.94 188.69 400.02 186.7 399.48 187.69C397.99 190.43 394.56 191.44 391.82 189.95C384.43 185.92 367.22 176.55 359.83 172.52C357.09 171.03 356.08 167.6 357.57 164.86C358.11 163.87 357.03 165.85 357.57 164.86C359.06 162.12 362.49 161.11 365.23 162.61C372.62 166.63 389.83 176.01 397.22 180.04Z" id="alnMiIkZZ"></path></defs><g><g><g><use xlink:href="#a2gq51pi7L" opacity="1" fill="url(#gradientlPzP5m76i)"></use></g><g><g><use xlink:href="#ageBrFwEG" opacity="1" fill-opacity="0" stroke="#dadada" stroke-width="16" stroke-opacity="1"></use></g></g><g><use xlink:href="#c3Kxi8QDvT" opacity="1" fill="#7c97eb" fill-opacity="1"></use></g><g><use xlink:href="#b2Qd0DOCQk" opacity="1" fill="#2d448b" fill-opacity="1"></use></g><g><use xlink:href="#k1UXgcHQEX" opacity="1" fill="#f5a56e" fill-opacity="1"></use></g><g><use xlink:href="#h4oMmp5Enb" opacity="1" fill="#f45d5d" fill-opacity="1.00"></use></g><g><use xlink:href="#a6TS4ozJH" opacity="1" fill="#93b682" fill-opacity="1"></use><g><use xlink:href="#a6TS4ozJH" opacity="1" fill-opacity="0" stroke="#000000" stroke-width="1" stroke-opacity="0"></use></g></g><g><use xlink:href="#h1CED9uvx" opacity="1" fill="#25321f" fill-opacity="0.27"></use><g><use xlink:href="#h1CED9uvx" opacity="1" fill-opacity="0" stroke="#000000" stroke-width="1" stroke-opacity="0"></use></g></g><g><use xlink:href="#f1O849kHq1" opacity="1" fill="#ff9386" fill-opacity="1"></use><g><use xlink:href="#f1O849kHq1" opacity="1" fill-opacity="0" stroke="#000000" stroke-width="1" stroke-opacity="0"></use></g></g><g><use xlink:href="#b3e543LBpH" opacity="1" fill="#b8645a" fill-opacity="1"></use><g><use xlink:href="#b3e543LBpH" opacity="1" fill-opacity="0" stroke="#000000" stroke-width="1" stroke-opacity="0"></use></g></g><g><use xlink:href="#g772ggft3" opacity="1" fill="#b0d69e" fill-opacity="1"></use><g><use xlink:href="#g772ggft3" opacity="1" fill-opacity="0" stroke="#000000" stroke-width="1" stroke-opacity="0"></use></g></g><g><use xlink:href="#b1nX4KpBCV" opacity="1" fill="#25321f" fill-opacity="0.27"></use><g><use xlink:href="#b1nX4KpBCV" opacity="1" fill-opacity="0" stroke="#000000" stroke-width="1" stroke-opacity="0"></use></g></g><g><use xlink:href="#aGdAkDhSB" opacity="1" fill="#ffa99c" fill-opacity="1"></use><g><use xlink:href="#aGdAkDhSB" opacity="1" fill-opacity="0" stroke="#000000" stroke-width="1" stroke-opacity="0"></use></g></g><g><use xlink:href="#h8t9hGPYb" opacity="1" fill="#cbcbcb" fill-opacity="1"></use></g><g><use xlink:href="#a4nZfNA4n" opacity="1" fill="#cbcbcb" fill-opacity="1"></use></g><g><use xlink:href="#b1b4RPCnla" opacity="1" fill="#9d9999" fill-opacity="1"></use></g><g><use xlink:href="#b2Mvzb6Z3T" opacity="1" fill="#ffa99c" fill-opacity="1"></use></g><g><use xlink:href="#fI7Vep9l" opacity="1" fill="#ffa99c" fill-opacity="1"></use></g><g><use xlink:href="#goU268QNk" opacity="1" fill="#ffa99c" fill-opacity="1"></use></g><g><use xlink:href="#apl6wTpOJ" opacity="1" fill="url(#gradientalZRuCgBL)"></use></g><g><use xlink:href="#g5SWb29YPJ" opacity="1" fill="#7bd6f7" fill-opacity="1"></use></g><g><use xlink:href="#c4IFuPDoSl" opacity="1" fill="#323232" fill-opacity="1"></use></g><g><use xlink:href="#af1zj1O5J" opacity="1" fill="#323232" fill-opacity="1"></use></g><g><use xlink:href="#b5yrCpInF" opacity="1" fill="#323232" fill-opacity="1"></use></g><g><use xlink:href="#ejuwLP3IW" opacity="1" fill="#323232" fill-opacity="1"></use></g><g><use xlink:href="#b1UtZXo0Az" opacity="1" fill="#171717" fill-opacity="0.28"></use></g><g><use xlink:href="#cb108UfeU" opacity="1" fill="#323232" fill-opacity="1"></use></g><g><use xlink:href="#j28HidKUnJ" opacity="1" fill="#323232" fill-opacity="1"></use></g><g><use xlink:href="#alnMiIkZZ" opacity="1" fill="#323232" fill-opacity="1"></use></g></g></g></svg>