<?xml version="1.0" encoding="UTF-8" standalone="no"?>
<!DOCTYPE svg PUBLIC "-//W3C//DTD SVG 1.1//EN" "http://www.w3.org/Graphics/SVG/1.1/DTD/svg11.dtd">
<svg version="1.1" xmlns="http://www.w3.org/2000/svg" xmlns:xlink="http://www.w3.org/1999/xlink" preserveAspectRatio="xMidYMid meet" viewBox="0 0 640 640" width="640" height="640"><defs><path d="M320 559.34C187.9 559.34 80.66 452.1 80.66 320C80.66 187.9 187.9 80.66 320 80.66C452.1 80.66 559.34 187.9 559.34 320C559.34 452.1 452.1 559.34 320 559.34Z" id="g4JmgVJxb"></path><path d="M336.53 118.97L344.66 119.8L352.7 120.95L360.63 122.4L368.45 124.17L376.15 126.23L383.72 128.59L391.17 131.24L398.48 134.16L405.64 137.36L412.66 140.83L419.52 144.56L426.21 148.54L432.74 152.77L439.09 157.24L445.25 161.95L451.23 166.88L457.01 172.04L462.59 177.41L467.96 182.99L473.12 188.77L478.05 194.75L482.76 200.91L487.23 207.26L491.46 213.79L495.44 220.48L499.17 227.34L502.64 234.36L505.84 241.52L508.76 248.83L511.41 256.28L513.77 263.85L515.83 271.55L517.6 279.37L519.05 287.3L520.2 295.34L521.03 303.47L521.53 311.69L521.7 320L521.53 328.31L521.03 336.53L520.2 344.66L519.05 352.7L517.6 360.63L515.83 368.45L513.77 376.15L511.41 383.72L508.76 391.17L505.84 398.48L502.64 405.64L499.17 412.66L495.44 419.52L491.46 426.21L487.23 432.74L482.76 439.09L478.05 445.25L473.12 451.23L467.96 457.01L462.59 462.59L457.01 467.96L451.23 473.12L445.25 478.05L439.09 482.76L432.74 487.23L426.21 491.46L419.52 495.44L412.66 499.17L405.64 502.64L398.48 505.84L391.17 508.76L383.72 511.41L376.15 513.77L368.45 515.83L360.63 517.6L352.7 519.05L344.66 520.2L336.53 521.03L328.31 521.53L320 521.7L311.69 521.53L303.47 521.03L295.34 520.2L287.3 519.05L279.37 517.6L271.55 515.83L263.85 513.77L256.28 511.41L248.83 508.76L241.52 505.84L234.36 502.64L227.34 499.17L220.48 495.44L213.79 491.46L207.26 487.23L200.91 482.76L194.75 478.05L188.77 473.12L182.99 467.96L177.41 462.59L172.04 457.01L166.88 451.23L161.95 445.25L157.24 439.09L152.77 432.74L148.54 426.21L144.56 419.52L140.83 412.66L137.36 405.64L134.16 398.48L131.24 391.17L128.59 383.72L126.23 376.15L124.17 368.45L122.4 360.63L120.95 352.7L119.8 344.66L118.97 336.53L118.47 328.31L118.3 320L118.47 311.69L118.97 303.47L119.8 295.34L120.95 287.3L122.4 279.37L124.17 271.55L126.23 263.85L128.59 256.28L131.24 248.83L134.16 241.52L137.36 234.36L140.83 227.34L144.56 220.48L148.54 213.79L152.77 207.26L157.24 200.91L161.95 194.75L166.88 188.77L172.04 182.99L177.41 177.41L182.99 172.04L188.77 166.88L194.75 161.95L200.91 157.24L207.26 152.77L213.79 148.54L220.48 144.56L227.34 140.83L234.36 137.36L241.52 134.16L248.83 131.24L256.28 128.59L263.85 126.23L271.55 124.17L279.37 122.4L287.3 120.95L295.34 119.8L303.47 118.97L311.69 118.47L320 118.3L328.31 118.47L336.53 118.97ZM305.1 138.8L297.77 139.54L290.53 140.58L283.38 141.89L276.33 143.48L269.39 145.34L262.56 147.47L255.85 149.86L249.26 152.49L242.8 155.38L236.48 158.5L230.3 161.86L224.26 165.45L218.38 169.26L212.66 173.29L207.1 177.53L201.71 181.98L196.5 186.63L191.47 191.47L186.63 196.5L181.98 201.71L177.53 207.1L173.29 212.66L169.26 218.38L165.45 224.26L161.86 230.3L158.5 236.48L155.38 242.8L152.49 249.26L149.86 255.85L147.47 262.56L145.34 269.39L143.48 276.33L141.89 283.38L140.58 290.53L139.54 297.77L138.8 305.1L138.35 312.51L138.2 320L138.35 327.49L138.8 334.9L139.54 342.23L140.58 349.47L141.89 356.62L143.48 363.67L145.34 370.61L147.47 377.44L149.86 384.15L152.49 390.74L155.38 397.2L158.5 403.52L161.86 409.7L165.45 415.74L169.26 421.62L173.29 427.34L177.53 432.9L181.98 438.29L186.63 443.5L191.47 448.53L196.5 453.37L201.71 458.02L207.1 462.47L212.66 466.71L218.38 470.74L224.26 474.55L230.3 478.14L236.48 481.5L242.8 484.62L249.26 487.51L255.85 490.14L262.56 492.53L269.39 494.66L276.33 496.52L283.38 498.11L290.53 499.42L297.77 500.46L305.1 501.2L312.51 501.65L320 501.8L327.49 501.65L334.9 501.2L342.23 500.46L349.47 499.42L356.62 498.11L363.67 496.52L370.61 494.66L377.44 492.53L384.15 490.14L390.74 487.51L397.2 484.62L403.52 481.5L409.7 478.14L415.74 474.55L421.62 470.74L427.34 466.71L432.9 462.47L438.29 458.02L443.5 453.37L448.53 448.53L453.37 443.5L458.02 438.29L462.47 432.9L466.71 427.34L470.74 421.62L474.55 415.74L478.14 409.7L481.5 403.52L484.62 397.2L487.51 390.74L490.14 384.15L492.53 377.44L494.66 370.61L496.52 363.67L498.11 356.62L499.42 349.47L500.46 342.23L501.2 334.9L501.65 327.49L501.8 320L501.65 312.51L501.2 305.1L500.46 297.77L499.42 290.53L498.11 283.38L496.52 276.33L494.66 269.39L492.53 262.56L490.14 255.85L487.51 249.26L484.62 242.8L481.5 236.48L478.14 230.3L474.55 224.26L470.74 218.38L466.71 212.66L462.47 207.1L458.02 201.71L453.37 196.5L448.53 191.47L443.5 186.63L438.29 181.98L432.9 177.53L427.34 173.29L421.62 169.26L415.74 165.45L409.7 161.86L403.52 158.5L397.2 155.38L390.74 152.49L384.15 149.86L377.44 147.47L370.61 145.34L363.67 143.48L356.62 141.89L349.47 140.58L342.23 139.54L334.9 138.8L327.49 138.35L320 138.2L312.51 138.35L305.1 138.8Z" id="dwaMLFKqe"></path><path d="M320 439.47C254.06 439.47 200.53 385.94 200.53 320C200.53 254.06 254.06 200.53 320 200.53C385.94 200.53 439.47 254.06 439.47 320C439.47 385.94 385.94 439.47 320 439.47Z" id="a8FGypg3M"></path><path d="M320 407.11C271.92 407.11 232.89 368.08 232.89 320C232.89 271.92 271.92 232.89 320 232.89C368.08 232.89 407.11 271.92 407.11 320C407.11 368.08 368.08 407.11 320 407.11Z" id="h11xJaMBLa"></path><path d="M320 381.42C286.1 381.42 258.58 353.9 258.58 320C258.58 286.1 286.1 258.58 320 258.58C353.9 258.58 381.42 286.1 381.42 320C381.42 353.9 353.9 381.42 320 381.42Z" id="g3w8qqgbZ"></path><path d="M468.63 507.56L461.32 513.14L453.78 518.44L446.04 523.46L438.09 528.19L429.95 532.61L421.63 536.73L413.13 540.52L404.45 543.99L395.62 547.13L386.63 549.93L377.49 552.38L368.21 554.48L358.8 556.21L349.27 557.57L339.62 558.55L329.86 559.14L320 559.34L310.14 559.14L300.38 558.55L290.73 557.57L281.2 556.21L271.79 554.48L262.51 552.38L253.37 549.93L244.38 547.13L235.55 543.99L226.87 540.52L218.37 536.73L210.05 532.61L201.91 528.19L193.96 523.46L186.22 518.44L178.68 513.14L171.37 507.56L164.27 501.7L157.41 495.58L150.79 489.21L144.42 482.59L138.3 475.73L132.45 468.63L126.86 461.32L121.56 453.78L116.54 446.04L111.81 438.09L107.39 429.95L103.27 421.63L99.48 413.13L96.01 404.45L92.87 395.62L90.07 386.63L87.62 377.49L85.52 368.21L83.79 358.8L82.43 349.27L81.45 339.62L80.86 329.86L80.66 320L80.86 310.14L81.45 300.38L82.43 290.73L83.79 281.2L85.52 271.79L87.62 262.51L90.07 253.37L92.87 244.38L96.01 235.55L99.48 226.87L103.27 218.37L107.39 210.05L111.81 201.91L116.54 193.96L121.56 186.22L126.86 178.68L132.45 171.37L138.3 164.27L144.42 157.41L149.24 152.41L486.59 491.74L482.59 495.58L482.59 495.58L475.73 501.7L468.63 507.56Z" id="d1nx1Ychgk"></path><path d="M320 347.26C304.95 347.26 292.74 335.05 292.74 320C292.74 304.95 304.95 292.74 320 292.74C335.05 292.74 347.26 304.95 347.26 320C347.26 335.05 335.05 347.26 320 347.26Z" id="d6PRgASYoW"></path></defs><g><g><g><use xlink:href="#g4JmgVJxb" opacity="1" fill="#263238" fill-opacity="1"></use><g><use xlink:href="#g4JmgVJxb" opacity="1" fill-opacity="0" stroke="#000000" stroke-width="1" stroke-opacity="0"></use></g></g><g><use xlink:href="#dwaMLFKqe" opacity="1" fill="#455a64" fill-opacity="1"></use><g><use xlink:href="#dwaMLFKqe" opacity="1" fill-opacity="0" stroke="#000000" stroke-width="1" stroke-opacity="0"></use></g></g><g><use xlink:href="#a8FGypg3M" opacity="1" fill="#455a64" fill-opacity="1"></use><g><use xlink:href="#a8FGypg3M" opacity="1" fill-opacity="0" stroke="#000000" stroke-width="1" stroke-opacity="0"></use></g></g><g><use xlink:href="#h11xJaMBLa" opacity="1" fill="#ff8f00" fill-opacity="1"></use><g><use xlink:href="#h11xJaMBLa" opacity="1" fill-opacity="0" stroke="#000000" stroke-width="1" stroke-opacity="0"></use></g></g><g><use xlink:href="#g3w8qqgbZ" opacity="1" fill="#e65100" fill-opacity="1"></use><g><use xlink:href="#g3w8qqgbZ" opacity="1" fill-opacity="0" stroke="#000000" stroke-width="1" stroke-opacity="0"></use></g></g><g><use xlink:href="#d1nx1Ychgk" opacity="1" fill="#000000" fill-opacity="0.13"></use><g><use xlink:href="#d1nx1Ychgk" opacity="1" fill-opacity="0" stroke="#000000" stroke-width="1" stroke-opacity="0"></use></g></g><g><use xlink:href="#d6PRgASYoW" opacity="1" fill="#ffd740" fill-opacity="1"></use><g><use xlink:href="#d6PRgASYoW" opacity="1" fill-opacity="0" stroke="#000000" stroke-width="1" stroke-opacity="0"></use></g></g></g></g></svg>